%TF.GenerationSoftware,KiCad,Pcbnew,10.0.4*%
%TF.CreationDate,2026-07-18T00:47:56+05:30*%
%TF.ProjectId,redcat51ii-flat-panel-revc-routed,72656463-6174-4353-9169-692d666c6174,rev?*%
%TF.SameCoordinates,Original*%
%TF.FileFunction,Paste,Top*%
%TF.FilePolarity,Positive*%
%FSLAX46Y46*%
G04 Gerber Fmt 4.6, Leading zero omitted, Abs format (unit mm)*
G04 Created by KiCad (PCBNEW 10.0.4) date 2026-07-18 00:47:56*
%MOMM*%
%LPD*%
G01*
G04 APERTURE LIST*
G04 Aperture macros list*
%AMRoundRect*
0 Rectangle with rounded corners*
0 $1 Rounding radius*
0 $2 $3 $4 $5 $6 $7 $8 $9 X,Y pos of 4 corners*
0 Add a 4 corners polygon primitive as box body*
4,1,4,$2,$3,$4,$5,$6,$7,$8,$9,$2,$3,0*
0 Add four circle primitives for the rounded corners*
1,1,$1+$1,$2,$3*
1,1,$1+$1,$4,$5*
1,1,$1+$1,$6,$7*
1,1,$1+$1,$8,$9*
0 Add four rect primitives between the rounded corners*
20,1,$1+$1,$2,$3,$4,$5,0*
20,1,$1+$1,$4,$5,$6,$7,0*
20,1,$1+$1,$6,$7,$8,$9,0*
20,1,$1+$1,$8,$9,$2,$3,0*%
G04 Aperture macros list end*
%ADD10RoundRect,0.218750X-0.218750X-0.256250X0.218750X-0.256250X0.218750X0.256250X-0.218750X0.256250X0*%
%ADD11RoundRect,0.200000X-0.200000X-0.275000X0.200000X-0.275000X0.200000X0.275000X-0.200000X0.275000X0*%
%ADD12RoundRect,0.250000X-0.250000X-0.475000X0.250000X-0.475000X0.250000X0.475000X-0.250000X0.475000X0*%
%ADD13RoundRect,0.225000X-0.225000X-0.250000X0.225000X-0.250000X0.225000X0.250000X-0.225000X0.250000X0*%
%ADD14RoundRect,0.225000X-0.225000X-0.375000X0.225000X-0.375000X0.225000X0.375000X-0.225000X0.375000X0*%
%ADD15RoundRect,0.250000X0.900000X-1.000000X0.900000X1.000000X-0.900000X1.000000X-0.900000X-1.000000X0*%
%ADD16RoundRect,0.250000X-0.800000X-0.450000X0.800000X-0.450000X0.800000X0.450000X-0.800000X0.450000X0*%
%ADD17RoundRect,0.150000X-0.587500X-0.150000X0.587500X-0.150000X0.587500X0.150000X-0.587500X0.150000X0*%
%ADD18RoundRect,0.150000X-0.512500X-0.150000X0.512500X-0.150000X0.512500X0.150000X-0.512500X0.150000X0*%
%ADD19RoundRect,0.150000X-0.725000X-0.150000X0.725000X-0.150000X0.725000X0.150000X-0.725000X0.150000X0*%
%ADD20R,1.500000X2.400000*%
%ADD21RoundRect,0.250000X-0.312500X-1.450000X0.312500X-1.450000X0.312500X1.450000X-0.312500X1.450000X0*%
%ADD22R,0.900000X0.900000*%
%ADD23R,0.900000X1.500000*%
%ADD24R,1.500000X0.900000*%
%ADD25RoundRect,0.150000X0.150000X0.425000X-0.150000X0.425000X-0.150000X-0.425000X0.150000X-0.425000X0*%
%ADD26RoundRect,0.075000X0.075000X0.500000X-0.075000X0.500000X-0.075000X-0.500000X0.075000X-0.500000X0*%
%ADD27O,1.000000X2.100000*%
%ADD28O,1.000000X1.800000*%
%ADD29RoundRect,0.062500X0.117500X0.062500X-0.117500X0.062500X-0.117500X-0.062500X0.117500X-0.062500X0*%
%ADD30RoundRect,0.200000X0.275000X-0.200000X0.275000X0.200000X-0.275000X0.200000X-0.275000X-0.200000X0*%
%ADD31RoundRect,0.249999X-0.750001X-0.640001X0.750001X-0.640001X0.750001X0.640001X-0.750001X0.640001X0*%
%ADD32RoundRect,0.250000X1.450000X-0.312500X1.450000X0.312500X-1.450000X0.312500X-1.450000X-0.312500X0*%
%ADD33RoundRect,0.150000X-0.150000X0.512500X-0.150000X-0.512500X0.150000X-0.512500X0.150000X0.512500X0*%
%ADD34RoundRect,0.250000X-1.000000X-0.650000X1.000000X-0.650000X1.000000X0.650000X-1.000000X0.650000X0*%
%ADD35RoundRect,0.250000X-1.950000X-1.000000X1.950000X-1.000000X1.950000X1.000000X-1.950000X1.000000X0*%
G04 APERTURE END LIST*
D10*
%TO.C,LED2*%
X102212500Y-30000000D03*
X103787500Y-30000000D03*
%TD*%
D11*
%TO.C,R19*%
X34175000Y-16000000D03*
X35825000Y-16000000D03*
%TD*%
D12*
%TO.C,C5*%
X61050000Y-30000000D03*
X62950000Y-30000000D03*
%TD*%
D13*
%TO.C,C13*%
X34225000Y-35000000D03*
X35775000Y-35000000D03*
%TD*%
D14*
%TO.C,D2*%
X57350000Y-9000000D03*
X60650000Y-9000000D03*
%TD*%
D15*
%TO.C,D1*%
X105000000Y-23150000D03*
X105000000Y-18850000D03*
%TD*%
D11*
%TO.C,R9*%
X77175000Y-10000000D03*
X78825000Y-10000000D03*
%TD*%
D16*
%TO.C,SW3*%
X49450000Y-52750000D03*
X58550000Y-52750000D03*
X49450000Y-57250000D03*
X58550000Y-57250000D03*
%TD*%
D11*
%TO.C,R21*%
X81175000Y-31000000D03*
X82825000Y-31000000D03*
%TD*%
D16*
%TO.C,SW1*%
X30450000Y-59750000D03*
X39550000Y-59750000D03*
X30450000Y-64250000D03*
X39550000Y-64250000D03*
%TD*%
D17*
%TO.C,Q4*%
X85062500Y-37050000D03*
X85062500Y-38950000D03*
X86937500Y-38000000D03*
%TD*%
D12*
%TO.C,C4*%
X79050000Y-14000000D03*
X80950000Y-14000000D03*
%TD*%
D11*
%TO.C,R25*%
X101175000Y-59000000D03*
X102825000Y-59000000D03*
%TD*%
%TO.C,R15*%
X87175000Y-62000000D03*
X88825000Y-62000000D03*
%TD*%
D18*
%TO.C,U4*%
X48862500Y-19050000D03*
X48862500Y-20000000D03*
X48862500Y-20950000D03*
X51137500Y-20950000D03*
X51137500Y-20000000D03*
X51137500Y-19050000D03*
%TD*%
D11*
%TO.C,R18*%
X81175000Y-20000000D03*
X82825000Y-20000000D03*
%TD*%
D13*
%TO.C,C1*%
X34225000Y-49000000D03*
X35775000Y-49000000D03*
%TD*%
D11*
%TO.C,R8*%
X77175000Y-27000000D03*
X78825000Y-27000000D03*
%TD*%
D19*
%TO.C,Q3*%
X92425000Y-37095000D03*
X92425000Y-38365000D03*
X92425000Y-39635000D03*
X92425000Y-40905000D03*
X97575000Y-40905000D03*
X97575000Y-39635000D03*
X97575000Y-38365000D03*
X97575000Y-37095000D03*
%TD*%
D11*
%TO.C,R11*%
X79175000Y-47000000D03*
X80825000Y-47000000D03*
%TD*%
D20*
%TO.C,L2*%
X39250000Y-22000000D03*
X44750000Y-22000000D03*
%TD*%
D21*
%TO.C,F2*%
X112862500Y-24000000D03*
X117137500Y-24000000D03*
%TD*%
D11*
%TO.C,R12*%
X85175000Y-47000000D03*
X86825000Y-47000000D03*
%TD*%
D12*
%TO.C,C6*%
X67050000Y-30000000D03*
X68950000Y-30000000D03*
%TD*%
D22*
%TO.C,U1*%
X20060000Y-33900000D03*
X21460000Y-33900000D03*
X22860000Y-33900000D03*
X20060000Y-32500000D03*
X21460000Y-32500000D03*
X22860000Y-32500000D03*
X20060000Y-31100000D03*
X21460000Y-31100000D03*
X22860000Y-31100000D03*
D23*
X13740000Y-39750000D03*
X15010000Y-39750000D03*
X16280000Y-39750000D03*
X17550000Y-39750000D03*
X18820000Y-39750000D03*
X20090000Y-39750000D03*
X21360000Y-39750000D03*
X22630000Y-39750000D03*
X23900000Y-39750000D03*
X25170000Y-39750000D03*
X26440000Y-39750000D03*
X27710000Y-39750000D03*
X28980000Y-39750000D03*
X30250000Y-39750000D03*
D24*
X31500000Y-37985000D03*
X31500000Y-36715000D03*
X31500000Y-35445000D03*
X31500000Y-34175000D03*
X31500000Y-32905000D03*
X31500000Y-31635000D03*
X31500000Y-30365000D03*
X31500000Y-29095000D03*
X31500000Y-27825000D03*
X31500000Y-26555000D03*
X31500000Y-25285000D03*
X31500000Y-24015000D03*
D23*
X30250000Y-22250000D03*
X28980000Y-22250000D03*
X27710000Y-22250000D03*
X26440000Y-22250000D03*
X25170000Y-22250000D03*
X23900000Y-22250000D03*
X22630000Y-22250000D03*
X21360000Y-22250000D03*
X20090000Y-22250000D03*
X18820000Y-22250000D03*
X17550000Y-22250000D03*
X16280000Y-22250000D03*
X15010000Y-22250000D03*
X13740000Y-22250000D03*
%TD*%
D11*
%TO.C,R16*%
X35175000Y-42000000D03*
X36825000Y-42000000D03*
%TD*%
D25*
%TO.C,J8*%
X19200000Y-72680000D03*
X18400000Y-72680000D03*
D26*
X17250000Y-72680000D03*
X16250000Y-72680000D03*
X15750000Y-72680000D03*
X14750000Y-72680000D03*
D25*
X13600000Y-72680000D03*
X12800000Y-72680000D03*
X12800000Y-72680000D03*
X13600000Y-72680000D03*
D26*
X14250000Y-72680000D03*
X15250000Y-72680000D03*
X16750000Y-72680000D03*
X17750000Y-72680000D03*
D25*
X18400000Y-72680000D03*
X19200000Y-72680000D03*
D27*
X20320000Y-72105000D03*
D28*
X20320000Y-67925000D03*
D27*
X11680000Y-72105000D03*
D28*
X11680000Y-67925000D03*
%TD*%
D11*
%TO.C,R22*%
X83175000Y-33000000D03*
X84825000Y-33000000D03*
%TD*%
%TO.C,R5*%
X29175000Y-49000000D03*
X30825000Y-49000000D03*
%TD*%
%TO.C,R24*%
X101175000Y-52000000D03*
X102825000Y-52000000D03*
%TD*%
D13*
%TO.C,C3*%
X69225000Y-17000000D03*
X70775000Y-17000000D03*
%TD*%
D16*
%TO.C,SW2*%
X37450000Y-52750000D03*
X46550000Y-52750000D03*
X37450000Y-57250000D03*
X46550000Y-57250000D03*
%TD*%
D29*
%TO.C,D4*%
X106580000Y-61000000D03*
X107420000Y-61000000D03*
%TD*%
%TO.C,D5*%
X94580000Y-63000000D03*
X95420000Y-63000000D03*
%TD*%
D12*
%TO.C,C9*%
X53050000Y-27000000D03*
X54950000Y-27000000D03*
%TD*%
D30*
%TO.C,R4*%
X18000000Y-55825000D03*
X18000000Y-54175000D03*
%TD*%
D11*
%TO.C,R7*%
X71175000Y-27000000D03*
X72825000Y-27000000D03*
%TD*%
D17*
%TO.C,Q2*%
X91062500Y-46050000D03*
X91062500Y-47950000D03*
X92937500Y-47000000D03*
%TD*%
D13*
%TO.C,C15*%
X95225000Y-53000000D03*
X96775000Y-53000000D03*
%TD*%
D11*
%TO.C,R20*%
X34175000Y-21000000D03*
X35825000Y-21000000D03*
%TD*%
D13*
%TO.C,C17*%
X87225000Y-65000000D03*
X88775000Y-65000000D03*
%TD*%
%TO.C,C14*%
X34225000Y-25000000D03*
X35775000Y-25000000D03*
%TD*%
D31*
%TO.C,U5*%
X64190000Y-7730000D03*
X64190000Y-10270000D03*
X71810000Y-10270000D03*
X71810000Y-7730000D03*
%TD*%
D32*
%TO.C,F3*%
X104000000Y-43137500D03*
X104000000Y-38862500D03*
%TD*%
D11*
%TO.C,R2*%
X24175000Y-65000000D03*
X25825000Y-65000000D03*
%TD*%
%TO.C,R26*%
X93175000Y-65000000D03*
X94825000Y-65000000D03*
%TD*%
D33*
%TO.C,U2*%
X22950000Y-46862500D03*
X22000000Y-46862500D03*
X21050000Y-46862500D03*
X21050000Y-49137500D03*
X22000000Y-49137500D03*
X22950000Y-49137500D03*
%TD*%
D12*
%TO.C,C11*%
X49050000Y-30000000D03*
X50950000Y-30000000D03*
%TD*%
D34*
%TO.C,D6*%
X55000000Y-18000000D03*
X59000000Y-18000000D03*
%TD*%
D11*
%TO.C,R10*%
X62175000Y-14000000D03*
X63825000Y-14000000D03*
%TD*%
D10*
%TO.C,LED1*%
X41212500Y-42000000D03*
X42787500Y-42000000D03*
%TD*%
D12*
%TO.C,C10*%
X43050000Y-30000000D03*
X44950000Y-30000000D03*
%TD*%
D18*
%TO.C,U3*%
X73862500Y-19050000D03*
X73862500Y-20000000D03*
X73862500Y-20950000D03*
X76137500Y-20950000D03*
X76137500Y-20000000D03*
X76137500Y-19050000D03*
%TD*%
D13*
%TO.C,C8*%
X44225000Y-17000000D03*
X45775000Y-17000000D03*
%TD*%
D35*
%TO.C,C7*%
X72300000Y-36000000D03*
X79700000Y-36000000D03*
%TD*%
D11*
%TO.C,R6*%
X41175000Y-49000000D03*
X42825000Y-49000000D03*
%TD*%
D34*
%TO.C,D7*%
X55000000Y-23000000D03*
X59000000Y-23000000D03*
%TD*%
D12*
%TO.C,C12*%
X34050000Y-30000000D03*
X35950000Y-30000000D03*
%TD*%
D35*
%TO.C,C2*%
X65800000Y-52000000D03*
X74200000Y-52000000D03*
%TD*%
D19*
%TO.C,Q1*%
X87425000Y-13095000D03*
X87425000Y-14365000D03*
X87425000Y-15635000D03*
X87425000Y-16905000D03*
X92575000Y-16905000D03*
X92575000Y-15635000D03*
X92575000Y-14365000D03*
X92575000Y-13095000D03*
%TD*%
D29*
%TO.C,D3*%
X106580000Y-51000000D03*
X107420000Y-51000000D03*
%TD*%
D11*
%TO.C,R13*%
X95175000Y-50000000D03*
X96825000Y-50000000D03*
%TD*%
D21*
%TO.C,F1*%
X95862500Y-14000000D03*
X100137500Y-14000000D03*
%TD*%
D11*
%TO.C,R1*%
X8175000Y-65000000D03*
X9825000Y-65000000D03*
%TD*%
D20*
%TO.C,L1*%
X63250000Y-22000000D03*
X68750000Y-22000000D03*
%TD*%
D11*
%TO.C,R17*%
X95175000Y-30000000D03*
X96825000Y-30000000D03*
%TD*%
%TO.C,R14*%
X95175000Y-57000000D03*
X96825000Y-57000000D03*
%TD*%
D13*
%TO.C,C16*%
X95225000Y-60000000D03*
X96775000Y-60000000D03*
%TD*%
D11*
%TO.C,R23*%
X87175000Y-31000000D03*
X88825000Y-31000000D03*
%TD*%
D30*
%TO.C,R3*%
X25000000Y-55825000D03*
X25000000Y-54175000D03*
%TD*%
M02*
