%TF.GenerationSoftware,KiCad,Pcbnew,10.0.4*%
%TF.CreationDate,2026-07-18T00:47:56+05:30*%
%TF.ProjectId,redcat51ii-flat-panel-revc-routed,72656463-6174-4353-9169-692d666c6174,rev?*%
%TF.SameCoordinates,Original*%
%TF.FileFunction,Legend,Top*%
%TF.FilePolarity,Positive*%
%FSLAX46Y46*%
G04 Gerber Fmt 4.6, Leading zero omitted, Abs format (unit mm)*
G04 Created by KiCad (PCBNEW 10.0.4) date 2026-07-18 00:47:56*
%MOMM*%
%LPD*%
G01*
G04 APERTURE LIST*
G04 Aperture macros list*
%AMRoundRect*
0 Rectangle with rounded corners*
0 $1 Rounding radius*
0 $2 $3 $4 $5 $6 $7 $8 $9 X,Y pos of 4 corners*
0 Add a 4 corners polygon primitive as box body*
4,1,4,$2,$3,$4,$5,$6,$7,$8,$9,$2,$3,0*
0 Add four circle primitives for the rounded corners*
1,1,$1+$1,$2,$3*
1,1,$1+$1,$4,$5*
1,1,$1+$1,$6,$7*
1,1,$1+$1,$8,$9*
0 Add four rect primitives between the rounded corners*
20,1,$1+$1,$2,$3,$4,$5,0*
20,1,$1+$1,$4,$5,$6,$7,0*
20,1,$1+$1,$6,$7,$8,$9,0*
20,1,$1+$1,$8,$9,$2,$3,0*%
G04 Aperture macros list end*
%ADD10C,0.150000*%
%ADD11C,0.120000*%
%ADD12RoundRect,0.218750X-0.218750X-0.256250X0.218750X-0.256250X0.218750X0.256250X-0.218750X0.256250X0*%
%ADD13C,1.000000*%
%ADD14RoundRect,0.200000X-0.200000X-0.275000X0.200000X-0.275000X0.200000X0.275000X-0.200000X0.275000X0*%
%ADD15RoundRect,0.250000X-0.250000X-0.475000X0.250000X-0.475000X0.250000X0.475000X-0.250000X0.475000X0*%
%ADD16RoundRect,0.225000X-0.225000X-0.250000X0.225000X-0.250000X0.225000X0.250000X-0.225000X0.250000X0*%
%ADD17RoundRect,0.250000X0.725000X-0.600000X0.725000X0.600000X-0.725000X0.600000X-0.725000X-0.600000X0*%
%ADD18O,1.950000X1.700000*%
%ADD19RoundRect,0.225000X-0.225000X-0.375000X0.225000X-0.375000X0.225000X0.375000X-0.225000X0.375000X0*%
%ADD20RoundRect,0.250000X0.900000X-1.000000X0.900000X1.000000X-0.900000X1.000000X-0.900000X-1.000000X0*%
%ADD21C,3.200000*%
%ADD22RoundRect,0.250000X0.600000X0.750000X-0.600000X0.750000X-0.600000X-0.750000X0.600000X-0.750000X0*%
%ADD23O,1.700000X2.000000*%
%ADD24RoundRect,0.250000X-0.800000X-0.450000X0.800000X-0.450000X0.800000X0.450000X-0.800000X0.450000X0*%
%ADD25RoundRect,0.150000X-0.587500X-0.150000X0.587500X-0.150000X0.587500X0.150000X-0.587500X0.150000X0*%
%ADD26RoundRect,0.250000X0.750000X-0.600000X0.750000X0.600000X-0.750000X0.600000X-0.750000X-0.600000X0*%
%ADD27O,2.000000X1.700000*%
%ADD28RoundRect,0.150000X-0.512500X-0.150000X0.512500X-0.150000X0.512500X0.150000X-0.512500X0.150000X0*%
%ADD29RoundRect,0.150000X-0.725000X-0.150000X0.725000X-0.150000X0.725000X0.150000X-0.725000X0.150000X0*%
%ADD30R,1.500000X2.400000*%
%ADD31RoundRect,0.250000X-0.312500X-1.450000X0.312500X-1.450000X0.312500X1.450000X-0.312500X1.450000X0*%
%ADD32R,0.900000X1.500000*%
%ADD33R,1.500000X0.900000*%
%ADD34C,0.600000*%
%ADD35R,3.900000X3.900000*%
%ADD36R,2.600000X2.600000*%
%ADD37C,2.600000*%
%ADD38C,0.650000*%
%ADD39RoundRect,0.150000X0.150000X0.425000X-0.150000X0.425000X-0.150000X-0.425000X0.150000X-0.425000X0*%
%ADD40RoundRect,0.075000X0.075000X0.500000X-0.075000X0.500000X-0.075000X-0.500000X0.075000X-0.500000X0*%
%ADD41O,1.000000X2.100000*%
%ADD42O,1.000000X1.800000*%
%ADD43RoundRect,0.062500X0.117500X0.062500X-0.117500X0.062500X-0.117500X-0.062500X0.117500X-0.062500X0*%
%ADD44RoundRect,0.200000X0.275000X-0.200000X0.275000X0.200000X-0.275000X0.200000X-0.275000X-0.200000X0*%
%ADD45RoundRect,0.249999X-0.750001X-0.640001X0.750001X-0.640001X0.750001X0.640001X-0.750001X0.640001X0*%
%ADD46RoundRect,0.250000X1.450000X-0.312500X1.450000X0.312500X-1.450000X0.312500X-1.450000X-0.312500X0*%
%ADD47RoundRect,0.150000X-0.150000X0.512500X-0.150000X-0.512500X0.150000X-0.512500X0.150000X0.512500X0*%
%ADD48RoundRect,0.250000X-1.000000X-0.650000X1.000000X-0.650000X1.000000X0.650000X-1.000000X0.650000X0*%
%ADD49RoundRect,0.250000X-1.950000X-1.000000X1.950000X-1.000000X1.950000X1.000000X-1.950000X1.000000X0*%
%ADD50R,1.700000X1.700000*%
%ADD51C,1.700000*%
G04 APERTURE END LIST*
D10*
X106065477Y-54642902D02*
X106189286Y-54642902D01*
X106189286Y-54642902D02*
X106251191Y-54673854D01*
X106251191Y-54673854D02*
X106313096Y-54735759D01*
X106313096Y-54735759D02*
X106344048Y-54859569D01*
X106344048Y-54859569D02*
X106344048Y-55076235D01*
X106344048Y-55076235D02*
X106313096Y-55200045D01*
X106313096Y-55200045D02*
X106251191Y-55261950D01*
X106251191Y-55261950D02*
X106189286Y-55292902D01*
X106189286Y-55292902D02*
X106065477Y-55292902D01*
X106065477Y-55292902D02*
X106003572Y-55261950D01*
X106003572Y-55261950D02*
X105941667Y-55200045D01*
X105941667Y-55200045D02*
X105910715Y-55076235D01*
X105910715Y-55076235D02*
X105910715Y-54859569D01*
X105910715Y-54859569D02*
X105941667Y-54735759D01*
X105941667Y-54735759D02*
X106003572Y-54673854D01*
X106003572Y-54673854D02*
X106065477Y-54642902D01*
X106622619Y-55292902D02*
X106622619Y-54642902D01*
X106622619Y-54642902D02*
X106870238Y-54642902D01*
X106870238Y-54642902D02*
X106932143Y-54673854D01*
X106932143Y-54673854D02*
X106963096Y-54704807D01*
X106963096Y-54704807D02*
X106994048Y-54766711D01*
X106994048Y-54766711D02*
X106994048Y-54859569D01*
X106994048Y-54859569D02*
X106963096Y-54921473D01*
X106963096Y-54921473D02*
X106932143Y-54952426D01*
X106932143Y-54952426D02*
X106870238Y-54983378D01*
X106870238Y-54983378D02*
X106622619Y-54983378D01*
X107272619Y-54952426D02*
X107489286Y-54952426D01*
X107582143Y-55292902D02*
X107272619Y-55292902D01*
X107272619Y-55292902D02*
X107272619Y-54642902D01*
X107272619Y-54642902D02*
X107582143Y-54642902D01*
X107860714Y-55292902D02*
X107860714Y-54642902D01*
X107860714Y-54642902D02*
X108232143Y-55292902D01*
X108232143Y-55292902D02*
X108232143Y-54642902D01*
X109036904Y-55292902D02*
X109036904Y-54642902D01*
X109036904Y-54642902D02*
X109408333Y-55292902D01*
X109408333Y-55292902D02*
X109408333Y-54642902D01*
X110089285Y-55230997D02*
X110058333Y-55261950D01*
X110058333Y-55261950D02*
X109965475Y-55292902D01*
X109965475Y-55292902D02*
X109903571Y-55292902D01*
X109903571Y-55292902D02*
X109810714Y-55261950D01*
X109810714Y-55261950D02*
X109748809Y-55200045D01*
X109748809Y-55200045D02*
X109717856Y-55138140D01*
X109717856Y-55138140D02*
X109686904Y-55014330D01*
X109686904Y-55014330D02*
X109686904Y-54921473D01*
X109686904Y-54921473D02*
X109717856Y-54797664D01*
X109717856Y-54797664D02*
X109748809Y-54735759D01*
X109748809Y-54735759D02*
X109810714Y-54673854D01*
X109810714Y-54673854D02*
X109903571Y-54642902D01*
X109903571Y-54642902D02*
X109965475Y-54642902D01*
X109965475Y-54642902D02*
X110058333Y-54673854D01*
X110058333Y-54673854D02*
X110089285Y-54704807D01*
X105755953Y-63230997D02*
X105725001Y-63261950D01*
X105725001Y-63261950D02*
X105632143Y-63292902D01*
X105632143Y-63292902D02*
X105570239Y-63292902D01*
X105570239Y-63292902D02*
X105477382Y-63261950D01*
X105477382Y-63261950D02*
X105415477Y-63200045D01*
X105415477Y-63200045D02*
X105384524Y-63138140D01*
X105384524Y-63138140D02*
X105353572Y-63014330D01*
X105353572Y-63014330D02*
X105353572Y-62921473D01*
X105353572Y-62921473D02*
X105384524Y-62797664D01*
X105384524Y-62797664D02*
X105415477Y-62735759D01*
X105415477Y-62735759D02*
X105477382Y-62673854D01*
X105477382Y-62673854D02*
X105570239Y-62642902D01*
X105570239Y-62642902D02*
X105632143Y-62642902D01*
X105632143Y-62642902D02*
X105725001Y-62673854D01*
X105725001Y-62673854D02*
X105755953Y-62704807D01*
X106344048Y-63292902D02*
X106034524Y-63292902D01*
X106034524Y-63292902D02*
X106034524Y-62642902D01*
X106684524Y-62642902D02*
X106808333Y-62642902D01*
X106808333Y-62642902D02*
X106870238Y-62673854D01*
X106870238Y-62673854D02*
X106932143Y-62735759D01*
X106932143Y-62735759D02*
X106963095Y-62859569D01*
X106963095Y-62859569D02*
X106963095Y-63076235D01*
X106963095Y-63076235D02*
X106932143Y-63200045D01*
X106932143Y-63200045D02*
X106870238Y-63261950D01*
X106870238Y-63261950D02*
X106808333Y-63292902D01*
X106808333Y-63292902D02*
X106684524Y-63292902D01*
X106684524Y-63292902D02*
X106622619Y-63261950D01*
X106622619Y-63261950D02*
X106560714Y-63200045D01*
X106560714Y-63200045D02*
X106529762Y-63076235D01*
X106529762Y-63076235D02*
X106529762Y-62859569D01*
X106529762Y-62859569D02*
X106560714Y-62735759D01*
X106560714Y-62735759D02*
X106622619Y-62673854D01*
X106622619Y-62673854D02*
X106684524Y-62642902D01*
X107210714Y-63261950D02*
X107303571Y-63292902D01*
X107303571Y-63292902D02*
X107458333Y-63292902D01*
X107458333Y-63292902D02*
X107520238Y-63261950D01*
X107520238Y-63261950D02*
X107551190Y-63230997D01*
X107551190Y-63230997D02*
X107582143Y-63169092D01*
X107582143Y-63169092D02*
X107582143Y-63107188D01*
X107582143Y-63107188D02*
X107551190Y-63045283D01*
X107551190Y-63045283D02*
X107520238Y-63014330D01*
X107520238Y-63014330D02*
X107458333Y-62983378D01*
X107458333Y-62983378D02*
X107334524Y-62952426D01*
X107334524Y-62952426D02*
X107272619Y-62921473D01*
X107272619Y-62921473D02*
X107241666Y-62890521D01*
X107241666Y-62890521D02*
X107210714Y-62828616D01*
X107210714Y-62828616D02*
X107210714Y-62766711D01*
X107210714Y-62766711D02*
X107241666Y-62704807D01*
X107241666Y-62704807D02*
X107272619Y-62673854D01*
X107272619Y-62673854D02*
X107334524Y-62642902D01*
X107334524Y-62642902D02*
X107489285Y-62642902D01*
X107489285Y-62642902D02*
X107582143Y-62673854D01*
X107860714Y-62952426D02*
X108077381Y-62952426D01*
X108170238Y-63292902D02*
X107860714Y-63292902D01*
X107860714Y-63292902D02*
X107860714Y-62642902D01*
X107860714Y-62642902D02*
X108170238Y-62642902D01*
X108448809Y-63292902D02*
X108448809Y-62642902D01*
X108448809Y-62642902D02*
X108603571Y-62642902D01*
X108603571Y-62642902D02*
X108696428Y-62673854D01*
X108696428Y-62673854D02*
X108758333Y-62735759D01*
X108758333Y-62735759D02*
X108789286Y-62797664D01*
X108789286Y-62797664D02*
X108820238Y-62921473D01*
X108820238Y-62921473D02*
X108820238Y-63014330D01*
X108820238Y-63014330D02*
X108789286Y-63138140D01*
X108789286Y-63138140D02*
X108758333Y-63200045D01*
X108758333Y-63200045D02*
X108696428Y-63261950D01*
X108696428Y-63261950D02*
X108603571Y-63292902D01*
X108603571Y-63292902D02*
X108448809Y-63292902D01*
X109594047Y-63292902D02*
X109594047Y-62642902D01*
X109594047Y-62642902D02*
X109965476Y-63292902D01*
X109965476Y-63292902D02*
X109965476Y-62642902D01*
X110646428Y-63230997D02*
X110615476Y-63261950D01*
X110615476Y-63261950D02*
X110522618Y-63292902D01*
X110522618Y-63292902D02*
X110460714Y-63292902D01*
X110460714Y-63292902D02*
X110367857Y-63261950D01*
X110367857Y-63261950D02*
X110305952Y-63200045D01*
X110305952Y-63200045D02*
X110274999Y-63138140D01*
X110274999Y-63138140D02*
X110244047Y-63014330D01*
X110244047Y-63014330D02*
X110244047Y-62921473D01*
X110244047Y-62921473D02*
X110274999Y-62797664D01*
X110274999Y-62797664D02*
X110305952Y-62735759D01*
X110305952Y-62735759D02*
X110367857Y-62673854D01*
X110367857Y-62673854D02*
X110460714Y-62642902D01*
X110460714Y-62642902D02*
X110522618Y-62642902D01*
X110522618Y-62642902D02*
X110615476Y-62673854D01*
X110615476Y-62673854D02*
X110646428Y-62704807D01*
X40366667Y-67616033D02*
X40366667Y-68182700D01*
X40366667Y-68182700D02*
X40400001Y-68249366D01*
X40400001Y-68249366D02*
X40433334Y-68282700D01*
X40433334Y-68282700D02*
X40500001Y-68316033D01*
X40500001Y-68316033D02*
X40633334Y-68316033D01*
X40633334Y-68316033D02*
X40700001Y-68282700D01*
X40700001Y-68282700D02*
X40733334Y-68249366D01*
X40733334Y-68249366D02*
X40766667Y-68182700D01*
X40766667Y-68182700D02*
X40766667Y-67616033D01*
X41066667Y-68282700D02*
X41166667Y-68316033D01*
X41166667Y-68316033D02*
X41333334Y-68316033D01*
X41333334Y-68316033D02*
X41400000Y-68282700D01*
X41400000Y-68282700D02*
X41433334Y-68249366D01*
X41433334Y-68249366D02*
X41466667Y-68182700D01*
X41466667Y-68182700D02*
X41466667Y-68116033D01*
X41466667Y-68116033D02*
X41433334Y-68049366D01*
X41433334Y-68049366D02*
X41400000Y-68016033D01*
X41400000Y-68016033D02*
X41333334Y-67982700D01*
X41333334Y-67982700D02*
X41200000Y-67949366D01*
X41200000Y-67949366D02*
X41133334Y-67916033D01*
X41133334Y-67916033D02*
X41100000Y-67882700D01*
X41100000Y-67882700D02*
X41066667Y-67816033D01*
X41066667Y-67816033D02*
X41066667Y-67749366D01*
X41066667Y-67749366D02*
X41100000Y-67682700D01*
X41100000Y-67682700D02*
X41133334Y-67649366D01*
X41133334Y-67649366D02*
X41200000Y-67616033D01*
X41200000Y-67616033D02*
X41366667Y-67616033D01*
X41366667Y-67616033D02*
X41466667Y-67649366D01*
X42000001Y-67949366D02*
X42100001Y-67982700D01*
X42100001Y-67982700D02*
X42133334Y-68016033D01*
X42133334Y-68016033D02*
X42166667Y-68082700D01*
X42166667Y-68082700D02*
X42166667Y-68182700D01*
X42166667Y-68182700D02*
X42133334Y-68249366D01*
X42133334Y-68249366D02*
X42100001Y-68282700D01*
X42100001Y-68282700D02*
X42033334Y-68316033D01*
X42033334Y-68316033D02*
X41766667Y-68316033D01*
X41766667Y-68316033D02*
X41766667Y-67616033D01*
X41766667Y-67616033D02*
X42000001Y-67616033D01*
X42000001Y-67616033D02*
X42066667Y-67649366D01*
X42066667Y-67649366D02*
X42100001Y-67682700D01*
X42100001Y-67682700D02*
X42133334Y-67749366D01*
X42133334Y-67749366D02*
X42133334Y-67816033D01*
X42133334Y-67816033D02*
X42100001Y-67882700D01*
X42100001Y-67882700D02*
X42066667Y-67916033D01*
X42066667Y-67916033D02*
X42000001Y-67949366D01*
X42000001Y-67949366D02*
X41766667Y-67949366D01*
X43000000Y-68316033D02*
X43000000Y-67616033D01*
X43000000Y-67616033D02*
X43266667Y-67616033D01*
X43266667Y-67616033D02*
X43333334Y-67649366D01*
X43333334Y-67649366D02*
X43366667Y-67682700D01*
X43366667Y-67682700D02*
X43400000Y-67749366D01*
X43400000Y-67749366D02*
X43400000Y-67849366D01*
X43400000Y-67849366D02*
X43366667Y-67916033D01*
X43366667Y-67916033D02*
X43333334Y-67949366D01*
X43333334Y-67949366D02*
X43266667Y-67982700D01*
X43266667Y-67982700D02*
X43000000Y-67982700D01*
X43833334Y-67616033D02*
X43966667Y-67616033D01*
X43966667Y-67616033D02*
X44033334Y-67649366D01*
X44033334Y-67649366D02*
X44100000Y-67716033D01*
X44100000Y-67716033D02*
X44133334Y-67849366D01*
X44133334Y-67849366D02*
X44133334Y-68082700D01*
X44133334Y-68082700D02*
X44100000Y-68216033D01*
X44100000Y-68216033D02*
X44033334Y-68282700D01*
X44033334Y-68282700D02*
X43966667Y-68316033D01*
X43966667Y-68316033D02*
X43833334Y-68316033D01*
X43833334Y-68316033D02*
X43766667Y-68282700D01*
X43766667Y-68282700D02*
X43700000Y-68216033D01*
X43700000Y-68216033D02*
X43666667Y-68082700D01*
X43666667Y-68082700D02*
X43666667Y-67849366D01*
X43666667Y-67849366D02*
X43700000Y-67716033D01*
X43700000Y-67716033D02*
X43766667Y-67649366D01*
X43766667Y-67649366D02*
X43833334Y-67616033D01*
X44366667Y-67616033D02*
X44533333Y-68316033D01*
X44533333Y-68316033D02*
X44666667Y-67816033D01*
X44666667Y-67816033D02*
X44800000Y-68316033D01*
X44800000Y-68316033D02*
X44966667Y-67616033D01*
X45233333Y-67949366D02*
X45466667Y-67949366D01*
X45566667Y-68316033D02*
X45233333Y-68316033D01*
X45233333Y-68316033D02*
X45233333Y-67616033D01*
X45233333Y-67616033D02*
X45566667Y-67616033D01*
X46266666Y-68316033D02*
X46033333Y-67982700D01*
X45866666Y-68316033D02*
X45866666Y-67616033D01*
X45866666Y-67616033D02*
X46133333Y-67616033D01*
X46133333Y-67616033D02*
X46200000Y-67649366D01*
X46200000Y-67649366D02*
X46233333Y-67682700D01*
X46233333Y-67682700D02*
X46266666Y-67749366D01*
X46266666Y-67749366D02*
X46266666Y-67849366D01*
X46266666Y-67849366D02*
X46233333Y-67916033D01*
X46233333Y-67916033D02*
X46200000Y-67949366D01*
X46200000Y-67949366D02*
X46133333Y-67982700D01*
X46133333Y-67982700D02*
X45866666Y-67982700D01*
X46533333Y-68282700D02*
X46633333Y-68316033D01*
X46633333Y-68316033D02*
X46800000Y-68316033D01*
X46800000Y-68316033D02*
X46866666Y-68282700D01*
X46866666Y-68282700D02*
X46900000Y-68249366D01*
X46900000Y-68249366D02*
X46933333Y-68182700D01*
X46933333Y-68182700D02*
X46933333Y-68116033D01*
X46933333Y-68116033D02*
X46900000Y-68049366D01*
X46900000Y-68049366D02*
X46866666Y-68016033D01*
X46866666Y-68016033D02*
X46800000Y-67982700D01*
X46800000Y-67982700D02*
X46666666Y-67949366D01*
X46666666Y-67949366D02*
X46600000Y-67916033D01*
X46600000Y-67916033D02*
X46566666Y-67882700D01*
X46566666Y-67882700D02*
X46533333Y-67816033D01*
X46533333Y-67816033D02*
X46533333Y-67749366D01*
X46533333Y-67749366D02*
X46566666Y-67682700D01*
X46566666Y-67682700D02*
X46600000Y-67649366D01*
X46600000Y-67649366D02*
X46666666Y-67616033D01*
X46666666Y-67616033D02*
X46833333Y-67616033D01*
X46833333Y-67616033D02*
X46933333Y-67649366D01*
X48100000Y-68316033D02*
X47766666Y-68316033D01*
X47766666Y-68316033D02*
X47766666Y-67616033D01*
X48466667Y-67616033D02*
X48600000Y-67616033D01*
X48600000Y-67616033D02*
X48666667Y-67649366D01*
X48666667Y-67649366D02*
X48733333Y-67716033D01*
X48733333Y-67716033D02*
X48766667Y-67849366D01*
X48766667Y-67849366D02*
X48766667Y-68082700D01*
X48766667Y-68082700D02*
X48733333Y-68216033D01*
X48733333Y-68216033D02*
X48666667Y-68282700D01*
X48666667Y-68282700D02*
X48600000Y-68316033D01*
X48600000Y-68316033D02*
X48466667Y-68316033D01*
X48466667Y-68316033D02*
X48400000Y-68282700D01*
X48400000Y-68282700D02*
X48333333Y-68216033D01*
X48333333Y-68216033D02*
X48300000Y-68082700D01*
X48300000Y-68082700D02*
X48300000Y-67849366D01*
X48300000Y-67849366D02*
X48333333Y-67716033D01*
X48333333Y-67716033D02*
X48400000Y-67649366D01*
X48400000Y-67649366D02*
X48466667Y-67616033D01*
X49433333Y-67649366D02*
X49366666Y-67616033D01*
X49366666Y-67616033D02*
X49266666Y-67616033D01*
X49266666Y-67616033D02*
X49166666Y-67649366D01*
X49166666Y-67649366D02*
X49100000Y-67716033D01*
X49100000Y-67716033D02*
X49066666Y-67782700D01*
X49066666Y-67782700D02*
X49033333Y-67916033D01*
X49033333Y-67916033D02*
X49033333Y-68016033D01*
X49033333Y-68016033D02*
X49066666Y-68149366D01*
X49066666Y-68149366D02*
X49100000Y-68216033D01*
X49100000Y-68216033D02*
X49166666Y-68282700D01*
X49166666Y-68282700D02*
X49266666Y-68316033D01*
X49266666Y-68316033D02*
X49333333Y-68316033D01*
X49333333Y-68316033D02*
X49433333Y-68282700D01*
X49433333Y-68282700D02*
X49466666Y-68249366D01*
X49466666Y-68249366D02*
X49466666Y-68016033D01*
X49466666Y-68016033D02*
X49333333Y-68016033D01*
X49766666Y-68316033D02*
X49766666Y-67616033D01*
X50499999Y-68249366D02*
X50466666Y-68282700D01*
X50466666Y-68282700D02*
X50366666Y-68316033D01*
X50366666Y-68316033D02*
X50299999Y-68316033D01*
X50299999Y-68316033D02*
X50199999Y-68282700D01*
X50199999Y-68282700D02*
X50133333Y-68216033D01*
X50133333Y-68216033D02*
X50099999Y-68149366D01*
X50099999Y-68149366D02*
X50066666Y-68016033D01*
X50066666Y-68016033D02*
X50066666Y-67916033D01*
X50066666Y-67916033D02*
X50099999Y-67782700D01*
X50099999Y-67782700D02*
X50133333Y-67716033D01*
X50133333Y-67716033D02*
X50199999Y-67649366D01*
X50199999Y-67649366D02*
X50299999Y-67616033D01*
X50299999Y-67616033D02*
X50366666Y-67616033D01*
X50366666Y-67616033D02*
X50466666Y-67649366D01*
X50466666Y-67649366D02*
X50499999Y-67682700D01*
X51466666Y-67616033D02*
X51599999Y-67616033D01*
X51599999Y-67616033D02*
X51666666Y-67649366D01*
X51666666Y-67649366D02*
X51733332Y-67716033D01*
X51733332Y-67716033D02*
X51766666Y-67849366D01*
X51766666Y-67849366D02*
X51766666Y-68082700D01*
X51766666Y-68082700D02*
X51733332Y-68216033D01*
X51733332Y-68216033D02*
X51666666Y-68282700D01*
X51666666Y-68282700D02*
X51599999Y-68316033D01*
X51599999Y-68316033D02*
X51466666Y-68316033D01*
X51466666Y-68316033D02*
X51399999Y-68282700D01*
X51399999Y-68282700D02*
X51333332Y-68216033D01*
X51333332Y-68216033D02*
X51299999Y-68082700D01*
X51299999Y-68082700D02*
X51299999Y-67849366D01*
X51299999Y-67849366D02*
X51333332Y-67716033D01*
X51333332Y-67716033D02*
X51399999Y-67649366D01*
X51399999Y-67649366D02*
X51466666Y-67616033D01*
X52066665Y-68316033D02*
X52066665Y-67616033D01*
X52066665Y-67616033D02*
X52466665Y-68316033D01*
X52466665Y-68316033D02*
X52466665Y-67616033D01*
X53133332Y-68316033D02*
X52799998Y-68316033D01*
X52799998Y-68316033D02*
X52799998Y-67616033D01*
X53499999Y-67982700D02*
X53499999Y-68316033D01*
X53266665Y-67616033D02*
X53499999Y-67982700D01*
X53499999Y-67982700D02*
X53733332Y-67616033D01*
X104600000Y-45316033D02*
X104600000Y-44616033D01*
X105000000Y-45316033D02*
X104700000Y-44916033D01*
X105000000Y-44616033D02*
X104600000Y-45016033D01*
X105300000Y-44949366D02*
X105533334Y-44949366D01*
X105633334Y-45316033D02*
X105300000Y-45316033D01*
X105300000Y-45316033D02*
X105300000Y-44616033D01*
X105300000Y-44616033D02*
X105633334Y-44616033D01*
X106066667Y-44982700D02*
X106066667Y-45316033D01*
X105833333Y-44616033D02*
X106066667Y-44982700D01*
X106066667Y-44982700D02*
X106300000Y-44616033D01*
X106533333Y-44949366D02*
X106766667Y-44949366D01*
X106866667Y-45316033D02*
X106533333Y-45316033D01*
X106533333Y-45316033D02*
X106533333Y-44616033D01*
X106533333Y-44616033D02*
X106866667Y-44616033D01*
X107166666Y-45316033D02*
X107166666Y-44616033D01*
X107166666Y-44616033D02*
X107333333Y-44616033D01*
X107333333Y-44616033D02*
X107433333Y-44649366D01*
X107433333Y-44649366D02*
X107500000Y-44716033D01*
X107500000Y-44716033D02*
X107533333Y-44782700D01*
X107533333Y-44782700D02*
X107566666Y-44916033D01*
X107566666Y-44916033D02*
X107566666Y-45016033D01*
X107566666Y-45016033D02*
X107533333Y-45149366D01*
X107533333Y-45149366D02*
X107500000Y-45216033D01*
X107500000Y-45216033D02*
X107433333Y-45282700D01*
X107433333Y-45282700D02*
X107333333Y-45316033D01*
X107333333Y-45316033D02*
X107166666Y-45316033D01*
X108366666Y-45282700D02*
X108466666Y-45316033D01*
X108466666Y-45316033D02*
X108633333Y-45316033D01*
X108633333Y-45316033D02*
X108699999Y-45282700D01*
X108699999Y-45282700D02*
X108733333Y-45249366D01*
X108733333Y-45249366D02*
X108766666Y-45182700D01*
X108766666Y-45182700D02*
X108766666Y-45116033D01*
X108766666Y-45116033D02*
X108733333Y-45049366D01*
X108733333Y-45049366D02*
X108699999Y-45016033D01*
X108699999Y-45016033D02*
X108633333Y-44982700D01*
X108633333Y-44982700D02*
X108499999Y-44949366D01*
X108499999Y-44949366D02*
X108433333Y-44916033D01*
X108433333Y-44916033D02*
X108399999Y-44882700D01*
X108399999Y-44882700D02*
X108366666Y-44816033D01*
X108366666Y-44816033D02*
X108366666Y-44749366D01*
X108366666Y-44749366D02*
X108399999Y-44682700D01*
X108399999Y-44682700D02*
X108433333Y-44649366D01*
X108433333Y-44649366D02*
X108499999Y-44616033D01*
X108499999Y-44616033D02*
X108666666Y-44616033D01*
X108666666Y-44616033D02*
X108766666Y-44649366D01*
X109066666Y-44949366D02*
X109300000Y-44949366D01*
X109400000Y-45316033D02*
X109066666Y-45316033D01*
X109066666Y-45316033D02*
X109066666Y-44616033D01*
X109066666Y-44616033D02*
X109400000Y-44616033D01*
X110099999Y-45316033D02*
X109866666Y-44982700D01*
X109699999Y-45316033D02*
X109699999Y-44616033D01*
X109699999Y-44616033D02*
X109966666Y-44616033D01*
X109966666Y-44616033D02*
X110033333Y-44649366D01*
X110033333Y-44649366D02*
X110066666Y-44682700D01*
X110066666Y-44682700D02*
X110099999Y-44749366D01*
X110099999Y-44749366D02*
X110099999Y-44849366D01*
X110099999Y-44849366D02*
X110066666Y-44916033D01*
X110066666Y-44916033D02*
X110033333Y-44949366D01*
X110033333Y-44949366D02*
X109966666Y-44982700D01*
X109966666Y-44982700D02*
X109699999Y-44982700D01*
X110299999Y-44616033D02*
X110533333Y-45316033D01*
X110533333Y-45316033D02*
X110766666Y-44616033D01*
X111133333Y-44616033D02*
X111266666Y-44616033D01*
X111266666Y-44616033D02*
X111333333Y-44649366D01*
X111333333Y-44649366D02*
X111399999Y-44716033D01*
X111399999Y-44716033D02*
X111433333Y-44849366D01*
X111433333Y-44849366D02*
X111433333Y-45082700D01*
X111433333Y-45082700D02*
X111399999Y-45216033D01*
X111399999Y-45216033D02*
X111333333Y-45282700D01*
X111333333Y-45282700D02*
X111266666Y-45316033D01*
X111266666Y-45316033D02*
X111133333Y-45316033D01*
X111133333Y-45316033D02*
X111066666Y-45282700D01*
X111066666Y-45282700D02*
X110999999Y-45216033D01*
X110999999Y-45216033D02*
X110966666Y-45082700D01*
X110966666Y-45082700D02*
X110966666Y-44849366D01*
X110966666Y-44849366D02*
X110999999Y-44716033D01*
X110999999Y-44716033D02*
X111066666Y-44649366D01*
X111066666Y-44649366D02*
X111133333Y-44616033D01*
X11866667Y-67562295D02*
X11866667Y-68209914D01*
X11866667Y-68209914D02*
X11904762Y-68286104D01*
X11904762Y-68286104D02*
X11942857Y-68324200D01*
X11942857Y-68324200D02*
X12019048Y-68362295D01*
X12019048Y-68362295D02*
X12171429Y-68362295D01*
X12171429Y-68362295D02*
X12247619Y-68324200D01*
X12247619Y-68324200D02*
X12285714Y-68286104D01*
X12285714Y-68286104D02*
X12323810Y-68209914D01*
X12323810Y-68209914D02*
X12323810Y-67562295D01*
X12666666Y-68324200D02*
X12780952Y-68362295D01*
X12780952Y-68362295D02*
X12971428Y-68362295D01*
X12971428Y-68362295D02*
X13047619Y-68324200D01*
X13047619Y-68324200D02*
X13085714Y-68286104D01*
X13085714Y-68286104D02*
X13123809Y-68209914D01*
X13123809Y-68209914D02*
X13123809Y-68133723D01*
X13123809Y-68133723D02*
X13085714Y-68057533D01*
X13085714Y-68057533D02*
X13047619Y-68019438D01*
X13047619Y-68019438D02*
X12971428Y-67981342D01*
X12971428Y-67981342D02*
X12819047Y-67943247D01*
X12819047Y-67943247D02*
X12742857Y-67905152D01*
X12742857Y-67905152D02*
X12704762Y-67867057D01*
X12704762Y-67867057D02*
X12666666Y-67790866D01*
X12666666Y-67790866D02*
X12666666Y-67714676D01*
X12666666Y-67714676D02*
X12704762Y-67638485D01*
X12704762Y-67638485D02*
X12742857Y-67600390D01*
X12742857Y-67600390D02*
X12819047Y-67562295D01*
X12819047Y-67562295D02*
X13009524Y-67562295D01*
X13009524Y-67562295D02*
X13123809Y-67600390D01*
X13733333Y-67943247D02*
X13847619Y-67981342D01*
X13847619Y-67981342D02*
X13885714Y-68019438D01*
X13885714Y-68019438D02*
X13923810Y-68095628D01*
X13923810Y-68095628D02*
X13923810Y-68209914D01*
X13923810Y-68209914D02*
X13885714Y-68286104D01*
X13885714Y-68286104D02*
X13847619Y-68324200D01*
X13847619Y-68324200D02*
X13771429Y-68362295D01*
X13771429Y-68362295D02*
X13466667Y-68362295D01*
X13466667Y-68362295D02*
X13466667Y-67562295D01*
X13466667Y-67562295D02*
X13733333Y-67562295D01*
X13733333Y-67562295D02*
X13809524Y-67600390D01*
X13809524Y-67600390D02*
X13847619Y-67638485D01*
X13847619Y-67638485D02*
X13885714Y-67714676D01*
X13885714Y-67714676D02*
X13885714Y-67790866D01*
X13885714Y-67790866D02*
X13847619Y-67867057D01*
X13847619Y-67867057D02*
X13809524Y-67905152D01*
X13809524Y-67905152D02*
X13733333Y-67943247D01*
X13733333Y-67943247D02*
X13466667Y-67943247D01*
X14266667Y-68057533D02*
X14876191Y-68057533D01*
X15714286Y-68286104D02*
X15676190Y-68324200D01*
X15676190Y-68324200D02*
X15561905Y-68362295D01*
X15561905Y-68362295D02*
X15485714Y-68362295D01*
X15485714Y-68362295D02*
X15371428Y-68324200D01*
X15371428Y-68324200D02*
X15295238Y-68248009D01*
X15295238Y-68248009D02*
X15257143Y-68171819D01*
X15257143Y-68171819D02*
X15219047Y-68019438D01*
X15219047Y-68019438D02*
X15219047Y-67905152D01*
X15219047Y-67905152D02*
X15257143Y-67752771D01*
X15257143Y-67752771D02*
X15295238Y-67676580D01*
X15295238Y-67676580D02*
X15371428Y-67600390D01*
X15371428Y-67600390D02*
X15485714Y-67562295D01*
X15485714Y-67562295D02*
X15561905Y-67562295D01*
X15561905Y-67562295D02*
X15676190Y-67600390D01*
X15676190Y-67600390D02*
X15714286Y-67638485D01*
X16666667Y-68362295D02*
X16666667Y-67562295D01*
X16666667Y-67562295D02*
X16971429Y-67562295D01*
X16971429Y-67562295D02*
X17047619Y-67600390D01*
X17047619Y-67600390D02*
X17085714Y-67638485D01*
X17085714Y-67638485D02*
X17123810Y-67714676D01*
X17123810Y-67714676D02*
X17123810Y-67828961D01*
X17123810Y-67828961D02*
X17085714Y-67905152D01*
X17085714Y-67905152D02*
X17047619Y-67943247D01*
X17047619Y-67943247D02*
X16971429Y-67981342D01*
X16971429Y-67981342D02*
X16666667Y-67981342D01*
X17923810Y-68362295D02*
X17657143Y-67981342D01*
X17466667Y-68362295D02*
X17466667Y-67562295D01*
X17466667Y-67562295D02*
X17771429Y-67562295D01*
X17771429Y-67562295D02*
X17847619Y-67600390D01*
X17847619Y-67600390D02*
X17885714Y-67638485D01*
X17885714Y-67638485D02*
X17923810Y-67714676D01*
X17923810Y-67714676D02*
X17923810Y-67828961D01*
X17923810Y-67828961D02*
X17885714Y-67905152D01*
X17885714Y-67905152D02*
X17847619Y-67943247D01*
X17847619Y-67943247D02*
X17771429Y-67981342D01*
X17771429Y-67981342D02*
X17466667Y-67981342D01*
X18419048Y-67562295D02*
X18571429Y-67562295D01*
X18571429Y-67562295D02*
X18647619Y-67600390D01*
X18647619Y-67600390D02*
X18723810Y-67676580D01*
X18723810Y-67676580D02*
X18761905Y-67828961D01*
X18761905Y-67828961D02*
X18761905Y-68095628D01*
X18761905Y-68095628D02*
X18723810Y-68248009D01*
X18723810Y-68248009D02*
X18647619Y-68324200D01*
X18647619Y-68324200D02*
X18571429Y-68362295D01*
X18571429Y-68362295D02*
X18419048Y-68362295D01*
X18419048Y-68362295D02*
X18342857Y-68324200D01*
X18342857Y-68324200D02*
X18266667Y-68248009D01*
X18266667Y-68248009D02*
X18228571Y-68095628D01*
X18228571Y-68095628D02*
X18228571Y-67828961D01*
X18228571Y-67828961D02*
X18266667Y-67676580D01*
X18266667Y-67676580D02*
X18342857Y-67600390D01*
X18342857Y-67600390D02*
X18419048Y-67562295D01*
X19523809Y-67600390D02*
X19447619Y-67562295D01*
X19447619Y-67562295D02*
X19333333Y-67562295D01*
X19333333Y-67562295D02*
X19219047Y-67600390D01*
X19219047Y-67600390D02*
X19142857Y-67676580D01*
X19142857Y-67676580D02*
X19104762Y-67752771D01*
X19104762Y-67752771D02*
X19066666Y-67905152D01*
X19066666Y-67905152D02*
X19066666Y-68019438D01*
X19066666Y-68019438D02*
X19104762Y-68171819D01*
X19104762Y-68171819D02*
X19142857Y-68248009D01*
X19142857Y-68248009D02*
X19219047Y-68324200D01*
X19219047Y-68324200D02*
X19333333Y-68362295D01*
X19333333Y-68362295D02*
X19409524Y-68362295D01*
X19409524Y-68362295D02*
X19523809Y-68324200D01*
X19523809Y-68324200D02*
X19561905Y-68286104D01*
X19561905Y-68286104D02*
X19561905Y-68019438D01*
X19561905Y-68019438D02*
X19409524Y-68019438D01*
X20361905Y-68362295D02*
X20095238Y-67981342D01*
X19904762Y-68362295D02*
X19904762Y-67562295D01*
X19904762Y-67562295D02*
X20209524Y-67562295D01*
X20209524Y-67562295D02*
X20285714Y-67600390D01*
X20285714Y-67600390D02*
X20323809Y-67638485D01*
X20323809Y-67638485D02*
X20361905Y-67714676D01*
X20361905Y-67714676D02*
X20361905Y-67828961D01*
X20361905Y-67828961D02*
X20323809Y-67905152D01*
X20323809Y-67905152D02*
X20285714Y-67943247D01*
X20285714Y-67943247D02*
X20209524Y-67981342D01*
X20209524Y-67981342D02*
X19904762Y-67981342D01*
X20666666Y-68133723D02*
X21047619Y-68133723D01*
X20590476Y-68362295D02*
X20857143Y-67562295D01*
X20857143Y-67562295D02*
X21123809Y-68362295D01*
X21390476Y-68362295D02*
X21390476Y-67562295D01*
X21390476Y-67562295D02*
X21657142Y-68133723D01*
X21657142Y-68133723D02*
X21923809Y-67562295D01*
X21923809Y-67562295D02*
X21923809Y-68362295D01*
X22914286Y-68057533D02*
X23523810Y-68057533D01*
X23219048Y-68362295D02*
X23219048Y-67752771D01*
X24476190Y-68133723D02*
X24857143Y-68133723D01*
X24400000Y-68362295D02*
X24666667Y-67562295D01*
X24666667Y-67562295D02*
X24933333Y-68362295D01*
X25161904Y-68324200D02*
X25276190Y-68362295D01*
X25276190Y-68362295D02*
X25466666Y-68362295D01*
X25466666Y-68362295D02*
X25542857Y-68324200D01*
X25542857Y-68324200D02*
X25580952Y-68286104D01*
X25580952Y-68286104D02*
X25619047Y-68209914D01*
X25619047Y-68209914D02*
X25619047Y-68133723D01*
X25619047Y-68133723D02*
X25580952Y-68057533D01*
X25580952Y-68057533D02*
X25542857Y-68019438D01*
X25542857Y-68019438D02*
X25466666Y-67981342D01*
X25466666Y-67981342D02*
X25314285Y-67943247D01*
X25314285Y-67943247D02*
X25238095Y-67905152D01*
X25238095Y-67905152D02*
X25200000Y-67867057D01*
X25200000Y-67867057D02*
X25161904Y-67790866D01*
X25161904Y-67790866D02*
X25161904Y-67714676D01*
X25161904Y-67714676D02*
X25200000Y-67638485D01*
X25200000Y-67638485D02*
X25238095Y-67600390D01*
X25238095Y-67600390D02*
X25314285Y-67562295D01*
X25314285Y-67562295D02*
X25504762Y-67562295D01*
X25504762Y-67562295D02*
X25619047Y-67600390D01*
X26419048Y-68286104D02*
X26380952Y-68324200D01*
X26380952Y-68324200D02*
X26266667Y-68362295D01*
X26266667Y-68362295D02*
X26190476Y-68362295D01*
X26190476Y-68362295D02*
X26076190Y-68324200D01*
X26076190Y-68324200D02*
X26000000Y-68248009D01*
X26000000Y-68248009D02*
X25961905Y-68171819D01*
X25961905Y-68171819D02*
X25923809Y-68019438D01*
X25923809Y-68019438D02*
X25923809Y-67905152D01*
X25923809Y-67905152D02*
X25961905Y-67752771D01*
X25961905Y-67752771D02*
X26000000Y-67676580D01*
X26000000Y-67676580D02*
X26076190Y-67600390D01*
X26076190Y-67600390D02*
X26190476Y-67562295D01*
X26190476Y-67562295D02*
X26266667Y-67562295D01*
X26266667Y-67562295D02*
X26380952Y-67600390D01*
X26380952Y-67600390D02*
X26419048Y-67638485D01*
X26914286Y-67562295D02*
X27066667Y-67562295D01*
X27066667Y-67562295D02*
X27142857Y-67600390D01*
X27142857Y-67600390D02*
X27219048Y-67676580D01*
X27219048Y-67676580D02*
X27257143Y-67828961D01*
X27257143Y-67828961D02*
X27257143Y-68095628D01*
X27257143Y-68095628D02*
X27219048Y-68248009D01*
X27219048Y-68248009D02*
X27142857Y-68324200D01*
X27142857Y-68324200D02*
X27066667Y-68362295D01*
X27066667Y-68362295D02*
X26914286Y-68362295D01*
X26914286Y-68362295D02*
X26838095Y-68324200D01*
X26838095Y-68324200D02*
X26761905Y-68248009D01*
X26761905Y-68248009D02*
X26723809Y-68095628D01*
X26723809Y-68095628D02*
X26723809Y-67828961D01*
X26723809Y-67828961D02*
X26761905Y-67676580D01*
X26761905Y-67676580D02*
X26838095Y-67600390D01*
X26838095Y-67600390D02*
X26914286Y-67562295D01*
X27600000Y-68362295D02*
X27600000Y-67562295D01*
X27600000Y-67562295D02*
X27866666Y-68133723D01*
X27866666Y-68133723D02*
X28133333Y-67562295D01*
X28133333Y-67562295D02*
X28133333Y-68362295D01*
X80685714Y-10133723D02*
X81066667Y-10133723D01*
X80609524Y-10362295D02*
X80876191Y-9562295D01*
X80876191Y-9562295D02*
X81142857Y-10362295D01*
X81371428Y-10324200D02*
X81485714Y-10362295D01*
X81485714Y-10362295D02*
X81676190Y-10362295D01*
X81676190Y-10362295D02*
X81752381Y-10324200D01*
X81752381Y-10324200D02*
X81790476Y-10286104D01*
X81790476Y-10286104D02*
X81828571Y-10209914D01*
X81828571Y-10209914D02*
X81828571Y-10133723D01*
X81828571Y-10133723D02*
X81790476Y-10057533D01*
X81790476Y-10057533D02*
X81752381Y-10019438D01*
X81752381Y-10019438D02*
X81676190Y-9981342D01*
X81676190Y-9981342D02*
X81523809Y-9943247D01*
X81523809Y-9943247D02*
X81447619Y-9905152D01*
X81447619Y-9905152D02*
X81409524Y-9867057D01*
X81409524Y-9867057D02*
X81371428Y-9790866D01*
X81371428Y-9790866D02*
X81371428Y-9714676D01*
X81371428Y-9714676D02*
X81409524Y-9638485D01*
X81409524Y-9638485D02*
X81447619Y-9600390D01*
X81447619Y-9600390D02*
X81523809Y-9562295D01*
X81523809Y-9562295D02*
X81714286Y-9562295D01*
X81714286Y-9562295D02*
X81828571Y-9600390D01*
X82171429Y-10362295D02*
X82171429Y-9562295D01*
X82514285Y-10133723D02*
X82895238Y-10133723D01*
X82438095Y-10362295D02*
X82704762Y-9562295D01*
X82704762Y-9562295D02*
X82971428Y-10362295D01*
X83238095Y-10362295D02*
X83238095Y-9562295D01*
X84076190Y-10362295D02*
X83809523Y-9981342D01*
X83619047Y-10362295D02*
X83619047Y-9562295D01*
X83619047Y-9562295D02*
X83923809Y-9562295D01*
X83923809Y-9562295D02*
X83999999Y-9600390D01*
X83999999Y-9600390D02*
X84038094Y-9638485D01*
X84038094Y-9638485D02*
X84076190Y-9714676D01*
X84076190Y-9714676D02*
X84076190Y-9828961D01*
X84076190Y-9828961D02*
X84038094Y-9905152D01*
X84038094Y-9905152D02*
X83999999Y-9943247D01*
X83999999Y-9943247D02*
X83923809Y-9981342D01*
X83923809Y-9981342D02*
X83619047Y-9981342D01*
X85028571Y-10362295D02*
X85028571Y-9562295D01*
X85028571Y-9562295D02*
X85333333Y-9562295D01*
X85333333Y-9562295D02*
X85409523Y-9600390D01*
X85409523Y-9600390D02*
X85447618Y-9638485D01*
X85447618Y-9638485D02*
X85485714Y-9714676D01*
X85485714Y-9714676D02*
X85485714Y-9828961D01*
X85485714Y-9828961D02*
X85447618Y-9905152D01*
X85447618Y-9905152D02*
X85409523Y-9943247D01*
X85409523Y-9943247D02*
X85333333Y-9981342D01*
X85333333Y-9981342D02*
X85028571Y-9981342D01*
X85752380Y-9562295D02*
X85942856Y-10362295D01*
X85942856Y-10362295D02*
X86095237Y-9790866D01*
X86095237Y-9790866D02*
X86247618Y-10362295D01*
X86247618Y-10362295D02*
X86438095Y-9562295D01*
X86742857Y-10362295D02*
X86742857Y-9562295D01*
X86742857Y-9562295D02*
X87009523Y-10133723D01*
X87009523Y-10133723D02*
X87276190Y-9562295D01*
X87276190Y-9562295D02*
X87276190Y-10362295D01*
X98857143Y-10362295D02*
X98857143Y-9562295D01*
X98857143Y-9562295D02*
X99123809Y-10133723D01*
X99123809Y-10133723D02*
X99390476Y-9562295D01*
X99390476Y-9562295D02*
X99390476Y-10362295D01*
X99733333Y-10133723D02*
X100114286Y-10133723D01*
X99657143Y-10362295D02*
X99923810Y-9562295D01*
X99923810Y-9562295D02*
X100190476Y-10362295D01*
X100457143Y-10362295D02*
X100457143Y-9562295D01*
X100838095Y-10362295D02*
X100838095Y-9562295D01*
X100838095Y-9562295D02*
X101295238Y-10362295D01*
X101295238Y-10362295D02*
X101295238Y-9562295D01*
X102704761Y-10362295D02*
X102247618Y-10362295D01*
X102476190Y-10362295D02*
X102476190Y-9562295D01*
X102476190Y-9562295D02*
X102399999Y-9676580D01*
X102399999Y-9676580D02*
X102323809Y-9752771D01*
X102323809Y-9752771D02*
X102247618Y-9790866D01*
X103009523Y-9638485D02*
X103047619Y-9600390D01*
X103047619Y-9600390D02*
X103123809Y-9562295D01*
X103123809Y-9562295D02*
X103314285Y-9562295D01*
X103314285Y-9562295D02*
X103390476Y-9600390D01*
X103390476Y-9600390D02*
X103428571Y-9638485D01*
X103428571Y-9638485D02*
X103466666Y-9714676D01*
X103466666Y-9714676D02*
X103466666Y-9790866D01*
X103466666Y-9790866D02*
X103428571Y-9905152D01*
X103428571Y-9905152D02*
X102971428Y-10362295D01*
X102971428Y-10362295D02*
X103466666Y-10362295D01*
X103695238Y-9562295D02*
X103961905Y-10362295D01*
X103961905Y-10362295D02*
X104228571Y-9562295D01*
X105066666Y-9638485D02*
X105104762Y-9600390D01*
X105104762Y-9600390D02*
X105180952Y-9562295D01*
X105180952Y-9562295D02*
X105371428Y-9562295D01*
X105371428Y-9562295D02*
X105447619Y-9600390D01*
X105447619Y-9600390D02*
X105485714Y-9638485D01*
X105485714Y-9638485D02*
X105523809Y-9714676D01*
X105523809Y-9714676D02*
X105523809Y-9790866D01*
X105523809Y-9790866D02*
X105485714Y-9905152D01*
X105485714Y-9905152D02*
X105028571Y-10362295D01*
X105028571Y-10362295D02*
X105523809Y-10362295D01*
X105828571Y-10133723D02*
X106209524Y-10133723D01*
X105752381Y-10362295D02*
X106019048Y-9562295D01*
X106019048Y-9562295D02*
X106285714Y-10362295D01*
X107161905Y-10362295D02*
X107161905Y-9562295D01*
X107161905Y-9562295D02*
X107428571Y-10133723D01*
X107428571Y-10133723D02*
X107695238Y-9562295D01*
X107695238Y-9562295D02*
X107695238Y-10362295D01*
X108038095Y-10133723D02*
X108419048Y-10133723D01*
X107961905Y-10362295D02*
X108228572Y-9562295D01*
X108228572Y-9562295D02*
X108495238Y-10362295D01*
X108685714Y-9562295D02*
X109219048Y-10362295D01*
X109219048Y-9562295D02*
X108685714Y-10362295D01*
X107485714Y-34362295D02*
X107104762Y-34362295D01*
X107104762Y-34362295D02*
X107104762Y-33562295D01*
X107752381Y-33943247D02*
X108019047Y-33943247D01*
X108133333Y-34362295D02*
X107752381Y-34362295D01*
X107752381Y-34362295D02*
X107752381Y-33562295D01*
X107752381Y-33562295D02*
X108133333Y-33562295D01*
X108476191Y-34362295D02*
X108476191Y-33562295D01*
X108476191Y-33562295D02*
X108666667Y-33562295D01*
X108666667Y-33562295D02*
X108780953Y-33600390D01*
X108780953Y-33600390D02*
X108857143Y-33676580D01*
X108857143Y-33676580D02*
X108895238Y-33752771D01*
X108895238Y-33752771D02*
X108933334Y-33905152D01*
X108933334Y-33905152D02*
X108933334Y-34019438D01*
X108933334Y-34019438D02*
X108895238Y-34171819D01*
X108895238Y-34171819D02*
X108857143Y-34248009D01*
X108857143Y-34248009D02*
X108780953Y-34324200D01*
X108780953Y-34324200D02*
X108666667Y-34362295D01*
X108666667Y-34362295D02*
X108476191Y-34362295D01*
X43404760Y-72454819D02*
X43071427Y-71978628D01*
X42833332Y-72454819D02*
X42833332Y-71454819D01*
X42833332Y-71454819D02*
X43214284Y-71454819D01*
X43214284Y-71454819D02*
X43309522Y-71502438D01*
X43309522Y-71502438D02*
X43357141Y-71550057D01*
X43357141Y-71550057D02*
X43404760Y-71645295D01*
X43404760Y-71645295D02*
X43404760Y-71788152D01*
X43404760Y-71788152D02*
X43357141Y-71883390D01*
X43357141Y-71883390D02*
X43309522Y-71931009D01*
X43309522Y-71931009D02*
X43214284Y-71978628D01*
X43214284Y-71978628D02*
X42833332Y-71978628D01*
X43833332Y-71931009D02*
X44166665Y-71931009D01*
X44309522Y-72454819D02*
X43833332Y-72454819D01*
X43833332Y-72454819D02*
X43833332Y-71454819D01*
X43833332Y-71454819D02*
X44309522Y-71454819D01*
X44738094Y-72454819D02*
X44738094Y-71454819D01*
X44738094Y-71454819D02*
X44976189Y-71454819D01*
X44976189Y-71454819D02*
X45119046Y-71502438D01*
X45119046Y-71502438D02*
X45214284Y-71597676D01*
X45214284Y-71597676D02*
X45261903Y-71692914D01*
X45261903Y-71692914D02*
X45309522Y-71883390D01*
X45309522Y-71883390D02*
X45309522Y-72026247D01*
X45309522Y-72026247D02*
X45261903Y-72216723D01*
X45261903Y-72216723D02*
X45214284Y-72311961D01*
X45214284Y-72311961D02*
X45119046Y-72407200D01*
X45119046Y-72407200D02*
X44976189Y-72454819D01*
X44976189Y-72454819D02*
X44738094Y-72454819D01*
X46309522Y-72359580D02*
X46261903Y-72407200D01*
X46261903Y-72407200D02*
X46119046Y-72454819D01*
X46119046Y-72454819D02*
X46023808Y-72454819D01*
X46023808Y-72454819D02*
X45880951Y-72407200D01*
X45880951Y-72407200D02*
X45785713Y-72311961D01*
X45785713Y-72311961D02*
X45738094Y-72216723D01*
X45738094Y-72216723D02*
X45690475Y-72026247D01*
X45690475Y-72026247D02*
X45690475Y-71883390D01*
X45690475Y-71883390D02*
X45738094Y-71692914D01*
X45738094Y-71692914D02*
X45785713Y-71597676D01*
X45785713Y-71597676D02*
X45880951Y-71502438D01*
X45880951Y-71502438D02*
X46023808Y-71454819D01*
X46023808Y-71454819D02*
X46119046Y-71454819D01*
X46119046Y-71454819D02*
X46261903Y-71502438D01*
X46261903Y-71502438D02*
X46309522Y-71550057D01*
X46690475Y-72169104D02*
X47166665Y-72169104D01*
X46595237Y-72454819D02*
X46928570Y-71454819D01*
X46928570Y-71454819D02*
X47261903Y-72454819D01*
X47452380Y-71454819D02*
X48023808Y-71454819D01*
X47738094Y-72454819D02*
X47738094Y-71454819D01*
X49595237Y-71454819D02*
X49119047Y-71454819D01*
X49119047Y-71454819D02*
X49071428Y-71931009D01*
X49071428Y-71931009D02*
X49119047Y-71883390D01*
X49119047Y-71883390D02*
X49214285Y-71835771D01*
X49214285Y-71835771D02*
X49452380Y-71835771D01*
X49452380Y-71835771D02*
X49547618Y-71883390D01*
X49547618Y-71883390D02*
X49595237Y-71931009D01*
X49595237Y-71931009D02*
X49642856Y-72026247D01*
X49642856Y-72026247D02*
X49642856Y-72264342D01*
X49642856Y-72264342D02*
X49595237Y-72359580D01*
X49595237Y-72359580D02*
X49547618Y-72407200D01*
X49547618Y-72407200D02*
X49452380Y-72454819D01*
X49452380Y-72454819D02*
X49214285Y-72454819D01*
X49214285Y-72454819D02*
X49119047Y-72407200D01*
X49119047Y-72407200D02*
X49071428Y-72359580D01*
X50595237Y-72454819D02*
X50023809Y-72454819D01*
X50309523Y-72454819D02*
X50309523Y-71454819D01*
X50309523Y-71454819D02*
X50214285Y-71597676D01*
X50214285Y-71597676D02*
X50119047Y-71692914D01*
X50119047Y-71692914D02*
X50023809Y-71740533D01*
X51785714Y-72454819D02*
X51785714Y-71454819D01*
X52261904Y-72454819D02*
X52261904Y-71454819D01*
X53833332Y-71931009D02*
X53499999Y-71931009D01*
X53499999Y-72454819D02*
X53499999Y-71454819D01*
X53499999Y-71454819D02*
X53976189Y-71454819D01*
X54833332Y-72454819D02*
X54357142Y-72454819D01*
X54357142Y-72454819D02*
X54357142Y-71454819D01*
X55119047Y-72169104D02*
X55595237Y-72169104D01*
X55023809Y-72454819D02*
X55357142Y-71454819D01*
X55357142Y-71454819D02*
X55690475Y-72454819D01*
X55880952Y-71454819D02*
X56452380Y-71454819D01*
X56166666Y-72454819D02*
X56166666Y-71454819D01*
X57547619Y-72454819D02*
X57547619Y-71454819D01*
X57547619Y-71454819D02*
X57928571Y-71454819D01*
X57928571Y-71454819D02*
X58023809Y-71502438D01*
X58023809Y-71502438D02*
X58071428Y-71550057D01*
X58071428Y-71550057D02*
X58119047Y-71645295D01*
X58119047Y-71645295D02*
X58119047Y-71788152D01*
X58119047Y-71788152D02*
X58071428Y-71883390D01*
X58071428Y-71883390D02*
X58023809Y-71931009D01*
X58023809Y-71931009D02*
X57928571Y-71978628D01*
X57928571Y-71978628D02*
X57547619Y-71978628D01*
X58500000Y-72169104D02*
X58976190Y-72169104D01*
X58404762Y-72454819D02*
X58738095Y-71454819D01*
X58738095Y-71454819D02*
X59071428Y-72454819D01*
X59404762Y-72454819D02*
X59404762Y-71454819D01*
X59404762Y-71454819D02*
X59976190Y-72454819D01*
X59976190Y-72454819D02*
X59976190Y-71454819D01*
X60452381Y-71931009D02*
X60785714Y-71931009D01*
X60928571Y-72454819D02*
X60452381Y-72454819D01*
X60452381Y-72454819D02*
X60452381Y-71454819D01*
X60452381Y-71454819D02*
X60928571Y-71454819D01*
X61833333Y-72454819D02*
X61357143Y-72454819D01*
X61357143Y-72454819D02*
X61357143Y-71454819D01*
X63500000Y-72359580D02*
X63452381Y-72407200D01*
X63452381Y-72407200D02*
X63309524Y-72454819D01*
X63309524Y-72454819D02*
X63214286Y-72454819D01*
X63214286Y-72454819D02*
X63071429Y-72407200D01*
X63071429Y-72407200D02*
X62976191Y-72311961D01*
X62976191Y-72311961D02*
X62928572Y-72216723D01*
X62928572Y-72216723D02*
X62880953Y-72026247D01*
X62880953Y-72026247D02*
X62880953Y-71883390D01*
X62880953Y-71883390D02*
X62928572Y-71692914D01*
X62928572Y-71692914D02*
X62976191Y-71597676D01*
X62976191Y-71597676D02*
X63071429Y-71502438D01*
X63071429Y-71502438D02*
X63214286Y-71454819D01*
X63214286Y-71454819D02*
X63309524Y-71454819D01*
X63309524Y-71454819D02*
X63452381Y-71502438D01*
X63452381Y-71502438D02*
X63500000Y-71550057D01*
X64119048Y-71454819D02*
X64309524Y-71454819D01*
X64309524Y-71454819D02*
X64404762Y-71502438D01*
X64404762Y-71502438D02*
X64500000Y-71597676D01*
X64500000Y-71597676D02*
X64547619Y-71788152D01*
X64547619Y-71788152D02*
X64547619Y-72121485D01*
X64547619Y-72121485D02*
X64500000Y-72311961D01*
X64500000Y-72311961D02*
X64404762Y-72407200D01*
X64404762Y-72407200D02*
X64309524Y-72454819D01*
X64309524Y-72454819D02*
X64119048Y-72454819D01*
X64119048Y-72454819D02*
X64023810Y-72407200D01*
X64023810Y-72407200D02*
X63928572Y-72311961D01*
X63928572Y-72311961D02*
X63880953Y-72121485D01*
X63880953Y-72121485D02*
X63880953Y-71788152D01*
X63880953Y-71788152D02*
X63928572Y-71597676D01*
X63928572Y-71597676D02*
X64023810Y-71502438D01*
X64023810Y-71502438D02*
X64119048Y-71454819D01*
X64976191Y-72454819D02*
X64976191Y-71454819D01*
X64976191Y-71454819D02*
X65547619Y-72454819D01*
X65547619Y-72454819D02*
X65547619Y-71454819D01*
X65880953Y-71454819D02*
X66452381Y-71454819D01*
X66166667Y-72454819D02*
X66166667Y-71454819D01*
X67357143Y-72454819D02*
X67023810Y-71978628D01*
X66785715Y-72454819D02*
X66785715Y-71454819D01*
X66785715Y-71454819D02*
X67166667Y-71454819D01*
X67166667Y-71454819D02*
X67261905Y-71502438D01*
X67261905Y-71502438D02*
X67309524Y-71550057D01*
X67309524Y-71550057D02*
X67357143Y-71645295D01*
X67357143Y-71645295D02*
X67357143Y-71788152D01*
X67357143Y-71788152D02*
X67309524Y-71883390D01*
X67309524Y-71883390D02*
X67261905Y-71931009D01*
X67261905Y-71931009D02*
X67166667Y-71978628D01*
X67166667Y-71978628D02*
X66785715Y-71978628D01*
X67976191Y-71454819D02*
X68166667Y-71454819D01*
X68166667Y-71454819D02*
X68261905Y-71502438D01*
X68261905Y-71502438D02*
X68357143Y-71597676D01*
X68357143Y-71597676D02*
X68404762Y-71788152D01*
X68404762Y-71788152D02*
X68404762Y-72121485D01*
X68404762Y-72121485D02*
X68357143Y-72311961D01*
X68357143Y-72311961D02*
X68261905Y-72407200D01*
X68261905Y-72407200D02*
X68166667Y-72454819D01*
X68166667Y-72454819D02*
X67976191Y-72454819D01*
X67976191Y-72454819D02*
X67880953Y-72407200D01*
X67880953Y-72407200D02*
X67785715Y-72311961D01*
X67785715Y-72311961D02*
X67738096Y-72121485D01*
X67738096Y-72121485D02*
X67738096Y-71788152D01*
X67738096Y-71788152D02*
X67785715Y-71597676D01*
X67785715Y-71597676D02*
X67880953Y-71502438D01*
X67880953Y-71502438D02*
X67976191Y-71454819D01*
X69309524Y-72454819D02*
X68833334Y-72454819D01*
X68833334Y-72454819D02*
X68833334Y-71454819D01*
X70119048Y-72454819D02*
X69642858Y-72454819D01*
X69642858Y-72454819D02*
X69642858Y-71454819D01*
X70452382Y-71931009D02*
X70785715Y-71931009D01*
X70928572Y-72454819D02*
X70452382Y-72454819D01*
X70452382Y-72454819D02*
X70452382Y-71454819D01*
X70452382Y-71454819D02*
X70928572Y-71454819D01*
X71928572Y-72454819D02*
X71595239Y-71978628D01*
X71357144Y-72454819D02*
X71357144Y-71454819D01*
X71357144Y-71454819D02*
X71738096Y-71454819D01*
X71738096Y-71454819D02*
X71833334Y-71502438D01*
X71833334Y-71502438D02*
X71880953Y-71550057D01*
X71880953Y-71550057D02*
X71928572Y-71645295D01*
X71928572Y-71645295D02*
X71928572Y-71788152D01*
X71928572Y-71788152D02*
X71880953Y-71883390D01*
X71880953Y-71883390D02*
X71833334Y-71931009D01*
X71833334Y-71931009D02*
X71738096Y-71978628D01*
X71738096Y-71978628D02*
X71357144Y-71978628D01*
X73690477Y-72454819D02*
X73357144Y-71978628D01*
X73119049Y-72454819D02*
X73119049Y-71454819D01*
X73119049Y-71454819D02*
X73500001Y-71454819D01*
X73500001Y-71454819D02*
X73595239Y-71502438D01*
X73595239Y-71502438D02*
X73642858Y-71550057D01*
X73642858Y-71550057D02*
X73690477Y-71645295D01*
X73690477Y-71645295D02*
X73690477Y-71788152D01*
X73690477Y-71788152D02*
X73642858Y-71883390D01*
X73642858Y-71883390D02*
X73595239Y-71931009D01*
X73595239Y-71931009D02*
X73500001Y-71978628D01*
X73500001Y-71978628D02*
X73119049Y-71978628D01*
X74119049Y-71931009D02*
X74452382Y-71931009D01*
X74595239Y-72454819D02*
X74119049Y-72454819D01*
X74119049Y-72454819D02*
X74119049Y-71454819D01*
X74119049Y-71454819D02*
X74595239Y-71454819D01*
X74880954Y-71454819D02*
X75214287Y-72454819D01*
X75214287Y-72454819D02*
X75547620Y-71454819D01*
X77214287Y-72359580D02*
X77166668Y-72407200D01*
X77166668Y-72407200D02*
X77023811Y-72454819D01*
X77023811Y-72454819D02*
X76928573Y-72454819D01*
X76928573Y-72454819D02*
X76785716Y-72407200D01*
X76785716Y-72407200D02*
X76690478Y-72311961D01*
X76690478Y-72311961D02*
X76642859Y-72216723D01*
X76642859Y-72216723D02*
X76595240Y-72026247D01*
X76595240Y-72026247D02*
X76595240Y-71883390D01*
X76595240Y-71883390D02*
X76642859Y-71692914D01*
X76642859Y-71692914D02*
X76690478Y-71597676D01*
X76690478Y-71597676D02*
X76785716Y-71502438D01*
X76785716Y-71502438D02*
X76928573Y-71454819D01*
X76928573Y-71454819D02*
X77023811Y-71454819D01*
X77023811Y-71454819D02*
X77166668Y-71502438D01*
X77166668Y-71502438D02*
X77214287Y-71550057D01*
X101880952Y-29024819D02*
X101404762Y-29024819D01*
X101404762Y-29024819D02*
X101404762Y-28024819D01*
X102214286Y-28501009D02*
X102547619Y-28501009D01*
X102690476Y-29024819D02*
X102214286Y-29024819D01*
X102214286Y-29024819D02*
X102214286Y-28024819D01*
X102214286Y-28024819D02*
X102690476Y-28024819D01*
X103119048Y-29024819D02*
X103119048Y-28024819D01*
X103119048Y-28024819D02*
X103357143Y-28024819D01*
X103357143Y-28024819D02*
X103500000Y-28072438D01*
X103500000Y-28072438D02*
X103595238Y-28167676D01*
X103595238Y-28167676D02*
X103642857Y-28262914D01*
X103642857Y-28262914D02*
X103690476Y-28453390D01*
X103690476Y-28453390D02*
X103690476Y-28596247D01*
X103690476Y-28596247D02*
X103642857Y-28786723D01*
X103642857Y-28786723D02*
X103595238Y-28881961D01*
X103595238Y-28881961D02*
X103500000Y-28977200D01*
X103500000Y-28977200D02*
X103357143Y-29024819D01*
X103357143Y-29024819D02*
X103119048Y-29024819D01*
X104071429Y-28120057D02*
X104119048Y-28072438D01*
X104119048Y-28072438D02*
X104214286Y-28024819D01*
X104214286Y-28024819D02*
X104452381Y-28024819D01*
X104452381Y-28024819D02*
X104547619Y-28072438D01*
X104547619Y-28072438D02*
X104595238Y-28120057D01*
X104595238Y-28120057D02*
X104642857Y-28215295D01*
X104642857Y-28215295D02*
X104642857Y-28310533D01*
X104642857Y-28310533D02*
X104595238Y-28453390D01*
X104595238Y-28453390D02*
X104023810Y-29024819D01*
X104023810Y-29024819D02*
X104642857Y-29024819D01*
X70738095Y-41006819D02*
X71309523Y-41006819D01*
X71023809Y-42006819D02*
X71023809Y-41006819D01*
X71642857Y-42006819D02*
X71642857Y-41006819D01*
X71642857Y-41006819D02*
X72023809Y-41006819D01*
X72023809Y-41006819D02*
X72119047Y-41054438D01*
X72119047Y-41054438D02*
X72166666Y-41102057D01*
X72166666Y-41102057D02*
X72214285Y-41197295D01*
X72214285Y-41197295D02*
X72214285Y-41340152D01*
X72214285Y-41340152D02*
X72166666Y-41435390D01*
X72166666Y-41435390D02*
X72119047Y-41483009D01*
X72119047Y-41483009D02*
X72023809Y-41530628D01*
X72023809Y-41530628D02*
X71642857Y-41530628D01*
X72547619Y-41006819D02*
X73214285Y-41006819D01*
X73214285Y-41006819D02*
X72785714Y-42006819D01*
X34357142Y-15024819D02*
X34023809Y-14548628D01*
X33785714Y-15024819D02*
X33785714Y-14024819D01*
X33785714Y-14024819D02*
X34166666Y-14024819D01*
X34166666Y-14024819D02*
X34261904Y-14072438D01*
X34261904Y-14072438D02*
X34309523Y-14120057D01*
X34309523Y-14120057D02*
X34357142Y-14215295D01*
X34357142Y-14215295D02*
X34357142Y-14358152D01*
X34357142Y-14358152D02*
X34309523Y-14453390D01*
X34309523Y-14453390D02*
X34261904Y-14501009D01*
X34261904Y-14501009D02*
X34166666Y-14548628D01*
X34166666Y-14548628D02*
X33785714Y-14548628D01*
X35309523Y-15024819D02*
X34738095Y-15024819D01*
X35023809Y-15024819D02*
X35023809Y-14024819D01*
X35023809Y-14024819D02*
X34928571Y-14167676D01*
X34928571Y-14167676D02*
X34833333Y-14262914D01*
X34833333Y-14262914D02*
X34738095Y-14310533D01*
X35785714Y-15024819D02*
X35976190Y-15024819D01*
X35976190Y-15024819D02*
X36071428Y-14977200D01*
X36071428Y-14977200D02*
X36119047Y-14929580D01*
X36119047Y-14929580D02*
X36214285Y-14786723D01*
X36214285Y-14786723D02*
X36261904Y-14596247D01*
X36261904Y-14596247D02*
X36261904Y-14215295D01*
X36261904Y-14215295D02*
X36214285Y-14120057D01*
X36214285Y-14120057D02*
X36166666Y-14072438D01*
X36166666Y-14072438D02*
X36071428Y-14024819D01*
X36071428Y-14024819D02*
X35880952Y-14024819D01*
X35880952Y-14024819D02*
X35785714Y-14072438D01*
X35785714Y-14072438D02*
X35738095Y-14120057D01*
X35738095Y-14120057D02*
X35690476Y-14215295D01*
X35690476Y-14215295D02*
X35690476Y-14453390D01*
X35690476Y-14453390D02*
X35738095Y-14548628D01*
X35738095Y-14548628D02*
X35785714Y-14596247D01*
X35785714Y-14596247D02*
X35880952Y-14643866D01*
X35880952Y-14643866D02*
X36071428Y-14643866D01*
X36071428Y-14643866D02*
X36166666Y-14596247D01*
X36166666Y-14596247D02*
X36214285Y-14548628D01*
X36214285Y-14548628D02*
X36261904Y-14453390D01*
X61833333Y-28679580D02*
X61785714Y-28727200D01*
X61785714Y-28727200D02*
X61642857Y-28774819D01*
X61642857Y-28774819D02*
X61547619Y-28774819D01*
X61547619Y-28774819D02*
X61404762Y-28727200D01*
X61404762Y-28727200D02*
X61309524Y-28631961D01*
X61309524Y-28631961D02*
X61261905Y-28536723D01*
X61261905Y-28536723D02*
X61214286Y-28346247D01*
X61214286Y-28346247D02*
X61214286Y-28203390D01*
X61214286Y-28203390D02*
X61261905Y-28012914D01*
X61261905Y-28012914D02*
X61309524Y-27917676D01*
X61309524Y-27917676D02*
X61404762Y-27822438D01*
X61404762Y-27822438D02*
X61547619Y-27774819D01*
X61547619Y-27774819D02*
X61642857Y-27774819D01*
X61642857Y-27774819D02*
X61785714Y-27822438D01*
X61785714Y-27822438D02*
X61833333Y-27870057D01*
X62738095Y-27774819D02*
X62261905Y-27774819D01*
X62261905Y-27774819D02*
X62214286Y-28251009D01*
X62214286Y-28251009D02*
X62261905Y-28203390D01*
X62261905Y-28203390D02*
X62357143Y-28155771D01*
X62357143Y-28155771D02*
X62595238Y-28155771D01*
X62595238Y-28155771D02*
X62690476Y-28203390D01*
X62690476Y-28203390D02*
X62738095Y-28251009D01*
X62738095Y-28251009D02*
X62785714Y-28346247D01*
X62785714Y-28346247D02*
X62785714Y-28584342D01*
X62785714Y-28584342D02*
X62738095Y-28679580D01*
X62738095Y-28679580D02*
X62690476Y-28727200D01*
X62690476Y-28727200D02*
X62595238Y-28774819D01*
X62595238Y-28774819D02*
X62357143Y-28774819D01*
X62357143Y-28774819D02*
X62261905Y-28727200D01*
X62261905Y-28727200D02*
X62214286Y-28679580D01*
X34357142Y-33929580D02*
X34309523Y-33977200D01*
X34309523Y-33977200D02*
X34166666Y-34024819D01*
X34166666Y-34024819D02*
X34071428Y-34024819D01*
X34071428Y-34024819D02*
X33928571Y-33977200D01*
X33928571Y-33977200D02*
X33833333Y-33881961D01*
X33833333Y-33881961D02*
X33785714Y-33786723D01*
X33785714Y-33786723D02*
X33738095Y-33596247D01*
X33738095Y-33596247D02*
X33738095Y-33453390D01*
X33738095Y-33453390D02*
X33785714Y-33262914D01*
X33785714Y-33262914D02*
X33833333Y-33167676D01*
X33833333Y-33167676D02*
X33928571Y-33072438D01*
X33928571Y-33072438D02*
X34071428Y-33024819D01*
X34071428Y-33024819D02*
X34166666Y-33024819D01*
X34166666Y-33024819D02*
X34309523Y-33072438D01*
X34309523Y-33072438D02*
X34357142Y-33120057D01*
X35309523Y-34024819D02*
X34738095Y-34024819D01*
X35023809Y-34024819D02*
X35023809Y-33024819D01*
X35023809Y-33024819D02*
X34928571Y-33167676D01*
X34928571Y-33167676D02*
X34833333Y-33262914D01*
X34833333Y-33262914D02*
X34738095Y-33310533D01*
X35642857Y-33024819D02*
X36261904Y-33024819D01*
X36261904Y-33024819D02*
X35928571Y-33405771D01*
X35928571Y-33405771D02*
X36071428Y-33405771D01*
X36071428Y-33405771D02*
X36166666Y-33453390D01*
X36166666Y-33453390D02*
X36214285Y-33501009D01*
X36214285Y-33501009D02*
X36261904Y-33596247D01*
X36261904Y-33596247D02*
X36261904Y-33834342D01*
X36261904Y-33834342D02*
X36214285Y-33929580D01*
X36214285Y-33929580D02*
X36166666Y-33977200D01*
X36166666Y-33977200D02*
X36071428Y-34024819D01*
X36071428Y-34024819D02*
X35785714Y-34024819D01*
X35785714Y-34024819D02*
X35690476Y-33977200D01*
X35690476Y-33977200D02*
X35642857Y-33929580D01*
X108904819Y-41833333D02*
X109619104Y-41833333D01*
X109619104Y-41833333D02*
X109761961Y-41880952D01*
X109761961Y-41880952D02*
X109857200Y-41976190D01*
X109857200Y-41976190D02*
X109904819Y-42119047D01*
X109904819Y-42119047D02*
X109904819Y-42214285D01*
X108904819Y-41452380D02*
X108904819Y-40833333D01*
X108904819Y-40833333D02*
X109285771Y-41166666D01*
X109285771Y-41166666D02*
X109285771Y-41023809D01*
X109285771Y-41023809D02*
X109333390Y-40928571D01*
X109333390Y-40928571D02*
X109381009Y-40880952D01*
X109381009Y-40880952D02*
X109476247Y-40833333D01*
X109476247Y-40833333D02*
X109714342Y-40833333D01*
X109714342Y-40833333D02*
X109809580Y-40880952D01*
X109809580Y-40880952D02*
X109857200Y-40928571D01*
X109857200Y-40928571D02*
X109904819Y-41023809D01*
X109904819Y-41023809D02*
X109904819Y-41309523D01*
X109904819Y-41309523D02*
X109857200Y-41404761D01*
X109857200Y-41404761D02*
X109809580Y-41452380D01*
X58261905Y-7454819D02*
X58261905Y-6454819D01*
X58261905Y-6454819D02*
X58500000Y-6454819D01*
X58500000Y-6454819D02*
X58642857Y-6502438D01*
X58642857Y-6502438D02*
X58738095Y-6597676D01*
X58738095Y-6597676D02*
X58785714Y-6692914D01*
X58785714Y-6692914D02*
X58833333Y-6883390D01*
X58833333Y-6883390D02*
X58833333Y-7026247D01*
X58833333Y-7026247D02*
X58785714Y-7216723D01*
X58785714Y-7216723D02*
X58738095Y-7311961D01*
X58738095Y-7311961D02*
X58642857Y-7407200D01*
X58642857Y-7407200D02*
X58500000Y-7454819D01*
X58500000Y-7454819D02*
X58261905Y-7454819D01*
X59214286Y-6550057D02*
X59261905Y-6502438D01*
X59261905Y-6502438D02*
X59357143Y-6454819D01*
X59357143Y-6454819D02*
X59595238Y-6454819D01*
X59595238Y-6454819D02*
X59690476Y-6502438D01*
X59690476Y-6502438D02*
X59738095Y-6550057D01*
X59738095Y-6550057D02*
X59785714Y-6645295D01*
X59785714Y-6645295D02*
X59785714Y-6740533D01*
X59785714Y-6740533D02*
X59738095Y-6883390D01*
X59738095Y-6883390D02*
X59166667Y-7454819D01*
X59166667Y-7454819D02*
X59785714Y-7454819D01*
X102454819Y-21738094D02*
X101454819Y-21738094D01*
X101454819Y-21738094D02*
X101454819Y-21499999D01*
X101454819Y-21499999D02*
X101502438Y-21357142D01*
X101502438Y-21357142D02*
X101597676Y-21261904D01*
X101597676Y-21261904D02*
X101692914Y-21214285D01*
X101692914Y-21214285D02*
X101883390Y-21166666D01*
X101883390Y-21166666D02*
X102026247Y-21166666D01*
X102026247Y-21166666D02*
X102216723Y-21214285D01*
X102216723Y-21214285D02*
X102311961Y-21261904D01*
X102311961Y-21261904D02*
X102407200Y-21357142D01*
X102407200Y-21357142D02*
X102454819Y-21499999D01*
X102454819Y-21499999D02*
X102454819Y-21738094D01*
X102454819Y-20214285D02*
X102454819Y-20785713D01*
X102454819Y-20499999D02*
X101454819Y-20499999D01*
X101454819Y-20499999D02*
X101597676Y-20595237D01*
X101597676Y-20595237D02*
X101692914Y-20690475D01*
X101692914Y-20690475D02*
X101740533Y-20785713D01*
X115238095Y-67304819D02*
X115238095Y-66304819D01*
X115238095Y-66781009D02*
X115809523Y-66781009D01*
X115809523Y-67304819D02*
X115809523Y-66304819D01*
X116714285Y-66638152D02*
X116714285Y-67304819D01*
X116476190Y-66257200D02*
X116238095Y-66971485D01*
X116238095Y-66971485D02*
X116857142Y-66971485D01*
X77833333Y-9024819D02*
X77500000Y-8548628D01*
X77261905Y-9024819D02*
X77261905Y-8024819D01*
X77261905Y-8024819D02*
X77642857Y-8024819D01*
X77642857Y-8024819D02*
X77738095Y-8072438D01*
X77738095Y-8072438D02*
X77785714Y-8120057D01*
X77785714Y-8120057D02*
X77833333Y-8215295D01*
X77833333Y-8215295D02*
X77833333Y-8358152D01*
X77833333Y-8358152D02*
X77785714Y-8453390D01*
X77785714Y-8453390D02*
X77738095Y-8501009D01*
X77738095Y-8501009D02*
X77642857Y-8548628D01*
X77642857Y-8548628D02*
X77261905Y-8548628D01*
X78309524Y-9024819D02*
X78500000Y-9024819D01*
X78500000Y-9024819D02*
X78595238Y-8977200D01*
X78595238Y-8977200D02*
X78642857Y-8929580D01*
X78642857Y-8929580D02*
X78738095Y-8786723D01*
X78738095Y-8786723D02*
X78785714Y-8596247D01*
X78785714Y-8596247D02*
X78785714Y-8215295D01*
X78785714Y-8215295D02*
X78738095Y-8120057D01*
X78738095Y-8120057D02*
X78690476Y-8072438D01*
X78690476Y-8072438D02*
X78595238Y-8024819D01*
X78595238Y-8024819D02*
X78404762Y-8024819D01*
X78404762Y-8024819D02*
X78309524Y-8072438D01*
X78309524Y-8072438D02*
X78261905Y-8120057D01*
X78261905Y-8120057D02*
X78214286Y-8215295D01*
X78214286Y-8215295D02*
X78214286Y-8453390D01*
X78214286Y-8453390D02*
X78261905Y-8548628D01*
X78261905Y-8548628D02*
X78309524Y-8596247D01*
X78309524Y-8596247D02*
X78404762Y-8643866D01*
X78404762Y-8643866D02*
X78595238Y-8643866D01*
X78595238Y-8643866D02*
X78690476Y-8596247D01*
X78690476Y-8596247D02*
X78738095Y-8548628D01*
X78738095Y-8548628D02*
X78785714Y-8453390D01*
X99416666Y-71004819D02*
X99416666Y-71719104D01*
X99416666Y-71719104D02*
X99369047Y-71861961D01*
X99369047Y-71861961D02*
X99273809Y-71957200D01*
X99273809Y-71957200D02*
X99130952Y-72004819D01*
X99130952Y-72004819D02*
X99035714Y-72004819D01*
X99797619Y-71004819D02*
X100464285Y-71004819D01*
X100464285Y-71004819D02*
X100035714Y-72004819D01*
X52666667Y-51357200D02*
X52809524Y-51404819D01*
X52809524Y-51404819D02*
X53047619Y-51404819D01*
X53047619Y-51404819D02*
X53142857Y-51357200D01*
X53142857Y-51357200D02*
X53190476Y-51309580D01*
X53190476Y-51309580D02*
X53238095Y-51214342D01*
X53238095Y-51214342D02*
X53238095Y-51119104D01*
X53238095Y-51119104D02*
X53190476Y-51023866D01*
X53190476Y-51023866D02*
X53142857Y-50976247D01*
X53142857Y-50976247D02*
X53047619Y-50928628D01*
X53047619Y-50928628D02*
X52857143Y-50881009D01*
X52857143Y-50881009D02*
X52761905Y-50833390D01*
X52761905Y-50833390D02*
X52714286Y-50785771D01*
X52714286Y-50785771D02*
X52666667Y-50690533D01*
X52666667Y-50690533D02*
X52666667Y-50595295D01*
X52666667Y-50595295D02*
X52714286Y-50500057D01*
X52714286Y-50500057D02*
X52761905Y-50452438D01*
X52761905Y-50452438D02*
X52857143Y-50404819D01*
X52857143Y-50404819D02*
X53095238Y-50404819D01*
X53095238Y-50404819D02*
X53238095Y-50452438D01*
X53571429Y-50404819D02*
X53809524Y-51404819D01*
X53809524Y-51404819D02*
X54000000Y-50690533D01*
X54000000Y-50690533D02*
X54190476Y-51404819D01*
X54190476Y-51404819D02*
X54428572Y-50404819D01*
X54714286Y-50404819D02*
X55333333Y-50404819D01*
X55333333Y-50404819D02*
X55000000Y-50785771D01*
X55000000Y-50785771D02*
X55142857Y-50785771D01*
X55142857Y-50785771D02*
X55238095Y-50833390D01*
X55238095Y-50833390D02*
X55285714Y-50881009D01*
X55285714Y-50881009D02*
X55333333Y-50976247D01*
X55333333Y-50976247D02*
X55333333Y-51214342D01*
X55333333Y-51214342D02*
X55285714Y-51309580D01*
X55285714Y-51309580D02*
X55238095Y-51357200D01*
X55238095Y-51357200D02*
X55142857Y-51404819D01*
X55142857Y-51404819D02*
X54857143Y-51404819D01*
X54857143Y-51404819D02*
X54761905Y-51357200D01*
X54761905Y-51357200D02*
X54714286Y-51309580D01*
X81357142Y-30024819D02*
X81023809Y-29548628D01*
X80785714Y-30024819D02*
X80785714Y-29024819D01*
X80785714Y-29024819D02*
X81166666Y-29024819D01*
X81166666Y-29024819D02*
X81261904Y-29072438D01*
X81261904Y-29072438D02*
X81309523Y-29120057D01*
X81309523Y-29120057D02*
X81357142Y-29215295D01*
X81357142Y-29215295D02*
X81357142Y-29358152D01*
X81357142Y-29358152D02*
X81309523Y-29453390D01*
X81309523Y-29453390D02*
X81261904Y-29501009D01*
X81261904Y-29501009D02*
X81166666Y-29548628D01*
X81166666Y-29548628D02*
X80785714Y-29548628D01*
X81738095Y-29120057D02*
X81785714Y-29072438D01*
X81785714Y-29072438D02*
X81880952Y-29024819D01*
X81880952Y-29024819D02*
X82119047Y-29024819D01*
X82119047Y-29024819D02*
X82214285Y-29072438D01*
X82214285Y-29072438D02*
X82261904Y-29120057D01*
X82261904Y-29120057D02*
X82309523Y-29215295D01*
X82309523Y-29215295D02*
X82309523Y-29310533D01*
X82309523Y-29310533D02*
X82261904Y-29453390D01*
X82261904Y-29453390D02*
X81690476Y-30024819D01*
X81690476Y-30024819D02*
X82309523Y-30024819D01*
X83261904Y-30024819D02*
X82690476Y-30024819D01*
X82976190Y-30024819D02*
X82976190Y-29024819D01*
X82976190Y-29024819D02*
X82880952Y-29167676D01*
X82880952Y-29167676D02*
X82785714Y-29262914D01*
X82785714Y-29262914D02*
X82690476Y-29310533D01*
X33666667Y-58357200D02*
X33809524Y-58404819D01*
X33809524Y-58404819D02*
X34047619Y-58404819D01*
X34047619Y-58404819D02*
X34142857Y-58357200D01*
X34142857Y-58357200D02*
X34190476Y-58309580D01*
X34190476Y-58309580D02*
X34238095Y-58214342D01*
X34238095Y-58214342D02*
X34238095Y-58119104D01*
X34238095Y-58119104D02*
X34190476Y-58023866D01*
X34190476Y-58023866D02*
X34142857Y-57976247D01*
X34142857Y-57976247D02*
X34047619Y-57928628D01*
X34047619Y-57928628D02*
X33857143Y-57881009D01*
X33857143Y-57881009D02*
X33761905Y-57833390D01*
X33761905Y-57833390D02*
X33714286Y-57785771D01*
X33714286Y-57785771D02*
X33666667Y-57690533D01*
X33666667Y-57690533D02*
X33666667Y-57595295D01*
X33666667Y-57595295D02*
X33714286Y-57500057D01*
X33714286Y-57500057D02*
X33761905Y-57452438D01*
X33761905Y-57452438D02*
X33857143Y-57404819D01*
X33857143Y-57404819D02*
X34095238Y-57404819D01*
X34095238Y-57404819D02*
X34238095Y-57452438D01*
X34571429Y-57404819D02*
X34809524Y-58404819D01*
X34809524Y-58404819D02*
X35000000Y-57690533D01*
X35000000Y-57690533D02*
X35190476Y-58404819D01*
X35190476Y-58404819D02*
X35428572Y-57404819D01*
X36333333Y-58404819D02*
X35761905Y-58404819D01*
X36047619Y-58404819D02*
X36047619Y-57404819D01*
X36047619Y-57404819D02*
X35952381Y-57547676D01*
X35952381Y-57547676D02*
X35857143Y-57642914D01*
X35857143Y-57642914D02*
X35761905Y-57690533D01*
X85904761Y-36150057D02*
X85809523Y-36102438D01*
X85809523Y-36102438D02*
X85714285Y-36007200D01*
X85714285Y-36007200D02*
X85571428Y-35864342D01*
X85571428Y-35864342D02*
X85476190Y-35816723D01*
X85476190Y-35816723D02*
X85380952Y-35816723D01*
X85428571Y-36054819D02*
X85333333Y-36007200D01*
X85333333Y-36007200D02*
X85238095Y-35911961D01*
X85238095Y-35911961D02*
X85190476Y-35721485D01*
X85190476Y-35721485D02*
X85190476Y-35388152D01*
X85190476Y-35388152D02*
X85238095Y-35197676D01*
X85238095Y-35197676D02*
X85333333Y-35102438D01*
X85333333Y-35102438D02*
X85428571Y-35054819D01*
X85428571Y-35054819D02*
X85619047Y-35054819D01*
X85619047Y-35054819D02*
X85714285Y-35102438D01*
X85714285Y-35102438D02*
X85809523Y-35197676D01*
X85809523Y-35197676D02*
X85857142Y-35388152D01*
X85857142Y-35388152D02*
X85857142Y-35721485D01*
X85857142Y-35721485D02*
X85809523Y-35911961D01*
X85809523Y-35911961D02*
X85714285Y-36007200D01*
X85714285Y-36007200D02*
X85619047Y-36054819D01*
X85619047Y-36054819D02*
X85428571Y-36054819D01*
X86714285Y-35388152D02*
X86714285Y-36054819D01*
X86476190Y-35007200D02*
X86238095Y-35721485D01*
X86238095Y-35721485D02*
X86857142Y-35721485D01*
X79833333Y-12679580D02*
X79785714Y-12727200D01*
X79785714Y-12727200D02*
X79642857Y-12774819D01*
X79642857Y-12774819D02*
X79547619Y-12774819D01*
X79547619Y-12774819D02*
X79404762Y-12727200D01*
X79404762Y-12727200D02*
X79309524Y-12631961D01*
X79309524Y-12631961D02*
X79261905Y-12536723D01*
X79261905Y-12536723D02*
X79214286Y-12346247D01*
X79214286Y-12346247D02*
X79214286Y-12203390D01*
X79214286Y-12203390D02*
X79261905Y-12012914D01*
X79261905Y-12012914D02*
X79309524Y-11917676D01*
X79309524Y-11917676D02*
X79404762Y-11822438D01*
X79404762Y-11822438D02*
X79547619Y-11774819D01*
X79547619Y-11774819D02*
X79642857Y-11774819D01*
X79642857Y-11774819D02*
X79785714Y-11822438D01*
X79785714Y-11822438D02*
X79833333Y-11870057D01*
X80690476Y-12108152D02*
X80690476Y-12774819D01*
X80452381Y-11727200D02*
X80214286Y-12441485D01*
X80214286Y-12441485D02*
X80833333Y-12441485D01*
X101357142Y-58024819D02*
X101023809Y-57548628D01*
X100785714Y-58024819D02*
X100785714Y-57024819D01*
X100785714Y-57024819D02*
X101166666Y-57024819D01*
X101166666Y-57024819D02*
X101261904Y-57072438D01*
X101261904Y-57072438D02*
X101309523Y-57120057D01*
X101309523Y-57120057D02*
X101357142Y-57215295D01*
X101357142Y-57215295D02*
X101357142Y-57358152D01*
X101357142Y-57358152D02*
X101309523Y-57453390D01*
X101309523Y-57453390D02*
X101261904Y-57501009D01*
X101261904Y-57501009D02*
X101166666Y-57548628D01*
X101166666Y-57548628D02*
X100785714Y-57548628D01*
X101738095Y-57120057D02*
X101785714Y-57072438D01*
X101785714Y-57072438D02*
X101880952Y-57024819D01*
X101880952Y-57024819D02*
X102119047Y-57024819D01*
X102119047Y-57024819D02*
X102214285Y-57072438D01*
X102214285Y-57072438D02*
X102261904Y-57120057D01*
X102261904Y-57120057D02*
X102309523Y-57215295D01*
X102309523Y-57215295D02*
X102309523Y-57310533D01*
X102309523Y-57310533D02*
X102261904Y-57453390D01*
X102261904Y-57453390D02*
X101690476Y-58024819D01*
X101690476Y-58024819D02*
X102309523Y-58024819D01*
X103214285Y-57024819D02*
X102738095Y-57024819D01*
X102738095Y-57024819D02*
X102690476Y-57501009D01*
X102690476Y-57501009D02*
X102738095Y-57453390D01*
X102738095Y-57453390D02*
X102833333Y-57405771D01*
X102833333Y-57405771D02*
X103071428Y-57405771D01*
X103071428Y-57405771D02*
X103166666Y-57453390D01*
X103166666Y-57453390D02*
X103214285Y-57501009D01*
X103214285Y-57501009D02*
X103261904Y-57596247D01*
X103261904Y-57596247D02*
X103261904Y-57834342D01*
X103261904Y-57834342D02*
X103214285Y-57929580D01*
X103214285Y-57929580D02*
X103166666Y-57977200D01*
X103166666Y-57977200D02*
X103071428Y-58024819D01*
X103071428Y-58024819D02*
X102833333Y-58024819D01*
X102833333Y-58024819D02*
X102738095Y-57977200D01*
X102738095Y-57977200D02*
X102690476Y-57929580D01*
X108904819Y-31083333D02*
X109619104Y-31083333D01*
X109619104Y-31083333D02*
X109761961Y-31130952D01*
X109761961Y-31130952D02*
X109857200Y-31226190D01*
X109857200Y-31226190D02*
X109904819Y-31369047D01*
X109904819Y-31369047D02*
X109904819Y-31464285D01*
X109238152Y-30178571D02*
X109904819Y-30178571D01*
X108857200Y-30416666D02*
X109571485Y-30654761D01*
X109571485Y-30654761D02*
X109571485Y-30035714D01*
X87357142Y-61024819D02*
X87023809Y-60548628D01*
X86785714Y-61024819D02*
X86785714Y-60024819D01*
X86785714Y-60024819D02*
X87166666Y-60024819D01*
X87166666Y-60024819D02*
X87261904Y-60072438D01*
X87261904Y-60072438D02*
X87309523Y-60120057D01*
X87309523Y-60120057D02*
X87357142Y-60215295D01*
X87357142Y-60215295D02*
X87357142Y-60358152D01*
X87357142Y-60358152D02*
X87309523Y-60453390D01*
X87309523Y-60453390D02*
X87261904Y-60501009D01*
X87261904Y-60501009D02*
X87166666Y-60548628D01*
X87166666Y-60548628D02*
X86785714Y-60548628D01*
X88309523Y-61024819D02*
X87738095Y-61024819D01*
X88023809Y-61024819D02*
X88023809Y-60024819D01*
X88023809Y-60024819D02*
X87928571Y-60167676D01*
X87928571Y-60167676D02*
X87833333Y-60262914D01*
X87833333Y-60262914D02*
X87738095Y-60310533D01*
X89214285Y-60024819D02*
X88738095Y-60024819D01*
X88738095Y-60024819D02*
X88690476Y-60501009D01*
X88690476Y-60501009D02*
X88738095Y-60453390D01*
X88738095Y-60453390D02*
X88833333Y-60405771D01*
X88833333Y-60405771D02*
X89071428Y-60405771D01*
X89071428Y-60405771D02*
X89166666Y-60453390D01*
X89166666Y-60453390D02*
X89214285Y-60501009D01*
X89214285Y-60501009D02*
X89261904Y-60596247D01*
X89261904Y-60596247D02*
X89261904Y-60834342D01*
X89261904Y-60834342D02*
X89214285Y-60929580D01*
X89214285Y-60929580D02*
X89166666Y-60977200D01*
X89166666Y-60977200D02*
X89071428Y-61024819D01*
X89071428Y-61024819D02*
X88833333Y-61024819D01*
X88833333Y-61024819D02*
X88738095Y-60977200D01*
X88738095Y-60977200D02*
X88690476Y-60929580D01*
X49238095Y-17054819D02*
X49238095Y-17864342D01*
X49238095Y-17864342D02*
X49285714Y-17959580D01*
X49285714Y-17959580D02*
X49333333Y-18007200D01*
X49333333Y-18007200D02*
X49428571Y-18054819D01*
X49428571Y-18054819D02*
X49619047Y-18054819D01*
X49619047Y-18054819D02*
X49714285Y-18007200D01*
X49714285Y-18007200D02*
X49761904Y-17959580D01*
X49761904Y-17959580D02*
X49809523Y-17864342D01*
X49809523Y-17864342D02*
X49809523Y-17054819D01*
X50714285Y-17388152D02*
X50714285Y-18054819D01*
X50476190Y-17007200D02*
X50238095Y-17721485D01*
X50238095Y-17721485D02*
X50857142Y-17721485D01*
X81357142Y-19024819D02*
X81023809Y-18548628D01*
X80785714Y-19024819D02*
X80785714Y-18024819D01*
X80785714Y-18024819D02*
X81166666Y-18024819D01*
X81166666Y-18024819D02*
X81261904Y-18072438D01*
X81261904Y-18072438D02*
X81309523Y-18120057D01*
X81309523Y-18120057D02*
X81357142Y-18215295D01*
X81357142Y-18215295D02*
X81357142Y-18358152D01*
X81357142Y-18358152D02*
X81309523Y-18453390D01*
X81309523Y-18453390D02*
X81261904Y-18501009D01*
X81261904Y-18501009D02*
X81166666Y-18548628D01*
X81166666Y-18548628D02*
X80785714Y-18548628D01*
X82309523Y-19024819D02*
X81738095Y-19024819D01*
X82023809Y-19024819D02*
X82023809Y-18024819D01*
X82023809Y-18024819D02*
X81928571Y-18167676D01*
X81928571Y-18167676D02*
X81833333Y-18262914D01*
X81833333Y-18262914D02*
X81738095Y-18310533D01*
X82880952Y-18453390D02*
X82785714Y-18405771D01*
X82785714Y-18405771D02*
X82738095Y-18358152D01*
X82738095Y-18358152D02*
X82690476Y-18262914D01*
X82690476Y-18262914D02*
X82690476Y-18215295D01*
X82690476Y-18215295D02*
X82738095Y-18120057D01*
X82738095Y-18120057D02*
X82785714Y-18072438D01*
X82785714Y-18072438D02*
X82880952Y-18024819D01*
X82880952Y-18024819D02*
X83071428Y-18024819D01*
X83071428Y-18024819D02*
X83166666Y-18072438D01*
X83166666Y-18072438D02*
X83214285Y-18120057D01*
X83214285Y-18120057D02*
X83261904Y-18215295D01*
X83261904Y-18215295D02*
X83261904Y-18262914D01*
X83261904Y-18262914D02*
X83214285Y-18358152D01*
X83214285Y-18358152D02*
X83166666Y-18405771D01*
X83166666Y-18405771D02*
X83071428Y-18453390D01*
X83071428Y-18453390D02*
X82880952Y-18453390D01*
X82880952Y-18453390D02*
X82785714Y-18501009D01*
X82785714Y-18501009D02*
X82738095Y-18548628D01*
X82738095Y-18548628D02*
X82690476Y-18643866D01*
X82690476Y-18643866D02*
X82690476Y-18834342D01*
X82690476Y-18834342D02*
X82738095Y-18929580D01*
X82738095Y-18929580D02*
X82785714Y-18977200D01*
X82785714Y-18977200D02*
X82880952Y-19024819D01*
X82880952Y-19024819D02*
X83071428Y-19024819D01*
X83071428Y-19024819D02*
X83166666Y-18977200D01*
X83166666Y-18977200D02*
X83214285Y-18929580D01*
X83214285Y-18929580D02*
X83261904Y-18834342D01*
X83261904Y-18834342D02*
X83261904Y-18643866D01*
X83261904Y-18643866D02*
X83214285Y-18548628D01*
X83214285Y-18548628D02*
X83166666Y-18501009D01*
X83166666Y-18501009D02*
X83071428Y-18453390D01*
X34833333Y-47929580D02*
X34785714Y-47977200D01*
X34785714Y-47977200D02*
X34642857Y-48024819D01*
X34642857Y-48024819D02*
X34547619Y-48024819D01*
X34547619Y-48024819D02*
X34404762Y-47977200D01*
X34404762Y-47977200D02*
X34309524Y-47881961D01*
X34309524Y-47881961D02*
X34261905Y-47786723D01*
X34261905Y-47786723D02*
X34214286Y-47596247D01*
X34214286Y-47596247D02*
X34214286Y-47453390D01*
X34214286Y-47453390D02*
X34261905Y-47262914D01*
X34261905Y-47262914D02*
X34309524Y-47167676D01*
X34309524Y-47167676D02*
X34404762Y-47072438D01*
X34404762Y-47072438D02*
X34547619Y-47024819D01*
X34547619Y-47024819D02*
X34642857Y-47024819D01*
X34642857Y-47024819D02*
X34785714Y-47072438D01*
X34785714Y-47072438D02*
X34833333Y-47120057D01*
X35785714Y-48024819D02*
X35214286Y-48024819D01*
X35500000Y-48024819D02*
X35500000Y-47024819D01*
X35500000Y-47024819D02*
X35404762Y-47167676D01*
X35404762Y-47167676D02*
X35309524Y-47262914D01*
X35309524Y-47262914D02*
X35214286Y-47310533D01*
X77833333Y-26024819D02*
X77500000Y-25548628D01*
X77261905Y-26024819D02*
X77261905Y-25024819D01*
X77261905Y-25024819D02*
X77642857Y-25024819D01*
X77642857Y-25024819D02*
X77738095Y-25072438D01*
X77738095Y-25072438D02*
X77785714Y-25120057D01*
X77785714Y-25120057D02*
X77833333Y-25215295D01*
X77833333Y-25215295D02*
X77833333Y-25358152D01*
X77833333Y-25358152D02*
X77785714Y-25453390D01*
X77785714Y-25453390D02*
X77738095Y-25501009D01*
X77738095Y-25501009D02*
X77642857Y-25548628D01*
X77642857Y-25548628D02*
X77261905Y-25548628D01*
X78404762Y-25453390D02*
X78309524Y-25405771D01*
X78309524Y-25405771D02*
X78261905Y-25358152D01*
X78261905Y-25358152D02*
X78214286Y-25262914D01*
X78214286Y-25262914D02*
X78214286Y-25215295D01*
X78214286Y-25215295D02*
X78261905Y-25120057D01*
X78261905Y-25120057D02*
X78309524Y-25072438D01*
X78309524Y-25072438D02*
X78404762Y-25024819D01*
X78404762Y-25024819D02*
X78595238Y-25024819D01*
X78595238Y-25024819D02*
X78690476Y-25072438D01*
X78690476Y-25072438D02*
X78738095Y-25120057D01*
X78738095Y-25120057D02*
X78785714Y-25215295D01*
X78785714Y-25215295D02*
X78785714Y-25262914D01*
X78785714Y-25262914D02*
X78738095Y-25358152D01*
X78738095Y-25358152D02*
X78690476Y-25405771D01*
X78690476Y-25405771D02*
X78595238Y-25453390D01*
X78595238Y-25453390D02*
X78404762Y-25453390D01*
X78404762Y-25453390D02*
X78309524Y-25501009D01*
X78309524Y-25501009D02*
X78261905Y-25548628D01*
X78261905Y-25548628D02*
X78214286Y-25643866D01*
X78214286Y-25643866D02*
X78214286Y-25834342D01*
X78214286Y-25834342D02*
X78261905Y-25929580D01*
X78261905Y-25929580D02*
X78309524Y-25977200D01*
X78309524Y-25977200D02*
X78404762Y-26024819D01*
X78404762Y-26024819D02*
X78595238Y-26024819D01*
X78595238Y-26024819D02*
X78690476Y-25977200D01*
X78690476Y-25977200D02*
X78738095Y-25929580D01*
X78738095Y-25929580D02*
X78785714Y-25834342D01*
X78785714Y-25834342D02*
X78785714Y-25643866D01*
X78785714Y-25643866D02*
X78738095Y-25548628D01*
X78738095Y-25548628D02*
X78690476Y-25501009D01*
X78690476Y-25501009D02*
X78595238Y-25453390D01*
X94904761Y-36150057D02*
X94809523Y-36102438D01*
X94809523Y-36102438D02*
X94714285Y-36007200D01*
X94714285Y-36007200D02*
X94571428Y-35864342D01*
X94571428Y-35864342D02*
X94476190Y-35816723D01*
X94476190Y-35816723D02*
X94380952Y-35816723D01*
X94428571Y-36054819D02*
X94333333Y-36007200D01*
X94333333Y-36007200D02*
X94238095Y-35911961D01*
X94238095Y-35911961D02*
X94190476Y-35721485D01*
X94190476Y-35721485D02*
X94190476Y-35388152D01*
X94190476Y-35388152D02*
X94238095Y-35197676D01*
X94238095Y-35197676D02*
X94333333Y-35102438D01*
X94333333Y-35102438D02*
X94428571Y-35054819D01*
X94428571Y-35054819D02*
X94619047Y-35054819D01*
X94619047Y-35054819D02*
X94714285Y-35102438D01*
X94714285Y-35102438D02*
X94809523Y-35197676D01*
X94809523Y-35197676D02*
X94857142Y-35388152D01*
X94857142Y-35388152D02*
X94857142Y-35721485D01*
X94857142Y-35721485D02*
X94809523Y-35911961D01*
X94809523Y-35911961D02*
X94714285Y-36007200D01*
X94714285Y-36007200D02*
X94619047Y-36054819D01*
X94619047Y-36054819D02*
X94428571Y-36054819D01*
X95190476Y-35054819D02*
X95809523Y-35054819D01*
X95809523Y-35054819D02*
X95476190Y-35435771D01*
X95476190Y-35435771D02*
X95619047Y-35435771D01*
X95619047Y-35435771D02*
X95714285Y-35483390D01*
X95714285Y-35483390D02*
X95761904Y-35531009D01*
X95761904Y-35531009D02*
X95809523Y-35626247D01*
X95809523Y-35626247D02*
X95809523Y-35864342D01*
X95809523Y-35864342D02*
X95761904Y-35959580D01*
X95761904Y-35959580D02*
X95714285Y-36007200D01*
X95714285Y-36007200D02*
X95619047Y-36054819D01*
X95619047Y-36054819D02*
X95333333Y-36054819D01*
X95333333Y-36054819D02*
X95238095Y-36007200D01*
X95238095Y-36007200D02*
X95190476Y-35959580D01*
X79357142Y-46024819D02*
X79023809Y-45548628D01*
X78785714Y-46024819D02*
X78785714Y-45024819D01*
X78785714Y-45024819D02*
X79166666Y-45024819D01*
X79166666Y-45024819D02*
X79261904Y-45072438D01*
X79261904Y-45072438D02*
X79309523Y-45120057D01*
X79309523Y-45120057D02*
X79357142Y-45215295D01*
X79357142Y-45215295D02*
X79357142Y-45358152D01*
X79357142Y-45358152D02*
X79309523Y-45453390D01*
X79309523Y-45453390D02*
X79261904Y-45501009D01*
X79261904Y-45501009D02*
X79166666Y-45548628D01*
X79166666Y-45548628D02*
X78785714Y-45548628D01*
X80309523Y-46024819D02*
X79738095Y-46024819D01*
X80023809Y-46024819D02*
X80023809Y-45024819D01*
X80023809Y-45024819D02*
X79928571Y-45167676D01*
X79928571Y-45167676D02*
X79833333Y-45262914D01*
X79833333Y-45262914D02*
X79738095Y-45310533D01*
X81261904Y-46024819D02*
X80690476Y-46024819D01*
X80976190Y-46024819D02*
X80976190Y-45024819D01*
X80976190Y-45024819D02*
X80880952Y-45167676D01*
X80880952Y-45167676D02*
X80785714Y-45262914D01*
X80785714Y-45262914D02*
X80690476Y-45310533D01*
X54738095Y-41006819D02*
X55309523Y-41006819D01*
X55023809Y-42006819D02*
X55023809Y-41006819D01*
X55642857Y-42006819D02*
X55642857Y-41006819D01*
X55642857Y-41006819D02*
X56023809Y-41006819D01*
X56023809Y-41006819D02*
X56119047Y-41054438D01*
X56119047Y-41054438D02*
X56166666Y-41102057D01*
X56166666Y-41102057D02*
X56214285Y-41197295D01*
X56214285Y-41197295D02*
X56214285Y-41340152D01*
X56214285Y-41340152D02*
X56166666Y-41435390D01*
X56166666Y-41435390D02*
X56119047Y-41483009D01*
X56119047Y-41483009D02*
X56023809Y-41530628D01*
X56023809Y-41530628D02*
X55642857Y-41530628D01*
X56547619Y-41006819D02*
X57166666Y-41006819D01*
X57166666Y-41006819D02*
X56833333Y-41387771D01*
X56833333Y-41387771D02*
X56976190Y-41387771D01*
X56976190Y-41387771D02*
X57071428Y-41435390D01*
X57071428Y-41435390D02*
X57119047Y-41483009D01*
X57119047Y-41483009D02*
X57166666Y-41578247D01*
X57166666Y-41578247D02*
X57166666Y-41816342D01*
X57166666Y-41816342D02*
X57119047Y-41911580D01*
X57119047Y-41911580D02*
X57071428Y-41959200D01*
X57071428Y-41959200D02*
X56976190Y-42006819D01*
X56976190Y-42006819D02*
X56690476Y-42006819D01*
X56690476Y-42006819D02*
X56595238Y-41959200D01*
X56595238Y-41959200D02*
X56547619Y-41911580D01*
X41833333Y-18004819D02*
X41357143Y-18004819D01*
X41357143Y-18004819D02*
X41357143Y-17004819D01*
X42119048Y-17100057D02*
X42166667Y-17052438D01*
X42166667Y-17052438D02*
X42261905Y-17004819D01*
X42261905Y-17004819D02*
X42500000Y-17004819D01*
X42500000Y-17004819D02*
X42595238Y-17052438D01*
X42595238Y-17052438D02*
X42642857Y-17100057D01*
X42642857Y-17100057D02*
X42690476Y-17195295D01*
X42690476Y-17195295D02*
X42690476Y-17290533D01*
X42690476Y-17290533D02*
X42642857Y-17433390D01*
X42642857Y-17433390D02*
X42071429Y-18004819D01*
X42071429Y-18004819D02*
X42690476Y-18004819D01*
X114666666Y-21281009D02*
X114333333Y-21281009D01*
X114333333Y-21804819D02*
X114333333Y-20804819D01*
X114333333Y-20804819D02*
X114809523Y-20804819D01*
X115142857Y-20900057D02*
X115190476Y-20852438D01*
X115190476Y-20852438D02*
X115285714Y-20804819D01*
X115285714Y-20804819D02*
X115523809Y-20804819D01*
X115523809Y-20804819D02*
X115619047Y-20852438D01*
X115619047Y-20852438D02*
X115666666Y-20900057D01*
X115666666Y-20900057D02*
X115714285Y-20995295D01*
X115714285Y-20995295D02*
X115714285Y-21090533D01*
X115714285Y-21090533D02*
X115666666Y-21233390D01*
X115666666Y-21233390D02*
X115095238Y-21804819D01*
X115095238Y-21804819D02*
X115714285Y-21804819D01*
X85357142Y-46024819D02*
X85023809Y-45548628D01*
X84785714Y-46024819D02*
X84785714Y-45024819D01*
X84785714Y-45024819D02*
X85166666Y-45024819D01*
X85166666Y-45024819D02*
X85261904Y-45072438D01*
X85261904Y-45072438D02*
X85309523Y-45120057D01*
X85309523Y-45120057D02*
X85357142Y-45215295D01*
X85357142Y-45215295D02*
X85357142Y-45358152D01*
X85357142Y-45358152D02*
X85309523Y-45453390D01*
X85309523Y-45453390D02*
X85261904Y-45501009D01*
X85261904Y-45501009D02*
X85166666Y-45548628D01*
X85166666Y-45548628D02*
X84785714Y-45548628D01*
X86309523Y-46024819D02*
X85738095Y-46024819D01*
X86023809Y-46024819D02*
X86023809Y-45024819D01*
X86023809Y-45024819D02*
X85928571Y-45167676D01*
X85928571Y-45167676D02*
X85833333Y-45262914D01*
X85833333Y-45262914D02*
X85738095Y-45310533D01*
X86690476Y-45120057D02*
X86738095Y-45072438D01*
X86738095Y-45072438D02*
X86833333Y-45024819D01*
X86833333Y-45024819D02*
X87071428Y-45024819D01*
X87071428Y-45024819D02*
X87166666Y-45072438D01*
X87166666Y-45072438D02*
X87214285Y-45120057D01*
X87214285Y-45120057D02*
X87261904Y-45215295D01*
X87261904Y-45215295D02*
X87261904Y-45310533D01*
X87261904Y-45310533D02*
X87214285Y-45453390D01*
X87214285Y-45453390D02*
X86642857Y-46024819D01*
X86642857Y-46024819D02*
X87261904Y-46024819D01*
X39238095Y-67304819D02*
X39238095Y-66304819D01*
X39238095Y-66781009D02*
X39809523Y-66781009D01*
X39809523Y-67304819D02*
X39809523Y-66304819D01*
X40190476Y-66304819D02*
X40809523Y-66304819D01*
X40809523Y-66304819D02*
X40476190Y-66685771D01*
X40476190Y-66685771D02*
X40619047Y-66685771D01*
X40619047Y-66685771D02*
X40714285Y-66733390D01*
X40714285Y-66733390D02*
X40761904Y-66781009D01*
X40761904Y-66781009D02*
X40809523Y-66876247D01*
X40809523Y-66876247D02*
X40809523Y-67114342D01*
X40809523Y-67114342D02*
X40761904Y-67209580D01*
X40761904Y-67209580D02*
X40714285Y-67257200D01*
X40714285Y-67257200D02*
X40619047Y-67304819D01*
X40619047Y-67304819D02*
X40333333Y-67304819D01*
X40333333Y-67304819D02*
X40238095Y-67257200D01*
X40238095Y-67257200D02*
X40190476Y-67209580D01*
X67833333Y-28679580D02*
X67785714Y-28727200D01*
X67785714Y-28727200D02*
X67642857Y-28774819D01*
X67642857Y-28774819D02*
X67547619Y-28774819D01*
X67547619Y-28774819D02*
X67404762Y-28727200D01*
X67404762Y-28727200D02*
X67309524Y-28631961D01*
X67309524Y-28631961D02*
X67261905Y-28536723D01*
X67261905Y-28536723D02*
X67214286Y-28346247D01*
X67214286Y-28346247D02*
X67214286Y-28203390D01*
X67214286Y-28203390D02*
X67261905Y-28012914D01*
X67261905Y-28012914D02*
X67309524Y-27917676D01*
X67309524Y-27917676D02*
X67404762Y-27822438D01*
X67404762Y-27822438D02*
X67547619Y-27774819D01*
X67547619Y-27774819D02*
X67642857Y-27774819D01*
X67642857Y-27774819D02*
X67785714Y-27822438D01*
X67785714Y-27822438D02*
X67833333Y-27870057D01*
X68690476Y-27774819D02*
X68500000Y-27774819D01*
X68500000Y-27774819D02*
X68404762Y-27822438D01*
X68404762Y-27822438D02*
X68357143Y-27870057D01*
X68357143Y-27870057D02*
X68261905Y-28012914D01*
X68261905Y-28012914D02*
X68214286Y-28203390D01*
X68214286Y-28203390D02*
X68214286Y-28584342D01*
X68214286Y-28584342D02*
X68261905Y-28679580D01*
X68261905Y-28679580D02*
X68309524Y-28727200D01*
X68309524Y-28727200D02*
X68404762Y-28774819D01*
X68404762Y-28774819D02*
X68595238Y-28774819D01*
X68595238Y-28774819D02*
X68690476Y-28727200D01*
X68690476Y-28727200D02*
X68738095Y-28679580D01*
X68738095Y-28679580D02*
X68785714Y-28584342D01*
X68785714Y-28584342D02*
X68785714Y-28346247D01*
X68785714Y-28346247D02*
X68738095Y-28251009D01*
X68738095Y-28251009D02*
X68690476Y-28203390D01*
X68690476Y-28203390D02*
X68595238Y-28155771D01*
X68595238Y-28155771D02*
X68404762Y-28155771D01*
X68404762Y-28155771D02*
X68309524Y-28203390D01*
X68309524Y-28203390D02*
X68261905Y-28251009D01*
X68261905Y-28251009D02*
X68214286Y-28346247D01*
X31161904Y-42045180D02*
X31161904Y-41235657D01*
X31161904Y-41235657D02*
X31114285Y-41140419D01*
X31114285Y-41140419D02*
X31066666Y-41092800D01*
X31066666Y-41092800D02*
X30971428Y-41045180D01*
X30971428Y-41045180D02*
X30780952Y-41045180D01*
X30780952Y-41045180D02*
X30685714Y-41092800D01*
X30685714Y-41092800D02*
X30638095Y-41140419D01*
X30638095Y-41140419D02*
X30590476Y-41235657D01*
X30590476Y-41235657D02*
X30590476Y-42045180D01*
X29590476Y-41045180D02*
X30161904Y-41045180D01*
X29876190Y-41045180D02*
X29876190Y-42045180D01*
X29876190Y-42045180D02*
X29971428Y-41902323D01*
X29971428Y-41902323D02*
X30066666Y-41807085D01*
X30066666Y-41807085D02*
X30161904Y-41759466D01*
X46738095Y-41006819D02*
X47309523Y-41006819D01*
X47023809Y-42006819D02*
X47023809Y-41006819D01*
X47642857Y-42006819D02*
X47642857Y-41006819D01*
X47642857Y-41006819D02*
X48023809Y-41006819D01*
X48023809Y-41006819D02*
X48119047Y-41054438D01*
X48119047Y-41054438D02*
X48166666Y-41102057D01*
X48166666Y-41102057D02*
X48214285Y-41197295D01*
X48214285Y-41197295D02*
X48214285Y-41340152D01*
X48214285Y-41340152D02*
X48166666Y-41435390D01*
X48166666Y-41435390D02*
X48119047Y-41483009D01*
X48119047Y-41483009D02*
X48023809Y-41530628D01*
X48023809Y-41530628D02*
X47642857Y-41530628D01*
X49166666Y-42006819D02*
X48595238Y-42006819D01*
X48880952Y-42006819D02*
X48880952Y-41006819D01*
X48880952Y-41006819D02*
X48785714Y-41149676D01*
X48785714Y-41149676D02*
X48690476Y-41244914D01*
X48690476Y-41244914D02*
X48595238Y-41292533D01*
X35357142Y-41024819D02*
X35023809Y-40548628D01*
X34785714Y-41024819D02*
X34785714Y-40024819D01*
X34785714Y-40024819D02*
X35166666Y-40024819D01*
X35166666Y-40024819D02*
X35261904Y-40072438D01*
X35261904Y-40072438D02*
X35309523Y-40120057D01*
X35309523Y-40120057D02*
X35357142Y-40215295D01*
X35357142Y-40215295D02*
X35357142Y-40358152D01*
X35357142Y-40358152D02*
X35309523Y-40453390D01*
X35309523Y-40453390D02*
X35261904Y-40501009D01*
X35261904Y-40501009D02*
X35166666Y-40548628D01*
X35166666Y-40548628D02*
X34785714Y-40548628D01*
X36309523Y-41024819D02*
X35738095Y-41024819D01*
X36023809Y-41024819D02*
X36023809Y-40024819D01*
X36023809Y-40024819D02*
X35928571Y-40167676D01*
X35928571Y-40167676D02*
X35833333Y-40262914D01*
X35833333Y-40262914D02*
X35738095Y-40310533D01*
X37166666Y-40024819D02*
X36976190Y-40024819D01*
X36976190Y-40024819D02*
X36880952Y-40072438D01*
X36880952Y-40072438D02*
X36833333Y-40120057D01*
X36833333Y-40120057D02*
X36738095Y-40262914D01*
X36738095Y-40262914D02*
X36690476Y-40453390D01*
X36690476Y-40453390D02*
X36690476Y-40834342D01*
X36690476Y-40834342D02*
X36738095Y-40929580D01*
X36738095Y-40929580D02*
X36785714Y-40977200D01*
X36785714Y-40977200D02*
X36880952Y-41024819D01*
X36880952Y-41024819D02*
X37071428Y-41024819D01*
X37071428Y-41024819D02*
X37166666Y-40977200D01*
X37166666Y-40977200D02*
X37214285Y-40929580D01*
X37214285Y-40929580D02*
X37261904Y-40834342D01*
X37261904Y-40834342D02*
X37261904Y-40596247D01*
X37261904Y-40596247D02*
X37214285Y-40501009D01*
X37214285Y-40501009D02*
X37166666Y-40453390D01*
X37166666Y-40453390D02*
X37071428Y-40405771D01*
X37071428Y-40405771D02*
X36880952Y-40405771D01*
X36880952Y-40405771D02*
X36785714Y-40453390D01*
X36785714Y-40453390D02*
X36738095Y-40501009D01*
X36738095Y-40501009D02*
X36690476Y-40596247D01*
X77704819Y116666D02*
X78419104Y116666D01*
X78419104Y116666D02*
X78561961Y69047D01*
X78561961Y69047D02*
X78657200Y-26190D01*
X78657200Y-26190D02*
X78704819Y-169047D01*
X78704819Y-169047D02*
X78704819Y-264285D01*
X77800057Y545238D02*
X77752438Y592857D01*
X77752438Y592857D02*
X77704819Y688095D01*
X77704819Y688095D02*
X77704819Y926190D01*
X77704819Y926190D02*
X77752438Y1021428D01*
X77752438Y1021428D02*
X77800057Y1069047D01*
X77800057Y1069047D02*
X77895295Y1116666D01*
X77895295Y1116666D02*
X77990533Y1116666D01*
X77990533Y1116666D02*
X78133390Y1069047D01*
X78133390Y1069047D02*
X78704819Y497619D01*
X78704819Y497619D02*
X78704819Y1116666D01*
X16333333Y-75045180D02*
X16333333Y-74330895D01*
X16333333Y-74330895D02*
X16380952Y-74188038D01*
X16380952Y-74188038D02*
X16476190Y-74092800D01*
X16476190Y-74092800D02*
X16619047Y-74045180D01*
X16619047Y-74045180D02*
X16714285Y-74045180D01*
X15714285Y-74616609D02*
X15809523Y-74664228D01*
X15809523Y-74664228D02*
X15857142Y-74711847D01*
X15857142Y-74711847D02*
X15904761Y-74807085D01*
X15904761Y-74807085D02*
X15904761Y-74854704D01*
X15904761Y-74854704D02*
X15857142Y-74949942D01*
X15857142Y-74949942D02*
X15809523Y-74997561D01*
X15809523Y-74997561D02*
X15714285Y-75045180D01*
X15714285Y-75045180D02*
X15523809Y-75045180D01*
X15523809Y-75045180D02*
X15428571Y-74997561D01*
X15428571Y-74997561D02*
X15380952Y-74949942D01*
X15380952Y-74949942D02*
X15333333Y-74854704D01*
X15333333Y-74854704D02*
X15333333Y-74807085D01*
X15333333Y-74807085D02*
X15380952Y-74711847D01*
X15380952Y-74711847D02*
X15428571Y-74664228D01*
X15428571Y-74664228D02*
X15523809Y-74616609D01*
X15523809Y-74616609D02*
X15714285Y-74616609D01*
X15714285Y-74616609D02*
X15809523Y-74568990D01*
X15809523Y-74568990D02*
X15857142Y-74521371D01*
X15857142Y-74521371D02*
X15904761Y-74426133D01*
X15904761Y-74426133D02*
X15904761Y-74235657D01*
X15904761Y-74235657D02*
X15857142Y-74140419D01*
X15857142Y-74140419D02*
X15809523Y-74092800D01*
X15809523Y-74092800D02*
X15714285Y-74045180D01*
X15714285Y-74045180D02*
X15523809Y-74045180D01*
X15523809Y-74045180D02*
X15428571Y-74092800D01*
X15428571Y-74092800D02*
X15380952Y-74140419D01*
X15380952Y-74140419D02*
X15333333Y-74235657D01*
X15333333Y-74235657D02*
X15333333Y-74426133D01*
X15333333Y-74426133D02*
X15380952Y-74521371D01*
X15380952Y-74521371D02*
X15428571Y-74568990D01*
X15428571Y-74568990D02*
X15523809Y-74616609D01*
X83357142Y-32024819D02*
X83023809Y-31548628D01*
X82785714Y-32024819D02*
X82785714Y-31024819D01*
X82785714Y-31024819D02*
X83166666Y-31024819D01*
X83166666Y-31024819D02*
X83261904Y-31072438D01*
X83261904Y-31072438D02*
X83309523Y-31120057D01*
X83309523Y-31120057D02*
X83357142Y-31215295D01*
X83357142Y-31215295D02*
X83357142Y-31358152D01*
X83357142Y-31358152D02*
X83309523Y-31453390D01*
X83309523Y-31453390D02*
X83261904Y-31501009D01*
X83261904Y-31501009D02*
X83166666Y-31548628D01*
X83166666Y-31548628D02*
X82785714Y-31548628D01*
X83738095Y-31120057D02*
X83785714Y-31072438D01*
X83785714Y-31072438D02*
X83880952Y-31024819D01*
X83880952Y-31024819D02*
X84119047Y-31024819D01*
X84119047Y-31024819D02*
X84214285Y-31072438D01*
X84214285Y-31072438D02*
X84261904Y-31120057D01*
X84261904Y-31120057D02*
X84309523Y-31215295D01*
X84309523Y-31215295D02*
X84309523Y-31310533D01*
X84309523Y-31310533D02*
X84261904Y-31453390D01*
X84261904Y-31453390D02*
X83690476Y-32024819D01*
X83690476Y-32024819D02*
X84309523Y-32024819D01*
X84690476Y-31120057D02*
X84738095Y-31072438D01*
X84738095Y-31072438D02*
X84833333Y-31024819D01*
X84833333Y-31024819D02*
X85071428Y-31024819D01*
X85071428Y-31024819D02*
X85166666Y-31072438D01*
X85166666Y-31072438D02*
X85214285Y-31120057D01*
X85214285Y-31120057D02*
X85261904Y-31215295D01*
X85261904Y-31215295D02*
X85261904Y-31310533D01*
X85261904Y-31310533D02*
X85214285Y-31453390D01*
X85214285Y-31453390D02*
X84642857Y-32024819D01*
X84642857Y-32024819D02*
X85261904Y-32024819D01*
X29833333Y-48024819D02*
X29500000Y-47548628D01*
X29261905Y-48024819D02*
X29261905Y-47024819D01*
X29261905Y-47024819D02*
X29642857Y-47024819D01*
X29642857Y-47024819D02*
X29738095Y-47072438D01*
X29738095Y-47072438D02*
X29785714Y-47120057D01*
X29785714Y-47120057D02*
X29833333Y-47215295D01*
X29833333Y-47215295D02*
X29833333Y-47358152D01*
X29833333Y-47358152D02*
X29785714Y-47453390D01*
X29785714Y-47453390D02*
X29738095Y-47501009D01*
X29738095Y-47501009D02*
X29642857Y-47548628D01*
X29642857Y-47548628D02*
X29261905Y-47548628D01*
X30738095Y-47024819D02*
X30261905Y-47024819D01*
X30261905Y-47024819D02*
X30214286Y-47501009D01*
X30214286Y-47501009D02*
X30261905Y-47453390D01*
X30261905Y-47453390D02*
X30357143Y-47405771D01*
X30357143Y-47405771D02*
X30595238Y-47405771D01*
X30595238Y-47405771D02*
X30690476Y-47453390D01*
X30690476Y-47453390D02*
X30738095Y-47501009D01*
X30738095Y-47501009D02*
X30785714Y-47596247D01*
X30785714Y-47596247D02*
X30785714Y-47834342D01*
X30785714Y-47834342D02*
X30738095Y-47929580D01*
X30738095Y-47929580D02*
X30690476Y-47977200D01*
X30690476Y-47977200D02*
X30595238Y-48024819D01*
X30595238Y-48024819D02*
X30357143Y-48024819D01*
X30357143Y-48024819D02*
X30261905Y-47977200D01*
X30261905Y-47977200D02*
X30214286Y-47929580D01*
X101357142Y-51024819D02*
X101023809Y-50548628D01*
X100785714Y-51024819D02*
X100785714Y-50024819D01*
X100785714Y-50024819D02*
X101166666Y-50024819D01*
X101166666Y-50024819D02*
X101261904Y-50072438D01*
X101261904Y-50072438D02*
X101309523Y-50120057D01*
X101309523Y-50120057D02*
X101357142Y-50215295D01*
X101357142Y-50215295D02*
X101357142Y-50358152D01*
X101357142Y-50358152D02*
X101309523Y-50453390D01*
X101309523Y-50453390D02*
X101261904Y-50501009D01*
X101261904Y-50501009D02*
X101166666Y-50548628D01*
X101166666Y-50548628D02*
X100785714Y-50548628D01*
X101738095Y-50120057D02*
X101785714Y-50072438D01*
X101785714Y-50072438D02*
X101880952Y-50024819D01*
X101880952Y-50024819D02*
X102119047Y-50024819D01*
X102119047Y-50024819D02*
X102214285Y-50072438D01*
X102214285Y-50072438D02*
X102261904Y-50120057D01*
X102261904Y-50120057D02*
X102309523Y-50215295D01*
X102309523Y-50215295D02*
X102309523Y-50310533D01*
X102309523Y-50310533D02*
X102261904Y-50453390D01*
X102261904Y-50453390D02*
X101690476Y-51024819D01*
X101690476Y-51024819D02*
X102309523Y-51024819D01*
X103166666Y-50358152D02*
X103166666Y-51024819D01*
X102928571Y-49977200D02*
X102690476Y-50691485D01*
X102690476Y-50691485D02*
X103309523Y-50691485D01*
X69833333Y-15929580D02*
X69785714Y-15977200D01*
X69785714Y-15977200D02*
X69642857Y-16024819D01*
X69642857Y-16024819D02*
X69547619Y-16024819D01*
X69547619Y-16024819D02*
X69404762Y-15977200D01*
X69404762Y-15977200D02*
X69309524Y-15881961D01*
X69309524Y-15881961D02*
X69261905Y-15786723D01*
X69261905Y-15786723D02*
X69214286Y-15596247D01*
X69214286Y-15596247D02*
X69214286Y-15453390D01*
X69214286Y-15453390D02*
X69261905Y-15262914D01*
X69261905Y-15262914D02*
X69309524Y-15167676D01*
X69309524Y-15167676D02*
X69404762Y-15072438D01*
X69404762Y-15072438D02*
X69547619Y-15024819D01*
X69547619Y-15024819D02*
X69642857Y-15024819D01*
X69642857Y-15024819D02*
X69785714Y-15072438D01*
X69785714Y-15072438D02*
X69833333Y-15120057D01*
X70166667Y-15024819D02*
X70785714Y-15024819D01*
X70785714Y-15024819D02*
X70452381Y-15405771D01*
X70452381Y-15405771D02*
X70595238Y-15405771D01*
X70595238Y-15405771D02*
X70690476Y-15453390D01*
X70690476Y-15453390D02*
X70738095Y-15501009D01*
X70738095Y-15501009D02*
X70785714Y-15596247D01*
X70785714Y-15596247D02*
X70785714Y-15834342D01*
X70785714Y-15834342D02*
X70738095Y-15929580D01*
X70738095Y-15929580D02*
X70690476Y-15977200D01*
X70690476Y-15977200D02*
X70595238Y-16024819D01*
X70595238Y-16024819D02*
X70309524Y-16024819D01*
X70309524Y-16024819D02*
X70214286Y-15977200D01*
X70214286Y-15977200D02*
X70166667Y-15929580D01*
X115238095Y-304819D02*
X115238095Y695180D01*
X115238095Y218990D02*
X115809523Y218990D01*
X115809523Y-304819D02*
X115809523Y695180D01*
X116238095Y599942D02*
X116285714Y647561D01*
X116285714Y647561D02*
X116380952Y695180D01*
X116380952Y695180D02*
X116619047Y695180D01*
X116619047Y695180D02*
X116714285Y647561D01*
X116714285Y647561D02*
X116761904Y599942D01*
X116761904Y599942D02*
X116809523Y504704D01*
X116809523Y504704D02*
X116809523Y409466D01*
X116809523Y409466D02*
X116761904Y266609D01*
X116761904Y266609D02*
X116190476Y-304819D01*
X116190476Y-304819D02*
X116809523Y-304819D01*
X40666667Y-51357200D02*
X40809524Y-51404819D01*
X40809524Y-51404819D02*
X41047619Y-51404819D01*
X41047619Y-51404819D02*
X41142857Y-51357200D01*
X41142857Y-51357200D02*
X41190476Y-51309580D01*
X41190476Y-51309580D02*
X41238095Y-51214342D01*
X41238095Y-51214342D02*
X41238095Y-51119104D01*
X41238095Y-51119104D02*
X41190476Y-51023866D01*
X41190476Y-51023866D02*
X41142857Y-50976247D01*
X41142857Y-50976247D02*
X41047619Y-50928628D01*
X41047619Y-50928628D02*
X40857143Y-50881009D01*
X40857143Y-50881009D02*
X40761905Y-50833390D01*
X40761905Y-50833390D02*
X40714286Y-50785771D01*
X40714286Y-50785771D02*
X40666667Y-50690533D01*
X40666667Y-50690533D02*
X40666667Y-50595295D01*
X40666667Y-50595295D02*
X40714286Y-50500057D01*
X40714286Y-50500057D02*
X40761905Y-50452438D01*
X40761905Y-50452438D02*
X40857143Y-50404819D01*
X40857143Y-50404819D02*
X41095238Y-50404819D01*
X41095238Y-50404819D02*
X41238095Y-50452438D01*
X41571429Y-50404819D02*
X41809524Y-51404819D01*
X41809524Y-51404819D02*
X42000000Y-50690533D01*
X42000000Y-50690533D02*
X42190476Y-51404819D01*
X42190476Y-51404819D02*
X42428572Y-50404819D01*
X42761905Y-50500057D02*
X42809524Y-50452438D01*
X42809524Y-50452438D02*
X42904762Y-50404819D01*
X42904762Y-50404819D02*
X43142857Y-50404819D01*
X43142857Y-50404819D02*
X43238095Y-50452438D01*
X43238095Y-50452438D02*
X43285714Y-50500057D01*
X43285714Y-50500057D02*
X43333333Y-50595295D01*
X43333333Y-50595295D02*
X43333333Y-50690533D01*
X43333333Y-50690533D02*
X43285714Y-50833390D01*
X43285714Y-50833390D02*
X42714286Y-51404819D01*
X42714286Y-51404819D02*
X43333333Y-51404819D01*
X106261905Y-60254819D02*
X106261905Y-59254819D01*
X106261905Y-59254819D02*
X106500000Y-59254819D01*
X106500000Y-59254819D02*
X106642857Y-59302438D01*
X106642857Y-59302438D02*
X106738095Y-59397676D01*
X106738095Y-59397676D02*
X106785714Y-59492914D01*
X106785714Y-59492914D02*
X106833333Y-59683390D01*
X106833333Y-59683390D02*
X106833333Y-59826247D01*
X106833333Y-59826247D02*
X106785714Y-60016723D01*
X106785714Y-60016723D02*
X106738095Y-60111961D01*
X106738095Y-60111961D02*
X106642857Y-60207200D01*
X106642857Y-60207200D02*
X106500000Y-60254819D01*
X106500000Y-60254819D02*
X106261905Y-60254819D01*
X107690476Y-59588152D02*
X107690476Y-60254819D01*
X107452381Y-59207200D02*
X107214286Y-59921485D01*
X107214286Y-59921485D02*
X107833333Y-59921485D01*
X74738095Y-41006819D02*
X75309523Y-41006819D01*
X75023809Y-42006819D02*
X75023809Y-41006819D01*
X75642857Y-42006819D02*
X75642857Y-41006819D01*
X75642857Y-41006819D02*
X76023809Y-41006819D01*
X76023809Y-41006819D02*
X76119047Y-41054438D01*
X76119047Y-41054438D02*
X76166666Y-41102057D01*
X76166666Y-41102057D02*
X76214285Y-41197295D01*
X76214285Y-41197295D02*
X76214285Y-41340152D01*
X76214285Y-41340152D02*
X76166666Y-41435390D01*
X76166666Y-41435390D02*
X76119047Y-41483009D01*
X76119047Y-41483009D02*
X76023809Y-41530628D01*
X76023809Y-41530628D02*
X75642857Y-41530628D01*
X76785714Y-41435390D02*
X76690476Y-41387771D01*
X76690476Y-41387771D02*
X76642857Y-41340152D01*
X76642857Y-41340152D02*
X76595238Y-41244914D01*
X76595238Y-41244914D02*
X76595238Y-41197295D01*
X76595238Y-41197295D02*
X76642857Y-41102057D01*
X76642857Y-41102057D02*
X76690476Y-41054438D01*
X76690476Y-41054438D02*
X76785714Y-41006819D01*
X76785714Y-41006819D02*
X76976190Y-41006819D01*
X76976190Y-41006819D02*
X77071428Y-41054438D01*
X77071428Y-41054438D02*
X77119047Y-41102057D01*
X77119047Y-41102057D02*
X77166666Y-41197295D01*
X77166666Y-41197295D02*
X77166666Y-41244914D01*
X77166666Y-41244914D02*
X77119047Y-41340152D01*
X77119047Y-41340152D02*
X77071428Y-41387771D01*
X77071428Y-41387771D02*
X76976190Y-41435390D01*
X76976190Y-41435390D02*
X76785714Y-41435390D01*
X76785714Y-41435390D02*
X76690476Y-41483009D01*
X76690476Y-41483009D02*
X76642857Y-41530628D01*
X76642857Y-41530628D02*
X76595238Y-41625866D01*
X76595238Y-41625866D02*
X76595238Y-41816342D01*
X76595238Y-41816342D02*
X76642857Y-41911580D01*
X76642857Y-41911580D02*
X76690476Y-41959200D01*
X76690476Y-41959200D02*
X76785714Y-42006819D01*
X76785714Y-42006819D02*
X76976190Y-42006819D01*
X76976190Y-42006819D02*
X77071428Y-41959200D01*
X77071428Y-41959200D02*
X77119047Y-41911580D01*
X77119047Y-41911580D02*
X77166666Y-41816342D01*
X77166666Y-41816342D02*
X77166666Y-41625866D01*
X77166666Y-41625866D02*
X77119047Y-41530628D01*
X77119047Y-41530628D02*
X77071428Y-41483009D01*
X77071428Y-41483009D02*
X76976190Y-41435390D01*
X94261905Y-62254819D02*
X94261905Y-61254819D01*
X94261905Y-61254819D02*
X94500000Y-61254819D01*
X94500000Y-61254819D02*
X94642857Y-61302438D01*
X94642857Y-61302438D02*
X94738095Y-61397676D01*
X94738095Y-61397676D02*
X94785714Y-61492914D01*
X94785714Y-61492914D02*
X94833333Y-61683390D01*
X94833333Y-61683390D02*
X94833333Y-61826247D01*
X94833333Y-61826247D02*
X94785714Y-62016723D01*
X94785714Y-62016723D02*
X94738095Y-62111961D01*
X94738095Y-62111961D02*
X94642857Y-62207200D01*
X94642857Y-62207200D02*
X94500000Y-62254819D01*
X94500000Y-62254819D02*
X94261905Y-62254819D01*
X95738095Y-61254819D02*
X95261905Y-61254819D01*
X95261905Y-61254819D02*
X95214286Y-61731009D01*
X95214286Y-61731009D02*
X95261905Y-61683390D01*
X95261905Y-61683390D02*
X95357143Y-61635771D01*
X95357143Y-61635771D02*
X95595238Y-61635771D01*
X95595238Y-61635771D02*
X95690476Y-61683390D01*
X95690476Y-61683390D02*
X95738095Y-61731009D01*
X95738095Y-61731009D02*
X95785714Y-61826247D01*
X95785714Y-61826247D02*
X95785714Y-62064342D01*
X95785714Y-62064342D02*
X95738095Y-62159580D01*
X95738095Y-62159580D02*
X95690476Y-62207200D01*
X95690476Y-62207200D02*
X95595238Y-62254819D01*
X95595238Y-62254819D02*
X95357143Y-62254819D01*
X95357143Y-62254819D02*
X95261905Y-62207200D01*
X95261905Y-62207200D02*
X95214286Y-62159580D01*
X53833333Y-25679580D02*
X53785714Y-25727200D01*
X53785714Y-25727200D02*
X53642857Y-25774819D01*
X53642857Y-25774819D02*
X53547619Y-25774819D01*
X53547619Y-25774819D02*
X53404762Y-25727200D01*
X53404762Y-25727200D02*
X53309524Y-25631961D01*
X53309524Y-25631961D02*
X53261905Y-25536723D01*
X53261905Y-25536723D02*
X53214286Y-25346247D01*
X53214286Y-25346247D02*
X53214286Y-25203390D01*
X53214286Y-25203390D02*
X53261905Y-25012914D01*
X53261905Y-25012914D02*
X53309524Y-24917676D01*
X53309524Y-24917676D02*
X53404762Y-24822438D01*
X53404762Y-24822438D02*
X53547619Y-24774819D01*
X53547619Y-24774819D02*
X53642857Y-24774819D01*
X53642857Y-24774819D02*
X53785714Y-24822438D01*
X53785714Y-24822438D02*
X53833333Y-24870057D01*
X54309524Y-25774819D02*
X54500000Y-25774819D01*
X54500000Y-25774819D02*
X54595238Y-25727200D01*
X54595238Y-25727200D02*
X54642857Y-25679580D01*
X54642857Y-25679580D02*
X54738095Y-25536723D01*
X54738095Y-25536723D02*
X54785714Y-25346247D01*
X54785714Y-25346247D02*
X54785714Y-24965295D01*
X54785714Y-24965295D02*
X54738095Y-24870057D01*
X54738095Y-24870057D02*
X54690476Y-24822438D01*
X54690476Y-24822438D02*
X54595238Y-24774819D01*
X54595238Y-24774819D02*
X54404762Y-24774819D01*
X54404762Y-24774819D02*
X54309524Y-24822438D01*
X54309524Y-24822438D02*
X54261905Y-24870057D01*
X54261905Y-24870057D02*
X54214286Y-24965295D01*
X54214286Y-24965295D02*
X54214286Y-25203390D01*
X54214286Y-25203390D02*
X54261905Y-25298628D01*
X54261905Y-25298628D02*
X54309524Y-25346247D01*
X54309524Y-25346247D02*
X54404762Y-25393866D01*
X54404762Y-25393866D02*
X54595238Y-25393866D01*
X54595238Y-25393866D02*
X54690476Y-25346247D01*
X54690476Y-25346247D02*
X54738095Y-25298628D01*
X54738095Y-25298628D02*
X54785714Y-25203390D01*
X108904819Y-63083333D02*
X109619104Y-63083333D01*
X109619104Y-63083333D02*
X109761961Y-63130952D01*
X109761961Y-63130952D02*
X109857200Y-63226190D01*
X109857200Y-63226190D02*
X109904819Y-63369047D01*
X109904819Y-63369047D02*
X109904819Y-63464285D01*
X108904819Y-62178571D02*
X108904819Y-62369047D01*
X108904819Y-62369047D02*
X108952438Y-62464285D01*
X108952438Y-62464285D02*
X109000057Y-62511904D01*
X109000057Y-62511904D02*
X109142914Y-62607142D01*
X109142914Y-62607142D02*
X109333390Y-62654761D01*
X109333390Y-62654761D02*
X109714342Y-62654761D01*
X109714342Y-62654761D02*
X109809580Y-62607142D01*
X109809580Y-62607142D02*
X109857200Y-62559523D01*
X109857200Y-62559523D02*
X109904819Y-62464285D01*
X109904819Y-62464285D02*
X109904819Y-62273809D01*
X109904819Y-62273809D02*
X109857200Y-62178571D01*
X109857200Y-62178571D02*
X109809580Y-62130952D01*
X109809580Y-62130952D02*
X109714342Y-62083333D01*
X109714342Y-62083333D02*
X109476247Y-62083333D01*
X109476247Y-62083333D02*
X109381009Y-62130952D01*
X109381009Y-62130952D02*
X109333390Y-62178571D01*
X109333390Y-62178571D02*
X109285771Y-62273809D01*
X109285771Y-62273809D02*
X109285771Y-62464285D01*
X109285771Y-62464285D02*
X109333390Y-62559523D01*
X109333390Y-62559523D02*
X109381009Y-62607142D01*
X109381009Y-62607142D02*
X109476247Y-62654761D01*
X17024819Y-55166666D02*
X16548628Y-55499999D01*
X17024819Y-55738094D02*
X16024819Y-55738094D01*
X16024819Y-55738094D02*
X16024819Y-55357142D01*
X16024819Y-55357142D02*
X16072438Y-55261904D01*
X16072438Y-55261904D02*
X16120057Y-55214285D01*
X16120057Y-55214285D02*
X16215295Y-55166666D01*
X16215295Y-55166666D02*
X16358152Y-55166666D01*
X16358152Y-55166666D02*
X16453390Y-55214285D01*
X16453390Y-55214285D02*
X16501009Y-55261904D01*
X16501009Y-55261904D02*
X16548628Y-55357142D01*
X16548628Y-55357142D02*
X16548628Y-55738094D01*
X16358152Y-54309523D02*
X17024819Y-54309523D01*
X15977200Y-54547618D02*
X16691485Y-54785713D01*
X16691485Y-54785713D02*
X16691485Y-54166666D01*
X66738095Y-41006819D02*
X67309523Y-41006819D01*
X67023809Y-42006819D02*
X67023809Y-41006819D01*
X67642857Y-42006819D02*
X67642857Y-41006819D01*
X67642857Y-41006819D02*
X68023809Y-41006819D01*
X68023809Y-41006819D02*
X68119047Y-41054438D01*
X68119047Y-41054438D02*
X68166666Y-41102057D01*
X68166666Y-41102057D02*
X68214285Y-41197295D01*
X68214285Y-41197295D02*
X68214285Y-41340152D01*
X68214285Y-41340152D02*
X68166666Y-41435390D01*
X68166666Y-41435390D02*
X68119047Y-41483009D01*
X68119047Y-41483009D02*
X68023809Y-41530628D01*
X68023809Y-41530628D02*
X67642857Y-41530628D01*
X69071428Y-41006819D02*
X68880952Y-41006819D01*
X68880952Y-41006819D02*
X68785714Y-41054438D01*
X68785714Y-41054438D02*
X68738095Y-41102057D01*
X68738095Y-41102057D02*
X68642857Y-41244914D01*
X68642857Y-41244914D02*
X68595238Y-41435390D01*
X68595238Y-41435390D02*
X68595238Y-41816342D01*
X68595238Y-41816342D02*
X68642857Y-41911580D01*
X68642857Y-41911580D02*
X68690476Y-41959200D01*
X68690476Y-41959200D02*
X68785714Y-42006819D01*
X68785714Y-42006819D02*
X68976190Y-42006819D01*
X68976190Y-42006819D02*
X69071428Y-41959200D01*
X69071428Y-41959200D02*
X69119047Y-41911580D01*
X69119047Y-41911580D02*
X69166666Y-41816342D01*
X69166666Y-41816342D02*
X69166666Y-41578247D01*
X69166666Y-41578247D02*
X69119047Y-41483009D01*
X69119047Y-41483009D02*
X69071428Y-41435390D01*
X69071428Y-41435390D02*
X68976190Y-41387771D01*
X68976190Y-41387771D02*
X68785714Y-41387771D01*
X68785714Y-41387771D02*
X68690476Y-41435390D01*
X68690476Y-41435390D02*
X68642857Y-41483009D01*
X68642857Y-41483009D02*
X68595238Y-41578247D01*
X99704819Y116666D02*
X100419104Y116666D01*
X100419104Y116666D02*
X100561961Y69047D01*
X100561961Y69047D02*
X100657200Y-26190D01*
X100657200Y-26190D02*
X100704819Y-169047D01*
X100704819Y-169047D02*
X100704819Y-264285D01*
X100704819Y1116666D02*
X100704819Y545238D01*
X100704819Y830952D02*
X99704819Y830952D01*
X99704819Y830952D02*
X99847676Y735714D01*
X99847676Y735714D02*
X99942914Y640476D01*
X99942914Y640476D02*
X99990533Y545238D01*
X71833333Y-26024819D02*
X71500000Y-25548628D01*
X71261905Y-26024819D02*
X71261905Y-25024819D01*
X71261905Y-25024819D02*
X71642857Y-25024819D01*
X71642857Y-25024819D02*
X71738095Y-25072438D01*
X71738095Y-25072438D02*
X71785714Y-25120057D01*
X71785714Y-25120057D02*
X71833333Y-25215295D01*
X71833333Y-25215295D02*
X71833333Y-25358152D01*
X71833333Y-25358152D02*
X71785714Y-25453390D01*
X71785714Y-25453390D02*
X71738095Y-25501009D01*
X71738095Y-25501009D02*
X71642857Y-25548628D01*
X71642857Y-25548628D02*
X71261905Y-25548628D01*
X72166667Y-25024819D02*
X72833333Y-25024819D01*
X72833333Y-25024819D02*
X72404762Y-26024819D01*
X91904761Y-45150057D02*
X91809523Y-45102438D01*
X91809523Y-45102438D02*
X91714285Y-45007200D01*
X91714285Y-45007200D02*
X91571428Y-44864342D01*
X91571428Y-44864342D02*
X91476190Y-44816723D01*
X91476190Y-44816723D02*
X91380952Y-44816723D01*
X91428571Y-45054819D02*
X91333333Y-45007200D01*
X91333333Y-45007200D02*
X91238095Y-44911961D01*
X91238095Y-44911961D02*
X91190476Y-44721485D01*
X91190476Y-44721485D02*
X91190476Y-44388152D01*
X91190476Y-44388152D02*
X91238095Y-44197676D01*
X91238095Y-44197676D02*
X91333333Y-44102438D01*
X91333333Y-44102438D02*
X91428571Y-44054819D01*
X91428571Y-44054819D02*
X91619047Y-44054819D01*
X91619047Y-44054819D02*
X91714285Y-44102438D01*
X91714285Y-44102438D02*
X91809523Y-44197676D01*
X91809523Y-44197676D02*
X91857142Y-44388152D01*
X91857142Y-44388152D02*
X91857142Y-44721485D01*
X91857142Y-44721485D02*
X91809523Y-44911961D01*
X91809523Y-44911961D02*
X91714285Y-45007200D01*
X91714285Y-45007200D02*
X91619047Y-45054819D01*
X91619047Y-45054819D02*
X91428571Y-45054819D01*
X92238095Y-44150057D02*
X92285714Y-44102438D01*
X92285714Y-44102438D02*
X92380952Y-44054819D01*
X92380952Y-44054819D02*
X92619047Y-44054819D01*
X92619047Y-44054819D02*
X92714285Y-44102438D01*
X92714285Y-44102438D02*
X92761904Y-44150057D01*
X92761904Y-44150057D02*
X92809523Y-44245295D01*
X92809523Y-44245295D02*
X92809523Y-44340533D01*
X92809523Y-44340533D02*
X92761904Y-44483390D01*
X92761904Y-44483390D02*
X92190476Y-45054819D01*
X92190476Y-45054819D02*
X92809523Y-45054819D01*
X95357142Y-51929580D02*
X95309523Y-51977200D01*
X95309523Y-51977200D02*
X95166666Y-52024819D01*
X95166666Y-52024819D02*
X95071428Y-52024819D01*
X95071428Y-52024819D02*
X94928571Y-51977200D01*
X94928571Y-51977200D02*
X94833333Y-51881961D01*
X94833333Y-51881961D02*
X94785714Y-51786723D01*
X94785714Y-51786723D02*
X94738095Y-51596247D01*
X94738095Y-51596247D02*
X94738095Y-51453390D01*
X94738095Y-51453390D02*
X94785714Y-51262914D01*
X94785714Y-51262914D02*
X94833333Y-51167676D01*
X94833333Y-51167676D02*
X94928571Y-51072438D01*
X94928571Y-51072438D02*
X95071428Y-51024819D01*
X95071428Y-51024819D02*
X95166666Y-51024819D01*
X95166666Y-51024819D02*
X95309523Y-51072438D01*
X95309523Y-51072438D02*
X95357142Y-51120057D01*
X96309523Y-52024819D02*
X95738095Y-52024819D01*
X96023809Y-52024819D02*
X96023809Y-51024819D01*
X96023809Y-51024819D02*
X95928571Y-51167676D01*
X95928571Y-51167676D02*
X95833333Y-51262914D01*
X95833333Y-51262914D02*
X95738095Y-51310533D01*
X97214285Y-51024819D02*
X96738095Y-51024819D01*
X96738095Y-51024819D02*
X96690476Y-51501009D01*
X96690476Y-51501009D02*
X96738095Y-51453390D01*
X96738095Y-51453390D02*
X96833333Y-51405771D01*
X96833333Y-51405771D02*
X97071428Y-51405771D01*
X97071428Y-51405771D02*
X97166666Y-51453390D01*
X97166666Y-51453390D02*
X97214285Y-51501009D01*
X97214285Y-51501009D02*
X97261904Y-51596247D01*
X97261904Y-51596247D02*
X97261904Y-51834342D01*
X97261904Y-51834342D02*
X97214285Y-51929580D01*
X97214285Y-51929580D02*
X97166666Y-51977200D01*
X97166666Y-51977200D02*
X97071428Y-52024819D01*
X97071428Y-52024819D02*
X96833333Y-52024819D01*
X96833333Y-52024819D02*
X96738095Y-51977200D01*
X96738095Y-51977200D02*
X96690476Y-51929580D01*
X34357142Y-20024819D02*
X34023809Y-19548628D01*
X33785714Y-20024819D02*
X33785714Y-19024819D01*
X33785714Y-19024819D02*
X34166666Y-19024819D01*
X34166666Y-19024819D02*
X34261904Y-19072438D01*
X34261904Y-19072438D02*
X34309523Y-19120057D01*
X34309523Y-19120057D02*
X34357142Y-19215295D01*
X34357142Y-19215295D02*
X34357142Y-19358152D01*
X34357142Y-19358152D02*
X34309523Y-19453390D01*
X34309523Y-19453390D02*
X34261904Y-19501009D01*
X34261904Y-19501009D02*
X34166666Y-19548628D01*
X34166666Y-19548628D02*
X33785714Y-19548628D01*
X34738095Y-19120057D02*
X34785714Y-19072438D01*
X34785714Y-19072438D02*
X34880952Y-19024819D01*
X34880952Y-19024819D02*
X35119047Y-19024819D01*
X35119047Y-19024819D02*
X35214285Y-19072438D01*
X35214285Y-19072438D02*
X35261904Y-19120057D01*
X35261904Y-19120057D02*
X35309523Y-19215295D01*
X35309523Y-19215295D02*
X35309523Y-19310533D01*
X35309523Y-19310533D02*
X35261904Y-19453390D01*
X35261904Y-19453390D02*
X34690476Y-20024819D01*
X34690476Y-20024819D02*
X35309523Y-20024819D01*
X35928571Y-19024819D02*
X36023809Y-19024819D01*
X36023809Y-19024819D02*
X36119047Y-19072438D01*
X36119047Y-19072438D02*
X36166666Y-19120057D01*
X36166666Y-19120057D02*
X36214285Y-19215295D01*
X36214285Y-19215295D02*
X36261904Y-19405771D01*
X36261904Y-19405771D02*
X36261904Y-19643866D01*
X36261904Y-19643866D02*
X36214285Y-19834342D01*
X36214285Y-19834342D02*
X36166666Y-19929580D01*
X36166666Y-19929580D02*
X36119047Y-19977200D01*
X36119047Y-19977200D02*
X36023809Y-20024819D01*
X36023809Y-20024819D02*
X35928571Y-20024819D01*
X35928571Y-20024819D02*
X35833333Y-19977200D01*
X35833333Y-19977200D02*
X35785714Y-19929580D01*
X35785714Y-19929580D02*
X35738095Y-19834342D01*
X35738095Y-19834342D02*
X35690476Y-19643866D01*
X35690476Y-19643866D02*
X35690476Y-19405771D01*
X35690476Y-19405771D02*
X35738095Y-19215295D01*
X35738095Y-19215295D02*
X35785714Y-19120057D01*
X35785714Y-19120057D02*
X35833333Y-19072438D01*
X35833333Y-19072438D02*
X35928571Y-19024819D01*
X87357142Y-63929580D02*
X87309523Y-63977200D01*
X87309523Y-63977200D02*
X87166666Y-64024819D01*
X87166666Y-64024819D02*
X87071428Y-64024819D01*
X87071428Y-64024819D02*
X86928571Y-63977200D01*
X86928571Y-63977200D02*
X86833333Y-63881961D01*
X86833333Y-63881961D02*
X86785714Y-63786723D01*
X86785714Y-63786723D02*
X86738095Y-63596247D01*
X86738095Y-63596247D02*
X86738095Y-63453390D01*
X86738095Y-63453390D02*
X86785714Y-63262914D01*
X86785714Y-63262914D02*
X86833333Y-63167676D01*
X86833333Y-63167676D02*
X86928571Y-63072438D01*
X86928571Y-63072438D02*
X87071428Y-63024819D01*
X87071428Y-63024819D02*
X87166666Y-63024819D01*
X87166666Y-63024819D02*
X87309523Y-63072438D01*
X87309523Y-63072438D02*
X87357142Y-63120057D01*
X88309523Y-64024819D02*
X87738095Y-64024819D01*
X88023809Y-64024819D02*
X88023809Y-63024819D01*
X88023809Y-63024819D02*
X87928571Y-63167676D01*
X87928571Y-63167676D02*
X87833333Y-63262914D01*
X87833333Y-63262914D02*
X87738095Y-63310533D01*
X88642857Y-63024819D02*
X89309523Y-63024819D01*
X89309523Y-63024819D02*
X88880952Y-64024819D01*
X34357142Y-23929580D02*
X34309523Y-23977200D01*
X34309523Y-23977200D02*
X34166666Y-24024819D01*
X34166666Y-24024819D02*
X34071428Y-24024819D01*
X34071428Y-24024819D02*
X33928571Y-23977200D01*
X33928571Y-23977200D02*
X33833333Y-23881961D01*
X33833333Y-23881961D02*
X33785714Y-23786723D01*
X33785714Y-23786723D02*
X33738095Y-23596247D01*
X33738095Y-23596247D02*
X33738095Y-23453390D01*
X33738095Y-23453390D02*
X33785714Y-23262914D01*
X33785714Y-23262914D02*
X33833333Y-23167676D01*
X33833333Y-23167676D02*
X33928571Y-23072438D01*
X33928571Y-23072438D02*
X34071428Y-23024819D01*
X34071428Y-23024819D02*
X34166666Y-23024819D01*
X34166666Y-23024819D02*
X34309523Y-23072438D01*
X34309523Y-23072438D02*
X34357142Y-23120057D01*
X35309523Y-24024819D02*
X34738095Y-24024819D01*
X35023809Y-24024819D02*
X35023809Y-23024819D01*
X35023809Y-23024819D02*
X34928571Y-23167676D01*
X34928571Y-23167676D02*
X34833333Y-23262914D01*
X34833333Y-23262914D02*
X34738095Y-23310533D01*
X36166666Y-23358152D02*
X36166666Y-24024819D01*
X35928571Y-22977200D02*
X35690476Y-23691485D01*
X35690476Y-23691485D02*
X36309523Y-23691485D01*
X67238095Y-4854819D02*
X67238095Y-5664342D01*
X67238095Y-5664342D02*
X67285714Y-5759580D01*
X67285714Y-5759580D02*
X67333333Y-5807200D01*
X67333333Y-5807200D02*
X67428571Y-5854819D01*
X67428571Y-5854819D02*
X67619047Y-5854819D01*
X67619047Y-5854819D02*
X67714285Y-5807200D01*
X67714285Y-5807200D02*
X67761904Y-5759580D01*
X67761904Y-5759580D02*
X67809523Y-5664342D01*
X67809523Y-5664342D02*
X67809523Y-4854819D01*
X68761904Y-4854819D02*
X68285714Y-4854819D01*
X68285714Y-4854819D02*
X68238095Y-5331009D01*
X68238095Y-5331009D02*
X68285714Y-5283390D01*
X68285714Y-5283390D02*
X68380952Y-5235771D01*
X68380952Y-5235771D02*
X68619047Y-5235771D01*
X68619047Y-5235771D02*
X68714285Y-5283390D01*
X68714285Y-5283390D02*
X68761904Y-5331009D01*
X68761904Y-5331009D02*
X68809523Y-5426247D01*
X68809523Y-5426247D02*
X68809523Y-5664342D01*
X68809523Y-5664342D02*
X68761904Y-5759580D01*
X68761904Y-5759580D02*
X68714285Y-5807200D01*
X68714285Y-5807200D02*
X68619047Y-5854819D01*
X68619047Y-5854819D02*
X68380952Y-5854819D01*
X68380952Y-5854819D02*
X68285714Y-5807200D01*
X68285714Y-5807200D02*
X68238095Y-5759580D01*
X101281009Y-41333333D02*
X101281009Y-41666666D01*
X101804819Y-41666666D02*
X100804819Y-41666666D01*
X100804819Y-41666666D02*
X100804819Y-41190476D01*
X100804819Y-40904761D02*
X100804819Y-40285714D01*
X100804819Y-40285714D02*
X101185771Y-40619047D01*
X101185771Y-40619047D02*
X101185771Y-40476190D01*
X101185771Y-40476190D02*
X101233390Y-40380952D01*
X101233390Y-40380952D02*
X101281009Y-40333333D01*
X101281009Y-40333333D02*
X101376247Y-40285714D01*
X101376247Y-40285714D02*
X101614342Y-40285714D01*
X101614342Y-40285714D02*
X101709580Y-40333333D01*
X101709580Y-40333333D02*
X101757200Y-40380952D01*
X101757200Y-40380952D02*
X101804819Y-40476190D01*
X101804819Y-40476190D02*
X101804819Y-40761904D01*
X101804819Y-40761904D02*
X101757200Y-40857142D01*
X101757200Y-40857142D02*
X101709580Y-40904761D01*
X24833333Y-64024819D02*
X24500000Y-63548628D01*
X24261905Y-64024819D02*
X24261905Y-63024819D01*
X24261905Y-63024819D02*
X24642857Y-63024819D01*
X24642857Y-63024819D02*
X24738095Y-63072438D01*
X24738095Y-63072438D02*
X24785714Y-63120057D01*
X24785714Y-63120057D02*
X24833333Y-63215295D01*
X24833333Y-63215295D02*
X24833333Y-63358152D01*
X24833333Y-63358152D02*
X24785714Y-63453390D01*
X24785714Y-63453390D02*
X24738095Y-63501009D01*
X24738095Y-63501009D02*
X24642857Y-63548628D01*
X24642857Y-63548628D02*
X24261905Y-63548628D01*
X25214286Y-63120057D02*
X25261905Y-63072438D01*
X25261905Y-63072438D02*
X25357143Y-63024819D01*
X25357143Y-63024819D02*
X25595238Y-63024819D01*
X25595238Y-63024819D02*
X25690476Y-63072438D01*
X25690476Y-63072438D02*
X25738095Y-63120057D01*
X25738095Y-63120057D02*
X25785714Y-63215295D01*
X25785714Y-63215295D02*
X25785714Y-63310533D01*
X25785714Y-63310533D02*
X25738095Y-63453390D01*
X25738095Y-63453390D02*
X25166667Y-64024819D01*
X25166667Y-64024819D02*
X25785714Y-64024819D01*
X93357142Y-64024819D02*
X93023809Y-63548628D01*
X92785714Y-64024819D02*
X92785714Y-63024819D01*
X92785714Y-63024819D02*
X93166666Y-63024819D01*
X93166666Y-63024819D02*
X93261904Y-63072438D01*
X93261904Y-63072438D02*
X93309523Y-63120057D01*
X93309523Y-63120057D02*
X93357142Y-63215295D01*
X93357142Y-63215295D02*
X93357142Y-63358152D01*
X93357142Y-63358152D02*
X93309523Y-63453390D01*
X93309523Y-63453390D02*
X93261904Y-63501009D01*
X93261904Y-63501009D02*
X93166666Y-63548628D01*
X93166666Y-63548628D02*
X92785714Y-63548628D01*
X93738095Y-63120057D02*
X93785714Y-63072438D01*
X93785714Y-63072438D02*
X93880952Y-63024819D01*
X93880952Y-63024819D02*
X94119047Y-63024819D01*
X94119047Y-63024819D02*
X94214285Y-63072438D01*
X94214285Y-63072438D02*
X94261904Y-63120057D01*
X94261904Y-63120057D02*
X94309523Y-63215295D01*
X94309523Y-63215295D02*
X94309523Y-63310533D01*
X94309523Y-63310533D02*
X94261904Y-63453390D01*
X94261904Y-63453390D02*
X93690476Y-64024819D01*
X93690476Y-64024819D02*
X94309523Y-64024819D01*
X95166666Y-63024819D02*
X94976190Y-63024819D01*
X94976190Y-63024819D02*
X94880952Y-63072438D01*
X94880952Y-63072438D02*
X94833333Y-63120057D01*
X94833333Y-63120057D02*
X94738095Y-63262914D01*
X94738095Y-63262914D02*
X94690476Y-63453390D01*
X94690476Y-63453390D02*
X94690476Y-63834342D01*
X94690476Y-63834342D02*
X94738095Y-63929580D01*
X94738095Y-63929580D02*
X94785714Y-63977200D01*
X94785714Y-63977200D02*
X94880952Y-64024819D01*
X94880952Y-64024819D02*
X95071428Y-64024819D01*
X95071428Y-64024819D02*
X95166666Y-63977200D01*
X95166666Y-63977200D02*
X95214285Y-63929580D01*
X95214285Y-63929580D02*
X95261904Y-63834342D01*
X95261904Y-63834342D02*
X95261904Y-63596247D01*
X95261904Y-63596247D02*
X95214285Y-63501009D01*
X95214285Y-63501009D02*
X95166666Y-63453390D01*
X95166666Y-63453390D02*
X95071428Y-63405771D01*
X95071428Y-63405771D02*
X94880952Y-63405771D01*
X94880952Y-63405771D02*
X94785714Y-63453390D01*
X94785714Y-63453390D02*
X94738095Y-63501009D01*
X94738095Y-63501009D02*
X94690476Y-63596247D01*
X23854819Y-48761904D02*
X24664342Y-48761904D01*
X24664342Y-48761904D02*
X24759580Y-48714285D01*
X24759580Y-48714285D02*
X24807200Y-48666666D01*
X24807200Y-48666666D02*
X24854819Y-48571428D01*
X24854819Y-48571428D02*
X24854819Y-48380952D01*
X24854819Y-48380952D02*
X24807200Y-48285714D01*
X24807200Y-48285714D02*
X24759580Y-48238095D01*
X24759580Y-48238095D02*
X24664342Y-48190476D01*
X24664342Y-48190476D02*
X23854819Y-48190476D01*
X23950057Y-47761904D02*
X23902438Y-47714285D01*
X23902438Y-47714285D02*
X23854819Y-47619047D01*
X23854819Y-47619047D02*
X23854819Y-47380952D01*
X23854819Y-47380952D02*
X23902438Y-47285714D01*
X23902438Y-47285714D02*
X23950057Y-47238095D01*
X23950057Y-47238095D02*
X24045295Y-47190476D01*
X24045295Y-47190476D02*
X24140533Y-47190476D01*
X24140533Y-47190476D02*
X24283390Y-47238095D01*
X24283390Y-47238095D02*
X24854819Y-47809523D01*
X24854819Y-47809523D02*
X24854819Y-47190476D01*
X49357142Y-28679580D02*
X49309523Y-28727200D01*
X49309523Y-28727200D02*
X49166666Y-28774819D01*
X49166666Y-28774819D02*
X49071428Y-28774819D01*
X49071428Y-28774819D02*
X48928571Y-28727200D01*
X48928571Y-28727200D02*
X48833333Y-28631961D01*
X48833333Y-28631961D02*
X48785714Y-28536723D01*
X48785714Y-28536723D02*
X48738095Y-28346247D01*
X48738095Y-28346247D02*
X48738095Y-28203390D01*
X48738095Y-28203390D02*
X48785714Y-28012914D01*
X48785714Y-28012914D02*
X48833333Y-27917676D01*
X48833333Y-27917676D02*
X48928571Y-27822438D01*
X48928571Y-27822438D02*
X49071428Y-27774819D01*
X49071428Y-27774819D02*
X49166666Y-27774819D01*
X49166666Y-27774819D02*
X49309523Y-27822438D01*
X49309523Y-27822438D02*
X49357142Y-27870057D01*
X50309523Y-28774819D02*
X49738095Y-28774819D01*
X50023809Y-28774819D02*
X50023809Y-27774819D01*
X50023809Y-27774819D02*
X49928571Y-27917676D01*
X49928571Y-27917676D02*
X49833333Y-28012914D01*
X49833333Y-28012914D02*
X49738095Y-28060533D01*
X51261904Y-28774819D02*
X50690476Y-28774819D01*
X50976190Y-28774819D02*
X50976190Y-27774819D01*
X50976190Y-27774819D02*
X50880952Y-27917676D01*
X50880952Y-27917676D02*
X50785714Y-28012914D01*
X50785714Y-28012914D02*
X50690476Y-28060533D01*
X56261905Y-15954819D02*
X56261905Y-14954819D01*
X56261905Y-14954819D02*
X56500000Y-14954819D01*
X56500000Y-14954819D02*
X56642857Y-15002438D01*
X56642857Y-15002438D02*
X56738095Y-15097676D01*
X56738095Y-15097676D02*
X56785714Y-15192914D01*
X56785714Y-15192914D02*
X56833333Y-15383390D01*
X56833333Y-15383390D02*
X56833333Y-15526247D01*
X56833333Y-15526247D02*
X56785714Y-15716723D01*
X56785714Y-15716723D02*
X56738095Y-15811961D01*
X56738095Y-15811961D02*
X56642857Y-15907200D01*
X56642857Y-15907200D02*
X56500000Y-15954819D01*
X56500000Y-15954819D02*
X56261905Y-15954819D01*
X57690476Y-14954819D02*
X57500000Y-14954819D01*
X57500000Y-14954819D02*
X57404762Y-15002438D01*
X57404762Y-15002438D02*
X57357143Y-15050057D01*
X57357143Y-15050057D02*
X57261905Y-15192914D01*
X57261905Y-15192914D02*
X57214286Y-15383390D01*
X57214286Y-15383390D02*
X57214286Y-15764342D01*
X57214286Y-15764342D02*
X57261905Y-15859580D01*
X57261905Y-15859580D02*
X57309524Y-15907200D01*
X57309524Y-15907200D02*
X57404762Y-15954819D01*
X57404762Y-15954819D02*
X57595238Y-15954819D01*
X57595238Y-15954819D02*
X57690476Y-15907200D01*
X57690476Y-15907200D02*
X57738095Y-15859580D01*
X57738095Y-15859580D02*
X57785714Y-15764342D01*
X57785714Y-15764342D02*
X57785714Y-15526247D01*
X57785714Y-15526247D02*
X57738095Y-15431009D01*
X57738095Y-15431009D02*
X57690476Y-15383390D01*
X57690476Y-15383390D02*
X57595238Y-15335771D01*
X57595238Y-15335771D02*
X57404762Y-15335771D01*
X57404762Y-15335771D02*
X57309524Y-15383390D01*
X57309524Y-15383390D02*
X57261905Y-15431009D01*
X57261905Y-15431009D02*
X57214286Y-15526247D01*
X62357142Y-13024819D02*
X62023809Y-12548628D01*
X61785714Y-13024819D02*
X61785714Y-12024819D01*
X61785714Y-12024819D02*
X62166666Y-12024819D01*
X62166666Y-12024819D02*
X62261904Y-12072438D01*
X62261904Y-12072438D02*
X62309523Y-12120057D01*
X62309523Y-12120057D02*
X62357142Y-12215295D01*
X62357142Y-12215295D02*
X62357142Y-12358152D01*
X62357142Y-12358152D02*
X62309523Y-12453390D01*
X62309523Y-12453390D02*
X62261904Y-12501009D01*
X62261904Y-12501009D02*
X62166666Y-12548628D01*
X62166666Y-12548628D02*
X61785714Y-12548628D01*
X63309523Y-13024819D02*
X62738095Y-13024819D01*
X63023809Y-13024819D02*
X63023809Y-12024819D01*
X63023809Y-12024819D02*
X62928571Y-12167676D01*
X62928571Y-12167676D02*
X62833333Y-12262914D01*
X62833333Y-12262914D02*
X62738095Y-12310533D01*
X63928571Y-12024819D02*
X64023809Y-12024819D01*
X64023809Y-12024819D02*
X64119047Y-12072438D01*
X64119047Y-12072438D02*
X64166666Y-12120057D01*
X64166666Y-12120057D02*
X64214285Y-12215295D01*
X64214285Y-12215295D02*
X64261904Y-12405771D01*
X64261904Y-12405771D02*
X64261904Y-12643866D01*
X64261904Y-12643866D02*
X64214285Y-12834342D01*
X64214285Y-12834342D02*
X64166666Y-12929580D01*
X64166666Y-12929580D02*
X64119047Y-12977200D01*
X64119047Y-12977200D02*
X64023809Y-13024819D01*
X64023809Y-13024819D02*
X63928571Y-13024819D01*
X63928571Y-13024819D02*
X63833333Y-12977200D01*
X63833333Y-12977200D02*
X63785714Y-12929580D01*
X63785714Y-12929580D02*
X63738095Y-12834342D01*
X63738095Y-12834342D02*
X63690476Y-12643866D01*
X63690476Y-12643866D02*
X63690476Y-12405771D01*
X63690476Y-12405771D02*
X63738095Y-12215295D01*
X63738095Y-12215295D02*
X63785714Y-12120057D01*
X63785714Y-12120057D02*
X63833333Y-12072438D01*
X63833333Y-12072438D02*
X63928571Y-12024819D01*
X40880952Y-41024819D02*
X40404762Y-41024819D01*
X40404762Y-41024819D02*
X40404762Y-40024819D01*
X41214286Y-40501009D02*
X41547619Y-40501009D01*
X41690476Y-41024819D02*
X41214286Y-41024819D01*
X41214286Y-41024819D02*
X41214286Y-40024819D01*
X41214286Y-40024819D02*
X41690476Y-40024819D01*
X42119048Y-41024819D02*
X42119048Y-40024819D01*
X42119048Y-40024819D02*
X42357143Y-40024819D01*
X42357143Y-40024819D02*
X42500000Y-40072438D01*
X42500000Y-40072438D02*
X42595238Y-40167676D01*
X42595238Y-40167676D02*
X42642857Y-40262914D01*
X42642857Y-40262914D02*
X42690476Y-40453390D01*
X42690476Y-40453390D02*
X42690476Y-40596247D01*
X42690476Y-40596247D02*
X42642857Y-40786723D01*
X42642857Y-40786723D02*
X42595238Y-40881961D01*
X42595238Y-40881961D02*
X42500000Y-40977200D01*
X42500000Y-40977200D02*
X42357143Y-41024819D01*
X42357143Y-41024819D02*
X42119048Y-41024819D01*
X43642857Y-41024819D02*
X43071429Y-41024819D01*
X43357143Y-41024819D02*
X43357143Y-40024819D01*
X43357143Y-40024819D02*
X43261905Y-40167676D01*
X43261905Y-40167676D02*
X43166667Y-40262914D01*
X43166667Y-40262914D02*
X43071429Y-40310533D01*
X43357142Y-28679580D02*
X43309523Y-28727200D01*
X43309523Y-28727200D02*
X43166666Y-28774819D01*
X43166666Y-28774819D02*
X43071428Y-28774819D01*
X43071428Y-28774819D02*
X42928571Y-28727200D01*
X42928571Y-28727200D02*
X42833333Y-28631961D01*
X42833333Y-28631961D02*
X42785714Y-28536723D01*
X42785714Y-28536723D02*
X42738095Y-28346247D01*
X42738095Y-28346247D02*
X42738095Y-28203390D01*
X42738095Y-28203390D02*
X42785714Y-28012914D01*
X42785714Y-28012914D02*
X42833333Y-27917676D01*
X42833333Y-27917676D02*
X42928571Y-27822438D01*
X42928571Y-27822438D02*
X43071428Y-27774819D01*
X43071428Y-27774819D02*
X43166666Y-27774819D01*
X43166666Y-27774819D02*
X43309523Y-27822438D01*
X43309523Y-27822438D02*
X43357142Y-27870057D01*
X44309523Y-28774819D02*
X43738095Y-28774819D01*
X44023809Y-28774819D02*
X44023809Y-27774819D01*
X44023809Y-27774819D02*
X43928571Y-27917676D01*
X43928571Y-27917676D02*
X43833333Y-28012914D01*
X43833333Y-28012914D02*
X43738095Y-28060533D01*
X44928571Y-27774819D02*
X45023809Y-27774819D01*
X45023809Y-27774819D02*
X45119047Y-27822438D01*
X45119047Y-27822438D02*
X45166666Y-27870057D01*
X45166666Y-27870057D02*
X45214285Y-27965295D01*
X45214285Y-27965295D02*
X45261904Y-28155771D01*
X45261904Y-28155771D02*
X45261904Y-28393866D01*
X45261904Y-28393866D02*
X45214285Y-28584342D01*
X45214285Y-28584342D02*
X45166666Y-28679580D01*
X45166666Y-28679580D02*
X45119047Y-28727200D01*
X45119047Y-28727200D02*
X45023809Y-28774819D01*
X45023809Y-28774819D02*
X44928571Y-28774819D01*
X44928571Y-28774819D02*
X44833333Y-28727200D01*
X44833333Y-28727200D02*
X44785714Y-28679580D01*
X44785714Y-28679580D02*
X44738095Y-28584342D01*
X44738095Y-28584342D02*
X44690476Y-28393866D01*
X44690476Y-28393866D02*
X44690476Y-28155771D01*
X44690476Y-28155771D02*
X44738095Y-27965295D01*
X44738095Y-27965295D02*
X44785714Y-27870057D01*
X44785714Y-27870057D02*
X44833333Y-27822438D01*
X44833333Y-27822438D02*
X44928571Y-27774819D01*
X74238095Y-17054819D02*
X74238095Y-17864342D01*
X74238095Y-17864342D02*
X74285714Y-17959580D01*
X74285714Y-17959580D02*
X74333333Y-18007200D01*
X74333333Y-18007200D02*
X74428571Y-18054819D01*
X74428571Y-18054819D02*
X74619047Y-18054819D01*
X74619047Y-18054819D02*
X74714285Y-18007200D01*
X74714285Y-18007200D02*
X74761904Y-17959580D01*
X74761904Y-17959580D02*
X74809523Y-17864342D01*
X74809523Y-17864342D02*
X74809523Y-17054819D01*
X75190476Y-17054819D02*
X75809523Y-17054819D01*
X75809523Y-17054819D02*
X75476190Y-17435771D01*
X75476190Y-17435771D02*
X75619047Y-17435771D01*
X75619047Y-17435771D02*
X75714285Y-17483390D01*
X75714285Y-17483390D02*
X75761904Y-17531009D01*
X75761904Y-17531009D02*
X75809523Y-17626247D01*
X75809523Y-17626247D02*
X75809523Y-17864342D01*
X75809523Y-17864342D02*
X75761904Y-17959580D01*
X75761904Y-17959580D02*
X75714285Y-18007200D01*
X75714285Y-18007200D02*
X75619047Y-18054819D01*
X75619047Y-18054819D02*
X75333333Y-18054819D01*
X75333333Y-18054819D02*
X75238095Y-18007200D01*
X75238095Y-18007200D02*
X75190476Y-17959580D01*
X44833333Y-15929580D02*
X44785714Y-15977200D01*
X44785714Y-15977200D02*
X44642857Y-16024819D01*
X44642857Y-16024819D02*
X44547619Y-16024819D01*
X44547619Y-16024819D02*
X44404762Y-15977200D01*
X44404762Y-15977200D02*
X44309524Y-15881961D01*
X44309524Y-15881961D02*
X44261905Y-15786723D01*
X44261905Y-15786723D02*
X44214286Y-15596247D01*
X44214286Y-15596247D02*
X44214286Y-15453390D01*
X44214286Y-15453390D02*
X44261905Y-15262914D01*
X44261905Y-15262914D02*
X44309524Y-15167676D01*
X44309524Y-15167676D02*
X44404762Y-15072438D01*
X44404762Y-15072438D02*
X44547619Y-15024819D01*
X44547619Y-15024819D02*
X44642857Y-15024819D01*
X44642857Y-15024819D02*
X44785714Y-15072438D01*
X44785714Y-15072438D02*
X44833333Y-15120057D01*
X45404762Y-15453390D02*
X45309524Y-15405771D01*
X45309524Y-15405771D02*
X45261905Y-15358152D01*
X45261905Y-15358152D02*
X45214286Y-15262914D01*
X45214286Y-15262914D02*
X45214286Y-15215295D01*
X45214286Y-15215295D02*
X45261905Y-15120057D01*
X45261905Y-15120057D02*
X45309524Y-15072438D01*
X45309524Y-15072438D02*
X45404762Y-15024819D01*
X45404762Y-15024819D02*
X45595238Y-15024819D01*
X45595238Y-15024819D02*
X45690476Y-15072438D01*
X45690476Y-15072438D02*
X45738095Y-15120057D01*
X45738095Y-15120057D02*
X45785714Y-15215295D01*
X45785714Y-15215295D02*
X45785714Y-15262914D01*
X45785714Y-15262914D02*
X45738095Y-15358152D01*
X45738095Y-15358152D02*
X45690476Y-15405771D01*
X45690476Y-15405771D02*
X45595238Y-15453390D01*
X45595238Y-15453390D02*
X45404762Y-15453390D01*
X45404762Y-15453390D02*
X45309524Y-15501009D01*
X45309524Y-15501009D02*
X45261905Y-15548628D01*
X45261905Y-15548628D02*
X45214286Y-15643866D01*
X45214286Y-15643866D02*
X45214286Y-15834342D01*
X45214286Y-15834342D02*
X45261905Y-15929580D01*
X45261905Y-15929580D02*
X45309524Y-15977200D01*
X45309524Y-15977200D02*
X45404762Y-16024819D01*
X45404762Y-16024819D02*
X45595238Y-16024819D01*
X45595238Y-16024819D02*
X45690476Y-15977200D01*
X45690476Y-15977200D02*
X45738095Y-15929580D01*
X45738095Y-15929580D02*
X45785714Y-15834342D01*
X45785714Y-15834342D02*
X45785714Y-15643866D01*
X45785714Y-15643866D02*
X45738095Y-15548628D01*
X45738095Y-15548628D02*
X45690476Y-15501009D01*
X45690476Y-15501009D02*
X45595238Y-15453390D01*
X108904819Y-53083333D02*
X109619104Y-53083333D01*
X109619104Y-53083333D02*
X109761961Y-53130952D01*
X109761961Y-53130952D02*
X109857200Y-53226190D01*
X109857200Y-53226190D02*
X109904819Y-53369047D01*
X109904819Y-53369047D02*
X109904819Y-53464285D01*
X108904819Y-52130952D02*
X108904819Y-52607142D01*
X108904819Y-52607142D02*
X109381009Y-52654761D01*
X109381009Y-52654761D02*
X109333390Y-52607142D01*
X109333390Y-52607142D02*
X109285771Y-52511904D01*
X109285771Y-52511904D02*
X109285771Y-52273809D01*
X109285771Y-52273809D02*
X109333390Y-52178571D01*
X109333390Y-52178571D02*
X109381009Y-52130952D01*
X109381009Y-52130952D02*
X109476247Y-52083333D01*
X109476247Y-52083333D02*
X109714342Y-52083333D01*
X109714342Y-52083333D02*
X109809580Y-52130952D01*
X109809580Y-52130952D02*
X109857200Y-52178571D01*
X109857200Y-52178571D02*
X109904819Y-52273809D01*
X109904819Y-52273809D02*
X109904819Y-52511904D01*
X109904819Y-52511904D02*
X109857200Y-52607142D01*
X109857200Y-52607142D02*
X109809580Y-52654761D01*
X75833333Y-31059580D02*
X75785714Y-31107200D01*
X75785714Y-31107200D02*
X75642857Y-31154819D01*
X75642857Y-31154819D02*
X75547619Y-31154819D01*
X75547619Y-31154819D02*
X75404762Y-31107200D01*
X75404762Y-31107200D02*
X75309524Y-31011961D01*
X75309524Y-31011961D02*
X75261905Y-30916723D01*
X75261905Y-30916723D02*
X75214286Y-30726247D01*
X75214286Y-30726247D02*
X75214286Y-30583390D01*
X75214286Y-30583390D02*
X75261905Y-30392914D01*
X75261905Y-30392914D02*
X75309524Y-30297676D01*
X75309524Y-30297676D02*
X75404762Y-30202438D01*
X75404762Y-30202438D02*
X75547619Y-30154819D01*
X75547619Y-30154819D02*
X75642857Y-30154819D01*
X75642857Y-30154819D02*
X75785714Y-30202438D01*
X75785714Y-30202438D02*
X75833333Y-30250057D01*
X76166667Y-30154819D02*
X76833333Y-30154819D01*
X76833333Y-30154819D02*
X76404762Y-31154819D01*
X41833333Y-48024819D02*
X41500000Y-47548628D01*
X41261905Y-48024819D02*
X41261905Y-47024819D01*
X41261905Y-47024819D02*
X41642857Y-47024819D01*
X41642857Y-47024819D02*
X41738095Y-47072438D01*
X41738095Y-47072438D02*
X41785714Y-47120057D01*
X41785714Y-47120057D02*
X41833333Y-47215295D01*
X41833333Y-47215295D02*
X41833333Y-47358152D01*
X41833333Y-47358152D02*
X41785714Y-47453390D01*
X41785714Y-47453390D02*
X41738095Y-47501009D01*
X41738095Y-47501009D02*
X41642857Y-47548628D01*
X41642857Y-47548628D02*
X41261905Y-47548628D01*
X42690476Y-47024819D02*
X42500000Y-47024819D01*
X42500000Y-47024819D02*
X42404762Y-47072438D01*
X42404762Y-47072438D02*
X42357143Y-47120057D01*
X42357143Y-47120057D02*
X42261905Y-47262914D01*
X42261905Y-47262914D02*
X42214286Y-47453390D01*
X42214286Y-47453390D02*
X42214286Y-47834342D01*
X42214286Y-47834342D02*
X42261905Y-47929580D01*
X42261905Y-47929580D02*
X42309524Y-47977200D01*
X42309524Y-47977200D02*
X42404762Y-48024819D01*
X42404762Y-48024819D02*
X42595238Y-48024819D01*
X42595238Y-48024819D02*
X42690476Y-47977200D01*
X42690476Y-47977200D02*
X42738095Y-47929580D01*
X42738095Y-47929580D02*
X42785714Y-47834342D01*
X42785714Y-47834342D02*
X42785714Y-47596247D01*
X42785714Y-47596247D02*
X42738095Y-47501009D01*
X42738095Y-47501009D02*
X42690476Y-47453390D01*
X42690476Y-47453390D02*
X42595238Y-47405771D01*
X42595238Y-47405771D02*
X42404762Y-47405771D01*
X42404762Y-47405771D02*
X42309524Y-47453390D01*
X42309524Y-47453390D02*
X42261905Y-47501009D01*
X42261905Y-47501009D02*
X42214286Y-47596247D01*
X56261905Y-20954819D02*
X56261905Y-19954819D01*
X56261905Y-19954819D02*
X56500000Y-19954819D01*
X56500000Y-19954819D02*
X56642857Y-20002438D01*
X56642857Y-20002438D02*
X56738095Y-20097676D01*
X56738095Y-20097676D02*
X56785714Y-20192914D01*
X56785714Y-20192914D02*
X56833333Y-20383390D01*
X56833333Y-20383390D02*
X56833333Y-20526247D01*
X56833333Y-20526247D02*
X56785714Y-20716723D01*
X56785714Y-20716723D02*
X56738095Y-20811961D01*
X56738095Y-20811961D02*
X56642857Y-20907200D01*
X56642857Y-20907200D02*
X56500000Y-20954819D01*
X56500000Y-20954819D02*
X56261905Y-20954819D01*
X57166667Y-19954819D02*
X57833333Y-19954819D01*
X57833333Y-19954819D02*
X57404762Y-20954819D01*
X39238095Y-304819D02*
X39238095Y695180D01*
X39238095Y218990D02*
X39809523Y218990D01*
X39809523Y-304819D02*
X39809523Y695180D01*
X40809523Y-304819D02*
X40238095Y-304819D01*
X40523809Y-304819D02*
X40523809Y695180D01*
X40523809Y695180D02*
X40428571Y552323D01*
X40428571Y552323D02*
X40333333Y457085D01*
X40333333Y457085D02*
X40238095Y409466D01*
X34357142Y-28679580D02*
X34309523Y-28727200D01*
X34309523Y-28727200D02*
X34166666Y-28774819D01*
X34166666Y-28774819D02*
X34071428Y-28774819D01*
X34071428Y-28774819D02*
X33928571Y-28727200D01*
X33928571Y-28727200D02*
X33833333Y-28631961D01*
X33833333Y-28631961D02*
X33785714Y-28536723D01*
X33785714Y-28536723D02*
X33738095Y-28346247D01*
X33738095Y-28346247D02*
X33738095Y-28203390D01*
X33738095Y-28203390D02*
X33785714Y-28012914D01*
X33785714Y-28012914D02*
X33833333Y-27917676D01*
X33833333Y-27917676D02*
X33928571Y-27822438D01*
X33928571Y-27822438D02*
X34071428Y-27774819D01*
X34071428Y-27774819D02*
X34166666Y-27774819D01*
X34166666Y-27774819D02*
X34309523Y-27822438D01*
X34309523Y-27822438D02*
X34357142Y-27870057D01*
X35309523Y-28774819D02*
X34738095Y-28774819D01*
X35023809Y-28774819D02*
X35023809Y-27774819D01*
X35023809Y-27774819D02*
X34928571Y-27917676D01*
X34928571Y-27917676D02*
X34833333Y-28012914D01*
X34833333Y-28012914D02*
X34738095Y-28060533D01*
X35690476Y-27870057D02*
X35738095Y-27822438D01*
X35738095Y-27822438D02*
X35833333Y-27774819D01*
X35833333Y-27774819D02*
X36071428Y-27774819D01*
X36071428Y-27774819D02*
X36166666Y-27822438D01*
X36166666Y-27822438D02*
X36214285Y-27870057D01*
X36214285Y-27870057D02*
X36261904Y-27965295D01*
X36261904Y-27965295D02*
X36261904Y-28060533D01*
X36261904Y-28060533D02*
X36214285Y-28203390D01*
X36214285Y-28203390D02*
X35642857Y-28774819D01*
X35642857Y-28774819D02*
X36261904Y-28774819D01*
X69833333Y-46059580D02*
X69785714Y-46107200D01*
X69785714Y-46107200D02*
X69642857Y-46154819D01*
X69642857Y-46154819D02*
X69547619Y-46154819D01*
X69547619Y-46154819D02*
X69404762Y-46107200D01*
X69404762Y-46107200D02*
X69309524Y-46011961D01*
X69309524Y-46011961D02*
X69261905Y-45916723D01*
X69261905Y-45916723D02*
X69214286Y-45726247D01*
X69214286Y-45726247D02*
X69214286Y-45583390D01*
X69214286Y-45583390D02*
X69261905Y-45392914D01*
X69261905Y-45392914D02*
X69309524Y-45297676D01*
X69309524Y-45297676D02*
X69404762Y-45202438D01*
X69404762Y-45202438D02*
X69547619Y-45154819D01*
X69547619Y-45154819D02*
X69642857Y-45154819D01*
X69642857Y-45154819D02*
X69785714Y-45202438D01*
X69785714Y-45202438D02*
X69833333Y-45250057D01*
X70214286Y-45250057D02*
X70261905Y-45202438D01*
X70261905Y-45202438D02*
X70357143Y-45154819D01*
X70357143Y-45154819D02*
X70595238Y-45154819D01*
X70595238Y-45154819D02*
X70690476Y-45202438D01*
X70690476Y-45202438D02*
X70738095Y-45250057D01*
X70738095Y-45250057D02*
X70785714Y-45345295D01*
X70785714Y-45345295D02*
X70785714Y-45440533D01*
X70785714Y-45440533D02*
X70738095Y-45583390D01*
X70738095Y-45583390D02*
X70166667Y-46154819D01*
X70166667Y-46154819D02*
X70785714Y-46154819D01*
X70936666Y-62074819D02*
X70936666Y-62789104D01*
X70936666Y-62789104D02*
X70889047Y-62931961D01*
X70889047Y-62931961D02*
X70793809Y-63027200D01*
X70793809Y-63027200D02*
X70650952Y-63074819D01*
X70650952Y-63074819D02*
X70555714Y-63074819D01*
X71460476Y-63074819D02*
X71650952Y-63074819D01*
X71650952Y-63074819D02*
X71746190Y-63027200D01*
X71746190Y-63027200D02*
X71793809Y-62979580D01*
X71793809Y-62979580D02*
X71889047Y-62836723D01*
X71889047Y-62836723D02*
X71936666Y-62646247D01*
X71936666Y-62646247D02*
X71936666Y-62265295D01*
X71936666Y-62265295D02*
X71889047Y-62170057D01*
X71889047Y-62170057D02*
X71841428Y-62122438D01*
X71841428Y-62122438D02*
X71746190Y-62074819D01*
X71746190Y-62074819D02*
X71555714Y-62074819D01*
X71555714Y-62074819D02*
X71460476Y-62122438D01*
X71460476Y-62122438D02*
X71412857Y-62170057D01*
X71412857Y-62170057D02*
X71365238Y-62265295D01*
X71365238Y-62265295D02*
X71365238Y-62503390D01*
X71365238Y-62503390D02*
X71412857Y-62598628D01*
X71412857Y-62598628D02*
X71460476Y-62646247D01*
X71460476Y-62646247D02*
X71555714Y-62693866D01*
X71555714Y-62693866D02*
X71746190Y-62693866D01*
X71746190Y-62693866D02*
X71841428Y-62646247D01*
X71841428Y-62646247D02*
X71889047Y-62598628D01*
X71889047Y-62598628D02*
X71936666Y-62503390D01*
X89904761Y-12150057D02*
X89809523Y-12102438D01*
X89809523Y-12102438D02*
X89714285Y-12007200D01*
X89714285Y-12007200D02*
X89571428Y-11864342D01*
X89571428Y-11864342D02*
X89476190Y-11816723D01*
X89476190Y-11816723D02*
X89380952Y-11816723D01*
X89428571Y-12054819D02*
X89333333Y-12007200D01*
X89333333Y-12007200D02*
X89238095Y-11911961D01*
X89238095Y-11911961D02*
X89190476Y-11721485D01*
X89190476Y-11721485D02*
X89190476Y-11388152D01*
X89190476Y-11388152D02*
X89238095Y-11197676D01*
X89238095Y-11197676D02*
X89333333Y-11102438D01*
X89333333Y-11102438D02*
X89428571Y-11054819D01*
X89428571Y-11054819D02*
X89619047Y-11054819D01*
X89619047Y-11054819D02*
X89714285Y-11102438D01*
X89714285Y-11102438D02*
X89809523Y-11197676D01*
X89809523Y-11197676D02*
X89857142Y-11388152D01*
X89857142Y-11388152D02*
X89857142Y-11721485D01*
X89857142Y-11721485D02*
X89809523Y-11911961D01*
X89809523Y-11911961D02*
X89714285Y-12007200D01*
X89714285Y-12007200D02*
X89619047Y-12054819D01*
X89619047Y-12054819D02*
X89428571Y-12054819D01*
X90809523Y-12054819D02*
X90238095Y-12054819D01*
X90523809Y-12054819D02*
X90523809Y-11054819D01*
X90523809Y-11054819D02*
X90428571Y-11197676D01*
X90428571Y-11197676D02*
X90333333Y-11292914D01*
X90333333Y-11292914D02*
X90238095Y-11340533D01*
X106261905Y-50254819D02*
X106261905Y-49254819D01*
X106261905Y-49254819D02*
X106500000Y-49254819D01*
X106500000Y-49254819D02*
X106642857Y-49302438D01*
X106642857Y-49302438D02*
X106738095Y-49397676D01*
X106738095Y-49397676D02*
X106785714Y-49492914D01*
X106785714Y-49492914D02*
X106833333Y-49683390D01*
X106833333Y-49683390D02*
X106833333Y-49826247D01*
X106833333Y-49826247D02*
X106785714Y-50016723D01*
X106785714Y-50016723D02*
X106738095Y-50111961D01*
X106738095Y-50111961D02*
X106642857Y-50207200D01*
X106642857Y-50207200D02*
X106500000Y-50254819D01*
X106500000Y-50254819D02*
X106261905Y-50254819D01*
X107166667Y-49254819D02*
X107785714Y-49254819D01*
X107785714Y-49254819D02*
X107452381Y-49635771D01*
X107452381Y-49635771D02*
X107595238Y-49635771D01*
X107595238Y-49635771D02*
X107690476Y-49683390D01*
X107690476Y-49683390D02*
X107738095Y-49731009D01*
X107738095Y-49731009D02*
X107785714Y-49826247D01*
X107785714Y-49826247D02*
X107785714Y-50064342D01*
X107785714Y-50064342D02*
X107738095Y-50159580D01*
X107738095Y-50159580D02*
X107690476Y-50207200D01*
X107690476Y-50207200D02*
X107595238Y-50254819D01*
X107595238Y-50254819D02*
X107309524Y-50254819D01*
X107309524Y-50254819D02*
X107214286Y-50207200D01*
X107214286Y-50207200D02*
X107166667Y-50159580D01*
X95357142Y-49024819D02*
X95023809Y-48548628D01*
X94785714Y-49024819D02*
X94785714Y-48024819D01*
X94785714Y-48024819D02*
X95166666Y-48024819D01*
X95166666Y-48024819D02*
X95261904Y-48072438D01*
X95261904Y-48072438D02*
X95309523Y-48120057D01*
X95309523Y-48120057D02*
X95357142Y-48215295D01*
X95357142Y-48215295D02*
X95357142Y-48358152D01*
X95357142Y-48358152D02*
X95309523Y-48453390D01*
X95309523Y-48453390D02*
X95261904Y-48501009D01*
X95261904Y-48501009D02*
X95166666Y-48548628D01*
X95166666Y-48548628D02*
X94785714Y-48548628D01*
X96309523Y-49024819D02*
X95738095Y-49024819D01*
X96023809Y-49024819D02*
X96023809Y-48024819D01*
X96023809Y-48024819D02*
X95928571Y-48167676D01*
X95928571Y-48167676D02*
X95833333Y-48262914D01*
X95833333Y-48262914D02*
X95738095Y-48310533D01*
X96642857Y-48024819D02*
X97261904Y-48024819D01*
X97261904Y-48024819D02*
X96928571Y-48405771D01*
X96928571Y-48405771D02*
X97071428Y-48405771D01*
X97071428Y-48405771D02*
X97166666Y-48453390D01*
X97166666Y-48453390D02*
X97214285Y-48501009D01*
X97214285Y-48501009D02*
X97261904Y-48596247D01*
X97261904Y-48596247D02*
X97261904Y-48834342D01*
X97261904Y-48834342D02*
X97214285Y-48929580D01*
X97214285Y-48929580D02*
X97166666Y-48977200D01*
X97166666Y-48977200D02*
X97071428Y-49024819D01*
X97071428Y-49024819D02*
X96785714Y-49024819D01*
X96785714Y-49024819D02*
X96690476Y-48977200D01*
X96690476Y-48977200D02*
X96642857Y-48929580D01*
X97666666Y-11281009D02*
X97333333Y-11281009D01*
X97333333Y-11804819D02*
X97333333Y-10804819D01*
X97333333Y-10804819D02*
X97809523Y-10804819D01*
X98714285Y-11804819D02*
X98142857Y-11804819D01*
X98428571Y-11804819D02*
X98428571Y-10804819D01*
X98428571Y-10804819D02*
X98333333Y-10947676D01*
X98333333Y-10947676D02*
X98238095Y-11042914D01*
X98238095Y-11042914D02*
X98142857Y-11090533D01*
X58738095Y-41006819D02*
X59309523Y-41006819D01*
X59023809Y-42006819D02*
X59023809Y-41006819D01*
X59642857Y-42006819D02*
X59642857Y-41006819D01*
X59642857Y-41006819D02*
X60023809Y-41006819D01*
X60023809Y-41006819D02*
X60119047Y-41054438D01*
X60119047Y-41054438D02*
X60166666Y-41102057D01*
X60166666Y-41102057D02*
X60214285Y-41197295D01*
X60214285Y-41197295D02*
X60214285Y-41340152D01*
X60214285Y-41340152D02*
X60166666Y-41435390D01*
X60166666Y-41435390D02*
X60119047Y-41483009D01*
X60119047Y-41483009D02*
X60023809Y-41530628D01*
X60023809Y-41530628D02*
X59642857Y-41530628D01*
X61071428Y-41340152D02*
X61071428Y-42006819D01*
X60833333Y-40959200D02*
X60595238Y-41673485D01*
X60595238Y-41673485D02*
X61214285Y-41673485D01*
X62738095Y-41006819D02*
X63309523Y-41006819D01*
X63023809Y-42006819D02*
X63023809Y-41006819D01*
X63642857Y-42006819D02*
X63642857Y-41006819D01*
X63642857Y-41006819D02*
X64023809Y-41006819D01*
X64023809Y-41006819D02*
X64119047Y-41054438D01*
X64119047Y-41054438D02*
X64166666Y-41102057D01*
X64166666Y-41102057D02*
X64214285Y-41197295D01*
X64214285Y-41197295D02*
X64214285Y-41340152D01*
X64214285Y-41340152D02*
X64166666Y-41435390D01*
X64166666Y-41435390D02*
X64119047Y-41483009D01*
X64119047Y-41483009D02*
X64023809Y-41530628D01*
X64023809Y-41530628D02*
X63642857Y-41530628D01*
X65119047Y-41006819D02*
X64642857Y-41006819D01*
X64642857Y-41006819D02*
X64595238Y-41483009D01*
X64595238Y-41483009D02*
X64642857Y-41435390D01*
X64642857Y-41435390D02*
X64738095Y-41387771D01*
X64738095Y-41387771D02*
X64976190Y-41387771D01*
X64976190Y-41387771D02*
X65071428Y-41435390D01*
X65071428Y-41435390D02*
X65119047Y-41483009D01*
X65119047Y-41483009D02*
X65166666Y-41578247D01*
X65166666Y-41578247D02*
X65166666Y-41816342D01*
X65166666Y-41816342D02*
X65119047Y-41911580D01*
X65119047Y-41911580D02*
X65071428Y-41959200D01*
X65071428Y-41959200D02*
X64976190Y-42006819D01*
X64976190Y-42006819D02*
X64738095Y-42006819D01*
X64738095Y-42006819D02*
X64642857Y-41959200D01*
X64642857Y-41959200D02*
X64595238Y-41911580D01*
X8833333Y-64024819D02*
X8500000Y-63548628D01*
X8261905Y-64024819D02*
X8261905Y-63024819D01*
X8261905Y-63024819D02*
X8642857Y-63024819D01*
X8642857Y-63024819D02*
X8738095Y-63072438D01*
X8738095Y-63072438D02*
X8785714Y-63120057D01*
X8785714Y-63120057D02*
X8833333Y-63215295D01*
X8833333Y-63215295D02*
X8833333Y-63358152D01*
X8833333Y-63358152D02*
X8785714Y-63453390D01*
X8785714Y-63453390D02*
X8738095Y-63501009D01*
X8738095Y-63501009D02*
X8642857Y-63548628D01*
X8642857Y-63548628D02*
X8261905Y-63548628D01*
X9785714Y-64024819D02*
X9214286Y-64024819D01*
X9500000Y-64024819D02*
X9500000Y-63024819D01*
X9500000Y-63024819D02*
X9404762Y-63167676D01*
X9404762Y-63167676D02*
X9309524Y-63262914D01*
X9309524Y-63262914D02*
X9214286Y-63310533D01*
X50738095Y-41006819D02*
X51309523Y-41006819D01*
X51023809Y-42006819D02*
X51023809Y-41006819D01*
X51642857Y-42006819D02*
X51642857Y-41006819D01*
X51642857Y-41006819D02*
X52023809Y-41006819D01*
X52023809Y-41006819D02*
X52119047Y-41054438D01*
X52119047Y-41054438D02*
X52166666Y-41102057D01*
X52166666Y-41102057D02*
X52214285Y-41197295D01*
X52214285Y-41197295D02*
X52214285Y-41340152D01*
X52214285Y-41340152D02*
X52166666Y-41435390D01*
X52166666Y-41435390D02*
X52119047Y-41483009D01*
X52119047Y-41483009D02*
X52023809Y-41530628D01*
X52023809Y-41530628D02*
X51642857Y-41530628D01*
X52595238Y-41102057D02*
X52642857Y-41054438D01*
X52642857Y-41054438D02*
X52738095Y-41006819D01*
X52738095Y-41006819D02*
X52976190Y-41006819D01*
X52976190Y-41006819D02*
X53071428Y-41054438D01*
X53071428Y-41054438D02*
X53119047Y-41102057D01*
X53119047Y-41102057D02*
X53166666Y-41197295D01*
X53166666Y-41197295D02*
X53166666Y-41292533D01*
X53166666Y-41292533D02*
X53119047Y-41435390D01*
X53119047Y-41435390D02*
X52547619Y-42006819D01*
X52547619Y-42006819D02*
X53166666Y-42006819D01*
X65833333Y-18004819D02*
X65357143Y-18004819D01*
X65357143Y-18004819D02*
X65357143Y-17004819D01*
X66690476Y-18004819D02*
X66119048Y-18004819D01*
X66404762Y-18004819D02*
X66404762Y-17004819D01*
X66404762Y-17004819D02*
X66309524Y-17147676D01*
X66309524Y-17147676D02*
X66214286Y-17242914D01*
X66214286Y-17242914D02*
X66119048Y-17290533D01*
X95357142Y-29024819D02*
X95023809Y-28548628D01*
X94785714Y-29024819D02*
X94785714Y-28024819D01*
X94785714Y-28024819D02*
X95166666Y-28024819D01*
X95166666Y-28024819D02*
X95261904Y-28072438D01*
X95261904Y-28072438D02*
X95309523Y-28120057D01*
X95309523Y-28120057D02*
X95357142Y-28215295D01*
X95357142Y-28215295D02*
X95357142Y-28358152D01*
X95357142Y-28358152D02*
X95309523Y-28453390D01*
X95309523Y-28453390D02*
X95261904Y-28501009D01*
X95261904Y-28501009D02*
X95166666Y-28548628D01*
X95166666Y-28548628D02*
X94785714Y-28548628D01*
X96309523Y-29024819D02*
X95738095Y-29024819D01*
X96023809Y-29024819D02*
X96023809Y-28024819D01*
X96023809Y-28024819D02*
X95928571Y-28167676D01*
X95928571Y-28167676D02*
X95833333Y-28262914D01*
X95833333Y-28262914D02*
X95738095Y-28310533D01*
X96642857Y-28024819D02*
X97309523Y-28024819D01*
X97309523Y-28024819D02*
X96880952Y-29024819D01*
X95357142Y-56024819D02*
X95023809Y-55548628D01*
X94785714Y-56024819D02*
X94785714Y-55024819D01*
X94785714Y-55024819D02*
X95166666Y-55024819D01*
X95166666Y-55024819D02*
X95261904Y-55072438D01*
X95261904Y-55072438D02*
X95309523Y-55120057D01*
X95309523Y-55120057D02*
X95357142Y-55215295D01*
X95357142Y-55215295D02*
X95357142Y-55358152D01*
X95357142Y-55358152D02*
X95309523Y-55453390D01*
X95309523Y-55453390D02*
X95261904Y-55501009D01*
X95261904Y-55501009D02*
X95166666Y-55548628D01*
X95166666Y-55548628D02*
X94785714Y-55548628D01*
X96309523Y-56024819D02*
X95738095Y-56024819D01*
X96023809Y-56024819D02*
X96023809Y-55024819D01*
X96023809Y-55024819D02*
X95928571Y-55167676D01*
X95928571Y-55167676D02*
X95833333Y-55262914D01*
X95833333Y-55262914D02*
X95738095Y-55310533D01*
X97166666Y-55358152D02*
X97166666Y-56024819D01*
X96928571Y-54977200D02*
X96690476Y-55691485D01*
X96690476Y-55691485D02*
X97309523Y-55691485D01*
X95357142Y-58929580D02*
X95309523Y-58977200D01*
X95309523Y-58977200D02*
X95166666Y-59024819D01*
X95166666Y-59024819D02*
X95071428Y-59024819D01*
X95071428Y-59024819D02*
X94928571Y-58977200D01*
X94928571Y-58977200D02*
X94833333Y-58881961D01*
X94833333Y-58881961D02*
X94785714Y-58786723D01*
X94785714Y-58786723D02*
X94738095Y-58596247D01*
X94738095Y-58596247D02*
X94738095Y-58453390D01*
X94738095Y-58453390D02*
X94785714Y-58262914D01*
X94785714Y-58262914D02*
X94833333Y-58167676D01*
X94833333Y-58167676D02*
X94928571Y-58072438D01*
X94928571Y-58072438D02*
X95071428Y-58024819D01*
X95071428Y-58024819D02*
X95166666Y-58024819D01*
X95166666Y-58024819D02*
X95309523Y-58072438D01*
X95309523Y-58072438D02*
X95357142Y-58120057D01*
X96309523Y-59024819D02*
X95738095Y-59024819D01*
X96023809Y-59024819D02*
X96023809Y-58024819D01*
X96023809Y-58024819D02*
X95928571Y-58167676D01*
X95928571Y-58167676D02*
X95833333Y-58262914D01*
X95833333Y-58262914D02*
X95738095Y-58310533D01*
X97166666Y-58024819D02*
X96976190Y-58024819D01*
X96976190Y-58024819D02*
X96880952Y-58072438D01*
X96880952Y-58072438D02*
X96833333Y-58120057D01*
X96833333Y-58120057D02*
X96738095Y-58262914D01*
X96738095Y-58262914D02*
X96690476Y-58453390D01*
X96690476Y-58453390D02*
X96690476Y-58834342D01*
X96690476Y-58834342D02*
X96738095Y-58929580D01*
X96738095Y-58929580D02*
X96785714Y-58977200D01*
X96785714Y-58977200D02*
X96880952Y-59024819D01*
X96880952Y-59024819D02*
X97071428Y-59024819D01*
X97071428Y-59024819D02*
X97166666Y-58977200D01*
X97166666Y-58977200D02*
X97214285Y-58929580D01*
X97214285Y-58929580D02*
X97261904Y-58834342D01*
X97261904Y-58834342D02*
X97261904Y-58596247D01*
X97261904Y-58596247D02*
X97214285Y-58501009D01*
X97214285Y-58501009D02*
X97166666Y-58453390D01*
X97166666Y-58453390D02*
X97071428Y-58405771D01*
X97071428Y-58405771D02*
X96880952Y-58405771D01*
X96880952Y-58405771D02*
X96785714Y-58453390D01*
X96785714Y-58453390D02*
X96738095Y-58501009D01*
X96738095Y-58501009D02*
X96690476Y-58596247D01*
X87357142Y-30024819D02*
X87023809Y-29548628D01*
X86785714Y-30024819D02*
X86785714Y-29024819D01*
X86785714Y-29024819D02*
X87166666Y-29024819D01*
X87166666Y-29024819D02*
X87261904Y-29072438D01*
X87261904Y-29072438D02*
X87309523Y-29120057D01*
X87309523Y-29120057D02*
X87357142Y-29215295D01*
X87357142Y-29215295D02*
X87357142Y-29358152D01*
X87357142Y-29358152D02*
X87309523Y-29453390D01*
X87309523Y-29453390D02*
X87261904Y-29501009D01*
X87261904Y-29501009D02*
X87166666Y-29548628D01*
X87166666Y-29548628D02*
X86785714Y-29548628D01*
X87738095Y-29120057D02*
X87785714Y-29072438D01*
X87785714Y-29072438D02*
X87880952Y-29024819D01*
X87880952Y-29024819D02*
X88119047Y-29024819D01*
X88119047Y-29024819D02*
X88214285Y-29072438D01*
X88214285Y-29072438D02*
X88261904Y-29120057D01*
X88261904Y-29120057D02*
X88309523Y-29215295D01*
X88309523Y-29215295D02*
X88309523Y-29310533D01*
X88309523Y-29310533D02*
X88261904Y-29453390D01*
X88261904Y-29453390D02*
X87690476Y-30024819D01*
X87690476Y-30024819D02*
X88309523Y-30024819D01*
X88642857Y-29024819D02*
X89261904Y-29024819D01*
X89261904Y-29024819D02*
X88928571Y-29405771D01*
X88928571Y-29405771D02*
X89071428Y-29405771D01*
X89071428Y-29405771D02*
X89166666Y-29453390D01*
X89166666Y-29453390D02*
X89214285Y-29501009D01*
X89214285Y-29501009D02*
X89261904Y-29596247D01*
X89261904Y-29596247D02*
X89261904Y-29834342D01*
X89261904Y-29834342D02*
X89214285Y-29929580D01*
X89214285Y-29929580D02*
X89166666Y-29977200D01*
X89166666Y-29977200D02*
X89071428Y-30024819D01*
X89071428Y-30024819D02*
X88785714Y-30024819D01*
X88785714Y-30024819D02*
X88690476Y-29977200D01*
X88690476Y-29977200D02*
X88642857Y-29929580D01*
X24024819Y-55166666D02*
X23548628Y-55499999D01*
X24024819Y-55738094D02*
X23024819Y-55738094D01*
X23024819Y-55738094D02*
X23024819Y-55357142D01*
X23024819Y-55357142D02*
X23072438Y-55261904D01*
X23072438Y-55261904D02*
X23120057Y-55214285D01*
X23120057Y-55214285D02*
X23215295Y-55166666D01*
X23215295Y-55166666D02*
X23358152Y-55166666D01*
X23358152Y-55166666D02*
X23453390Y-55214285D01*
X23453390Y-55214285D02*
X23501009Y-55261904D01*
X23501009Y-55261904D02*
X23548628Y-55357142D01*
X23548628Y-55357142D02*
X23548628Y-55738094D01*
X23024819Y-54833332D02*
X23024819Y-54214285D01*
X23024819Y-54214285D02*
X23405771Y-54547618D01*
X23405771Y-54547618D02*
X23405771Y-54404761D01*
X23405771Y-54404761D02*
X23453390Y-54309523D01*
X23453390Y-54309523D02*
X23501009Y-54261904D01*
X23501009Y-54261904D02*
X23596247Y-54214285D01*
X23596247Y-54214285D02*
X23834342Y-54214285D01*
X23834342Y-54214285D02*
X23929580Y-54261904D01*
X23929580Y-54261904D02*
X23977200Y-54309523D01*
X23977200Y-54309523D02*
X24024819Y-54404761D01*
X24024819Y-54404761D02*
X24024819Y-54690475D01*
X24024819Y-54690475D02*
X23977200Y-54785713D01*
X23977200Y-54785713D02*
X23929580Y-54833332D01*
%TO.C,LED2*%
D11*
X101515000Y-29265000D02*
X101515000Y-30735000D01*
X101515000Y-30735000D02*
X103800000Y-30735000D01*
X103800000Y-29265000D02*
X101515000Y-29265000D01*
%TO.C,TP7*%
X72700000Y-43000000D02*
G75*
G02*
X71300000Y-43000000I-700000J0D01*
G01*
X71300000Y-43000000D02*
G75*
G02*
X72700000Y-43000000I700000J0D01*
G01*
%TO.C,R19*%
X34762742Y-15477500D02*
X35237258Y-15477500D01*
X34762742Y-16522500D02*
X35237258Y-16522500D01*
%TO.C,C5*%
X61738748Y-29265000D02*
X62261252Y-29265000D01*
X61738748Y-30735000D02*
X62261252Y-30735000D01*
%TO.C,C13*%
X34859420Y-34490000D02*
X35140580Y-34490000D01*
X34859420Y-35510000D02*
X35140580Y-35510000D01*
%TO.C,J3*%
X110250000Y-45600000D02*
X110250000Y-46850000D01*
X110250000Y-46850000D02*
X111500000Y-46850000D01*
X112800000Y-36450000D02*
X112800000Y-37200000D01*
X112800000Y-37200000D02*
X115750000Y-37200000D01*
X112800000Y-45800000D02*
X115750000Y-45800000D01*
X112800000Y-46550000D02*
X112800000Y-45800000D01*
X115750000Y-37200000D02*
X115750000Y-41500000D01*
X115750000Y-45800000D02*
X115750000Y-41500000D01*
X110540000Y-36440000D02*
X116510000Y-36440000D01*
X116510000Y-46560000D01*
X110540000Y-46560000D01*
X110540000Y-36440000D01*
X110550000Y-36450000D02*
X111300000Y-36450000D01*
X111300000Y-38250000D01*
X110550000Y-38250000D01*
X110550000Y-36450000D01*
X110550000Y-39750000D02*
X111300000Y-39750000D01*
X111300000Y-43250000D01*
X110550000Y-43250000D01*
X110550000Y-39750000D01*
X110550000Y-44750000D02*
X111300000Y-44750000D01*
X111300000Y-46550000D01*
X110550000Y-46550000D01*
X110550000Y-44750000D01*
%TO.C,D2*%
X56640000Y-8000000D02*
X56640000Y-10000000D01*
X56640000Y-8000000D02*
X60650000Y-8000000D01*
X56640000Y-10000000D02*
X60650000Y-10000000D01*
%TO.C,D1*%
X102850000Y-24660000D02*
X102850000Y-18850000D01*
X102850000Y-24660000D02*
X107150000Y-24660000D01*
X107150000Y-24660000D02*
X107150000Y-18850000D01*
%TO.C,R9*%
X77762742Y-9477500D02*
X78237258Y-9477500D01*
X77762742Y-10522500D02*
X78237258Y-10522500D01*
%TO.C,J7*%
X95950000Y-68200000D02*
X96700000Y-68200000D01*
X96700000Y-65250000D02*
X99750000Y-65250000D01*
X96700000Y-68200000D02*
X96700000Y-65250000D01*
X102600000Y-70750000D02*
X103850000Y-70750000D01*
X102800000Y-65250000D02*
X99750000Y-65250000D01*
X102800000Y-68200000D02*
X102800000Y-65250000D01*
X103550000Y-68200000D02*
X102800000Y-68200000D01*
X103850000Y-70750000D02*
X103850000Y-69500000D01*
X95950000Y-69700000D02*
X97750000Y-69700000D01*
X97750000Y-70450000D01*
X95950000Y-70450000D01*
X95950000Y-69700000D01*
X99250000Y-69700000D02*
X100250000Y-69700000D01*
X100250000Y-70450000D01*
X99250000Y-70450000D01*
X99250000Y-69700000D01*
X101750000Y-69700000D02*
X103550000Y-69700000D01*
X103550000Y-70450000D01*
X101750000Y-70450000D01*
X101750000Y-69700000D01*
X95940000Y-64490000D02*
X103560000Y-64490000D01*
X103560000Y-70460000D01*
X95940000Y-70460000D01*
X95940000Y-64490000D01*
%TO.C,SW3*%
X50900000Y-51900000D02*
X50900000Y-52000000D01*
X50900000Y-51900000D02*
X57100000Y-51900000D01*
X50900000Y-53500000D02*
X50900000Y-56500000D01*
X50900000Y-58100000D02*
X50900000Y-58000000D01*
X50900000Y-58100000D02*
X57100000Y-58100000D01*
X57100000Y-52000000D02*
X57100000Y-51900000D01*
X57100000Y-53500000D02*
X57100000Y-56500000D01*
X57100000Y-58100000D02*
X57100000Y-58000000D01*
%TO.C,R21*%
X81762742Y-30477500D02*
X82237258Y-30477500D01*
X81762742Y-31522500D02*
X82237258Y-31522500D01*
%TO.C,SW1*%
X31900000Y-58900000D02*
X31900000Y-59000000D01*
X31900000Y-58900000D02*
X38100000Y-58900000D01*
X31900000Y-60500000D02*
X31900000Y-63500000D01*
X31900000Y-65100000D02*
X31900000Y-65000000D01*
X31900000Y-65100000D02*
X38100000Y-65100000D01*
X38100000Y-59000000D02*
X38100000Y-58900000D01*
X38100000Y-60500000D02*
X38100000Y-63500000D01*
X38100000Y-65100000D02*
X38100000Y-65000000D01*
%TO.C,Q4*%
X85240000Y-36440000D02*
X86760000Y-36440000D01*
X85240000Y-36490000D02*
X85240000Y-36440000D01*
X85240000Y-38390000D02*
X85240000Y-37610000D01*
X85240000Y-39560000D02*
X85240000Y-39510000D01*
X86760000Y-36440000D02*
X86760000Y-37440000D01*
X86760000Y-38560000D02*
X86760000Y-39560000D01*
X86760000Y-39560000D02*
X85240000Y-39560000D01*
X84700000Y-37620000D02*
X84940000Y-37950000D01*
X84460000Y-37950000D01*
X84700000Y-37620000D01*
G36*
X84940000Y-37950000D02*
G01*
X84460000Y-37950000D01*
X84700000Y-37620000D01*
X84940000Y-37950000D01*
G37*
%TO.C,C4*%
X79738748Y-13265000D02*
X80261252Y-13265000D01*
X79738748Y-14735000D02*
X80261252Y-14735000D01*
%TO.C,R25*%
X101762742Y-58477500D02*
X102237258Y-58477500D01*
X101762742Y-59522500D02*
X102237258Y-59522500D01*
%TO.C,J4*%
X110250000Y-33600000D02*
X110250000Y-34850000D01*
X110250000Y-34850000D02*
X111500000Y-34850000D01*
X112800000Y-26950000D02*
X112800000Y-27700000D01*
X112800000Y-27700000D02*
X115750000Y-27700000D01*
X112800000Y-33800000D02*
X115750000Y-33800000D01*
X112800000Y-34550000D02*
X112800000Y-33800000D01*
X115750000Y-27700000D02*
X115750000Y-30750000D01*
X115750000Y-33800000D02*
X115750000Y-30750000D01*
X110540000Y-26940000D02*
X116510000Y-26940000D01*
X116510000Y-34560000D01*
X110540000Y-34560000D01*
X110540000Y-26940000D01*
X110550000Y-26950000D02*
X111300000Y-26950000D01*
X111300000Y-28750000D01*
X110550000Y-28750000D01*
X110550000Y-26950000D01*
X110550000Y-30250000D02*
X111300000Y-30250000D01*
X111300000Y-31250000D01*
X110550000Y-31250000D01*
X110550000Y-30250000D01*
X110550000Y-32750000D02*
X111300000Y-32750000D01*
X111300000Y-34550000D01*
X110550000Y-34550000D01*
X110550000Y-32750000D01*
%TO.C,R15*%
X87762742Y-61477500D02*
X88237258Y-61477500D01*
X87762742Y-62522500D02*
X88237258Y-62522500D01*
%TO.C,U4*%
X49090000Y-18440000D02*
X50910000Y-18440000D01*
X49090000Y-18490000D02*
X49090000Y-18440000D01*
X49090000Y-21560000D02*
X49090000Y-21510000D01*
X50910000Y-18440000D02*
X50910000Y-18490000D01*
X50910000Y-21510000D02*
X50910000Y-21560000D01*
X50910000Y-21560000D02*
X49090000Y-21560000D01*
X48550000Y-18490000D02*
X48310000Y-18160000D01*
X48790000Y-18160000D01*
X48550000Y-18490000D01*
G36*
X48550000Y-18490000D02*
G01*
X48310000Y-18160000D01*
X48790000Y-18160000D01*
X48550000Y-18490000D01*
G37*
%TO.C,R18*%
X81762742Y-19477500D02*
X82237258Y-19477500D01*
X81762742Y-20522500D02*
X82237258Y-20522500D01*
%TO.C,C1*%
X34859420Y-48490000D02*
X35140580Y-48490000D01*
X34859420Y-49510000D02*
X35140580Y-49510000D01*
%TO.C,R8*%
X77762742Y-26477500D02*
X78237258Y-26477500D01*
X77762742Y-27522500D02*
X78237258Y-27522500D01*
%TO.C,Q3*%
X92940000Y-36440000D02*
X97060000Y-36440000D01*
X92940000Y-36535000D02*
X92940000Y-36440000D01*
X92940000Y-41560000D02*
X92940000Y-41465000D01*
X97060000Y-36440000D02*
X97060000Y-36535000D01*
X97060000Y-41465000D02*
X97060000Y-41560000D01*
X97060000Y-41560000D02*
X92940000Y-41560000D01*
X92400000Y-36530000D02*
X92160000Y-36200000D01*
X92640000Y-36200000D01*
X92400000Y-36530000D01*
G36*
X92400000Y-36530000D02*
G01*
X92160000Y-36200000D01*
X92640000Y-36200000D01*
X92400000Y-36530000D01*
G37*
%TO.C,R11*%
X79762742Y-46477500D02*
X80237258Y-46477500D01*
X79762742Y-47522500D02*
X80237258Y-47522500D01*
%TO.C,TP3*%
X56700000Y-43000000D02*
G75*
G02*
X55300000Y-43000000I-700000J0D01*
G01*
X55300000Y-43000000D02*
G75*
G02*
X56700000Y-43000000I700000J0D01*
G01*
%TO.C,L2*%
X38700000Y-18800000D02*
X45300000Y-18800000D01*
X38700000Y-20500000D02*
X38700000Y-18800000D01*
X38700000Y-25200000D02*
X38700000Y-23500000D01*
X45300000Y-18800000D02*
X45300000Y-20500000D01*
X45300000Y-23500000D02*
X45300000Y-25200000D01*
X45300000Y-25200000D02*
X38700000Y-25200000D01*
%TO.C,F2*%
X113613748Y-22290000D02*
X116386252Y-22290000D01*
X113613748Y-25710000D02*
X116386252Y-25710000D01*
%TO.C,R12*%
X85762742Y-46477500D02*
X86237258Y-46477500D01*
X85762742Y-47522500D02*
X86237258Y-47522500D01*
%TO.C,C6*%
X67738748Y-29265000D02*
X68261252Y-29265000D01*
X67738748Y-30735000D02*
X68261252Y-30735000D01*
%TO.C,U1*%
X6100000Y-21800000D02*
X12300000Y-21800000D01*
X6100000Y-40200000D02*
X6100000Y-21800000D01*
X6100000Y-40200000D02*
X12300000Y-40200000D01*
X30950000Y-40200000D02*
X31950000Y-40200000D01*
X31950000Y-21800000D02*
X30950000Y-21800000D01*
X31950000Y-21800000D02*
X31950000Y-23300000D01*
X31950000Y-40200000D02*
X31950000Y-38700000D01*
X12975000Y-40200000D02*
X12975000Y-40700000D01*
X12475000Y-40200000D01*
X12975000Y-40200000D01*
G36*
X12975000Y-40700000D02*
G01*
X12475000Y-40200000D01*
X12975000Y-40200000D01*
X12975000Y-40700000D01*
G37*
%TO.C,TP1*%
X48700000Y-43000000D02*
G75*
G02*
X47300000Y-43000000I-700000J0D01*
G01*
X47300000Y-43000000D02*
G75*
G02*
X48700000Y-43000000I700000J0D01*
G01*
%TO.C,R16*%
X35762742Y-41477500D02*
X36237258Y-41477500D01*
X35762742Y-42522500D02*
X36237258Y-42522500D01*
%TO.C,J2*%
X79400000Y5800000D02*
X88600000Y5800000D01*
X79400000Y-3200000D02*
X79400000Y5800000D01*
X79400000Y-8800000D02*
X79400000Y-6800000D01*
X82200000Y-8800000D02*
X79400000Y-8800000D01*
X88600000Y5800000D02*
X88600000Y-8800000D01*
X88600000Y-8800000D02*
X85800000Y-8800000D01*
X88840000Y-7300000D02*
X88840000Y-9040000D01*
X88840000Y-9040000D02*
X87100000Y-9040000D01*
%TO.C,J8*%
X11330000Y-69100000D02*
X11330000Y-70800000D01*
X20670000Y-69100000D02*
X20670000Y-70800000D01*
%TO.C,R22*%
X83762742Y-32477500D02*
X84237258Y-32477500D01*
X83762742Y-33522500D02*
X84237258Y-33522500D01*
%TO.C,R5*%
X29762742Y-48477500D02*
X30237258Y-48477500D01*
X29762742Y-49522500D02*
X30237258Y-49522500D01*
%TO.C,R24*%
X101762742Y-51477500D02*
X102237258Y-51477500D01*
X101762742Y-52522500D02*
X102237258Y-52522500D01*
%TO.C,C3*%
X69859420Y-16490000D02*
X70140580Y-16490000D01*
X69859420Y-17510000D02*
X70140580Y-17510000D01*
%TO.C,SW2*%
X38900000Y-51900000D02*
X38900000Y-52000000D01*
X38900000Y-51900000D02*
X45100000Y-51900000D01*
X38900000Y-53500000D02*
X38900000Y-56500000D01*
X38900000Y-58100000D02*
X38900000Y-58000000D01*
X38900000Y-58100000D02*
X45100000Y-58100000D01*
X45100000Y-52000000D02*
X45100000Y-51900000D01*
X45100000Y-53500000D02*
X45100000Y-56500000D01*
X45100000Y-58100000D02*
X45100000Y-58000000D01*
%TO.C,D4*%
X106140000Y-60600000D02*
X106140000Y-61400000D01*
X107500000Y-60600000D02*
X106140000Y-60600000D01*
X107500000Y-61400000D02*
X106140000Y-61400000D01*
%TO.C,TP8*%
X76700000Y-43000000D02*
G75*
G02*
X75300000Y-43000000I-700000J0D01*
G01*
X75300000Y-43000000D02*
G75*
G02*
X76700000Y-43000000I700000J0D01*
G01*
%TO.C,D5*%
X94140000Y-62600000D02*
X94140000Y-63400000D01*
X95500000Y-62600000D02*
X94140000Y-62600000D01*
X95500000Y-63400000D02*
X94140000Y-63400000D01*
%TO.C,C9*%
X53738748Y-26265000D02*
X54261252Y-26265000D01*
X53738748Y-27735000D02*
X54261252Y-27735000D01*
%TO.C,J6*%
X110250000Y-65600000D02*
X110250000Y-66850000D01*
X110250000Y-66850000D02*
X111500000Y-66850000D01*
X112800000Y-58950000D02*
X112800000Y-59700000D01*
X112800000Y-59700000D02*
X115750000Y-59700000D01*
X112800000Y-65800000D02*
X115750000Y-65800000D01*
X112800000Y-66550000D02*
X112800000Y-65800000D01*
X115750000Y-59700000D02*
X115750000Y-62750000D01*
X115750000Y-65800000D02*
X115750000Y-62750000D01*
X110540000Y-58940000D02*
X116510000Y-58940000D01*
X116510000Y-66560000D01*
X110540000Y-66560000D01*
X110540000Y-58940000D01*
X110550000Y-58950000D02*
X111300000Y-58950000D01*
X111300000Y-60750000D01*
X110550000Y-60750000D01*
X110550000Y-58950000D01*
X110550000Y-62250000D02*
X111300000Y-62250000D01*
X111300000Y-63250000D01*
X110550000Y-63250000D01*
X110550000Y-62250000D01*
X110550000Y-64750000D02*
X111300000Y-64750000D01*
X111300000Y-66550000D01*
X110550000Y-66550000D01*
X110550000Y-64750000D01*
%TO.C,R4*%
X17477500Y-55237258D02*
X17477500Y-54762742D01*
X18522500Y-55237258D02*
X18522500Y-54762742D01*
%TO.C,TP6*%
X68700000Y-43000000D02*
G75*
G02*
X67300000Y-43000000I-700000J0D01*
G01*
X67300000Y-43000000D02*
G75*
G02*
X68700000Y-43000000I700000J0D01*
G01*
%TO.C,J1*%
X101400000Y5800000D02*
X110600000Y5800000D01*
X101400000Y-3200000D02*
X101400000Y5800000D01*
X101400000Y-8800000D02*
X101400000Y-6800000D01*
X104200000Y-8800000D02*
X101400000Y-8800000D01*
X110600000Y5800000D02*
X110600000Y-8800000D01*
X110600000Y-8800000D02*
X107800000Y-8800000D01*
X110840000Y-7300000D02*
X110840000Y-9040000D01*
X110840000Y-9040000D02*
X109100000Y-9040000D01*
%TO.C,R7*%
X71762742Y-26477500D02*
X72237258Y-26477500D01*
X71762742Y-27522500D02*
X72237258Y-27522500D01*
%TO.C,Q2*%
X91240000Y-45440000D02*
X92760000Y-45440000D01*
X91240000Y-45490000D02*
X91240000Y-45440000D01*
X91240000Y-47390000D02*
X91240000Y-46610000D01*
X91240000Y-48560000D02*
X91240000Y-48510000D01*
X92760000Y-45440000D02*
X92760000Y-46440000D01*
X92760000Y-47560000D02*
X92760000Y-48560000D01*
X92760000Y-48560000D02*
X91240000Y-48560000D01*
X90700000Y-46620000D02*
X90940000Y-46950000D01*
X90460000Y-46950000D01*
X90700000Y-46620000D01*
G36*
X90940000Y-46950000D02*
G01*
X90460000Y-46950000D01*
X90700000Y-46620000D01*
X90940000Y-46950000D01*
G37*
%TO.C,C15*%
X95859420Y-52490000D02*
X96140580Y-52490000D01*
X95859420Y-53510000D02*
X96140580Y-53510000D01*
%TO.C,R20*%
X34762742Y-20477500D02*
X35237258Y-20477500D01*
X34762742Y-21522500D02*
X35237258Y-21522500D01*
%TO.C,C17*%
X87859420Y-64490000D02*
X88140580Y-64490000D01*
X87859420Y-65510000D02*
X88140580Y-65510000D01*
%TO.C,C14*%
X34859420Y-24490000D02*
X35140580Y-24490000D01*
X34859420Y-25510000D02*
X35140580Y-25510000D01*
%TO.C,U5*%
X65550000Y-6400000D02*
X65550000Y-11600000D01*
X65550000Y-11600000D02*
X70450000Y-11600000D01*
X67000000Y-6400000D02*
X65550000Y-6400000D01*
X70450000Y-6400000D02*
X69000000Y-6400000D01*
X70450000Y-11600000D02*
X70450000Y-6400000D01*
X69000000Y-6400000D02*
G75*
G02*
X67000000Y-6400000I-1000000J0D01*
G01*
%TO.C,F3*%
X102290000Y-42386252D02*
X102290000Y-39613748D01*
X105710000Y-42386252D02*
X105710000Y-39613748D01*
%TO.C,R2*%
X24762742Y-64477500D02*
X25237258Y-64477500D01*
X24762742Y-65522500D02*
X25237258Y-65522500D01*
%TO.C,R26*%
X93762742Y-64477500D02*
X94237258Y-64477500D01*
X93762742Y-65522500D02*
X94237258Y-65522500D01*
%TO.C,U2*%
X20440000Y-47090000D02*
X20490000Y-47090000D01*
X20440000Y-48910000D02*
X20440000Y-47090000D01*
X20490000Y-48910000D02*
X20440000Y-48910000D01*
X23510000Y-47090000D02*
X23560000Y-47090000D01*
X23560000Y-47090000D02*
X23560000Y-48910000D01*
X23560000Y-48910000D02*
X23510000Y-48910000D01*
X23510000Y-46550000D02*
X23840000Y-46310000D01*
X23840000Y-46790000D01*
X23510000Y-46550000D01*
G36*
X23840000Y-46790000D02*
G01*
X23510000Y-46550000D01*
X23840000Y-46310000D01*
X23840000Y-46790000D01*
G37*
%TO.C,C11*%
X49738748Y-29265000D02*
X50261252Y-29265000D01*
X49738748Y-30735000D02*
X50261252Y-30735000D01*
%TO.C,D6*%
X53490000Y-16350000D02*
X53490000Y-19650000D01*
X53490000Y-16350000D02*
X59000000Y-16350000D01*
X53490000Y-19650000D02*
X59000000Y-19650000D01*
%TO.C,R10*%
X62762742Y-13477500D02*
X63237258Y-13477500D01*
X62762742Y-14522500D02*
X63237258Y-14522500D01*
%TO.C,LED1*%
X40515000Y-41265000D02*
X40515000Y-42735000D01*
X40515000Y-42735000D02*
X42800000Y-42735000D01*
X42800000Y-41265000D02*
X40515000Y-41265000D01*
%TO.C,C10*%
X43738748Y-29265000D02*
X44261252Y-29265000D01*
X43738748Y-30735000D02*
X44261252Y-30735000D01*
%TO.C,U3*%
X74090000Y-18440000D02*
X75910000Y-18440000D01*
X74090000Y-18490000D02*
X74090000Y-18440000D01*
X74090000Y-21560000D02*
X74090000Y-21510000D01*
X75910000Y-18440000D02*
X75910000Y-18490000D01*
X75910000Y-21510000D02*
X75910000Y-21560000D01*
X75910000Y-21560000D02*
X74090000Y-21560000D01*
X73550000Y-18490000D02*
X73310000Y-18160000D01*
X73790000Y-18160000D01*
X73550000Y-18490000D01*
G36*
X73550000Y-18490000D02*
G01*
X73310000Y-18160000D01*
X73790000Y-18160000D01*
X73550000Y-18490000D01*
G37*
%TO.C,C8*%
X44859420Y-16490000D02*
X45140580Y-16490000D01*
X44859420Y-17510000D02*
X45140580Y-17510000D01*
%TO.C,J5*%
X110250000Y-55600000D02*
X110250000Y-56850000D01*
X110250000Y-56850000D02*
X111500000Y-56850000D01*
X112800000Y-48950000D02*
X112800000Y-49700000D01*
X112800000Y-49700000D02*
X115750000Y-49700000D01*
X112800000Y-55800000D02*
X115750000Y-55800000D01*
X112800000Y-56550000D02*
X112800000Y-55800000D01*
X115750000Y-49700000D02*
X115750000Y-52750000D01*
X115750000Y-55800000D02*
X115750000Y-52750000D01*
X110540000Y-48940000D02*
X116510000Y-48940000D01*
X116510000Y-56560000D01*
X110540000Y-56560000D01*
X110540000Y-48940000D01*
X110550000Y-48950000D02*
X111300000Y-48950000D01*
X111300000Y-50750000D01*
X110550000Y-50750000D01*
X110550000Y-48950000D01*
X110550000Y-52250000D02*
X111300000Y-52250000D01*
X111300000Y-53250000D01*
X110550000Y-53250000D01*
X110550000Y-52250000D01*
X110550000Y-54750000D02*
X111300000Y-54750000D01*
X111300000Y-56550000D01*
X110550000Y-56550000D01*
X110550000Y-54750000D01*
%TO.C,C7*%
X70400000Y-33490000D02*
X71400000Y-33490000D01*
X70900000Y-32990000D02*
X70900000Y-33990000D01*
X71640000Y-32704437D02*
X71640000Y-34490000D01*
X71640000Y-32704437D02*
X72704437Y-31640000D01*
X71640000Y-39295563D02*
X71640000Y-37510000D01*
X71640000Y-39295563D02*
X72704437Y-40360000D01*
X72704437Y-31640000D02*
X80360000Y-31640000D01*
X72704437Y-40360000D02*
X80360000Y-40360000D01*
X80360000Y-31640000D02*
X80360000Y-34490000D01*
X80360000Y-40360000D02*
X80360000Y-37510000D01*
%TO.C,R6*%
X41762742Y-48477500D02*
X42237258Y-48477500D01*
X41762742Y-49522500D02*
X42237258Y-49522500D01*
%TO.C,D7*%
X53490000Y-21350000D02*
X53490000Y-24650000D01*
X53490000Y-21350000D02*
X59000000Y-21350000D01*
X53490000Y-24650000D02*
X59000000Y-24650000D01*
%TO.C,C12*%
X34738748Y-29265000D02*
X35261252Y-29265000D01*
X34738748Y-30735000D02*
X35261252Y-30735000D01*
%TO.C,C2*%
X63150000Y-49240000D02*
X64400000Y-49240000D01*
X63775000Y-48615000D02*
X63775000Y-49865000D01*
X64640000Y-47704437D02*
X64640000Y-50490000D01*
X64640000Y-47704437D02*
X65704437Y-46640000D01*
X64640000Y-56295563D02*
X64640000Y-53510000D01*
X64640000Y-56295563D02*
X65704437Y-57360000D01*
X65704437Y-46640000D02*
X75360000Y-46640000D01*
X65704437Y-57360000D02*
X75360000Y-57360000D01*
X75360000Y-46640000D02*
X75360000Y-50490000D01*
X75360000Y-57360000D02*
X75360000Y-53510000D01*
%TO.C,J9*%
X68620000Y-63620000D02*
X70000000Y-63620000D01*
X68620000Y-65000000D02*
X68620000Y-63620000D01*
X68620000Y-66270000D02*
X68620000Y-71460000D01*
X68620000Y-66270000D02*
X71270000Y-66270000D01*
X68620000Y-71460000D02*
X73920000Y-71460000D01*
X71270000Y-63620000D02*
X73920000Y-63620000D01*
X71270000Y-66270000D02*
X71270000Y-63620000D01*
X73920000Y-63620000D02*
X73920000Y-71460000D01*
%TO.C,Q1*%
X87940000Y-12440000D02*
X92060000Y-12440000D01*
X87940000Y-12535000D02*
X87940000Y-12440000D01*
X87940000Y-17560000D02*
X87940000Y-17465000D01*
X92060000Y-12440000D02*
X92060000Y-12535000D01*
X92060000Y-17465000D02*
X92060000Y-17560000D01*
X92060000Y-17560000D02*
X87940000Y-17560000D01*
X87400000Y-12530000D02*
X87160000Y-12200000D01*
X87640000Y-12200000D01*
X87400000Y-12530000D01*
G36*
X87400000Y-12530000D02*
G01*
X87160000Y-12200000D01*
X87640000Y-12200000D01*
X87400000Y-12530000D01*
G37*
%TO.C,D3*%
X106140000Y-50600000D02*
X106140000Y-51400000D01*
X107500000Y-50600000D02*
X106140000Y-50600000D01*
X107500000Y-51400000D02*
X106140000Y-51400000D01*
%TO.C,R13*%
X95762742Y-49477500D02*
X96237258Y-49477500D01*
X95762742Y-50522500D02*
X96237258Y-50522500D01*
%TO.C,F1*%
X96613748Y-12290000D02*
X99386252Y-12290000D01*
X96613748Y-15710000D02*
X99386252Y-15710000D01*
%TO.C,TP4*%
X60700000Y-43000000D02*
G75*
G02*
X59300000Y-43000000I-700000J0D01*
G01*
X59300000Y-43000000D02*
G75*
G02*
X60700000Y-43000000I700000J0D01*
G01*
%TO.C,TP5*%
X64700000Y-43000000D02*
G75*
G02*
X63300000Y-43000000I-700000J0D01*
G01*
X63300000Y-43000000D02*
G75*
G02*
X64700000Y-43000000I700000J0D01*
G01*
%TO.C,R1*%
X8762742Y-64477500D02*
X9237258Y-64477500D01*
X8762742Y-65522500D02*
X9237258Y-65522500D01*
%TO.C,TP2*%
X52700000Y-43000000D02*
G75*
G02*
X51300000Y-43000000I-700000J0D01*
G01*
X51300000Y-43000000D02*
G75*
G02*
X52700000Y-43000000I700000J0D01*
G01*
%TO.C,L1*%
X62700000Y-18800000D02*
X69300000Y-18800000D01*
X62700000Y-20500000D02*
X62700000Y-18800000D01*
X62700000Y-25200000D02*
X62700000Y-23500000D01*
X69300000Y-18800000D02*
X69300000Y-20500000D01*
X69300000Y-23500000D02*
X69300000Y-25200000D01*
X69300000Y-25200000D02*
X62700000Y-25200000D01*
%TO.C,R17*%
X95762742Y-29477500D02*
X96237258Y-29477500D01*
X95762742Y-30522500D02*
X96237258Y-30522500D01*
%TO.C,R14*%
X95762742Y-56477500D02*
X96237258Y-56477500D01*
X95762742Y-57522500D02*
X96237258Y-57522500D01*
%TO.C,C16*%
X95859420Y-59490000D02*
X96140580Y-59490000D01*
X95859420Y-60510000D02*
X96140580Y-60510000D01*
%TO.C,R23*%
X87762742Y-30477500D02*
X88237258Y-30477500D01*
X87762742Y-31522500D02*
X88237258Y-31522500D01*
%TO.C,R3*%
X24477500Y-55237258D02*
X24477500Y-54762742D01*
X25522500Y-55237258D02*
X25522500Y-54762742D01*
%TD*%
%LPC*%
D12*
%TO.C,LED2*%
X102212500Y-30000000D03*
X103787500Y-30000000D03*
%TD*%
D13*
%TO.C,TP7*%
X72000000Y-43000000D03*
%TD*%
D14*
%TO.C,R19*%
X34175000Y-16000000D03*
X35825000Y-16000000D03*
%TD*%
D15*
%TO.C,C5*%
X61050000Y-30000000D03*
X62950000Y-30000000D03*
%TD*%
D16*
%TO.C,C13*%
X34225000Y-35000000D03*
X35775000Y-35000000D03*
%TD*%
D17*
%TO.C,J3*%
X113000000Y-44000000D03*
D18*
X113000000Y-41500000D03*
X113000000Y-39000000D03*
%TD*%
D19*
%TO.C,D2*%
X57350000Y-9000000D03*
X60650000Y-9000000D03*
%TD*%
D20*
%TO.C,D1*%
X105000000Y-23150000D03*
X105000000Y-18850000D03*
%TD*%
D21*
%TO.C,H4*%
X116000000Y-71000000D03*
%TD*%
D14*
%TO.C,R9*%
X77175000Y-10000000D03*
X78825000Y-10000000D03*
%TD*%
D22*
%TO.C,J7*%
X101000000Y-68000000D03*
D23*
X98500000Y-68000000D03*
%TD*%
D24*
%TO.C,SW3*%
X49450000Y-52750000D03*
X58550000Y-52750000D03*
X49450000Y-57250000D03*
X58550000Y-57250000D03*
%TD*%
D14*
%TO.C,R21*%
X81175000Y-31000000D03*
X82825000Y-31000000D03*
%TD*%
D24*
%TO.C,SW1*%
X30450000Y-59750000D03*
X39550000Y-59750000D03*
X30450000Y-64250000D03*
X39550000Y-64250000D03*
%TD*%
D25*
%TO.C,Q4*%
X85062500Y-37050000D03*
X85062500Y-38950000D03*
X86937500Y-38000000D03*
%TD*%
D15*
%TO.C,C4*%
X79050000Y-14000000D03*
X80950000Y-14000000D03*
%TD*%
D14*
%TO.C,R25*%
X101175000Y-59000000D03*
X102825000Y-59000000D03*
%TD*%
D26*
%TO.C,J4*%
X113000000Y-32000000D03*
D27*
X113000000Y-29500000D03*
%TD*%
D14*
%TO.C,R15*%
X87175000Y-62000000D03*
X88825000Y-62000000D03*
%TD*%
D28*
%TO.C,U4*%
X48862500Y-19050000D03*
X48862500Y-20000000D03*
X48862500Y-20950000D03*
X51137500Y-20950000D03*
X51137500Y-20000000D03*
X51137500Y-19050000D03*
%TD*%
D14*
%TO.C,R18*%
X81175000Y-20000000D03*
X82825000Y-20000000D03*
%TD*%
D16*
%TO.C,C1*%
X34225000Y-49000000D03*
X35775000Y-49000000D03*
%TD*%
D14*
%TO.C,R8*%
X77175000Y-27000000D03*
X78825000Y-27000000D03*
%TD*%
D29*
%TO.C,Q3*%
X92425000Y-37095000D03*
X92425000Y-38365000D03*
X92425000Y-39635000D03*
X92425000Y-40905000D03*
X97575000Y-40905000D03*
X97575000Y-39635000D03*
X97575000Y-38365000D03*
X97575000Y-37095000D03*
%TD*%
D14*
%TO.C,R11*%
X79175000Y-47000000D03*
X80825000Y-47000000D03*
%TD*%
D13*
%TO.C,TP3*%
X56000000Y-43000000D03*
%TD*%
D30*
%TO.C,L2*%
X39250000Y-22000000D03*
X44750000Y-22000000D03*
%TD*%
D31*
%TO.C,F2*%
X112862500Y-24000000D03*
X117137500Y-24000000D03*
%TD*%
D14*
%TO.C,R12*%
X85175000Y-47000000D03*
X86825000Y-47000000D03*
%TD*%
D21*
%TO.C,H3*%
X40000000Y-71000000D03*
%TD*%
D15*
%TO.C,C6*%
X67050000Y-30000000D03*
X68950000Y-30000000D03*
%TD*%
D32*
%TO.C,U1*%
X13740000Y-39750000D03*
X15010000Y-39750000D03*
X16280000Y-39750000D03*
X17550000Y-39750000D03*
X18820000Y-39750000D03*
X20090000Y-39750000D03*
X21360000Y-39750000D03*
X22630000Y-39750000D03*
X23900000Y-39750000D03*
X25170000Y-39750000D03*
X26440000Y-39750000D03*
X27710000Y-39750000D03*
X28980000Y-39750000D03*
X30250000Y-39750000D03*
D33*
X31500000Y-37985000D03*
X31500000Y-36715000D03*
X31500000Y-35445000D03*
X31500000Y-34175000D03*
X31500000Y-32905000D03*
X31500000Y-31635000D03*
X31500000Y-30365000D03*
X31500000Y-29095000D03*
X31500000Y-27825000D03*
X31500000Y-26555000D03*
X31500000Y-25285000D03*
X31500000Y-24015000D03*
D32*
X30250000Y-22250000D03*
X28980000Y-22250000D03*
X27710000Y-22250000D03*
X26440000Y-22250000D03*
X25170000Y-22250000D03*
X23900000Y-22250000D03*
X22630000Y-22250000D03*
X21360000Y-22250000D03*
X20090000Y-22250000D03*
X18820000Y-22250000D03*
X17550000Y-22250000D03*
X16280000Y-22250000D03*
X15010000Y-22250000D03*
X13740000Y-22250000D03*
D34*
X20760000Y-33900000D03*
X22160000Y-33900000D03*
X20060000Y-33200000D03*
X21460000Y-33200000D03*
X22860000Y-33200000D03*
X20760000Y-32500000D03*
D35*
X21460000Y-32500000D03*
D34*
X22160000Y-32500000D03*
X20060000Y-31800000D03*
X21460000Y-31800000D03*
X22860000Y-31800000D03*
X20760000Y-31100000D03*
X22160000Y-31100000D03*
%TD*%
D13*
%TO.C,TP1*%
X48000000Y-43000000D03*
%TD*%
D14*
%TO.C,R16*%
X35175000Y-42000000D03*
X36825000Y-42000000D03*
%TD*%
D36*
%TO.C,J2*%
X84000000Y-8000000D03*
D37*
X84000000Y-2000000D03*
X79300000Y-5000000D03*
%TD*%
D38*
%TO.C,J8*%
X18890000Y-71605000D03*
X13110000Y-71605000D03*
D39*
X19200000Y-72680000D03*
X18400000Y-72680000D03*
D40*
X17250000Y-72680000D03*
X16250000Y-72680000D03*
X15750000Y-72680000D03*
X14750000Y-72680000D03*
D39*
X13600000Y-72680000D03*
X12800000Y-72680000D03*
X12800000Y-72680000D03*
X13600000Y-72680000D03*
D40*
X14250000Y-72680000D03*
X15250000Y-72680000D03*
X16750000Y-72680000D03*
X17750000Y-72680000D03*
D39*
X18400000Y-72680000D03*
X19200000Y-72680000D03*
D41*
X20320000Y-72105000D03*
D42*
X20320000Y-67925000D03*
D41*
X11680000Y-72105000D03*
D42*
X11680000Y-67925000D03*
%TD*%
D14*
%TO.C,R22*%
X83175000Y-33000000D03*
X84825000Y-33000000D03*
%TD*%
%TO.C,R5*%
X29175000Y-49000000D03*
X30825000Y-49000000D03*
%TD*%
%TO.C,R24*%
X101175000Y-52000000D03*
X102825000Y-52000000D03*
%TD*%
D16*
%TO.C,C3*%
X69225000Y-17000000D03*
X70775000Y-17000000D03*
%TD*%
D21*
%TO.C,H2*%
X116000000Y-4000000D03*
%TD*%
D24*
%TO.C,SW2*%
X37450000Y-52750000D03*
X46550000Y-52750000D03*
X37450000Y-57250000D03*
X46550000Y-57250000D03*
%TD*%
D43*
%TO.C,D4*%
X106580000Y-61000000D03*
X107420000Y-61000000D03*
%TD*%
D13*
%TO.C,TP8*%
X76000000Y-43000000D03*
%TD*%
D43*
%TO.C,D5*%
X94580000Y-63000000D03*
X95420000Y-63000000D03*
%TD*%
D15*
%TO.C,C9*%
X53050000Y-27000000D03*
X54950000Y-27000000D03*
%TD*%
D26*
%TO.C,J6*%
X113000000Y-64000000D03*
D27*
X113000000Y-61500000D03*
%TD*%
D44*
%TO.C,R4*%
X18000000Y-55825000D03*
X18000000Y-54175000D03*
%TD*%
D13*
%TO.C,TP6*%
X68000000Y-43000000D03*
%TD*%
D36*
%TO.C,J1*%
X106000000Y-8000000D03*
D37*
X106000000Y-2000000D03*
X101300000Y-5000000D03*
%TD*%
D14*
%TO.C,R7*%
X71175000Y-27000000D03*
X72825000Y-27000000D03*
%TD*%
D25*
%TO.C,Q2*%
X91062500Y-46050000D03*
X91062500Y-47950000D03*
X92937500Y-47000000D03*
%TD*%
D16*
%TO.C,C15*%
X95225000Y-53000000D03*
X96775000Y-53000000D03*
%TD*%
D14*
%TO.C,R20*%
X34175000Y-21000000D03*
X35825000Y-21000000D03*
%TD*%
D16*
%TO.C,C17*%
X87225000Y-65000000D03*
X88775000Y-65000000D03*
%TD*%
%TO.C,C14*%
X34225000Y-25000000D03*
X35775000Y-25000000D03*
%TD*%
D45*
%TO.C,U5*%
X64190000Y-7730000D03*
X64190000Y-10270000D03*
X71810000Y-10270000D03*
X71810000Y-7730000D03*
%TD*%
D46*
%TO.C,F3*%
X104000000Y-43137500D03*
X104000000Y-38862500D03*
%TD*%
D14*
%TO.C,R2*%
X24175000Y-65000000D03*
X25825000Y-65000000D03*
%TD*%
%TO.C,R26*%
X93175000Y-65000000D03*
X94825000Y-65000000D03*
%TD*%
D47*
%TO.C,U2*%
X22950000Y-46862500D03*
X22000000Y-46862500D03*
X21050000Y-46862500D03*
X21050000Y-49137500D03*
X22000000Y-49137500D03*
X22950000Y-49137500D03*
%TD*%
D15*
%TO.C,C11*%
X49050000Y-30000000D03*
X50950000Y-30000000D03*
%TD*%
D48*
%TO.C,D6*%
X55000000Y-18000000D03*
X59000000Y-18000000D03*
%TD*%
D14*
%TO.C,R10*%
X62175000Y-14000000D03*
X63825000Y-14000000D03*
%TD*%
D12*
%TO.C,LED1*%
X41212500Y-42000000D03*
X42787500Y-42000000D03*
%TD*%
D15*
%TO.C,C10*%
X43050000Y-30000000D03*
X44950000Y-30000000D03*
%TD*%
D28*
%TO.C,U3*%
X73862500Y-19050000D03*
X73862500Y-20000000D03*
X73862500Y-20950000D03*
X76137500Y-20950000D03*
X76137500Y-20000000D03*
X76137500Y-19050000D03*
%TD*%
D16*
%TO.C,C8*%
X44225000Y-17000000D03*
X45775000Y-17000000D03*
%TD*%
D26*
%TO.C,J5*%
X113000000Y-54000000D03*
D27*
X113000000Y-51500000D03*
%TD*%
D49*
%TO.C,C7*%
X72300000Y-36000000D03*
X79700000Y-36000000D03*
%TD*%
D14*
%TO.C,R6*%
X41175000Y-49000000D03*
X42825000Y-49000000D03*
%TD*%
D48*
%TO.C,D7*%
X55000000Y-23000000D03*
X59000000Y-23000000D03*
%TD*%
D21*
%TO.C,H1*%
X40000000Y-4000000D03*
%TD*%
D15*
%TO.C,C12*%
X34050000Y-30000000D03*
X35950000Y-30000000D03*
%TD*%
D49*
%TO.C,C2*%
X65800000Y-52000000D03*
X74200000Y-52000000D03*
%TD*%
D50*
%TO.C,J9*%
X70000000Y-65000000D03*
D51*
X72540000Y-65000000D03*
X70000000Y-67540000D03*
X72540000Y-67540000D03*
X70000000Y-70080000D03*
X72540000Y-70080000D03*
%TD*%
D29*
%TO.C,Q1*%
X87425000Y-13095000D03*
X87425000Y-14365000D03*
X87425000Y-15635000D03*
X87425000Y-16905000D03*
X92575000Y-16905000D03*
X92575000Y-15635000D03*
X92575000Y-14365000D03*
X92575000Y-13095000D03*
%TD*%
D43*
%TO.C,D3*%
X106580000Y-51000000D03*
X107420000Y-51000000D03*
%TD*%
D14*
%TO.C,R13*%
X95175000Y-50000000D03*
X96825000Y-50000000D03*
%TD*%
D31*
%TO.C,F1*%
X95862500Y-14000000D03*
X100137500Y-14000000D03*
%TD*%
D13*
%TO.C,TP4*%
X60000000Y-43000000D03*
%TD*%
%TO.C,TP5*%
X64000000Y-43000000D03*
%TD*%
D14*
%TO.C,R1*%
X8175000Y-65000000D03*
X9825000Y-65000000D03*
%TD*%
D13*
%TO.C,TP2*%
X52000000Y-43000000D03*
%TD*%
D30*
%TO.C,L1*%
X63250000Y-22000000D03*
X68750000Y-22000000D03*
%TD*%
D14*
%TO.C,R17*%
X95175000Y-30000000D03*
X96825000Y-30000000D03*
%TD*%
%TO.C,R14*%
X95175000Y-57000000D03*
X96825000Y-57000000D03*
%TD*%
D16*
%TO.C,C16*%
X95225000Y-60000000D03*
X96775000Y-60000000D03*
%TD*%
D14*
%TO.C,R23*%
X87175000Y-31000000D03*
X88825000Y-31000000D03*
%TD*%
D44*
%TO.C,R3*%
X25000000Y-55825000D03*
X25000000Y-54175000D03*
%TD*%
%LPD*%
M02*
