M48
; DRILL file KiCad 10.0.4 date 2026-07-18T00:47:56
; FORMAT={-:-/ absolute / metric / decimal}
; #@! TF.CreationDate,2026-07-18T00:47:56+05:30
; #@! TF.GenerationSoftware,Kicad,Pcbnew,10.0.4
; #@! TF.FileFunction,MixedPlating,1,4
FMAT,2
METRIC
; #@! TA.AperFunction,Plated,PTH,ComponentDrill
T1C0.200
; #@! TA.AperFunction,Plated,PTH,ViaDrill
T2C0.350
; #@! TA.AperFunction,Plated,PTH,ViaDrill
T3C0.450
; #@! TA.AperFunction,Plated,PTH,ComponentDrill
T4C0.600
; #@! TA.AperFunction,Plated,PTH,ComponentDrill
T5C0.950
; #@! TA.AperFunction,Plated,PTH,ComponentDrill
T6C1.000
; #@! TA.AperFunction,Plated,PTH,ComponentDrill
T7C1.600
; #@! TA.AperFunction,NonPlated,NPTH,ComponentDrill
T8C0.650
; #@! TA.AperFunction,NonPlated,NPTH,ComponentDrill
T9C3.200
%
G90
G05
T1
X20.06Y-31.8
X20.06Y-33.2
X20.76Y-31.1
X20.76Y-32.5
X20.76Y-33.9
X21.46Y-31.8
X21.46Y-33.2
X22.16Y-31.1
X22.16Y-32.5
X22.16Y-33.9
X22.86Y-31.8
X22.86Y-33.2
T2
X6.5Y-65.0
X10.0Y-74.0
X14.896Y-41.159
X16.011Y-73.825
X16.211Y-71.509
X17.25Y-74.0
X17.55Y-23.594
X17.55Y-38.444
X18.4Y-74.0
X19.046Y-56.3
X20.19Y-46.862
X20.453Y-24.286
X22.0Y-45.478
X22.0Y-51.0
X22.994Y-38.444
X23.77Y-45.986
X24.988Y-37.985
X25.754Y-55.035
X26.278Y-38.408
X27.71Y-38.438
X28.907Y-38.253
X29.946Y-37.336
X31.171Y-21.173
X32.917Y-37.923
X33.591Y-36.18
X34.307Y-41.132
X35.95Y-28.557
X37.058Y-50.197
X37.562Y-45.917
X39.54Y-48.885
X40.285Y-46.612
X44.269Y-28.605
X44.75Y-24.0
X45.285Y-50.091
X46.044Y-42.606
X47.547Y-19.038
X48.95Y-42.053
X52.5Y-22.0
X57.392Y-43.564
X59.402Y-45.669
X61.0Y-23.0
X61.09Y-14.0
X63.825Y-15.049
X65.759Y-7.73
X66.8Y-28.527
X66.869Y-57.248
X67.255Y-42.254
X73.536Y-18.037
X74.0Y-23.5
X74.937Y-42.595
X78.386Y-46.211
X78.825Y-28.406
X79.05Y-12.5
X79.605Y-9.22
X80.0Y-21.5
X80.218Y-30.653
X85.8Y-16.905
X87.183Y-63.642
X93.999Y-63.521
X94.384Y-48.249
X94.634Y-52.006
X95.175Y-31.202
X95.41Y-58.767
X96.377Y-46.123
X96.825Y-48.95
X103.5Y-18.85
T3
X6.5Y-65.0
X10.0Y-74.0
X17.25Y-74.0
X18.4Y-74.0
X22.0Y-51.0
X44.75Y-24.0
X52.5Y-22.0
X61.0Y-23.0
X74.0Y-23.5
X79.05Y-12.5
X80.0Y-21.5
X85.8Y-16.905
X103.5Y-18.85
T5
X113.0Y-39.0
X113.0Y-41.5
X113.0Y-44.0
T6
X70.0Y-65.0
X70.0Y-67.54
X70.0Y-70.08
X72.54Y-65.0
X72.54Y-67.54
X72.54Y-70.08
X98.5Y-68.0
X101.0Y-68.0
X113.0Y-29.5
X113.0Y-32.0
X113.0Y-51.5
X113.0Y-54.0
X113.0Y-61.5
X113.0Y-64.0
T7
X79.3Y-5.0
X84.0Y-2.0
X84.0Y-8.0
X101.3Y-5.0
X106.0Y-2.0
X106.0Y-8.0
T8
X13.11Y-71.605
X18.89Y-71.605
T9
X40.0Y-4.0
X40.0Y-71.0
X116.0Y-4.0
X116.0Y-71.0
T4
X11.68Y-68.325G85X11.68Y-67.525
G05
X11.68Y-72.655G85X11.68Y-71.555
G05
X20.32Y-68.325G85X20.32Y-67.525
G05
X20.32Y-72.655G85X20.32Y-71.555
G05
M30
