%TF.GenerationSoftware,KiCad,Pcbnew,10.0.4*%
%TF.CreationDate,2026-07-18T00:47:56+05:30*%
%TF.ProjectId,redcat51ii-flat-panel-revc-routed,72656463-6174-4353-9169-692d666c6174,rev?*%
%TF.SameCoordinates,Original*%
%TF.FileFunction,Copper,L4,Bot*%
%TF.FilePolarity,Positive*%
%FSLAX46Y46*%
G04 Gerber Fmt 4.6, Leading zero omitted, Abs format (unit mm)*
G04 Created by KiCad (PCBNEW 10.0.4) date 2026-07-18 00:47:56*
%MOMM*%
%LPD*%
G01*
G04 APERTURE LIST*
G04 Aperture macros list*
%AMRoundRect*
0 Rectangle with rounded corners*
0 $1 Rounding radius*
0 $2 $3 $4 $5 $6 $7 $8 $9 X,Y pos of 4 corners*
0 Add a 4 corners polygon primitive as box body*
4,1,4,$2,$3,$4,$5,$6,$7,$8,$9,$2,$3,0*
0 Add four circle primitives for the rounded corners*
1,1,$1+$1,$2,$3*
1,1,$1+$1,$4,$5*
1,1,$1+$1,$6,$7*
1,1,$1+$1,$8,$9*
0 Add four rect primitives between the rounded corners*
20,1,$1+$1,$2,$3,$4,$5,0*
20,1,$1+$1,$4,$5,$6,$7,0*
20,1,$1+$1,$6,$7,$8,$9,0*
20,1,$1+$1,$8,$9,$2,$3,0*%
G04 Aperture macros list end*
%TA.AperFunction,ComponentPad*%
%ADD10RoundRect,0.250000X0.725000X-0.600000X0.725000X0.600000X-0.725000X0.600000X-0.725000X-0.600000X0*%
%TD*%
%TA.AperFunction,ComponentPad*%
%ADD11O,1.950000X1.700000*%
%TD*%
%TA.AperFunction,ComponentPad*%
%ADD12RoundRect,0.250000X0.600000X0.750000X-0.600000X0.750000X-0.600000X-0.750000X0.600000X-0.750000X0*%
%TD*%
%TA.AperFunction,ComponentPad*%
%ADD13O,1.700000X2.000000*%
%TD*%
%TA.AperFunction,ComponentPad*%
%ADD14RoundRect,0.250000X0.750000X-0.600000X0.750000X0.600000X-0.750000X0.600000X-0.750000X-0.600000X0*%
%TD*%
%TA.AperFunction,ComponentPad*%
%ADD15O,2.000000X1.700000*%
%TD*%
%TA.AperFunction,HeatsinkPad*%
%ADD16C,0.600000*%
%TD*%
%TA.AperFunction,ComponentPad*%
%ADD17R,2.600000X2.600000*%
%TD*%
%TA.AperFunction,ComponentPad*%
%ADD18C,2.600000*%
%TD*%
%TA.AperFunction,ComponentPad*%
%ADD19O,1.000000X2.100000*%
%TD*%
%TA.AperFunction,ComponentPad*%
%ADD20O,1.000000X1.800000*%
%TD*%
%TA.AperFunction,ComponentPad*%
%ADD21R,1.700000X1.700000*%
%TD*%
%TA.AperFunction,ComponentPad*%
%ADD22C,1.700000*%
%TD*%
%TA.AperFunction,ViaPad*%
%ADD23C,0.700000*%
%TD*%
%TA.AperFunction,ViaPad*%
%ADD24C,0.900000*%
%TD*%
%TA.AperFunction,Conductor*%
%ADD25C,0.500000*%
%TD*%
%TA.AperFunction,Conductor*%
%ADD26C,0.250000*%
%TD*%
%TA.AperFunction,Conductor*%
%ADD27C,0.200000*%
%TD*%
G04 APERTURE END LIST*
D10*
%TO.P,J3,1*%
%TO.N,+6V_SERVO*%
X113000000Y-44000000D03*
D11*
%TO.P,J3,2*%
%TO.N,GND*%
X113000000Y-41500000D03*
%TO.P,J3,3*%
%TO.N,SERVO_SIG*%
X113000000Y-39000000D03*
%TD*%
D12*
%TO.P,J7,1*%
%TO.N,BUTTON_RAW*%
X101000000Y-68000000D03*
D13*
%TO.P,J7,2*%
%TO.N,GND*%
X98500000Y-68000000D03*
%TD*%
D14*
%TO.P,J4,1*%
%TO.N,+12V_LED*%
X113000000Y-32000000D03*
D15*
%TO.P,J4,2*%
%TO.N,LED_NEG*%
X113000000Y-29500000D03*
%TD*%
D16*
%TO.P,U1,41*%
%TO.N,GND*%
X20760000Y-33900000D03*
X22160000Y-33900000D03*
X20060000Y-33200000D03*
X21460000Y-33200000D03*
X22860000Y-33200000D03*
X20760000Y-32500000D03*
X22160000Y-32500000D03*
X20060000Y-31800000D03*
X21460000Y-31800000D03*
X22860000Y-31800000D03*
X20760000Y-31100000D03*
X22160000Y-31100000D03*
%TD*%
D17*
%TO.P,J2,1*%
%TO.N,ASIAIR+*%
X84000000Y-8000000D03*
D18*
%TO.P,J2,2*%
%TO.N,ASIAIR-*%
X84000000Y-2000000D03*
%TO.P,J2,3*%
X79300000Y-5000000D03*
%TD*%
D19*
%TO.P,J8,SH*%
%TO.N,GND*%
X20320000Y-72105000D03*
D20*
X20320000Y-67925000D03*
D19*
X11680000Y-72105000D03*
D20*
X11680000Y-67925000D03*
%TD*%
D14*
%TO.P,J6,1*%
%TO.N,CLOSED_RAW*%
X113000000Y-64000000D03*
D15*
%TO.P,J6,2*%
%TO.N,GND*%
X113000000Y-61500000D03*
%TD*%
D17*
%TO.P,J1,1*%
%TO.N,+12V_RAW*%
X106000000Y-8000000D03*
D18*
%TO.P,J1,2*%
%TO.N,GND*%
X106000000Y-2000000D03*
%TO.P,J1,3*%
X101300000Y-5000000D03*
%TD*%
D14*
%TO.P,J5,1*%
%TO.N,OPEN_RAW*%
X113000000Y-54000000D03*
D15*
%TO.P,J5,2*%
%TO.N,GND*%
X113000000Y-51500000D03*
%TD*%
D21*
%TO.P,J9,1*%
%TO.N,+3V3*%
X70000000Y-65000000D03*
D22*
%TO.P,J9,2*%
%TO.N,GND*%
X72540000Y-65000000D03*
%TO.P,J9,3*%
%TO.N,UART_TX*%
X70000000Y-67540000D03*
%TO.P,J9,4*%
%TO.N,UART_RX*%
X72540000Y-67540000D03*
%TO.P,J9,5*%
%TO.N,EN*%
X70000000Y-70080000D03*
%TO.P,J9,6*%
%TO.N,BOOT*%
X72540000Y-70080000D03*
%TD*%
D23*
%TO.N,GND*%
X66868900Y-57248400D03*
D24*
X85800000Y-16905000D03*
X103500000Y-18850000D03*
D23*
X35950000Y-28557300D03*
X103500000Y-18850000D03*
X73535600Y-18037300D03*
X66800399Y-28526600D03*
X47547100Y-19037700D03*
X22000000Y-45477600D03*
X85800000Y-16905000D03*
X78825000Y-28406300D03*
X44268900Y-28605500D03*
%TO.N,+12V*%
X48949600Y-42053100D03*
X80000000Y-21500000D03*
D24*
X79050000Y-12500000D03*
D23*
X79050000Y-12500000D03*
D24*
X80000000Y-21500000D03*
X74000000Y-23500000D03*
D23*
X74000000Y-23500000D03*
%TO.N,+3V3*%
X52500000Y-22000000D03*
X33590900Y-36180400D03*
X44750000Y-24000000D03*
X95175000Y-31202000D03*
X94384200Y-48248800D03*
D24*
X52500000Y-22000000D03*
D23*
X61089900Y-14000000D03*
X59401900Y-45669100D03*
X14896100Y-41159100D03*
D24*
X44750000Y-24000000D03*
D23*
%TO.N,+6V_SERVO*%
X57391600Y-43564500D03*
%TO.N,SERVO_SIG*%
X26278000Y-38408500D03*
X74937200Y-42595300D03*
X37562200Y-45916800D03*
%TO.N,ASIAIR_LED*%
X65759000Y-7730000D03*
X79604700Y-9220300D03*
%TO.N,BUTTON_RAW*%
X93999000Y-63521300D03*
%TO.N,BUTTON_SIG*%
X32916800Y-37923300D03*
X45285500Y-50090600D03*
X87183000Y-63642000D03*
%TO.N,SERVO_PWR_EN*%
X80218200Y-30652600D03*
X27710000Y-38438100D03*
%TO.N,CLOSED_SIG*%
X24988200Y-37984800D03*
X37057800Y-50197100D03*
X95410300Y-58766500D03*
%TO.N,LED_NEG*%
X96377000Y-46123000D03*
%TO.N,LED_PWM*%
X40285100Y-46612300D03*
X78386200Y-46211200D03*
X29946300Y-37335800D03*
%TO.N,ASIAIR_SIG*%
X17550000Y-38444000D03*
X67255300Y-42253700D03*
X63825000Y-15049100D03*
%TO.N,OPEN_SIG*%
X94634100Y-52006400D03*
X96825000Y-48950000D03*
X39539700Y-48885200D03*
X28907300Y-38252800D03*
%TO.N,STATUS_LED*%
X22993700Y-38443500D03*
X34307200Y-41132200D03*
%TO.N,BOOT*%
X46043900Y-42606100D03*
X31170900Y-21173300D03*
%TO.N,UART_RX*%
X20453200Y-24286400D03*
%TO.N,UART_TX*%
X17550000Y-23593600D03*
D24*
%TO.N,USB_VBUS*%
X22000000Y-51000000D03*
D23*
X10000000Y-74000000D03*
D24*
X18400000Y-74000000D03*
X10000000Y-74000000D03*
D23*
X22000000Y-51000000D03*
X18400000Y-74000000D03*
D24*
X61000000Y-23000000D03*
D23*
X61000000Y-23000000D03*
%TO.N,CC1*%
X6500000Y-65000000D03*
D24*
X17250000Y-74000000D03*
X6500000Y-65000000D03*
D23*
X17250000Y-74000000D03*
%TO.N,USB_D+_J*%
X16010900Y-73824700D03*
X25754200Y-55034700D03*
X23769600Y-45985900D03*
%TO.N,USB_D-_J*%
X16210999Y-71509300D03*
X19046300Y-56299900D03*
X20189900Y-46862500D03*
%TD*%
%TO.N,GND*%
D25*
X85800000Y-16905000D02*
X84667800Y-18037200D01*
X73535600Y-18037200D02*
X73535600Y-18037300D01*
X84667800Y-18037200D02*
X73535600Y-18037200D01*
%TO.N,LED_NEG*%
D26*
X113000000Y-29500000D02*
X96377000Y-46123000D01*
%TO.N,CC1*%
D27*
X17250000Y-65000000D02*
X17250000Y-74000000D01*
X17250000Y-65000000D02*
X17250000Y-74000000D01*
X17250000Y-65000000D02*
X17250000Y-74000000D01*
X6500000Y-65000000D02*
X17250000Y-65000000D01*
X6500000Y-65000000D02*
X17250000Y-65000000D01*
%TD*%
M02*
