%TF.GenerationSoftware,KiCad,Pcbnew,10.0.4*%
%TF.CreationDate,2026-07-18T00:47:56+05:30*%
%TF.ProjectId,redcat51ii-flat-panel-revc-routed,72656463-6174-4353-9169-692d666c6174,rev?*%
%TF.SameCoordinates,Original*%
%TF.FileFunction,Drillmap*%
%TF.FilePolarity,Positive*%
%FSLAX45Y45*%
G04 Gerber Fmt 4.5, Leading zero omitted, Abs format (unit mm)*
G04 Created by KiCad (PCBNEW 10.0.4) date 2026-07-18 00:47:56*
%MOMM*%
%LPD*%
G01*
G04 APERTURE LIST*
%ADD10C,0.100000*%
%ADD11C,0.200000*%
%ADD12C,0.160000*%
%ADD13C,0.320000*%
G04 APERTURE END LIST*
D10*
X0Y-300000D02*
X300000Y0D01*
X0Y-7200000D02*
X0Y-300000D01*
X300000Y0D02*
X11700000Y0D01*
X300000Y-7500000D02*
X0Y-7200000D01*
X11700000Y0D02*
X12000000Y-300000D01*
X11700000Y-7500000D02*
X300000Y-7500000D01*
X12000000Y-300000D02*
X12000000Y-7200000D01*
X12000000Y-7200000D02*
X11700000Y-7500000D01*
D11*
D10*
X1996000Y-3170000D02*
X2016000Y-3190000D01*
X2016000Y-3170000D02*
X1996000Y-3190000D01*
X1996000Y-3310000D02*
X2016000Y-3330000D01*
X2016000Y-3310000D02*
X1996000Y-3330000D01*
X2066000Y-3100000D02*
X2086000Y-3120000D01*
X2086000Y-3100000D02*
X2066000Y-3120000D01*
X2066000Y-3240000D02*
X2086000Y-3260000D01*
X2086000Y-3240000D02*
X2066000Y-3260000D01*
X2066000Y-3380000D02*
X2086000Y-3400000D01*
X2086000Y-3380000D02*
X2066000Y-3400000D01*
X2136000Y-3170000D02*
X2156000Y-3190000D01*
X2156000Y-3170000D02*
X2136000Y-3190000D01*
X2136000Y-3310000D02*
X2156000Y-3330000D01*
X2156000Y-3310000D02*
X2136000Y-3330000D01*
X2206000Y-3100000D02*
X2226000Y-3120000D01*
X2226000Y-3100000D02*
X2206000Y-3120000D01*
X2206000Y-3240000D02*
X2226000Y-3260000D01*
X2226000Y-3240000D02*
X2206000Y-3260000D01*
X2206000Y-3380000D02*
X2226000Y-3400000D01*
X2226000Y-3380000D02*
X2206000Y-3400000D01*
X2276000Y-3170000D02*
X2296000Y-3190000D01*
X2296000Y-3170000D02*
X2276000Y-3190000D01*
X2276000Y-3310000D02*
X2296000Y-3330000D01*
X2296000Y-3310000D02*
X2276000Y-3330000D01*
X667500Y-6500000D02*
G75*
G02*
X632500Y-6500000I-17500J0D01*
G01*
X632500Y-6500000D02*
G75*
G02*
X667500Y-6500000I17500J0D01*
G01*
X1017500Y-7400000D02*
G75*
G02*
X982500Y-7400000I-17500J0D01*
G01*
X982500Y-7400000D02*
G75*
G02*
X1017500Y-7400000I17500J0D01*
G01*
X1507110Y-4115910D02*
G75*
G02*
X1472110Y-4115910I-17500J0D01*
G01*
X1472110Y-4115910D02*
G75*
G02*
X1507110Y-4115910I17500J0D01*
G01*
X1618590Y-7382470D02*
G75*
G02*
X1583590Y-7382470I-17500J0D01*
G01*
X1583590Y-7382470D02*
G75*
G02*
X1618590Y-7382470I17500J0D01*
G01*
X1638600Y-7150930D02*
G75*
G02*
X1603600Y-7150930I-17500J0D01*
G01*
X1603600Y-7150930D02*
G75*
G02*
X1638600Y-7150930I17500J0D01*
G01*
X1742500Y-7400000D02*
G75*
G02*
X1707500Y-7400000I-17500J0D01*
G01*
X1707500Y-7400000D02*
G75*
G02*
X1742500Y-7400000I17500J0D01*
G01*
X1772500Y-2359360D02*
G75*
G02*
X1737500Y-2359360I-17500J0D01*
G01*
X1737500Y-2359360D02*
G75*
G02*
X1772500Y-2359360I17500J0D01*
G01*
X1772500Y-3844400D02*
G75*
G02*
X1737500Y-3844400I-17500J0D01*
G01*
X1737500Y-3844400D02*
G75*
G02*
X1772500Y-3844400I17500J0D01*
G01*
X1857500Y-7400000D02*
G75*
G02*
X1822500Y-7400000I-17500J0D01*
G01*
X1822500Y-7400000D02*
G75*
G02*
X1857500Y-7400000I17500J0D01*
G01*
X1922130Y-5629990D02*
G75*
G02*
X1887130Y-5629990I-17500J0D01*
G01*
X1887130Y-5629990D02*
G75*
G02*
X1922130Y-5629990I17500J0D01*
G01*
X2036490Y-4686250D02*
G75*
G02*
X2001490Y-4686250I-17500J0D01*
G01*
X2001490Y-4686250D02*
G75*
G02*
X2036490Y-4686250I17500J0D01*
G01*
X2062820Y-2428640D02*
G75*
G02*
X2027820Y-2428640I-17500J0D01*
G01*
X2027820Y-2428640D02*
G75*
G02*
X2062820Y-2428640I17500J0D01*
G01*
X2217500Y-4547760D02*
G75*
G02*
X2182500Y-4547760I-17500J0D01*
G01*
X2182500Y-4547760D02*
G75*
G02*
X2217500Y-4547760I17500J0D01*
G01*
X2217500Y-5100000D02*
G75*
G02*
X2182500Y-5100000I-17500J0D01*
G01*
X2182500Y-5100000D02*
G75*
G02*
X2217500Y-5100000I17500J0D01*
G01*
X2316870Y-3844350D02*
G75*
G02*
X2281870Y-3844350I-17500J0D01*
G01*
X2281870Y-3844350D02*
G75*
G02*
X2316870Y-3844350I17500J0D01*
G01*
X2394460Y-4598590D02*
G75*
G02*
X2359460Y-4598590I-17500J0D01*
G01*
X2359460Y-4598590D02*
G75*
G02*
X2394460Y-4598590I17500J0D01*
G01*
X2516320Y-3798480D02*
G75*
G02*
X2481320Y-3798480I-17500J0D01*
G01*
X2481320Y-3798480D02*
G75*
G02*
X2516320Y-3798480I17500J0D01*
G01*
X2592920Y-5503470D02*
G75*
G02*
X2557920Y-5503470I-17500J0D01*
G01*
X2557920Y-5503470D02*
G75*
G02*
X2592920Y-5503470I17500J0D01*
G01*
X2645300Y-3840850D02*
G75*
G02*
X2610300Y-3840850I-17500J0D01*
G01*
X2610300Y-3840850D02*
G75*
G02*
X2645300Y-3840850I17500J0D01*
G01*
X2788500Y-3843810D02*
G75*
G02*
X2753500Y-3843810I-17500J0D01*
G01*
X2753500Y-3843810D02*
G75*
G02*
X2788500Y-3843810I17500J0D01*
G01*
X2908230Y-3825280D02*
G75*
G02*
X2873230Y-3825280I-17500J0D01*
G01*
X2873230Y-3825280D02*
G75*
G02*
X2908230Y-3825280I17500J0D01*
G01*
X3012130Y-3733580D02*
G75*
G02*
X2977130Y-3733580I-17500J0D01*
G01*
X2977130Y-3733580D02*
G75*
G02*
X3012130Y-3733580I17500J0D01*
G01*
X3134590Y-2117330D02*
G75*
G02*
X3099590Y-2117330I-17500J0D01*
G01*
X3099590Y-2117330D02*
G75*
G02*
X3134590Y-2117330I17500J0D01*
G01*
X3309180Y-3792330D02*
G75*
G02*
X3274180Y-3792330I-17500J0D01*
G01*
X3274180Y-3792330D02*
G75*
G02*
X3309180Y-3792330I17500J0D01*
G01*
X3376590Y-3618040D02*
G75*
G02*
X3341590Y-3618040I-17500J0D01*
G01*
X3341590Y-3618040D02*
G75*
G02*
X3376590Y-3618040I17500J0D01*
G01*
X3448220Y-4113220D02*
G75*
G02*
X3413220Y-4113220I-17500J0D01*
G01*
X3413220Y-4113220D02*
G75*
G02*
X3448220Y-4113220I17500J0D01*
G01*
X3612500Y-2855730D02*
G75*
G02*
X3577500Y-2855730I-17500J0D01*
G01*
X3577500Y-2855730D02*
G75*
G02*
X3612500Y-2855730I17500J0D01*
G01*
X3723280Y-5019710D02*
G75*
G02*
X3688280Y-5019710I-17500J0D01*
G01*
X3688280Y-5019710D02*
G75*
G02*
X3723280Y-5019710I17500J0D01*
G01*
X3773720Y-4591680D02*
G75*
G02*
X3738720Y-4591680I-17500J0D01*
G01*
X3738720Y-4591680D02*
G75*
G02*
X3773720Y-4591680I17500J0D01*
G01*
X3971470Y-4888520D02*
G75*
G02*
X3936470Y-4888520I-17500J0D01*
G01*
X3936470Y-4888520D02*
G75*
G02*
X3971470Y-4888520I17500J0D01*
G01*
X4046010Y-4661230D02*
G75*
G02*
X4011010Y-4661230I-17500J0D01*
G01*
X4011010Y-4661230D02*
G75*
G02*
X4046010Y-4661230I17500J0D01*
G01*
X4444390Y-2860550D02*
G75*
G02*
X4409390Y-2860550I-17500J0D01*
G01*
X4409390Y-2860550D02*
G75*
G02*
X4444390Y-2860550I17500J0D01*
G01*
X4492500Y-2400000D02*
G75*
G02*
X4457500Y-2400000I-17500J0D01*
G01*
X4457500Y-2400000D02*
G75*
G02*
X4492500Y-2400000I17500J0D01*
G01*
X4546050Y-5009060D02*
G75*
G02*
X4511050Y-5009060I-17500J0D01*
G01*
X4511050Y-5009060D02*
G75*
G02*
X4546050Y-5009060I17500J0D01*
G01*
X4621890Y-4260610D02*
G75*
G02*
X4586890Y-4260610I-17500J0D01*
G01*
X4586890Y-4260610D02*
G75*
G02*
X4621890Y-4260610I17500J0D01*
G01*
X4772210Y-1903770D02*
G75*
G02*
X4737210Y-1903770I-17500J0D01*
G01*
X4737210Y-1903770D02*
G75*
G02*
X4772210Y-1903770I17500J0D01*
G01*
X4912460Y-4205310D02*
G75*
G02*
X4877460Y-4205310I-17500J0D01*
G01*
X4877460Y-4205310D02*
G75*
G02*
X4912460Y-4205310I17500J0D01*
G01*
X5267500Y-2200000D02*
G75*
G02*
X5232500Y-2200000I-17500J0D01*
G01*
X5232500Y-2200000D02*
G75*
G02*
X5267500Y-2200000I17500J0D01*
G01*
X5756660Y-4356450D02*
G75*
G02*
X5721660Y-4356450I-17500J0D01*
G01*
X5721660Y-4356450D02*
G75*
G02*
X5756660Y-4356450I17500J0D01*
G01*
X5957690Y-4566910D02*
G75*
G02*
X5922690Y-4566910I-17500J0D01*
G01*
X5922690Y-4566910D02*
G75*
G02*
X5957690Y-4566910I17500J0D01*
G01*
X6117500Y-2300000D02*
G75*
G02*
X6082500Y-2300000I-17500J0D01*
G01*
X6082500Y-2300000D02*
G75*
G02*
X6117500Y-2300000I17500J0D01*
G01*
X6126490Y-1400000D02*
G75*
G02*
X6091490Y-1400000I-17500J0D01*
G01*
X6091490Y-1400000D02*
G75*
G02*
X6126490Y-1400000I17500J0D01*
G01*
X6400000Y-1504910D02*
G75*
G02*
X6365000Y-1504910I-17500J0D01*
G01*
X6365000Y-1504910D02*
G75*
G02*
X6400000Y-1504910I17500J0D01*
G01*
X6593400Y-773000D02*
G75*
G02*
X6558400Y-773000I-17500J0D01*
G01*
X6558400Y-773000D02*
G75*
G02*
X6593400Y-773000I17500J0D01*
G01*
X6697540Y-2852660D02*
G75*
G02*
X6662540Y-2852660I-17500J0D01*
G01*
X6662540Y-2852660D02*
G75*
G02*
X6697540Y-2852660I17500J0D01*
G01*
X6704390Y-5724840D02*
G75*
G02*
X6669390Y-5724840I-17500J0D01*
G01*
X6669390Y-5724840D02*
G75*
G02*
X6704390Y-5724840I17500J0D01*
G01*
X6743030Y-4225370D02*
G75*
G02*
X6708030Y-4225370I-17500J0D01*
G01*
X6708030Y-4225370D02*
G75*
G02*
X6743030Y-4225370I17500J0D01*
G01*
X7371060Y-1803730D02*
G75*
G02*
X7336060Y-1803730I-17500J0D01*
G01*
X7336060Y-1803730D02*
G75*
G02*
X7371060Y-1803730I17500J0D01*
G01*
X7417500Y-2350000D02*
G75*
G02*
X7382500Y-2350000I-17500J0D01*
G01*
X7382500Y-2350000D02*
G75*
G02*
X7417500Y-2350000I17500J0D01*
G01*
X7511220Y-4259530D02*
G75*
G02*
X7476220Y-4259530I-17500J0D01*
G01*
X7476220Y-4259530D02*
G75*
G02*
X7511220Y-4259530I17500J0D01*
G01*
X7856120Y-4621120D02*
G75*
G02*
X7821120Y-4621120I-17500J0D01*
G01*
X7821120Y-4621120D02*
G75*
G02*
X7856120Y-4621120I17500J0D01*
G01*
X7900000Y-2840630D02*
G75*
G02*
X7865000Y-2840630I-17500J0D01*
G01*
X7865000Y-2840630D02*
G75*
G02*
X7900000Y-2840630I17500J0D01*
G01*
X7922500Y-1250000D02*
G75*
G02*
X7887500Y-1250000I-17500J0D01*
G01*
X7887500Y-1250000D02*
G75*
G02*
X7922500Y-1250000I17500J0D01*
G01*
X7977970Y-922030D02*
G75*
G02*
X7942970Y-922030I-17500J0D01*
G01*
X7942970Y-922030D02*
G75*
G02*
X7977970Y-922030I17500J0D01*
G01*
X8017500Y-2150000D02*
G75*
G02*
X7982500Y-2150000I-17500J0D01*
G01*
X7982500Y-2150000D02*
G75*
G02*
X8017500Y-2150000I17500J0D01*
G01*
X8039320Y-3065260D02*
G75*
G02*
X8004320Y-3065260I-17500J0D01*
G01*
X8004320Y-3065260D02*
G75*
G02*
X8039320Y-3065260I17500J0D01*
G01*
X8597500Y-1690500D02*
G75*
G02*
X8562500Y-1690500I-17500J0D01*
G01*
X8562500Y-1690500D02*
G75*
G02*
X8597500Y-1690500I17500J0D01*
G01*
X8735800Y-6364200D02*
G75*
G02*
X8700800Y-6364200I-17500J0D01*
G01*
X8700800Y-6364200D02*
G75*
G02*
X8735800Y-6364200I17500J0D01*
G01*
X9417400Y-6352130D02*
G75*
G02*
X9382400Y-6352130I-17500J0D01*
G01*
X9382400Y-6352130D02*
G75*
G02*
X9417400Y-6352130I17500J0D01*
G01*
X9455920Y-4824880D02*
G75*
G02*
X9420920Y-4824880I-17500J0D01*
G01*
X9420920Y-4824880D02*
G75*
G02*
X9455920Y-4824880I17500J0D01*
G01*
X9480910Y-5200640D02*
G75*
G02*
X9445910Y-5200640I-17500J0D01*
G01*
X9445910Y-5200640D02*
G75*
G02*
X9480910Y-5200640I17500J0D01*
G01*
X9535000Y-3120200D02*
G75*
G02*
X9500000Y-3120200I-17500J0D01*
G01*
X9500000Y-3120200D02*
G75*
G02*
X9535000Y-3120200I17500J0D01*
G01*
X9558530Y-5876650D02*
G75*
G02*
X9523530Y-5876650I-17500J0D01*
G01*
X9523530Y-5876650D02*
G75*
G02*
X9558530Y-5876650I17500J0D01*
G01*
X9655200Y-4612300D02*
G75*
G02*
X9620200Y-4612300I-17500J0D01*
G01*
X9620200Y-4612300D02*
G75*
G02*
X9655200Y-4612300I17500J0D01*
G01*
X9700000Y-4895000D02*
G75*
G02*
X9665000Y-4895000I-17500J0D01*
G01*
X9665000Y-4895000D02*
G75*
G02*
X9700000Y-4895000I17500J0D01*
G01*
X10367500Y-1885000D02*
G75*
G02*
X10332500Y-1885000I-17500J0D01*
G01*
X10332500Y-1885000D02*
G75*
G02*
X10367500Y-1885000I17500J0D01*
G01*
X650000Y-6477500D02*
X650000Y-6522500D01*
X627500Y-6500000D02*
X672500Y-6500000D01*
X1000000Y-7377500D02*
X1000000Y-7422500D01*
X977500Y-7400000D02*
X1022500Y-7400000D01*
X1725000Y-7377500D02*
X1725000Y-7422500D01*
X1702500Y-7400000D02*
X1747500Y-7400000D01*
X1840000Y-7377500D02*
X1840000Y-7422500D01*
X1817500Y-7400000D02*
X1862500Y-7400000D01*
X2200000Y-5077500D02*
X2200000Y-5122500D01*
X2177500Y-5100000D02*
X2222500Y-5100000D01*
X4475000Y-2377500D02*
X4475000Y-2422500D01*
X4452500Y-2400000D02*
X4497500Y-2400000D01*
X5250000Y-2177500D02*
X5250000Y-2222500D01*
X5227500Y-2200000D02*
X5272500Y-2200000D01*
X6100000Y-2277500D02*
X6100000Y-2322500D01*
X6077500Y-2300000D02*
X6122500Y-2300000D01*
X7400000Y-2327500D02*
X7400000Y-2372500D01*
X7377500Y-2350000D02*
X7422500Y-2350000D01*
X7905000Y-1227500D02*
X7905000Y-1272500D01*
X7882500Y-1250000D02*
X7927500Y-1250000D01*
X8000000Y-2127500D02*
X8000000Y-2172500D01*
X7977500Y-2150000D02*
X8022500Y-2150000D01*
X8580000Y-1668000D02*
X8580000Y-1713000D01*
X8557500Y-1690500D02*
X8602500Y-1690500D01*
X10350000Y-1862500D02*
X10350000Y-1907500D01*
X10327500Y-1885000D02*
X10372500Y-1885000D01*
X1189213Y-6813713D02*
X1189213Y-6771287D01*
X1146787Y-6771287D01*
X1146787Y-6813713D01*
X1189213Y-6813713D01*
X1198000Y-6832500D02*
X1198000Y-6752500D01*
X1138000Y-6752500D02*
G75*
G02*
X1198000Y-6752500I30000J0D01*
G01*
X1138000Y-6752500D02*
X1138000Y-6832500D01*
X1138000Y-6832500D02*
G75*
G03*
X1198000Y-6832500I30000J0D01*
G01*
X1189213Y-7231713D02*
X1189213Y-7189287D01*
X1146787Y-7189287D01*
X1146787Y-7231713D01*
X1189213Y-7231713D01*
X1198000Y-7265500D02*
X1198000Y-7155500D01*
X1138000Y-7155500D02*
G75*
G02*
X1198000Y-7155500I30000J0D01*
G01*
X1138000Y-7155500D02*
X1138000Y-7265500D01*
X1138000Y-7265500D02*
G75*
G03*
X1198000Y-7265500I30000J0D01*
G01*
X2053213Y-6813713D02*
X2053213Y-6771287D01*
X2010787Y-6771287D01*
X2010787Y-6813713D01*
X2053213Y-6813713D01*
X2062000Y-6832500D02*
X2062000Y-6752500D01*
X2002000Y-6752500D02*
G75*
G02*
X2062000Y-6752500I30000J0D01*
G01*
X2002000Y-6752500D02*
X2002000Y-6832500D01*
X2002000Y-6832500D02*
G75*
G03*
X2062000Y-6832500I30000J0D01*
G01*
X2053213Y-7231713D02*
X2053213Y-7189287D01*
X2010787Y-7189287D01*
X2010787Y-7231713D01*
X2053213Y-7231713D01*
X2062000Y-7265500D02*
X2062000Y-7155500D01*
X2002000Y-7155500D02*
G75*
G02*
X2062000Y-7155500I30000J0D01*
G01*
X2002000Y-7155500D02*
X2002000Y-7265500D01*
X2002000Y-7265500D02*
G75*
G03*
X2062000Y-7265500I30000J0D01*
G01*
X11300000Y-3947500D02*
X11347500Y-3900000D01*
X11300000Y-3852500D01*
X11252500Y-3900000D01*
X11300000Y-3947500D01*
X11300000Y-4197500D02*
X11347500Y-4150000D01*
X11300000Y-4102500D01*
X11252500Y-4150000D01*
X11300000Y-4197500D01*
X11300000Y-4447500D02*
X11347500Y-4400000D01*
X11300000Y-4352500D01*
X11252500Y-4400000D01*
X11300000Y-4447500D01*
X6950000Y-6450000D02*
X7050000Y-6550000D01*
X7050000Y-6450000D02*
X6950000Y-6550000D01*
X7050000Y-6500000D02*
G75*
G02*
X6950000Y-6500000I-50000J0D01*
G01*
X6950000Y-6500000D02*
G75*
G02*
X7050000Y-6500000I50000J0D01*
G01*
X6950000Y-6704000D02*
X7050000Y-6804000D01*
X7050000Y-6704000D02*
X6950000Y-6804000D01*
X7050000Y-6754000D02*
G75*
G02*
X6950000Y-6754000I-50000J0D01*
G01*
X6950000Y-6754000D02*
G75*
G02*
X7050000Y-6754000I50000J0D01*
G01*
X6950000Y-6958000D02*
X7050000Y-7058000D01*
X7050000Y-6958000D02*
X6950000Y-7058000D01*
X7050000Y-7008000D02*
G75*
G02*
X6950000Y-7008000I-50000J0D01*
G01*
X6950000Y-7008000D02*
G75*
G02*
X7050000Y-7008000I50000J0D01*
G01*
X7204000Y-6450000D02*
X7304000Y-6550000D01*
X7304000Y-6450000D02*
X7204000Y-6550000D01*
X7304000Y-6500000D02*
G75*
G02*
X7204000Y-6500000I-50000J0D01*
G01*
X7204000Y-6500000D02*
G75*
G02*
X7304000Y-6500000I50000J0D01*
G01*
X7204000Y-6704000D02*
X7304000Y-6804000D01*
X7304000Y-6704000D02*
X7204000Y-6804000D01*
X7304000Y-6754000D02*
G75*
G02*
X7204000Y-6754000I-50000J0D01*
G01*
X7204000Y-6754000D02*
G75*
G02*
X7304000Y-6754000I50000J0D01*
G01*
X7204000Y-6958000D02*
X7304000Y-7058000D01*
X7304000Y-6958000D02*
X7204000Y-7058000D01*
X7304000Y-7008000D02*
G75*
G02*
X7204000Y-7008000I-50000J0D01*
G01*
X7204000Y-7008000D02*
G75*
G02*
X7304000Y-7008000I50000J0D01*
G01*
X9800000Y-6750000D02*
X9900000Y-6850000D01*
X9900000Y-6750000D02*
X9800000Y-6850000D01*
X9900000Y-6800000D02*
G75*
G02*
X9800000Y-6800000I-50000J0D01*
G01*
X9800000Y-6800000D02*
G75*
G02*
X9900000Y-6800000I50000J0D01*
G01*
X10050000Y-6750000D02*
X10150000Y-6850000D01*
X10150000Y-6750000D02*
X10050000Y-6850000D01*
X10150000Y-6800000D02*
G75*
G02*
X10050000Y-6800000I-50000J0D01*
G01*
X10050000Y-6800000D02*
G75*
G02*
X10150000Y-6800000I50000J0D01*
G01*
X11250000Y-2900000D02*
X11350000Y-3000000D01*
X11350000Y-2900000D02*
X11250000Y-3000000D01*
X11350000Y-2950000D02*
G75*
G02*
X11250000Y-2950000I-50000J0D01*
G01*
X11250000Y-2950000D02*
G75*
G02*
X11350000Y-2950000I50000J0D01*
G01*
X11250000Y-3150000D02*
X11350000Y-3250000D01*
X11350000Y-3150000D02*
X11250000Y-3250000D01*
X11350000Y-3200000D02*
G75*
G02*
X11250000Y-3200000I-50000J0D01*
G01*
X11250000Y-3200000D02*
G75*
G02*
X11350000Y-3200000I50000J0D01*
G01*
X11250000Y-5100000D02*
X11350000Y-5200000D01*
X11350000Y-5100000D02*
X11250000Y-5200000D01*
X11350000Y-5150000D02*
G75*
G02*
X11250000Y-5150000I-50000J0D01*
G01*
X11250000Y-5150000D02*
G75*
G02*
X11350000Y-5150000I50000J0D01*
G01*
X11250000Y-5350000D02*
X11350000Y-5450000D01*
X11350000Y-5350000D02*
X11250000Y-5450000D01*
X11350000Y-5400000D02*
G75*
G02*
X11250000Y-5400000I-50000J0D01*
G01*
X11250000Y-5400000D02*
G75*
G02*
X11350000Y-5400000I50000J0D01*
G01*
X11250000Y-6100000D02*
X11350000Y-6200000D01*
X11350000Y-6100000D02*
X11250000Y-6200000D01*
X11350000Y-6150000D02*
G75*
G02*
X11250000Y-6150000I-50000J0D01*
G01*
X11250000Y-6150000D02*
G75*
G02*
X11350000Y-6150000I50000J0D01*
G01*
X11250000Y-6350000D02*
X11350000Y-6450000D01*
X11350000Y-6350000D02*
X11250000Y-6450000D01*
X11350000Y-6400000D02*
G75*
G02*
X11250000Y-6400000I-50000J0D01*
G01*
X11250000Y-6400000D02*
G75*
G02*
X11350000Y-6400000I50000J0D01*
G01*
D12*
X7850000Y-420000D02*
X8010000Y-580000D01*
X8010000Y-420000D02*
X7850000Y-580000D01*
X7930000Y-420000D02*
X7930000Y-580000D01*
X7850000Y-500000D02*
X8010000Y-500000D01*
X8320000Y-120000D02*
X8480000Y-280000D01*
X8480000Y-120000D02*
X8320000Y-280000D01*
X8400000Y-120000D02*
X8400000Y-280000D01*
X8320000Y-200000D02*
X8480000Y-200000D01*
X8320000Y-720000D02*
X8480000Y-880000D01*
X8480000Y-720000D02*
X8320000Y-880000D01*
X8400000Y-720000D02*
X8400000Y-880000D01*
X8320000Y-800000D02*
X8480000Y-800000D01*
X10050000Y-420000D02*
X10210000Y-580000D01*
X10210000Y-420000D02*
X10050000Y-580000D01*
X10130000Y-420000D02*
X10130000Y-580000D01*
X10050000Y-500000D02*
X10210000Y-500000D01*
X10520000Y-120000D02*
X10680000Y-280000D01*
X10680000Y-120000D02*
X10520000Y-280000D01*
X10600000Y-120000D02*
X10600000Y-280000D01*
X10520000Y-200000D02*
X10680000Y-200000D01*
X10520000Y-720000D02*
X10680000Y-880000D01*
X10680000Y-720000D02*
X10520000Y-880000D01*
X10600000Y-720000D02*
X10600000Y-880000D01*
X10520000Y-800000D02*
X10680000Y-800000D01*
D10*
X1278500Y-7128000D02*
X1343500Y-7193000D01*
X1343500Y-7128000D02*
X1278500Y-7193000D01*
X1333981Y-7183481D02*
X1333981Y-7137519D01*
X1288019Y-7137519D01*
X1288019Y-7183481D01*
X1333981Y-7183481D01*
X1856500Y-7128000D02*
X1921500Y-7193000D01*
X1921500Y-7128000D02*
X1856500Y-7193000D01*
X1911981Y-7183481D02*
X1911981Y-7137519D01*
X1866019Y-7137519D01*
X1866019Y-7183481D01*
X1911981Y-7183481D01*
D13*
X3840000Y-240000D02*
X4160000Y-560000D01*
X4160000Y-240000D02*
X3840000Y-560000D01*
X4000000Y-560000D02*
X4160000Y-400000D01*
X4000000Y-240000D01*
X3840000Y-400000D01*
X4000000Y-560000D01*
X3840000Y-6940000D02*
X4160000Y-7260000D01*
X4160000Y-6940000D02*
X3840000Y-7260000D01*
X4000000Y-7260000D02*
X4160000Y-7100000D01*
X4000000Y-6940000D01*
X3840000Y-7100000D01*
X4000000Y-7260000D01*
X11440000Y-240000D02*
X11760000Y-560000D01*
X11760000Y-240000D02*
X11440000Y-560000D01*
X11600000Y-560000D02*
X11760000Y-400000D01*
X11600000Y-240000D01*
X11440000Y-400000D01*
X11600000Y-560000D01*
X11440000Y-6940000D02*
X11760000Y-7260000D01*
X11760000Y-6940000D02*
X11440000Y-7260000D01*
X11600000Y-7260000D02*
X11760000Y-7100000D01*
X11600000Y-6940000D01*
X11440000Y-7100000D01*
X11600000Y-7260000D01*
D11*
X255777Y-7816484D02*
X255777Y-7616484D01*
X255777Y-7616484D02*
X303396Y-7616484D01*
X303396Y-7616484D02*
X331967Y-7626008D01*
X331967Y-7626008D02*
X351015Y-7645055D01*
X351015Y-7645055D02*
X360539Y-7664103D01*
X360539Y-7664103D02*
X370062Y-7702198D01*
X370062Y-7702198D02*
X370062Y-7730769D01*
X370062Y-7730769D02*
X360539Y-7768865D01*
X360539Y-7768865D02*
X351015Y-7787912D01*
X351015Y-7787912D02*
X331967Y-7806960D01*
X331967Y-7806960D02*
X303396Y-7816484D01*
X303396Y-7816484D02*
X255777Y-7816484D01*
X455777Y-7816484D02*
X455777Y-7683150D01*
X455777Y-7721246D02*
X465301Y-7702198D01*
X465301Y-7702198D02*
X474824Y-7692674D01*
X474824Y-7692674D02*
X493872Y-7683150D01*
X493872Y-7683150D02*
X512920Y-7683150D01*
X579586Y-7816484D02*
X579586Y-7683150D01*
X579586Y-7616484D02*
X570063Y-7626008D01*
X570063Y-7626008D02*
X579586Y-7635531D01*
X579586Y-7635531D02*
X589110Y-7626008D01*
X589110Y-7626008D02*
X579586Y-7616484D01*
X579586Y-7616484D02*
X579586Y-7635531D01*
X703396Y-7816484D02*
X684348Y-7806960D01*
X684348Y-7806960D02*
X674824Y-7787912D01*
X674824Y-7787912D02*
X674824Y-7616484D01*
X808158Y-7816484D02*
X789110Y-7806960D01*
X789110Y-7806960D02*
X779586Y-7787912D01*
X779586Y-7787912D02*
X779586Y-7616484D01*
X1036729Y-7816484D02*
X1036729Y-7616484D01*
X1036729Y-7616484D02*
X1103396Y-7759341D01*
X1103396Y-7759341D02*
X1170063Y-7616484D01*
X1170063Y-7616484D02*
X1170063Y-7816484D01*
X1351015Y-7816484D02*
X1351015Y-7711722D01*
X1351015Y-7711722D02*
X1341491Y-7692674D01*
X1341491Y-7692674D02*
X1322444Y-7683150D01*
X1322444Y-7683150D02*
X1284348Y-7683150D01*
X1284348Y-7683150D02*
X1265301Y-7692674D01*
X1351015Y-7806960D02*
X1331967Y-7816484D01*
X1331967Y-7816484D02*
X1284348Y-7816484D01*
X1284348Y-7816484D02*
X1265301Y-7806960D01*
X1265301Y-7806960D02*
X1255777Y-7787912D01*
X1255777Y-7787912D02*
X1255777Y-7768865D01*
X1255777Y-7768865D02*
X1265301Y-7749817D01*
X1265301Y-7749817D02*
X1284348Y-7740293D01*
X1284348Y-7740293D02*
X1331967Y-7740293D01*
X1331967Y-7740293D02*
X1351015Y-7730769D01*
X1446253Y-7683150D02*
X1446253Y-7883150D01*
X1446253Y-7692674D02*
X1465301Y-7683150D01*
X1465301Y-7683150D02*
X1503396Y-7683150D01*
X1503396Y-7683150D02*
X1522443Y-7692674D01*
X1522443Y-7692674D02*
X1531967Y-7702198D01*
X1531967Y-7702198D02*
X1541491Y-7721246D01*
X1541491Y-7721246D02*
X1541491Y-7778388D01*
X1541491Y-7778388D02*
X1531967Y-7797436D01*
X1531967Y-7797436D02*
X1522443Y-7806960D01*
X1522443Y-7806960D02*
X1503396Y-7816484D01*
X1503396Y-7816484D02*
X1465301Y-7816484D01*
X1465301Y-7816484D02*
X1446253Y-7806960D01*
X1627205Y-7797436D02*
X1636729Y-7806960D01*
X1636729Y-7806960D02*
X1627205Y-7816484D01*
X1627205Y-7816484D02*
X1617682Y-7806960D01*
X1617682Y-7806960D02*
X1627205Y-7797436D01*
X1627205Y-7797436D02*
X1627205Y-7816484D01*
X1627205Y-7692674D02*
X1636729Y-7702198D01*
X1636729Y-7702198D02*
X1627205Y-7711722D01*
X1627205Y-7711722D02*
X1617682Y-7702198D01*
X1617682Y-7702198D02*
X1627205Y-7692674D01*
X1627205Y-7692674D02*
X1627205Y-7711722D01*
D10*
X-25000Y-8135000D02*
X-5000Y-8155000D01*
X-5000Y-8135000D02*
X-25000Y-8155000D01*
D11*
X293872Y-8036484D02*
X312920Y-8036484D01*
X312920Y-8036484D02*
X331967Y-8046008D01*
X331967Y-8046008D02*
X341491Y-8055531D01*
X341491Y-8055531D02*
X351015Y-8074579D01*
X351015Y-8074579D02*
X360539Y-8112674D01*
X360539Y-8112674D02*
X360539Y-8160293D01*
X360539Y-8160293D02*
X351015Y-8198388D01*
X351015Y-8198388D02*
X341491Y-8217436D01*
X341491Y-8217436D02*
X331967Y-8226960D01*
X331967Y-8226960D02*
X312920Y-8236484D01*
X312920Y-8236484D02*
X293872Y-8236484D01*
X293872Y-8236484D02*
X274824Y-8226960D01*
X274824Y-8226960D02*
X265301Y-8217436D01*
X265301Y-8217436D02*
X255777Y-8198388D01*
X255777Y-8198388D02*
X246253Y-8160293D01*
X246253Y-8160293D02*
X246253Y-8112674D01*
X246253Y-8112674D02*
X255777Y-8074579D01*
X255777Y-8074579D02*
X265301Y-8055531D01*
X265301Y-8055531D02*
X274824Y-8046008D01*
X274824Y-8046008D02*
X293872Y-8036484D01*
X446253Y-8217436D02*
X455777Y-8226960D01*
X455777Y-8226960D02*
X446253Y-8236484D01*
X446253Y-8236484D02*
X436729Y-8226960D01*
X436729Y-8226960D02*
X446253Y-8217436D01*
X446253Y-8217436D02*
X446253Y-8236484D01*
X531967Y-8055531D02*
X541491Y-8046008D01*
X541491Y-8046008D02*
X560539Y-8036484D01*
X560539Y-8036484D02*
X608158Y-8036484D01*
X608158Y-8036484D02*
X627205Y-8046008D01*
X627205Y-8046008D02*
X636729Y-8055531D01*
X636729Y-8055531D02*
X646253Y-8074579D01*
X646253Y-8074579D02*
X646253Y-8093627D01*
X646253Y-8093627D02*
X636729Y-8122198D01*
X636729Y-8122198D02*
X522443Y-8236484D01*
X522443Y-8236484D02*
X646253Y-8236484D01*
X770062Y-8036484D02*
X789110Y-8036484D01*
X789110Y-8036484D02*
X808158Y-8046008D01*
X808158Y-8046008D02*
X817682Y-8055531D01*
X817682Y-8055531D02*
X827205Y-8074579D01*
X827205Y-8074579D02*
X836729Y-8112674D01*
X836729Y-8112674D02*
X836729Y-8160293D01*
X836729Y-8160293D02*
X827205Y-8198388D01*
X827205Y-8198388D02*
X817682Y-8217436D01*
X817682Y-8217436D02*
X808158Y-8226960D01*
X808158Y-8226960D02*
X789110Y-8236484D01*
X789110Y-8236484D02*
X770062Y-8236484D01*
X770062Y-8236484D02*
X751015Y-8226960D01*
X751015Y-8226960D02*
X741491Y-8217436D01*
X741491Y-8217436D02*
X731967Y-8198388D01*
X731967Y-8198388D02*
X722443Y-8160293D01*
X722443Y-8160293D02*
X722443Y-8112674D01*
X722443Y-8112674D02*
X731967Y-8074579D01*
X731967Y-8074579D02*
X741491Y-8055531D01*
X741491Y-8055531D02*
X751015Y-8046008D01*
X751015Y-8046008D02*
X770062Y-8036484D01*
X960539Y-8036484D02*
X979586Y-8036484D01*
X979586Y-8036484D02*
X998634Y-8046008D01*
X998634Y-8046008D02*
X1008158Y-8055531D01*
X1008158Y-8055531D02*
X1017682Y-8074579D01*
X1017682Y-8074579D02*
X1027205Y-8112674D01*
X1027205Y-8112674D02*
X1027205Y-8160293D01*
X1027205Y-8160293D02*
X1017682Y-8198388D01*
X1017682Y-8198388D02*
X1008158Y-8217436D01*
X1008158Y-8217436D02*
X998634Y-8226960D01*
X998634Y-8226960D02*
X979586Y-8236484D01*
X979586Y-8236484D02*
X960539Y-8236484D01*
X960539Y-8236484D02*
X941491Y-8226960D01*
X941491Y-8226960D02*
X931967Y-8217436D01*
X931967Y-8217436D02*
X922443Y-8198388D01*
X922443Y-8198388D02*
X912920Y-8160293D01*
X912920Y-8160293D02*
X912920Y-8112674D01*
X912920Y-8112674D02*
X922443Y-8074579D01*
X922443Y-8074579D02*
X931967Y-8055531D01*
X931967Y-8055531D02*
X941491Y-8046008D01*
X941491Y-8046008D02*
X960539Y-8036484D01*
X1112920Y-8236484D02*
X1112920Y-8103150D01*
X1112920Y-8122198D02*
X1122444Y-8112674D01*
X1122444Y-8112674D02*
X1141491Y-8103150D01*
X1141491Y-8103150D02*
X1170063Y-8103150D01*
X1170063Y-8103150D02*
X1189110Y-8112674D01*
X1189110Y-8112674D02*
X1198634Y-8131722D01*
X1198634Y-8131722D02*
X1198634Y-8236484D01*
X1198634Y-8131722D02*
X1208158Y-8112674D01*
X1208158Y-8112674D02*
X1227205Y-8103150D01*
X1227205Y-8103150D02*
X1255777Y-8103150D01*
X1255777Y-8103150D02*
X1274825Y-8112674D01*
X1274825Y-8112674D02*
X1284348Y-8131722D01*
X1284348Y-8131722D02*
X1284348Y-8236484D01*
X1379586Y-8236484D02*
X1379586Y-8103150D01*
X1379586Y-8122198D02*
X1389110Y-8112674D01*
X1389110Y-8112674D02*
X1408158Y-8103150D01*
X1408158Y-8103150D02*
X1436729Y-8103150D01*
X1436729Y-8103150D02*
X1455777Y-8112674D01*
X1455777Y-8112674D02*
X1465301Y-8131722D01*
X1465301Y-8131722D02*
X1465301Y-8236484D01*
X1465301Y-8131722D02*
X1474824Y-8112674D01*
X1474824Y-8112674D02*
X1493872Y-8103150D01*
X1493872Y-8103150D02*
X1522443Y-8103150D01*
X1522443Y-8103150D02*
X1541491Y-8112674D01*
X1541491Y-8112674D02*
X1551015Y-8131722D01*
X1551015Y-8131722D02*
X1551015Y-8236484D01*
X1941491Y-8026960D02*
X1770063Y-8284103D01*
X2198634Y-8036484D02*
X2217682Y-8036484D01*
X2217682Y-8036484D02*
X2236729Y-8046008D01*
X2236729Y-8046008D02*
X2246253Y-8055531D01*
X2246253Y-8055531D02*
X2255777Y-8074579D01*
X2255777Y-8074579D02*
X2265301Y-8112674D01*
X2265301Y-8112674D02*
X2265301Y-8160293D01*
X2265301Y-8160293D02*
X2255777Y-8198388D01*
X2255777Y-8198388D02*
X2246253Y-8217436D01*
X2246253Y-8217436D02*
X2236729Y-8226960D01*
X2236729Y-8226960D02*
X2217682Y-8236484D01*
X2217682Y-8236484D02*
X2198634Y-8236484D01*
X2198634Y-8236484D02*
X2179587Y-8226960D01*
X2179587Y-8226960D02*
X2170063Y-8217436D01*
X2170063Y-8217436D02*
X2160539Y-8198388D01*
X2160539Y-8198388D02*
X2151015Y-8160293D01*
X2151015Y-8160293D02*
X2151015Y-8112674D01*
X2151015Y-8112674D02*
X2160539Y-8074579D01*
X2160539Y-8074579D02*
X2170063Y-8055531D01*
X2170063Y-8055531D02*
X2179587Y-8046008D01*
X2179587Y-8046008D02*
X2198634Y-8036484D01*
X2351015Y-8217436D02*
X2360539Y-8226960D01*
X2360539Y-8226960D02*
X2351015Y-8236484D01*
X2351015Y-8236484D02*
X2341491Y-8226960D01*
X2341491Y-8226960D02*
X2351015Y-8217436D01*
X2351015Y-8217436D02*
X2351015Y-8236484D01*
X2484348Y-8036484D02*
X2503396Y-8036484D01*
X2503396Y-8036484D02*
X2522444Y-8046008D01*
X2522444Y-8046008D02*
X2531968Y-8055531D01*
X2531968Y-8055531D02*
X2541491Y-8074579D01*
X2541491Y-8074579D02*
X2551015Y-8112674D01*
X2551015Y-8112674D02*
X2551015Y-8160293D01*
X2551015Y-8160293D02*
X2541491Y-8198388D01*
X2541491Y-8198388D02*
X2531968Y-8217436D01*
X2531968Y-8217436D02*
X2522444Y-8226960D01*
X2522444Y-8226960D02*
X2503396Y-8236484D01*
X2503396Y-8236484D02*
X2484348Y-8236484D01*
X2484348Y-8236484D02*
X2465301Y-8226960D01*
X2465301Y-8226960D02*
X2455777Y-8217436D01*
X2455777Y-8217436D02*
X2446253Y-8198388D01*
X2446253Y-8198388D02*
X2436729Y-8160293D01*
X2436729Y-8160293D02*
X2436729Y-8112674D01*
X2436729Y-8112674D02*
X2446253Y-8074579D01*
X2446253Y-8074579D02*
X2455777Y-8055531D01*
X2455777Y-8055531D02*
X2465301Y-8046008D01*
X2465301Y-8046008D02*
X2484348Y-8036484D01*
X2674825Y-8036484D02*
X2693872Y-8036484D01*
X2693872Y-8036484D02*
X2712920Y-8046008D01*
X2712920Y-8046008D02*
X2722444Y-8055531D01*
X2722444Y-8055531D02*
X2731968Y-8074579D01*
X2731968Y-8074579D02*
X2741491Y-8112674D01*
X2741491Y-8112674D02*
X2741491Y-8160293D01*
X2741491Y-8160293D02*
X2731968Y-8198388D01*
X2731968Y-8198388D02*
X2722444Y-8217436D01*
X2722444Y-8217436D02*
X2712920Y-8226960D01*
X2712920Y-8226960D02*
X2693872Y-8236484D01*
X2693872Y-8236484D02*
X2674825Y-8236484D01*
X2674825Y-8236484D02*
X2655777Y-8226960D01*
X2655777Y-8226960D02*
X2646253Y-8217436D01*
X2646253Y-8217436D02*
X2636729Y-8198388D01*
X2636729Y-8198388D02*
X2627206Y-8160293D01*
X2627206Y-8160293D02*
X2627206Y-8112674D01*
X2627206Y-8112674D02*
X2636729Y-8074579D01*
X2636729Y-8074579D02*
X2646253Y-8055531D01*
X2646253Y-8055531D02*
X2655777Y-8046008D01*
X2655777Y-8046008D02*
X2674825Y-8036484D01*
X2808158Y-8036484D02*
X2941491Y-8036484D01*
X2941491Y-8036484D02*
X2855777Y-8236484D01*
X3027206Y-8236484D02*
X3065301Y-8236484D01*
X3065301Y-8236484D02*
X3084348Y-8226960D01*
X3084348Y-8226960D02*
X3093872Y-8217436D01*
X3093872Y-8217436D02*
X3112920Y-8188865D01*
X3112920Y-8188865D02*
X3122444Y-8150769D01*
X3122444Y-8150769D02*
X3122444Y-8074579D01*
X3122444Y-8074579D02*
X3112920Y-8055531D01*
X3112920Y-8055531D02*
X3103396Y-8046008D01*
X3103396Y-8046008D02*
X3084348Y-8036484D01*
X3084348Y-8036484D02*
X3046253Y-8036484D01*
X3046253Y-8036484D02*
X3027206Y-8046008D01*
X3027206Y-8046008D02*
X3017682Y-8055531D01*
X3017682Y-8055531D02*
X3008158Y-8074579D01*
X3008158Y-8074579D02*
X3008158Y-8122198D01*
X3008158Y-8122198D02*
X3017682Y-8141246D01*
X3017682Y-8141246D02*
X3027206Y-8150769D01*
X3027206Y-8150769D02*
X3046253Y-8160293D01*
X3046253Y-8160293D02*
X3084348Y-8160293D01*
X3084348Y-8160293D02*
X3103396Y-8150769D01*
X3103396Y-8150769D02*
X3112920Y-8141246D01*
X3112920Y-8141246D02*
X3122444Y-8122198D01*
X3198634Y-8036484D02*
X3198634Y-8074579D01*
X3274825Y-8036484D02*
X3274825Y-8074579D01*
X3570063Y-8312674D02*
X3560539Y-8303150D01*
X3560539Y-8303150D02*
X3541491Y-8274579D01*
X3541491Y-8274579D02*
X3531968Y-8255531D01*
X3531968Y-8255531D02*
X3522444Y-8226960D01*
X3522444Y-8226960D02*
X3512920Y-8179341D01*
X3512920Y-8179341D02*
X3512920Y-8141246D01*
X3512920Y-8141246D02*
X3522444Y-8093627D01*
X3522444Y-8093627D02*
X3531968Y-8065055D01*
X3531968Y-8065055D02*
X3541491Y-8046008D01*
X3541491Y-8046008D02*
X3560539Y-8017436D01*
X3560539Y-8017436D02*
X3570063Y-8007912D01*
X3751015Y-8236484D02*
X3636729Y-8236484D01*
X3693872Y-8236484D02*
X3693872Y-8036484D01*
X3693872Y-8036484D02*
X3674825Y-8065055D01*
X3674825Y-8065055D02*
X3655777Y-8084103D01*
X3655777Y-8084103D02*
X3636729Y-8093627D01*
X3827206Y-8055531D02*
X3836729Y-8046008D01*
X3836729Y-8046008D02*
X3855777Y-8036484D01*
X3855777Y-8036484D02*
X3903396Y-8036484D01*
X3903396Y-8036484D02*
X3922444Y-8046008D01*
X3922444Y-8046008D02*
X3931968Y-8055531D01*
X3931968Y-8055531D02*
X3941491Y-8074579D01*
X3941491Y-8074579D02*
X3941491Y-8093627D01*
X3941491Y-8093627D02*
X3931968Y-8122198D01*
X3931968Y-8122198D02*
X3817682Y-8236484D01*
X3817682Y-8236484D02*
X3941491Y-8236484D01*
X4179587Y-8236484D02*
X4179587Y-8036484D01*
X4265301Y-8236484D02*
X4265301Y-8131722D01*
X4265301Y-8131722D02*
X4255777Y-8112674D01*
X4255777Y-8112674D02*
X4236730Y-8103150D01*
X4236730Y-8103150D02*
X4208158Y-8103150D01*
X4208158Y-8103150D02*
X4189110Y-8112674D01*
X4189110Y-8112674D02*
X4179587Y-8122198D01*
X4389111Y-8236484D02*
X4370063Y-8226960D01*
X4370063Y-8226960D02*
X4360539Y-8217436D01*
X4360539Y-8217436D02*
X4351015Y-8198388D01*
X4351015Y-8198388D02*
X4351015Y-8141246D01*
X4351015Y-8141246D02*
X4360539Y-8122198D01*
X4360539Y-8122198D02*
X4370063Y-8112674D01*
X4370063Y-8112674D02*
X4389111Y-8103150D01*
X4389111Y-8103150D02*
X4417682Y-8103150D01*
X4417682Y-8103150D02*
X4436730Y-8112674D01*
X4436730Y-8112674D02*
X4446253Y-8122198D01*
X4446253Y-8122198D02*
X4455777Y-8141246D01*
X4455777Y-8141246D02*
X4455777Y-8198388D01*
X4455777Y-8198388D02*
X4446253Y-8217436D01*
X4446253Y-8217436D02*
X4436730Y-8226960D01*
X4436730Y-8226960D02*
X4417682Y-8236484D01*
X4417682Y-8236484D02*
X4389111Y-8236484D01*
X4570063Y-8236484D02*
X4551015Y-8226960D01*
X4551015Y-8226960D02*
X4541492Y-8207912D01*
X4541492Y-8207912D02*
X4541492Y-8036484D01*
X4722444Y-8226960D02*
X4703396Y-8236484D01*
X4703396Y-8236484D02*
X4665301Y-8236484D01*
X4665301Y-8236484D02*
X4646253Y-8226960D01*
X4646253Y-8226960D02*
X4636730Y-8207912D01*
X4636730Y-8207912D02*
X4636730Y-8131722D01*
X4636730Y-8131722D02*
X4646253Y-8112674D01*
X4646253Y-8112674D02*
X4665301Y-8103150D01*
X4665301Y-8103150D02*
X4703396Y-8103150D01*
X4703396Y-8103150D02*
X4722444Y-8112674D01*
X4722444Y-8112674D02*
X4731968Y-8131722D01*
X4731968Y-8131722D02*
X4731968Y-8150769D01*
X4731968Y-8150769D02*
X4636730Y-8169817D01*
X4808158Y-8226960D02*
X4827206Y-8236484D01*
X4827206Y-8236484D02*
X4865301Y-8236484D01*
X4865301Y-8236484D02*
X4884349Y-8226960D01*
X4884349Y-8226960D02*
X4893873Y-8207912D01*
X4893873Y-8207912D02*
X4893873Y-8198388D01*
X4893873Y-8198388D02*
X4884349Y-8179341D01*
X4884349Y-8179341D02*
X4865301Y-8169817D01*
X4865301Y-8169817D02*
X4836730Y-8169817D01*
X4836730Y-8169817D02*
X4817682Y-8160293D01*
X4817682Y-8160293D02*
X4808158Y-8141246D01*
X4808158Y-8141246D02*
X4808158Y-8131722D01*
X4808158Y-8131722D02*
X4817682Y-8112674D01*
X4817682Y-8112674D02*
X4836730Y-8103150D01*
X4836730Y-8103150D02*
X4865301Y-8103150D01*
X4865301Y-8103150D02*
X4884349Y-8112674D01*
X4960539Y-8312674D02*
X4970063Y-8303150D01*
X4970063Y-8303150D02*
X4989111Y-8274579D01*
X4989111Y-8274579D02*
X4998634Y-8255531D01*
X4998634Y-8255531D02*
X5008158Y-8226960D01*
X5008158Y-8226960D02*
X5017682Y-8179341D01*
X5017682Y-8179341D02*
X5017682Y-8141246D01*
X5017682Y-8141246D02*
X5008158Y-8093627D01*
X5008158Y-8093627D02*
X4998634Y-8065055D01*
X4998634Y-8065055D02*
X4989111Y-8046008D01*
X4989111Y-8046008D02*
X4970063Y-8017436D01*
X4970063Y-8017436D02*
X4960539Y-8007912D01*
D10*
X-5000Y-8409000D02*
G75*
G02*
X-40000Y-8409000I-17500J0D01*
G01*
X-40000Y-8409000D02*
G75*
G02*
X-5000Y-8409000I17500J0D01*
G01*
D11*
X293872Y-8300484D02*
X312920Y-8300484D01*
X312920Y-8300484D02*
X331967Y-8310008D01*
X331967Y-8310008D02*
X341491Y-8319531D01*
X341491Y-8319531D02*
X351015Y-8338579D01*
X351015Y-8338579D02*
X360539Y-8376674D01*
X360539Y-8376674D02*
X360539Y-8424293D01*
X360539Y-8424293D02*
X351015Y-8462389D01*
X351015Y-8462389D02*
X341491Y-8481436D01*
X341491Y-8481436D02*
X331967Y-8490960D01*
X331967Y-8490960D02*
X312920Y-8500484D01*
X312920Y-8500484D02*
X293872Y-8500484D01*
X293872Y-8500484D02*
X274824Y-8490960D01*
X274824Y-8490960D02*
X265301Y-8481436D01*
X265301Y-8481436D02*
X255777Y-8462389D01*
X255777Y-8462389D02*
X246253Y-8424293D01*
X246253Y-8424293D02*
X246253Y-8376674D01*
X246253Y-8376674D02*
X255777Y-8338579D01*
X255777Y-8338579D02*
X265301Y-8319531D01*
X265301Y-8319531D02*
X274824Y-8310008D01*
X274824Y-8310008D02*
X293872Y-8300484D01*
X446253Y-8481436D02*
X455777Y-8490960D01*
X455777Y-8490960D02*
X446253Y-8500484D01*
X446253Y-8500484D02*
X436729Y-8490960D01*
X436729Y-8490960D02*
X446253Y-8481436D01*
X446253Y-8481436D02*
X446253Y-8500484D01*
X522443Y-8300484D02*
X646253Y-8300484D01*
X646253Y-8300484D02*
X579586Y-8376674D01*
X579586Y-8376674D02*
X608158Y-8376674D01*
X608158Y-8376674D02*
X627205Y-8386198D01*
X627205Y-8386198D02*
X636729Y-8395722D01*
X636729Y-8395722D02*
X646253Y-8414770D01*
X646253Y-8414770D02*
X646253Y-8462389D01*
X646253Y-8462389D02*
X636729Y-8481436D01*
X636729Y-8481436D02*
X627205Y-8490960D01*
X627205Y-8490960D02*
X608158Y-8500484D01*
X608158Y-8500484D02*
X551015Y-8500484D01*
X551015Y-8500484D02*
X531967Y-8490960D01*
X531967Y-8490960D02*
X522443Y-8481436D01*
X827205Y-8300484D02*
X731967Y-8300484D01*
X731967Y-8300484D02*
X722443Y-8395722D01*
X722443Y-8395722D02*
X731967Y-8386198D01*
X731967Y-8386198D02*
X751015Y-8376674D01*
X751015Y-8376674D02*
X798634Y-8376674D01*
X798634Y-8376674D02*
X817682Y-8386198D01*
X817682Y-8386198D02*
X827205Y-8395722D01*
X827205Y-8395722D02*
X836729Y-8414770D01*
X836729Y-8414770D02*
X836729Y-8462389D01*
X836729Y-8462389D02*
X827205Y-8481436D01*
X827205Y-8481436D02*
X817682Y-8490960D01*
X817682Y-8490960D02*
X798634Y-8500484D01*
X798634Y-8500484D02*
X751015Y-8500484D01*
X751015Y-8500484D02*
X731967Y-8490960D01*
X731967Y-8490960D02*
X722443Y-8481436D01*
X960539Y-8300484D02*
X979586Y-8300484D01*
X979586Y-8300484D02*
X998634Y-8310008D01*
X998634Y-8310008D02*
X1008158Y-8319531D01*
X1008158Y-8319531D02*
X1017682Y-8338579D01*
X1017682Y-8338579D02*
X1027205Y-8376674D01*
X1027205Y-8376674D02*
X1027205Y-8424293D01*
X1027205Y-8424293D02*
X1017682Y-8462389D01*
X1017682Y-8462389D02*
X1008158Y-8481436D01*
X1008158Y-8481436D02*
X998634Y-8490960D01*
X998634Y-8490960D02*
X979586Y-8500484D01*
X979586Y-8500484D02*
X960539Y-8500484D01*
X960539Y-8500484D02*
X941491Y-8490960D01*
X941491Y-8490960D02*
X931967Y-8481436D01*
X931967Y-8481436D02*
X922443Y-8462389D01*
X922443Y-8462389D02*
X912920Y-8424293D01*
X912920Y-8424293D02*
X912920Y-8376674D01*
X912920Y-8376674D02*
X922443Y-8338579D01*
X922443Y-8338579D02*
X931967Y-8319531D01*
X931967Y-8319531D02*
X941491Y-8310008D01*
X941491Y-8310008D02*
X960539Y-8300484D01*
X1112920Y-8500484D02*
X1112920Y-8367150D01*
X1112920Y-8386198D02*
X1122444Y-8376674D01*
X1122444Y-8376674D02*
X1141491Y-8367150D01*
X1141491Y-8367150D02*
X1170063Y-8367150D01*
X1170063Y-8367150D02*
X1189110Y-8376674D01*
X1189110Y-8376674D02*
X1198634Y-8395722D01*
X1198634Y-8395722D02*
X1198634Y-8500484D01*
X1198634Y-8395722D02*
X1208158Y-8376674D01*
X1208158Y-8376674D02*
X1227205Y-8367150D01*
X1227205Y-8367150D02*
X1255777Y-8367150D01*
X1255777Y-8367150D02*
X1274825Y-8376674D01*
X1274825Y-8376674D02*
X1284348Y-8395722D01*
X1284348Y-8395722D02*
X1284348Y-8500484D01*
X1379586Y-8500484D02*
X1379586Y-8367150D01*
X1379586Y-8386198D02*
X1389110Y-8376674D01*
X1389110Y-8376674D02*
X1408158Y-8367150D01*
X1408158Y-8367150D02*
X1436729Y-8367150D01*
X1436729Y-8367150D02*
X1455777Y-8376674D01*
X1455777Y-8376674D02*
X1465301Y-8395722D01*
X1465301Y-8395722D02*
X1465301Y-8500484D01*
X1465301Y-8395722D02*
X1474824Y-8376674D01*
X1474824Y-8376674D02*
X1493872Y-8367150D01*
X1493872Y-8367150D02*
X1522443Y-8367150D01*
X1522443Y-8367150D02*
X1541491Y-8376674D01*
X1541491Y-8376674D02*
X1551015Y-8395722D01*
X1551015Y-8395722D02*
X1551015Y-8500484D01*
X1941491Y-8290960D02*
X1770063Y-8548103D01*
X2198634Y-8300484D02*
X2217682Y-8300484D01*
X2217682Y-8300484D02*
X2236729Y-8310008D01*
X2236729Y-8310008D02*
X2246253Y-8319531D01*
X2246253Y-8319531D02*
X2255777Y-8338579D01*
X2255777Y-8338579D02*
X2265301Y-8376674D01*
X2265301Y-8376674D02*
X2265301Y-8424293D01*
X2265301Y-8424293D02*
X2255777Y-8462389D01*
X2255777Y-8462389D02*
X2246253Y-8481436D01*
X2246253Y-8481436D02*
X2236729Y-8490960D01*
X2236729Y-8490960D02*
X2217682Y-8500484D01*
X2217682Y-8500484D02*
X2198634Y-8500484D01*
X2198634Y-8500484D02*
X2179587Y-8490960D01*
X2179587Y-8490960D02*
X2170063Y-8481436D01*
X2170063Y-8481436D02*
X2160539Y-8462389D01*
X2160539Y-8462389D02*
X2151015Y-8424293D01*
X2151015Y-8424293D02*
X2151015Y-8376674D01*
X2151015Y-8376674D02*
X2160539Y-8338579D01*
X2160539Y-8338579D02*
X2170063Y-8319531D01*
X2170063Y-8319531D02*
X2179587Y-8310008D01*
X2179587Y-8310008D02*
X2198634Y-8300484D01*
X2351015Y-8481436D02*
X2360539Y-8490960D01*
X2360539Y-8490960D02*
X2351015Y-8500484D01*
X2351015Y-8500484D02*
X2341491Y-8490960D01*
X2341491Y-8490960D02*
X2351015Y-8481436D01*
X2351015Y-8481436D02*
X2351015Y-8500484D01*
X2484348Y-8300484D02*
X2503396Y-8300484D01*
X2503396Y-8300484D02*
X2522444Y-8310008D01*
X2522444Y-8310008D02*
X2531968Y-8319531D01*
X2531968Y-8319531D02*
X2541491Y-8338579D01*
X2541491Y-8338579D02*
X2551015Y-8376674D01*
X2551015Y-8376674D02*
X2551015Y-8424293D01*
X2551015Y-8424293D02*
X2541491Y-8462389D01*
X2541491Y-8462389D02*
X2531968Y-8481436D01*
X2531968Y-8481436D02*
X2522444Y-8490960D01*
X2522444Y-8490960D02*
X2503396Y-8500484D01*
X2503396Y-8500484D02*
X2484348Y-8500484D01*
X2484348Y-8500484D02*
X2465301Y-8490960D01*
X2465301Y-8490960D02*
X2455777Y-8481436D01*
X2455777Y-8481436D02*
X2446253Y-8462389D01*
X2446253Y-8462389D02*
X2436729Y-8424293D01*
X2436729Y-8424293D02*
X2436729Y-8376674D01*
X2436729Y-8376674D02*
X2446253Y-8338579D01*
X2446253Y-8338579D02*
X2455777Y-8319531D01*
X2455777Y-8319531D02*
X2465301Y-8310008D01*
X2465301Y-8310008D02*
X2484348Y-8300484D01*
X2741491Y-8500484D02*
X2627206Y-8500484D01*
X2684348Y-8500484D02*
X2684348Y-8300484D01*
X2684348Y-8300484D02*
X2665301Y-8329055D01*
X2665301Y-8329055D02*
X2646253Y-8348103D01*
X2646253Y-8348103D02*
X2627206Y-8357627D01*
X2808158Y-8300484D02*
X2931967Y-8300484D01*
X2931967Y-8300484D02*
X2865301Y-8376674D01*
X2865301Y-8376674D02*
X2893872Y-8376674D01*
X2893872Y-8376674D02*
X2912920Y-8386198D01*
X2912920Y-8386198D02*
X2922444Y-8395722D01*
X2922444Y-8395722D02*
X2931967Y-8414770D01*
X2931967Y-8414770D02*
X2931967Y-8462389D01*
X2931967Y-8462389D02*
X2922444Y-8481436D01*
X2922444Y-8481436D02*
X2912920Y-8490960D01*
X2912920Y-8490960D02*
X2893872Y-8500484D01*
X2893872Y-8500484D02*
X2836729Y-8500484D01*
X2836729Y-8500484D02*
X2817682Y-8490960D01*
X2817682Y-8490960D02*
X2808158Y-8481436D01*
X3046253Y-8386198D02*
X3027206Y-8376674D01*
X3027206Y-8376674D02*
X3017682Y-8367150D01*
X3017682Y-8367150D02*
X3008158Y-8348103D01*
X3008158Y-8348103D02*
X3008158Y-8338579D01*
X3008158Y-8338579D02*
X3017682Y-8319531D01*
X3017682Y-8319531D02*
X3027206Y-8310008D01*
X3027206Y-8310008D02*
X3046253Y-8300484D01*
X3046253Y-8300484D02*
X3084348Y-8300484D01*
X3084348Y-8300484D02*
X3103396Y-8310008D01*
X3103396Y-8310008D02*
X3112920Y-8319531D01*
X3112920Y-8319531D02*
X3122444Y-8338579D01*
X3122444Y-8338579D02*
X3122444Y-8348103D01*
X3122444Y-8348103D02*
X3112920Y-8367150D01*
X3112920Y-8367150D02*
X3103396Y-8376674D01*
X3103396Y-8376674D02*
X3084348Y-8386198D01*
X3084348Y-8386198D02*
X3046253Y-8386198D01*
X3046253Y-8386198D02*
X3027206Y-8395722D01*
X3027206Y-8395722D02*
X3017682Y-8405246D01*
X3017682Y-8405246D02*
X3008158Y-8424293D01*
X3008158Y-8424293D02*
X3008158Y-8462389D01*
X3008158Y-8462389D02*
X3017682Y-8481436D01*
X3017682Y-8481436D02*
X3027206Y-8490960D01*
X3027206Y-8490960D02*
X3046253Y-8500484D01*
X3046253Y-8500484D02*
X3084348Y-8500484D01*
X3084348Y-8500484D02*
X3103396Y-8490960D01*
X3103396Y-8490960D02*
X3112920Y-8481436D01*
X3112920Y-8481436D02*
X3122444Y-8462389D01*
X3122444Y-8462389D02*
X3122444Y-8424293D01*
X3122444Y-8424293D02*
X3112920Y-8405246D01*
X3112920Y-8405246D02*
X3103396Y-8395722D01*
X3103396Y-8395722D02*
X3084348Y-8386198D01*
X3198634Y-8300484D02*
X3198634Y-8338579D01*
X3274825Y-8300484D02*
X3274825Y-8338579D01*
X3570063Y-8576674D02*
X3560539Y-8567150D01*
X3560539Y-8567150D02*
X3541491Y-8538579D01*
X3541491Y-8538579D02*
X3531968Y-8519531D01*
X3531968Y-8519531D02*
X3522444Y-8490960D01*
X3522444Y-8490960D02*
X3512920Y-8443341D01*
X3512920Y-8443341D02*
X3512920Y-8405246D01*
X3512920Y-8405246D02*
X3522444Y-8357627D01*
X3522444Y-8357627D02*
X3531968Y-8329055D01*
X3531968Y-8329055D02*
X3541491Y-8310008D01*
X3541491Y-8310008D02*
X3560539Y-8281436D01*
X3560539Y-8281436D02*
X3570063Y-8271912D01*
X3731968Y-8300484D02*
X3693872Y-8300484D01*
X3693872Y-8300484D02*
X3674825Y-8310008D01*
X3674825Y-8310008D02*
X3665301Y-8319531D01*
X3665301Y-8319531D02*
X3646253Y-8348103D01*
X3646253Y-8348103D02*
X3636729Y-8386198D01*
X3636729Y-8386198D02*
X3636729Y-8462389D01*
X3636729Y-8462389D02*
X3646253Y-8481436D01*
X3646253Y-8481436D02*
X3655777Y-8490960D01*
X3655777Y-8490960D02*
X3674825Y-8500484D01*
X3674825Y-8500484D02*
X3712920Y-8500484D01*
X3712920Y-8500484D02*
X3731968Y-8490960D01*
X3731968Y-8490960D02*
X3741491Y-8481436D01*
X3741491Y-8481436D02*
X3751015Y-8462389D01*
X3751015Y-8462389D02*
X3751015Y-8414770D01*
X3751015Y-8414770D02*
X3741491Y-8395722D01*
X3741491Y-8395722D02*
X3731968Y-8386198D01*
X3731968Y-8386198D02*
X3712920Y-8376674D01*
X3712920Y-8376674D02*
X3674825Y-8376674D01*
X3674825Y-8376674D02*
X3655777Y-8386198D01*
X3655777Y-8386198D02*
X3646253Y-8395722D01*
X3646253Y-8395722D02*
X3636729Y-8414770D01*
X3922444Y-8300484D02*
X3884348Y-8300484D01*
X3884348Y-8300484D02*
X3865301Y-8310008D01*
X3865301Y-8310008D02*
X3855777Y-8319531D01*
X3855777Y-8319531D02*
X3836729Y-8348103D01*
X3836729Y-8348103D02*
X3827206Y-8386198D01*
X3827206Y-8386198D02*
X3827206Y-8462389D01*
X3827206Y-8462389D02*
X3836729Y-8481436D01*
X3836729Y-8481436D02*
X3846253Y-8490960D01*
X3846253Y-8490960D02*
X3865301Y-8500484D01*
X3865301Y-8500484D02*
X3903396Y-8500484D01*
X3903396Y-8500484D02*
X3922444Y-8490960D01*
X3922444Y-8490960D02*
X3931968Y-8481436D01*
X3931968Y-8481436D02*
X3941491Y-8462389D01*
X3941491Y-8462389D02*
X3941491Y-8414770D01*
X3941491Y-8414770D02*
X3931968Y-8395722D01*
X3931968Y-8395722D02*
X3922444Y-8386198D01*
X3922444Y-8386198D02*
X3903396Y-8376674D01*
X3903396Y-8376674D02*
X3865301Y-8376674D01*
X3865301Y-8376674D02*
X3846253Y-8386198D01*
X3846253Y-8386198D02*
X3836729Y-8395722D01*
X3836729Y-8395722D02*
X3827206Y-8414770D01*
X4179587Y-8500484D02*
X4179587Y-8300484D01*
X4265301Y-8500484D02*
X4265301Y-8395722D01*
X4265301Y-8395722D02*
X4255777Y-8376674D01*
X4255777Y-8376674D02*
X4236730Y-8367150D01*
X4236730Y-8367150D02*
X4208158Y-8367150D01*
X4208158Y-8367150D02*
X4189110Y-8376674D01*
X4189110Y-8376674D02*
X4179587Y-8386198D01*
X4389111Y-8500484D02*
X4370063Y-8490960D01*
X4370063Y-8490960D02*
X4360539Y-8481436D01*
X4360539Y-8481436D02*
X4351015Y-8462389D01*
X4351015Y-8462389D02*
X4351015Y-8405246D01*
X4351015Y-8405246D02*
X4360539Y-8386198D01*
X4360539Y-8386198D02*
X4370063Y-8376674D01*
X4370063Y-8376674D02*
X4389111Y-8367150D01*
X4389111Y-8367150D02*
X4417682Y-8367150D01*
X4417682Y-8367150D02*
X4436730Y-8376674D01*
X4436730Y-8376674D02*
X4446253Y-8386198D01*
X4446253Y-8386198D02*
X4455777Y-8405246D01*
X4455777Y-8405246D02*
X4455777Y-8462389D01*
X4455777Y-8462389D02*
X4446253Y-8481436D01*
X4446253Y-8481436D02*
X4436730Y-8490960D01*
X4436730Y-8490960D02*
X4417682Y-8500484D01*
X4417682Y-8500484D02*
X4389111Y-8500484D01*
X4570063Y-8500484D02*
X4551015Y-8490960D01*
X4551015Y-8490960D02*
X4541492Y-8471912D01*
X4541492Y-8471912D02*
X4541492Y-8300484D01*
X4722444Y-8490960D02*
X4703396Y-8500484D01*
X4703396Y-8500484D02*
X4665301Y-8500484D01*
X4665301Y-8500484D02*
X4646253Y-8490960D01*
X4646253Y-8490960D02*
X4636730Y-8471912D01*
X4636730Y-8471912D02*
X4636730Y-8395722D01*
X4636730Y-8395722D02*
X4646253Y-8376674D01*
X4646253Y-8376674D02*
X4665301Y-8367150D01*
X4665301Y-8367150D02*
X4703396Y-8367150D01*
X4703396Y-8367150D02*
X4722444Y-8376674D01*
X4722444Y-8376674D02*
X4731968Y-8395722D01*
X4731968Y-8395722D02*
X4731968Y-8414770D01*
X4731968Y-8414770D02*
X4636730Y-8433817D01*
X4808158Y-8490960D02*
X4827206Y-8500484D01*
X4827206Y-8500484D02*
X4865301Y-8500484D01*
X4865301Y-8500484D02*
X4884349Y-8490960D01*
X4884349Y-8490960D02*
X4893873Y-8471912D01*
X4893873Y-8471912D02*
X4893873Y-8462389D01*
X4893873Y-8462389D02*
X4884349Y-8443341D01*
X4884349Y-8443341D02*
X4865301Y-8433817D01*
X4865301Y-8433817D02*
X4836730Y-8433817D01*
X4836730Y-8433817D02*
X4817682Y-8424293D01*
X4817682Y-8424293D02*
X4808158Y-8405246D01*
X4808158Y-8405246D02*
X4808158Y-8395722D01*
X4808158Y-8395722D02*
X4817682Y-8376674D01*
X4817682Y-8376674D02*
X4836730Y-8367150D01*
X4836730Y-8367150D02*
X4865301Y-8367150D01*
X4865301Y-8367150D02*
X4884349Y-8376674D01*
X4960539Y-8576674D02*
X4970063Y-8567150D01*
X4970063Y-8567150D02*
X4989111Y-8538579D01*
X4989111Y-8538579D02*
X4998634Y-8519531D01*
X4998634Y-8519531D02*
X5008158Y-8490960D01*
X5008158Y-8490960D02*
X5017682Y-8443341D01*
X5017682Y-8443341D02*
X5017682Y-8405246D01*
X5017682Y-8405246D02*
X5008158Y-8357627D01*
X5008158Y-8357627D02*
X4998634Y-8329055D01*
X4998634Y-8329055D02*
X4989111Y-8310008D01*
X4989111Y-8310008D02*
X4970063Y-8281436D01*
X4970063Y-8281436D02*
X4960539Y-8271912D01*
D10*
X-27500Y-8650500D02*
X-27500Y-8695500D01*
X-50000Y-8673000D02*
X-5000Y-8673000D01*
D11*
X293872Y-8564484D02*
X312920Y-8564484D01*
X312920Y-8564484D02*
X331967Y-8574008D01*
X331967Y-8574008D02*
X341491Y-8583531D01*
X341491Y-8583531D02*
X351015Y-8602579D01*
X351015Y-8602579D02*
X360539Y-8640674D01*
X360539Y-8640674D02*
X360539Y-8688293D01*
X360539Y-8688293D02*
X351015Y-8726389D01*
X351015Y-8726389D02*
X341491Y-8745436D01*
X341491Y-8745436D02*
X331967Y-8754960D01*
X331967Y-8754960D02*
X312920Y-8764484D01*
X312920Y-8764484D02*
X293872Y-8764484D01*
X293872Y-8764484D02*
X274824Y-8754960D01*
X274824Y-8754960D02*
X265301Y-8745436D01*
X265301Y-8745436D02*
X255777Y-8726389D01*
X255777Y-8726389D02*
X246253Y-8688293D01*
X246253Y-8688293D02*
X246253Y-8640674D01*
X246253Y-8640674D02*
X255777Y-8602579D01*
X255777Y-8602579D02*
X265301Y-8583531D01*
X265301Y-8583531D02*
X274824Y-8574008D01*
X274824Y-8574008D02*
X293872Y-8564484D01*
X446253Y-8745436D02*
X455777Y-8754960D01*
X455777Y-8754960D02*
X446253Y-8764484D01*
X446253Y-8764484D02*
X436729Y-8754960D01*
X436729Y-8754960D02*
X446253Y-8745436D01*
X446253Y-8745436D02*
X446253Y-8764484D01*
X627205Y-8631150D02*
X627205Y-8764484D01*
X579586Y-8554960D02*
X531967Y-8697817D01*
X531967Y-8697817D02*
X655777Y-8697817D01*
X827205Y-8564484D02*
X731967Y-8564484D01*
X731967Y-8564484D02*
X722443Y-8659722D01*
X722443Y-8659722D02*
X731967Y-8650198D01*
X731967Y-8650198D02*
X751015Y-8640674D01*
X751015Y-8640674D02*
X798634Y-8640674D01*
X798634Y-8640674D02*
X817682Y-8650198D01*
X817682Y-8650198D02*
X827205Y-8659722D01*
X827205Y-8659722D02*
X836729Y-8678770D01*
X836729Y-8678770D02*
X836729Y-8726389D01*
X836729Y-8726389D02*
X827205Y-8745436D01*
X827205Y-8745436D02*
X817682Y-8754960D01*
X817682Y-8754960D02*
X798634Y-8764484D01*
X798634Y-8764484D02*
X751015Y-8764484D01*
X751015Y-8764484D02*
X731967Y-8754960D01*
X731967Y-8754960D02*
X722443Y-8745436D01*
X960539Y-8564484D02*
X979586Y-8564484D01*
X979586Y-8564484D02*
X998634Y-8574008D01*
X998634Y-8574008D02*
X1008158Y-8583531D01*
X1008158Y-8583531D02*
X1017682Y-8602579D01*
X1017682Y-8602579D02*
X1027205Y-8640674D01*
X1027205Y-8640674D02*
X1027205Y-8688293D01*
X1027205Y-8688293D02*
X1017682Y-8726389D01*
X1017682Y-8726389D02*
X1008158Y-8745436D01*
X1008158Y-8745436D02*
X998634Y-8754960D01*
X998634Y-8754960D02*
X979586Y-8764484D01*
X979586Y-8764484D02*
X960539Y-8764484D01*
X960539Y-8764484D02*
X941491Y-8754960D01*
X941491Y-8754960D02*
X931967Y-8745436D01*
X931967Y-8745436D02*
X922443Y-8726389D01*
X922443Y-8726389D02*
X912920Y-8688293D01*
X912920Y-8688293D02*
X912920Y-8640674D01*
X912920Y-8640674D02*
X922443Y-8602579D01*
X922443Y-8602579D02*
X931967Y-8583531D01*
X931967Y-8583531D02*
X941491Y-8574008D01*
X941491Y-8574008D02*
X960539Y-8564484D01*
X1112920Y-8764484D02*
X1112920Y-8631150D01*
X1112920Y-8650198D02*
X1122444Y-8640674D01*
X1122444Y-8640674D02*
X1141491Y-8631150D01*
X1141491Y-8631150D02*
X1170063Y-8631150D01*
X1170063Y-8631150D02*
X1189110Y-8640674D01*
X1189110Y-8640674D02*
X1198634Y-8659722D01*
X1198634Y-8659722D02*
X1198634Y-8764484D01*
X1198634Y-8659722D02*
X1208158Y-8640674D01*
X1208158Y-8640674D02*
X1227205Y-8631150D01*
X1227205Y-8631150D02*
X1255777Y-8631150D01*
X1255777Y-8631150D02*
X1274825Y-8640674D01*
X1274825Y-8640674D02*
X1284348Y-8659722D01*
X1284348Y-8659722D02*
X1284348Y-8764484D01*
X1379586Y-8764484D02*
X1379586Y-8631150D01*
X1379586Y-8650198D02*
X1389110Y-8640674D01*
X1389110Y-8640674D02*
X1408158Y-8631150D01*
X1408158Y-8631150D02*
X1436729Y-8631150D01*
X1436729Y-8631150D02*
X1455777Y-8640674D01*
X1455777Y-8640674D02*
X1465301Y-8659722D01*
X1465301Y-8659722D02*
X1465301Y-8764484D01*
X1465301Y-8659722D02*
X1474824Y-8640674D01*
X1474824Y-8640674D02*
X1493872Y-8631150D01*
X1493872Y-8631150D02*
X1522443Y-8631150D01*
X1522443Y-8631150D02*
X1541491Y-8640674D01*
X1541491Y-8640674D02*
X1551015Y-8659722D01*
X1551015Y-8659722D02*
X1551015Y-8764484D01*
X1941491Y-8554960D02*
X1770063Y-8812103D01*
X2198634Y-8564484D02*
X2217682Y-8564484D01*
X2217682Y-8564484D02*
X2236729Y-8574008D01*
X2236729Y-8574008D02*
X2246253Y-8583531D01*
X2246253Y-8583531D02*
X2255777Y-8602579D01*
X2255777Y-8602579D02*
X2265301Y-8640674D01*
X2265301Y-8640674D02*
X2265301Y-8688293D01*
X2265301Y-8688293D02*
X2255777Y-8726389D01*
X2255777Y-8726389D02*
X2246253Y-8745436D01*
X2246253Y-8745436D02*
X2236729Y-8754960D01*
X2236729Y-8754960D02*
X2217682Y-8764484D01*
X2217682Y-8764484D02*
X2198634Y-8764484D01*
X2198634Y-8764484D02*
X2179587Y-8754960D01*
X2179587Y-8754960D02*
X2170063Y-8745436D01*
X2170063Y-8745436D02*
X2160539Y-8726389D01*
X2160539Y-8726389D02*
X2151015Y-8688293D01*
X2151015Y-8688293D02*
X2151015Y-8640674D01*
X2151015Y-8640674D02*
X2160539Y-8602579D01*
X2160539Y-8602579D02*
X2170063Y-8583531D01*
X2170063Y-8583531D02*
X2179587Y-8574008D01*
X2179587Y-8574008D02*
X2198634Y-8564484D01*
X2351015Y-8745436D02*
X2360539Y-8754960D01*
X2360539Y-8754960D02*
X2351015Y-8764484D01*
X2351015Y-8764484D02*
X2341491Y-8754960D01*
X2341491Y-8754960D02*
X2351015Y-8745436D01*
X2351015Y-8745436D02*
X2351015Y-8764484D01*
X2484348Y-8564484D02*
X2503396Y-8564484D01*
X2503396Y-8564484D02*
X2522444Y-8574008D01*
X2522444Y-8574008D02*
X2531968Y-8583531D01*
X2531968Y-8583531D02*
X2541491Y-8602579D01*
X2541491Y-8602579D02*
X2551015Y-8640674D01*
X2551015Y-8640674D02*
X2551015Y-8688293D01*
X2551015Y-8688293D02*
X2541491Y-8726389D01*
X2541491Y-8726389D02*
X2531968Y-8745436D01*
X2531968Y-8745436D02*
X2522444Y-8754960D01*
X2522444Y-8754960D02*
X2503396Y-8764484D01*
X2503396Y-8764484D02*
X2484348Y-8764484D01*
X2484348Y-8764484D02*
X2465301Y-8754960D01*
X2465301Y-8754960D02*
X2455777Y-8745436D01*
X2455777Y-8745436D02*
X2446253Y-8726389D01*
X2446253Y-8726389D02*
X2436729Y-8688293D01*
X2436729Y-8688293D02*
X2436729Y-8640674D01*
X2436729Y-8640674D02*
X2446253Y-8602579D01*
X2446253Y-8602579D02*
X2455777Y-8583531D01*
X2455777Y-8583531D02*
X2465301Y-8574008D01*
X2465301Y-8574008D02*
X2484348Y-8564484D01*
X2741491Y-8764484D02*
X2627206Y-8764484D01*
X2684348Y-8764484D02*
X2684348Y-8564484D01*
X2684348Y-8564484D02*
X2665301Y-8593055D01*
X2665301Y-8593055D02*
X2646253Y-8612103D01*
X2646253Y-8612103D02*
X2627206Y-8621627D01*
X2808158Y-8564484D02*
X2941491Y-8564484D01*
X2941491Y-8564484D02*
X2855777Y-8764484D01*
X2998634Y-8564484D02*
X3131967Y-8564484D01*
X3131967Y-8564484D02*
X3046253Y-8764484D01*
X3198634Y-8564484D02*
X3198634Y-8602579D01*
X3274825Y-8564484D02*
X3274825Y-8602579D01*
X3570063Y-8840674D02*
X3560539Y-8831150D01*
X3560539Y-8831150D02*
X3541491Y-8802579D01*
X3541491Y-8802579D02*
X3531968Y-8783531D01*
X3531968Y-8783531D02*
X3522444Y-8754960D01*
X3522444Y-8754960D02*
X3512920Y-8707341D01*
X3512920Y-8707341D02*
X3512920Y-8669246D01*
X3512920Y-8669246D02*
X3522444Y-8621627D01*
X3522444Y-8621627D02*
X3531968Y-8593055D01*
X3531968Y-8593055D02*
X3541491Y-8574008D01*
X3541491Y-8574008D02*
X3560539Y-8545436D01*
X3560539Y-8545436D02*
X3570063Y-8535912D01*
X3751015Y-8764484D02*
X3636729Y-8764484D01*
X3693872Y-8764484D02*
X3693872Y-8564484D01*
X3693872Y-8564484D02*
X3674825Y-8593055D01*
X3674825Y-8593055D02*
X3655777Y-8612103D01*
X3655777Y-8612103D02*
X3636729Y-8621627D01*
X3817682Y-8564484D02*
X3941491Y-8564484D01*
X3941491Y-8564484D02*
X3874825Y-8640674D01*
X3874825Y-8640674D02*
X3903396Y-8640674D01*
X3903396Y-8640674D02*
X3922444Y-8650198D01*
X3922444Y-8650198D02*
X3931968Y-8659722D01*
X3931968Y-8659722D02*
X3941491Y-8678770D01*
X3941491Y-8678770D02*
X3941491Y-8726389D01*
X3941491Y-8726389D02*
X3931968Y-8745436D01*
X3931968Y-8745436D02*
X3922444Y-8754960D01*
X3922444Y-8754960D02*
X3903396Y-8764484D01*
X3903396Y-8764484D02*
X3846253Y-8764484D01*
X3846253Y-8764484D02*
X3827206Y-8754960D01*
X3827206Y-8754960D02*
X3817682Y-8745436D01*
X4179587Y-8764484D02*
X4179587Y-8564484D01*
X4265301Y-8764484D02*
X4265301Y-8659722D01*
X4265301Y-8659722D02*
X4255777Y-8640674D01*
X4255777Y-8640674D02*
X4236730Y-8631150D01*
X4236730Y-8631150D02*
X4208158Y-8631150D01*
X4208158Y-8631150D02*
X4189110Y-8640674D01*
X4189110Y-8640674D02*
X4179587Y-8650198D01*
X4389111Y-8764484D02*
X4370063Y-8754960D01*
X4370063Y-8754960D02*
X4360539Y-8745436D01*
X4360539Y-8745436D02*
X4351015Y-8726389D01*
X4351015Y-8726389D02*
X4351015Y-8669246D01*
X4351015Y-8669246D02*
X4360539Y-8650198D01*
X4360539Y-8650198D02*
X4370063Y-8640674D01*
X4370063Y-8640674D02*
X4389111Y-8631150D01*
X4389111Y-8631150D02*
X4417682Y-8631150D01*
X4417682Y-8631150D02*
X4436730Y-8640674D01*
X4436730Y-8640674D02*
X4446253Y-8650198D01*
X4446253Y-8650198D02*
X4455777Y-8669246D01*
X4455777Y-8669246D02*
X4455777Y-8726389D01*
X4455777Y-8726389D02*
X4446253Y-8745436D01*
X4446253Y-8745436D02*
X4436730Y-8754960D01*
X4436730Y-8754960D02*
X4417682Y-8764484D01*
X4417682Y-8764484D02*
X4389111Y-8764484D01*
X4570063Y-8764484D02*
X4551015Y-8754960D01*
X4551015Y-8754960D02*
X4541492Y-8735912D01*
X4541492Y-8735912D02*
X4541492Y-8564484D01*
X4722444Y-8754960D02*
X4703396Y-8764484D01*
X4703396Y-8764484D02*
X4665301Y-8764484D01*
X4665301Y-8764484D02*
X4646253Y-8754960D01*
X4646253Y-8754960D02*
X4636730Y-8735912D01*
X4636730Y-8735912D02*
X4636730Y-8659722D01*
X4636730Y-8659722D02*
X4646253Y-8640674D01*
X4646253Y-8640674D02*
X4665301Y-8631150D01*
X4665301Y-8631150D02*
X4703396Y-8631150D01*
X4703396Y-8631150D02*
X4722444Y-8640674D01*
X4722444Y-8640674D02*
X4731968Y-8659722D01*
X4731968Y-8659722D02*
X4731968Y-8678770D01*
X4731968Y-8678770D02*
X4636730Y-8697817D01*
X4808158Y-8754960D02*
X4827206Y-8764484D01*
X4827206Y-8764484D02*
X4865301Y-8764484D01*
X4865301Y-8764484D02*
X4884349Y-8754960D01*
X4884349Y-8754960D02*
X4893873Y-8735912D01*
X4893873Y-8735912D02*
X4893873Y-8726389D01*
X4893873Y-8726389D02*
X4884349Y-8707341D01*
X4884349Y-8707341D02*
X4865301Y-8697817D01*
X4865301Y-8697817D02*
X4836730Y-8697817D01*
X4836730Y-8697817D02*
X4817682Y-8688293D01*
X4817682Y-8688293D02*
X4808158Y-8669246D01*
X4808158Y-8669246D02*
X4808158Y-8659722D01*
X4808158Y-8659722D02*
X4817682Y-8640674D01*
X4817682Y-8640674D02*
X4836730Y-8631150D01*
X4836730Y-8631150D02*
X4865301Y-8631150D01*
X4865301Y-8631150D02*
X4884349Y-8640674D01*
X4960539Y-8840674D02*
X4970063Y-8831150D01*
X4970063Y-8831150D02*
X4989111Y-8802579D01*
X4989111Y-8802579D02*
X4998634Y-8783531D01*
X4998634Y-8783531D02*
X5008158Y-8754960D01*
X5008158Y-8754960D02*
X5017682Y-8707341D01*
X5017682Y-8707341D02*
X5017682Y-8669246D01*
X5017682Y-8669246D02*
X5008158Y-8621627D01*
X5008158Y-8621627D02*
X4998634Y-8593055D01*
X4998634Y-8593055D02*
X4989111Y-8574008D01*
X4989111Y-8574008D02*
X4970063Y-8545436D01*
X4970063Y-8545436D02*
X4960539Y-8535912D01*
D10*
X-13787Y-8958213D02*
X-13787Y-8915787D01*
X-56213Y-8915787D01*
X-56213Y-8958213D01*
X-13787Y-8958213D01*
D11*
X293872Y-8828484D02*
X312920Y-8828484D01*
X312920Y-8828484D02*
X331967Y-8838008D01*
X331967Y-8838008D02*
X341491Y-8847531D01*
X341491Y-8847531D02*
X351015Y-8866579D01*
X351015Y-8866579D02*
X360539Y-8904674D01*
X360539Y-8904674D02*
X360539Y-8952293D01*
X360539Y-8952293D02*
X351015Y-8990389D01*
X351015Y-8990389D02*
X341491Y-9009436D01*
X341491Y-9009436D02*
X331967Y-9018960D01*
X331967Y-9018960D02*
X312920Y-9028484D01*
X312920Y-9028484D02*
X293872Y-9028484D01*
X293872Y-9028484D02*
X274824Y-9018960D01*
X274824Y-9018960D02*
X265301Y-9009436D01*
X265301Y-9009436D02*
X255777Y-8990389D01*
X255777Y-8990389D02*
X246253Y-8952293D01*
X246253Y-8952293D02*
X246253Y-8904674D01*
X246253Y-8904674D02*
X255777Y-8866579D01*
X255777Y-8866579D02*
X265301Y-8847531D01*
X265301Y-8847531D02*
X274824Y-8838008D01*
X274824Y-8838008D02*
X293872Y-8828484D01*
X446253Y-9009436D02*
X455777Y-9018960D01*
X455777Y-9018960D02*
X446253Y-9028484D01*
X446253Y-9028484D02*
X436729Y-9018960D01*
X436729Y-9018960D02*
X446253Y-9009436D01*
X446253Y-9009436D02*
X446253Y-9028484D01*
X627205Y-8828484D02*
X589110Y-8828484D01*
X589110Y-8828484D02*
X570063Y-8838008D01*
X570063Y-8838008D02*
X560539Y-8847531D01*
X560539Y-8847531D02*
X541491Y-8876103D01*
X541491Y-8876103D02*
X531967Y-8914198D01*
X531967Y-8914198D02*
X531967Y-8990389D01*
X531967Y-8990389D02*
X541491Y-9009436D01*
X541491Y-9009436D02*
X551015Y-9018960D01*
X551015Y-9018960D02*
X570063Y-9028484D01*
X570063Y-9028484D02*
X608158Y-9028484D01*
X608158Y-9028484D02*
X627205Y-9018960D01*
X627205Y-9018960D02*
X636729Y-9009436D01*
X636729Y-9009436D02*
X646253Y-8990389D01*
X646253Y-8990389D02*
X646253Y-8942770D01*
X646253Y-8942770D02*
X636729Y-8923722D01*
X636729Y-8923722D02*
X627205Y-8914198D01*
X627205Y-8914198D02*
X608158Y-8904674D01*
X608158Y-8904674D02*
X570063Y-8904674D01*
X570063Y-8904674D02*
X551015Y-8914198D01*
X551015Y-8914198D02*
X541491Y-8923722D01*
X541491Y-8923722D02*
X531967Y-8942770D01*
X770062Y-8828484D02*
X789110Y-8828484D01*
X789110Y-8828484D02*
X808158Y-8838008D01*
X808158Y-8838008D02*
X817682Y-8847531D01*
X817682Y-8847531D02*
X827205Y-8866579D01*
X827205Y-8866579D02*
X836729Y-8904674D01*
X836729Y-8904674D02*
X836729Y-8952293D01*
X836729Y-8952293D02*
X827205Y-8990389D01*
X827205Y-8990389D02*
X817682Y-9009436D01*
X817682Y-9009436D02*
X808158Y-9018960D01*
X808158Y-9018960D02*
X789110Y-9028484D01*
X789110Y-9028484D02*
X770062Y-9028484D01*
X770062Y-9028484D02*
X751015Y-9018960D01*
X751015Y-9018960D02*
X741491Y-9009436D01*
X741491Y-9009436D02*
X731967Y-8990389D01*
X731967Y-8990389D02*
X722443Y-8952293D01*
X722443Y-8952293D02*
X722443Y-8904674D01*
X722443Y-8904674D02*
X731967Y-8866579D01*
X731967Y-8866579D02*
X741491Y-8847531D01*
X741491Y-8847531D02*
X751015Y-8838008D01*
X751015Y-8838008D02*
X770062Y-8828484D01*
X960539Y-8828484D02*
X979586Y-8828484D01*
X979586Y-8828484D02*
X998634Y-8838008D01*
X998634Y-8838008D02*
X1008158Y-8847531D01*
X1008158Y-8847531D02*
X1017682Y-8866579D01*
X1017682Y-8866579D02*
X1027205Y-8904674D01*
X1027205Y-8904674D02*
X1027205Y-8952293D01*
X1027205Y-8952293D02*
X1017682Y-8990389D01*
X1017682Y-8990389D02*
X1008158Y-9009436D01*
X1008158Y-9009436D02*
X998634Y-9018960D01*
X998634Y-9018960D02*
X979586Y-9028484D01*
X979586Y-9028484D02*
X960539Y-9028484D01*
X960539Y-9028484D02*
X941491Y-9018960D01*
X941491Y-9018960D02*
X931967Y-9009436D01*
X931967Y-9009436D02*
X922443Y-8990389D01*
X922443Y-8990389D02*
X912920Y-8952293D01*
X912920Y-8952293D02*
X912920Y-8904674D01*
X912920Y-8904674D02*
X922443Y-8866579D01*
X922443Y-8866579D02*
X931967Y-8847531D01*
X931967Y-8847531D02*
X941491Y-8838008D01*
X941491Y-8838008D02*
X960539Y-8828484D01*
X1112920Y-9028484D02*
X1112920Y-8895150D01*
X1112920Y-8914198D02*
X1122444Y-8904674D01*
X1122444Y-8904674D02*
X1141491Y-8895150D01*
X1141491Y-8895150D02*
X1170063Y-8895150D01*
X1170063Y-8895150D02*
X1189110Y-8904674D01*
X1189110Y-8904674D02*
X1198634Y-8923722D01*
X1198634Y-8923722D02*
X1198634Y-9028484D01*
X1198634Y-8923722D02*
X1208158Y-8904674D01*
X1208158Y-8904674D02*
X1227205Y-8895150D01*
X1227205Y-8895150D02*
X1255777Y-8895150D01*
X1255777Y-8895150D02*
X1274825Y-8904674D01*
X1274825Y-8904674D02*
X1284348Y-8923722D01*
X1284348Y-8923722D02*
X1284348Y-9028484D01*
X1379586Y-9028484D02*
X1379586Y-8895150D01*
X1379586Y-8914198D02*
X1389110Y-8904674D01*
X1389110Y-8904674D02*
X1408158Y-8895150D01*
X1408158Y-8895150D02*
X1436729Y-8895150D01*
X1436729Y-8895150D02*
X1455777Y-8904674D01*
X1455777Y-8904674D02*
X1465301Y-8923722D01*
X1465301Y-8923722D02*
X1465301Y-9028484D01*
X1465301Y-8923722D02*
X1474824Y-8904674D01*
X1474824Y-8904674D02*
X1493872Y-8895150D01*
X1493872Y-8895150D02*
X1522443Y-8895150D01*
X1522443Y-8895150D02*
X1541491Y-8904674D01*
X1541491Y-8904674D02*
X1551015Y-8923722D01*
X1551015Y-8923722D02*
X1551015Y-9028484D01*
X1941491Y-8818960D02*
X1770063Y-9076103D01*
X2198634Y-8828484D02*
X2217682Y-8828484D01*
X2217682Y-8828484D02*
X2236729Y-8838008D01*
X2236729Y-8838008D02*
X2246253Y-8847531D01*
X2246253Y-8847531D02*
X2255777Y-8866579D01*
X2255777Y-8866579D02*
X2265301Y-8904674D01*
X2265301Y-8904674D02*
X2265301Y-8952293D01*
X2265301Y-8952293D02*
X2255777Y-8990389D01*
X2255777Y-8990389D02*
X2246253Y-9009436D01*
X2246253Y-9009436D02*
X2236729Y-9018960D01*
X2236729Y-9018960D02*
X2217682Y-9028484D01*
X2217682Y-9028484D02*
X2198634Y-9028484D01*
X2198634Y-9028484D02*
X2179587Y-9018960D01*
X2179587Y-9018960D02*
X2170063Y-9009436D01*
X2170063Y-9009436D02*
X2160539Y-8990389D01*
X2160539Y-8990389D02*
X2151015Y-8952293D01*
X2151015Y-8952293D02*
X2151015Y-8904674D01*
X2151015Y-8904674D02*
X2160539Y-8866579D01*
X2160539Y-8866579D02*
X2170063Y-8847531D01*
X2170063Y-8847531D02*
X2179587Y-8838008D01*
X2179587Y-8838008D02*
X2198634Y-8828484D01*
X2351015Y-9009436D02*
X2360539Y-9018960D01*
X2360539Y-9018960D02*
X2351015Y-9028484D01*
X2351015Y-9028484D02*
X2341491Y-9018960D01*
X2341491Y-9018960D02*
X2351015Y-9009436D01*
X2351015Y-9009436D02*
X2351015Y-9028484D01*
X2484348Y-8828484D02*
X2503396Y-8828484D01*
X2503396Y-8828484D02*
X2522444Y-8838008D01*
X2522444Y-8838008D02*
X2531968Y-8847531D01*
X2531968Y-8847531D02*
X2541491Y-8866579D01*
X2541491Y-8866579D02*
X2551015Y-8904674D01*
X2551015Y-8904674D02*
X2551015Y-8952293D01*
X2551015Y-8952293D02*
X2541491Y-8990389D01*
X2541491Y-8990389D02*
X2531968Y-9009436D01*
X2531968Y-9009436D02*
X2522444Y-9018960D01*
X2522444Y-9018960D02*
X2503396Y-9028484D01*
X2503396Y-9028484D02*
X2484348Y-9028484D01*
X2484348Y-9028484D02*
X2465301Y-9018960D01*
X2465301Y-9018960D02*
X2455777Y-9009436D01*
X2455777Y-9009436D02*
X2446253Y-8990389D01*
X2446253Y-8990389D02*
X2436729Y-8952293D01*
X2436729Y-8952293D02*
X2436729Y-8904674D01*
X2436729Y-8904674D02*
X2446253Y-8866579D01*
X2446253Y-8866579D02*
X2455777Y-8847531D01*
X2455777Y-8847531D02*
X2465301Y-8838008D01*
X2465301Y-8838008D02*
X2484348Y-8828484D01*
X2627206Y-8847531D02*
X2636729Y-8838008D01*
X2636729Y-8838008D02*
X2655777Y-8828484D01*
X2655777Y-8828484D02*
X2703396Y-8828484D01*
X2703396Y-8828484D02*
X2722444Y-8838008D01*
X2722444Y-8838008D02*
X2731968Y-8847531D01*
X2731968Y-8847531D02*
X2741491Y-8866579D01*
X2741491Y-8866579D02*
X2741491Y-8885627D01*
X2741491Y-8885627D02*
X2731968Y-8914198D01*
X2731968Y-8914198D02*
X2617682Y-9028484D01*
X2617682Y-9028484D02*
X2741491Y-9028484D01*
X2808158Y-8828484D02*
X2931967Y-8828484D01*
X2931967Y-8828484D02*
X2865301Y-8904674D01*
X2865301Y-8904674D02*
X2893872Y-8904674D01*
X2893872Y-8904674D02*
X2912920Y-8914198D01*
X2912920Y-8914198D02*
X2922444Y-8923722D01*
X2922444Y-8923722D02*
X2931967Y-8942770D01*
X2931967Y-8942770D02*
X2931967Y-8990389D01*
X2931967Y-8990389D02*
X2922444Y-9009436D01*
X2922444Y-9009436D02*
X2912920Y-9018960D01*
X2912920Y-9018960D02*
X2893872Y-9028484D01*
X2893872Y-9028484D02*
X2836729Y-9028484D01*
X2836729Y-9028484D02*
X2817682Y-9018960D01*
X2817682Y-9018960D02*
X2808158Y-9009436D01*
X3103396Y-8828484D02*
X3065301Y-8828484D01*
X3065301Y-8828484D02*
X3046253Y-8838008D01*
X3046253Y-8838008D02*
X3036729Y-8847531D01*
X3036729Y-8847531D02*
X3017682Y-8876103D01*
X3017682Y-8876103D02*
X3008158Y-8914198D01*
X3008158Y-8914198D02*
X3008158Y-8990389D01*
X3008158Y-8990389D02*
X3017682Y-9009436D01*
X3017682Y-9009436D02*
X3027206Y-9018960D01*
X3027206Y-9018960D02*
X3046253Y-9028484D01*
X3046253Y-9028484D02*
X3084348Y-9028484D01*
X3084348Y-9028484D02*
X3103396Y-9018960D01*
X3103396Y-9018960D02*
X3112920Y-9009436D01*
X3112920Y-9009436D02*
X3122444Y-8990389D01*
X3122444Y-8990389D02*
X3122444Y-8942770D01*
X3122444Y-8942770D02*
X3112920Y-8923722D01*
X3112920Y-8923722D02*
X3103396Y-8914198D01*
X3103396Y-8914198D02*
X3084348Y-8904674D01*
X3084348Y-8904674D02*
X3046253Y-8904674D01*
X3046253Y-8904674D02*
X3027206Y-8914198D01*
X3027206Y-8914198D02*
X3017682Y-8923722D01*
X3017682Y-8923722D02*
X3008158Y-8942770D01*
X3198634Y-8828484D02*
X3198634Y-8866579D01*
X3274825Y-8828484D02*
X3274825Y-8866579D01*
X3570063Y-9104674D02*
X3560539Y-9095150D01*
X3560539Y-9095150D02*
X3541491Y-9066579D01*
X3541491Y-9066579D02*
X3531968Y-9047531D01*
X3531968Y-9047531D02*
X3522444Y-9018960D01*
X3522444Y-9018960D02*
X3512920Y-8971341D01*
X3512920Y-8971341D02*
X3512920Y-8933246D01*
X3512920Y-8933246D02*
X3522444Y-8885627D01*
X3522444Y-8885627D02*
X3531968Y-8857055D01*
X3531968Y-8857055D02*
X3541491Y-8838008D01*
X3541491Y-8838008D02*
X3560539Y-8809436D01*
X3560539Y-8809436D02*
X3570063Y-8799912D01*
X3684348Y-8828484D02*
X3703396Y-8828484D01*
X3703396Y-8828484D02*
X3722444Y-8838008D01*
X3722444Y-8838008D02*
X3731968Y-8847531D01*
X3731968Y-8847531D02*
X3741491Y-8866579D01*
X3741491Y-8866579D02*
X3751015Y-8904674D01*
X3751015Y-8904674D02*
X3751015Y-8952293D01*
X3751015Y-8952293D02*
X3741491Y-8990389D01*
X3741491Y-8990389D02*
X3731968Y-9009436D01*
X3731968Y-9009436D02*
X3722444Y-9018960D01*
X3722444Y-9018960D02*
X3703396Y-9028484D01*
X3703396Y-9028484D02*
X3684348Y-9028484D01*
X3684348Y-9028484D02*
X3665301Y-9018960D01*
X3665301Y-9018960D02*
X3655777Y-9009436D01*
X3655777Y-9009436D02*
X3646253Y-8990389D01*
X3646253Y-8990389D02*
X3636729Y-8952293D01*
X3636729Y-8952293D02*
X3636729Y-8904674D01*
X3636729Y-8904674D02*
X3646253Y-8866579D01*
X3646253Y-8866579D02*
X3655777Y-8847531D01*
X3655777Y-8847531D02*
X3665301Y-8838008D01*
X3665301Y-8838008D02*
X3684348Y-8828484D01*
X3989110Y-9028484D02*
X3989110Y-8828484D01*
X4074825Y-9028484D02*
X4074825Y-8923722D01*
X4074825Y-8923722D02*
X4065301Y-8904674D01*
X4065301Y-8904674D02*
X4046253Y-8895150D01*
X4046253Y-8895150D02*
X4017682Y-8895150D01*
X4017682Y-8895150D02*
X3998634Y-8904674D01*
X3998634Y-8904674D02*
X3989110Y-8914198D01*
X4198634Y-9028484D02*
X4179587Y-9018960D01*
X4179587Y-9018960D02*
X4170063Y-9009436D01*
X4170063Y-9009436D02*
X4160539Y-8990389D01*
X4160539Y-8990389D02*
X4160539Y-8933246D01*
X4160539Y-8933246D02*
X4170063Y-8914198D01*
X4170063Y-8914198D02*
X4179587Y-8904674D01*
X4179587Y-8904674D02*
X4198634Y-8895150D01*
X4198634Y-8895150D02*
X4227206Y-8895150D01*
X4227206Y-8895150D02*
X4246253Y-8904674D01*
X4246253Y-8904674D02*
X4255777Y-8914198D01*
X4255777Y-8914198D02*
X4265301Y-8933246D01*
X4265301Y-8933246D02*
X4265301Y-8990389D01*
X4265301Y-8990389D02*
X4255777Y-9009436D01*
X4255777Y-9009436D02*
X4246253Y-9018960D01*
X4246253Y-9018960D02*
X4227206Y-9028484D01*
X4227206Y-9028484D02*
X4198634Y-9028484D01*
X4379587Y-9028484D02*
X4360539Y-9018960D01*
X4360539Y-9018960D02*
X4351015Y-8999912D01*
X4351015Y-8999912D02*
X4351015Y-8828484D01*
X4531968Y-9018960D02*
X4512920Y-9028484D01*
X4512920Y-9028484D02*
X4474825Y-9028484D01*
X4474825Y-9028484D02*
X4455777Y-9018960D01*
X4455777Y-9018960D02*
X4446253Y-8999912D01*
X4446253Y-8999912D02*
X4446253Y-8923722D01*
X4446253Y-8923722D02*
X4455777Y-8904674D01*
X4455777Y-8904674D02*
X4474825Y-8895150D01*
X4474825Y-8895150D02*
X4512920Y-8895150D01*
X4512920Y-8895150D02*
X4531968Y-8904674D01*
X4531968Y-8904674D02*
X4541492Y-8923722D01*
X4541492Y-8923722D02*
X4541492Y-8942770D01*
X4541492Y-8942770D02*
X4446253Y-8961817D01*
X4617682Y-9018960D02*
X4636730Y-9028484D01*
X4636730Y-9028484D02*
X4674825Y-9028484D01*
X4674825Y-9028484D02*
X4693873Y-9018960D01*
X4693873Y-9018960D02*
X4703396Y-8999912D01*
X4703396Y-8999912D02*
X4703396Y-8990389D01*
X4703396Y-8990389D02*
X4693873Y-8971341D01*
X4693873Y-8971341D02*
X4674825Y-8961817D01*
X4674825Y-8961817D02*
X4646253Y-8961817D01*
X4646253Y-8961817D02*
X4627206Y-8952293D01*
X4627206Y-8952293D02*
X4617682Y-8933246D01*
X4617682Y-8933246D02*
X4617682Y-8923722D01*
X4617682Y-8923722D02*
X4627206Y-8904674D01*
X4627206Y-8904674D02*
X4646253Y-8895150D01*
X4646253Y-8895150D02*
X4674825Y-8895150D01*
X4674825Y-8895150D02*
X4693873Y-8904674D01*
X4941492Y-8952293D02*
X5093873Y-8952293D01*
X5017682Y-9028484D02*
X5017682Y-8876103D01*
X5427206Y-8895150D02*
X5427206Y-9028484D01*
X5379587Y-8818960D02*
X5331968Y-8961817D01*
X5331968Y-8961817D02*
X5455777Y-8961817D01*
X5674825Y-9018960D02*
X5693873Y-9028484D01*
X5693873Y-9028484D02*
X5731968Y-9028484D01*
X5731968Y-9028484D02*
X5751015Y-9018960D01*
X5751015Y-9018960D02*
X5760539Y-8999912D01*
X5760539Y-8999912D02*
X5760539Y-8990389D01*
X5760539Y-8990389D02*
X5751015Y-8971341D01*
X5751015Y-8971341D02*
X5731968Y-8961817D01*
X5731968Y-8961817D02*
X5703396Y-8961817D01*
X5703396Y-8961817D02*
X5684349Y-8952293D01*
X5684349Y-8952293D02*
X5674825Y-8933246D01*
X5674825Y-8933246D02*
X5674825Y-8923722D01*
X5674825Y-8923722D02*
X5684349Y-8904674D01*
X5684349Y-8904674D02*
X5703396Y-8895150D01*
X5703396Y-8895150D02*
X5731968Y-8895150D01*
X5731968Y-8895150D02*
X5751015Y-8904674D01*
X5874825Y-9028484D02*
X5855777Y-9018960D01*
X5855777Y-9018960D02*
X5846254Y-8999912D01*
X5846254Y-8999912D02*
X5846254Y-8828484D01*
X5979587Y-9028484D02*
X5960539Y-9018960D01*
X5960539Y-9018960D02*
X5951015Y-9009436D01*
X5951015Y-9009436D02*
X5941492Y-8990389D01*
X5941492Y-8990389D02*
X5941492Y-8933246D01*
X5941492Y-8933246D02*
X5951015Y-8914198D01*
X5951015Y-8914198D02*
X5960539Y-8904674D01*
X5960539Y-8904674D02*
X5979587Y-8895150D01*
X5979587Y-8895150D02*
X6008158Y-8895150D01*
X6008158Y-8895150D02*
X6027206Y-8904674D01*
X6027206Y-8904674D02*
X6036730Y-8914198D01*
X6036730Y-8914198D02*
X6046254Y-8933246D01*
X6046254Y-8933246D02*
X6046254Y-8990389D01*
X6046254Y-8990389D02*
X6036730Y-9009436D01*
X6036730Y-9009436D02*
X6027206Y-9018960D01*
X6027206Y-9018960D02*
X6008158Y-9028484D01*
X6008158Y-9028484D02*
X5979587Y-9028484D01*
X6103396Y-8895150D02*
X6179587Y-8895150D01*
X6131968Y-8828484D02*
X6131968Y-8999912D01*
X6131968Y-8999912D02*
X6141492Y-9018960D01*
X6141492Y-9018960D02*
X6160539Y-9028484D01*
X6160539Y-9028484D02*
X6179587Y-9028484D01*
X6236730Y-9018960D02*
X6255777Y-9028484D01*
X6255777Y-9028484D02*
X6293873Y-9028484D01*
X6293873Y-9028484D02*
X6312920Y-9018960D01*
X6312920Y-9018960D02*
X6322444Y-8999912D01*
X6322444Y-8999912D02*
X6322444Y-8990389D01*
X6322444Y-8990389D02*
X6312920Y-8971341D01*
X6312920Y-8971341D02*
X6293873Y-8961817D01*
X6293873Y-8961817D02*
X6265301Y-8961817D01*
X6265301Y-8961817D02*
X6246254Y-8952293D01*
X6246254Y-8952293D02*
X6236730Y-8933246D01*
X6236730Y-8933246D02*
X6236730Y-8923722D01*
X6236730Y-8923722D02*
X6246254Y-8904674D01*
X6246254Y-8904674D02*
X6265301Y-8895150D01*
X6265301Y-8895150D02*
X6293873Y-8895150D01*
X6293873Y-8895150D02*
X6312920Y-8904674D01*
X6389111Y-9104674D02*
X6398635Y-9095150D01*
X6398635Y-9095150D02*
X6417682Y-9066579D01*
X6417682Y-9066579D02*
X6427206Y-9047531D01*
X6427206Y-9047531D02*
X6436730Y-9018960D01*
X6436730Y-9018960D02*
X6446254Y-8971341D01*
X6446254Y-8971341D02*
X6446254Y-8933246D01*
X6446254Y-8933246D02*
X6436730Y-8885627D01*
X6436730Y-8885627D02*
X6427206Y-8857055D01*
X6427206Y-8857055D02*
X6417682Y-8838008D01*
X6417682Y-8838008D02*
X6398635Y-8809436D01*
X6398635Y-8809436D02*
X6389111Y-8799912D01*
D10*
X-52500Y-9248500D02*
X-5000Y-9201000D01*
X-52500Y-9153500D01*
X-100000Y-9201000D01*
X-52500Y-9248500D01*
D11*
X293872Y-9092484D02*
X312920Y-9092484D01*
X312920Y-9092484D02*
X331967Y-9102008D01*
X331967Y-9102008D02*
X341491Y-9111531D01*
X341491Y-9111531D02*
X351015Y-9130579D01*
X351015Y-9130579D02*
X360539Y-9168674D01*
X360539Y-9168674D02*
X360539Y-9216293D01*
X360539Y-9216293D02*
X351015Y-9254389D01*
X351015Y-9254389D02*
X341491Y-9273436D01*
X341491Y-9273436D02*
X331967Y-9282960D01*
X331967Y-9282960D02*
X312920Y-9292484D01*
X312920Y-9292484D02*
X293872Y-9292484D01*
X293872Y-9292484D02*
X274824Y-9282960D01*
X274824Y-9282960D02*
X265301Y-9273436D01*
X265301Y-9273436D02*
X255777Y-9254389D01*
X255777Y-9254389D02*
X246253Y-9216293D01*
X246253Y-9216293D02*
X246253Y-9168674D01*
X246253Y-9168674D02*
X255777Y-9130579D01*
X255777Y-9130579D02*
X265301Y-9111531D01*
X265301Y-9111531D02*
X274824Y-9102008D01*
X274824Y-9102008D02*
X293872Y-9092484D01*
X446253Y-9273436D02*
X455777Y-9282960D01*
X455777Y-9282960D02*
X446253Y-9292484D01*
X446253Y-9292484D02*
X436729Y-9282960D01*
X436729Y-9282960D02*
X446253Y-9273436D01*
X446253Y-9273436D02*
X446253Y-9292484D01*
X551015Y-9292484D02*
X589110Y-9292484D01*
X589110Y-9292484D02*
X608158Y-9282960D01*
X608158Y-9282960D02*
X617682Y-9273436D01*
X617682Y-9273436D02*
X636729Y-9244865D01*
X636729Y-9244865D02*
X646253Y-9206770D01*
X646253Y-9206770D02*
X646253Y-9130579D01*
X646253Y-9130579D02*
X636729Y-9111531D01*
X636729Y-9111531D02*
X627205Y-9102008D01*
X627205Y-9102008D02*
X608158Y-9092484D01*
X608158Y-9092484D02*
X570063Y-9092484D01*
X570063Y-9092484D02*
X551015Y-9102008D01*
X551015Y-9102008D02*
X541491Y-9111531D01*
X541491Y-9111531D02*
X531967Y-9130579D01*
X531967Y-9130579D02*
X531967Y-9178198D01*
X531967Y-9178198D02*
X541491Y-9197246D01*
X541491Y-9197246D02*
X551015Y-9206770D01*
X551015Y-9206770D02*
X570063Y-9216293D01*
X570063Y-9216293D02*
X608158Y-9216293D01*
X608158Y-9216293D02*
X627205Y-9206770D01*
X627205Y-9206770D02*
X636729Y-9197246D01*
X636729Y-9197246D02*
X646253Y-9178198D01*
X827205Y-9092484D02*
X731967Y-9092484D01*
X731967Y-9092484D02*
X722443Y-9187722D01*
X722443Y-9187722D02*
X731967Y-9178198D01*
X731967Y-9178198D02*
X751015Y-9168674D01*
X751015Y-9168674D02*
X798634Y-9168674D01*
X798634Y-9168674D02*
X817682Y-9178198D01*
X817682Y-9178198D02*
X827205Y-9187722D01*
X827205Y-9187722D02*
X836729Y-9206770D01*
X836729Y-9206770D02*
X836729Y-9254389D01*
X836729Y-9254389D02*
X827205Y-9273436D01*
X827205Y-9273436D02*
X817682Y-9282960D01*
X817682Y-9282960D02*
X798634Y-9292484D01*
X798634Y-9292484D02*
X751015Y-9292484D01*
X751015Y-9292484D02*
X731967Y-9282960D01*
X731967Y-9282960D02*
X722443Y-9273436D01*
X960539Y-9092484D02*
X979586Y-9092484D01*
X979586Y-9092484D02*
X998634Y-9102008D01*
X998634Y-9102008D02*
X1008158Y-9111531D01*
X1008158Y-9111531D02*
X1017682Y-9130579D01*
X1017682Y-9130579D02*
X1027205Y-9168674D01*
X1027205Y-9168674D02*
X1027205Y-9216293D01*
X1027205Y-9216293D02*
X1017682Y-9254389D01*
X1017682Y-9254389D02*
X1008158Y-9273436D01*
X1008158Y-9273436D02*
X998634Y-9282960D01*
X998634Y-9282960D02*
X979586Y-9292484D01*
X979586Y-9292484D02*
X960539Y-9292484D01*
X960539Y-9292484D02*
X941491Y-9282960D01*
X941491Y-9282960D02*
X931967Y-9273436D01*
X931967Y-9273436D02*
X922443Y-9254389D01*
X922443Y-9254389D02*
X912920Y-9216293D01*
X912920Y-9216293D02*
X912920Y-9168674D01*
X912920Y-9168674D02*
X922443Y-9130579D01*
X922443Y-9130579D02*
X931967Y-9111531D01*
X931967Y-9111531D02*
X941491Y-9102008D01*
X941491Y-9102008D02*
X960539Y-9092484D01*
X1112920Y-9292484D02*
X1112920Y-9159150D01*
X1112920Y-9178198D02*
X1122444Y-9168674D01*
X1122444Y-9168674D02*
X1141491Y-9159150D01*
X1141491Y-9159150D02*
X1170063Y-9159150D01*
X1170063Y-9159150D02*
X1189110Y-9168674D01*
X1189110Y-9168674D02*
X1198634Y-9187722D01*
X1198634Y-9187722D02*
X1198634Y-9292484D01*
X1198634Y-9187722D02*
X1208158Y-9168674D01*
X1208158Y-9168674D02*
X1227205Y-9159150D01*
X1227205Y-9159150D02*
X1255777Y-9159150D01*
X1255777Y-9159150D02*
X1274825Y-9168674D01*
X1274825Y-9168674D02*
X1284348Y-9187722D01*
X1284348Y-9187722D02*
X1284348Y-9292484D01*
X1379586Y-9292484D02*
X1379586Y-9159150D01*
X1379586Y-9178198D02*
X1389110Y-9168674D01*
X1389110Y-9168674D02*
X1408158Y-9159150D01*
X1408158Y-9159150D02*
X1436729Y-9159150D01*
X1436729Y-9159150D02*
X1455777Y-9168674D01*
X1455777Y-9168674D02*
X1465301Y-9187722D01*
X1465301Y-9187722D02*
X1465301Y-9292484D01*
X1465301Y-9187722D02*
X1474824Y-9168674D01*
X1474824Y-9168674D02*
X1493872Y-9159150D01*
X1493872Y-9159150D02*
X1522443Y-9159150D01*
X1522443Y-9159150D02*
X1541491Y-9168674D01*
X1541491Y-9168674D02*
X1551015Y-9187722D01*
X1551015Y-9187722D02*
X1551015Y-9292484D01*
X1941491Y-9082960D02*
X1770063Y-9340103D01*
X2198634Y-9092484D02*
X2217682Y-9092484D01*
X2217682Y-9092484D02*
X2236729Y-9102008D01*
X2236729Y-9102008D02*
X2246253Y-9111531D01*
X2246253Y-9111531D02*
X2255777Y-9130579D01*
X2255777Y-9130579D02*
X2265301Y-9168674D01*
X2265301Y-9168674D02*
X2265301Y-9216293D01*
X2265301Y-9216293D02*
X2255777Y-9254389D01*
X2255777Y-9254389D02*
X2246253Y-9273436D01*
X2246253Y-9273436D02*
X2236729Y-9282960D01*
X2236729Y-9282960D02*
X2217682Y-9292484D01*
X2217682Y-9292484D02*
X2198634Y-9292484D01*
X2198634Y-9292484D02*
X2179587Y-9282960D01*
X2179587Y-9282960D02*
X2170063Y-9273436D01*
X2170063Y-9273436D02*
X2160539Y-9254389D01*
X2160539Y-9254389D02*
X2151015Y-9216293D01*
X2151015Y-9216293D02*
X2151015Y-9168674D01*
X2151015Y-9168674D02*
X2160539Y-9130579D01*
X2160539Y-9130579D02*
X2170063Y-9111531D01*
X2170063Y-9111531D02*
X2179587Y-9102008D01*
X2179587Y-9102008D02*
X2198634Y-9092484D01*
X2351015Y-9273436D02*
X2360539Y-9282960D01*
X2360539Y-9282960D02*
X2351015Y-9292484D01*
X2351015Y-9292484D02*
X2341491Y-9282960D01*
X2341491Y-9282960D02*
X2351015Y-9273436D01*
X2351015Y-9273436D02*
X2351015Y-9292484D01*
X2484348Y-9092484D02*
X2503396Y-9092484D01*
X2503396Y-9092484D02*
X2522444Y-9102008D01*
X2522444Y-9102008D02*
X2531968Y-9111531D01*
X2531968Y-9111531D02*
X2541491Y-9130579D01*
X2541491Y-9130579D02*
X2551015Y-9168674D01*
X2551015Y-9168674D02*
X2551015Y-9216293D01*
X2551015Y-9216293D02*
X2541491Y-9254389D01*
X2541491Y-9254389D02*
X2531968Y-9273436D01*
X2531968Y-9273436D02*
X2522444Y-9282960D01*
X2522444Y-9282960D02*
X2503396Y-9292484D01*
X2503396Y-9292484D02*
X2484348Y-9292484D01*
X2484348Y-9292484D02*
X2465301Y-9282960D01*
X2465301Y-9282960D02*
X2455777Y-9273436D01*
X2455777Y-9273436D02*
X2446253Y-9254389D01*
X2446253Y-9254389D02*
X2436729Y-9216293D01*
X2436729Y-9216293D02*
X2436729Y-9168674D01*
X2436729Y-9168674D02*
X2446253Y-9130579D01*
X2446253Y-9130579D02*
X2455777Y-9111531D01*
X2455777Y-9111531D02*
X2465301Y-9102008D01*
X2465301Y-9102008D02*
X2484348Y-9092484D01*
X2617682Y-9092484D02*
X2741491Y-9092484D01*
X2741491Y-9092484D02*
X2674825Y-9168674D01*
X2674825Y-9168674D02*
X2703396Y-9168674D01*
X2703396Y-9168674D02*
X2722444Y-9178198D01*
X2722444Y-9178198D02*
X2731968Y-9187722D01*
X2731968Y-9187722D02*
X2741491Y-9206770D01*
X2741491Y-9206770D02*
X2741491Y-9254389D01*
X2741491Y-9254389D02*
X2731968Y-9273436D01*
X2731968Y-9273436D02*
X2722444Y-9282960D01*
X2722444Y-9282960D02*
X2703396Y-9292484D01*
X2703396Y-9292484D02*
X2646253Y-9292484D01*
X2646253Y-9292484D02*
X2627206Y-9282960D01*
X2627206Y-9282960D02*
X2617682Y-9273436D01*
X2808158Y-9092484D02*
X2941491Y-9092484D01*
X2941491Y-9092484D02*
X2855777Y-9292484D01*
X3103396Y-9159150D02*
X3103396Y-9292484D01*
X3055777Y-9082960D02*
X3008158Y-9225817D01*
X3008158Y-9225817D02*
X3131967Y-9225817D01*
X3198634Y-9092484D02*
X3198634Y-9130579D01*
X3274825Y-9092484D02*
X3274825Y-9130579D01*
X3570063Y-9368674D02*
X3560539Y-9359150D01*
X3560539Y-9359150D02*
X3541491Y-9330579D01*
X3541491Y-9330579D02*
X3531968Y-9311531D01*
X3531968Y-9311531D02*
X3522444Y-9282960D01*
X3522444Y-9282960D02*
X3512920Y-9235341D01*
X3512920Y-9235341D02*
X3512920Y-9197246D01*
X3512920Y-9197246D02*
X3522444Y-9149627D01*
X3522444Y-9149627D02*
X3531968Y-9121055D01*
X3531968Y-9121055D02*
X3541491Y-9102008D01*
X3541491Y-9102008D02*
X3560539Y-9073436D01*
X3560539Y-9073436D02*
X3570063Y-9063912D01*
X3627206Y-9092484D02*
X3751015Y-9092484D01*
X3751015Y-9092484D02*
X3684348Y-9168674D01*
X3684348Y-9168674D02*
X3712920Y-9168674D01*
X3712920Y-9168674D02*
X3731968Y-9178198D01*
X3731968Y-9178198D02*
X3741491Y-9187722D01*
X3741491Y-9187722D02*
X3751015Y-9206770D01*
X3751015Y-9206770D02*
X3751015Y-9254389D01*
X3751015Y-9254389D02*
X3741491Y-9273436D01*
X3741491Y-9273436D02*
X3731968Y-9282960D01*
X3731968Y-9282960D02*
X3712920Y-9292484D01*
X3712920Y-9292484D02*
X3655777Y-9292484D01*
X3655777Y-9292484D02*
X3636729Y-9282960D01*
X3636729Y-9282960D02*
X3627206Y-9273436D01*
X3989110Y-9292484D02*
X3989110Y-9092484D01*
X4074825Y-9292484D02*
X4074825Y-9187722D01*
X4074825Y-9187722D02*
X4065301Y-9168674D01*
X4065301Y-9168674D02*
X4046253Y-9159150D01*
X4046253Y-9159150D02*
X4017682Y-9159150D01*
X4017682Y-9159150D02*
X3998634Y-9168674D01*
X3998634Y-9168674D02*
X3989110Y-9178198D01*
X4198634Y-9292484D02*
X4179587Y-9282960D01*
X4179587Y-9282960D02*
X4170063Y-9273436D01*
X4170063Y-9273436D02*
X4160539Y-9254389D01*
X4160539Y-9254389D02*
X4160539Y-9197246D01*
X4160539Y-9197246D02*
X4170063Y-9178198D01*
X4170063Y-9178198D02*
X4179587Y-9168674D01*
X4179587Y-9168674D02*
X4198634Y-9159150D01*
X4198634Y-9159150D02*
X4227206Y-9159150D01*
X4227206Y-9159150D02*
X4246253Y-9168674D01*
X4246253Y-9168674D02*
X4255777Y-9178198D01*
X4255777Y-9178198D02*
X4265301Y-9197246D01*
X4265301Y-9197246D02*
X4265301Y-9254389D01*
X4265301Y-9254389D02*
X4255777Y-9273436D01*
X4255777Y-9273436D02*
X4246253Y-9282960D01*
X4246253Y-9282960D02*
X4227206Y-9292484D01*
X4227206Y-9292484D02*
X4198634Y-9292484D01*
X4379587Y-9292484D02*
X4360539Y-9282960D01*
X4360539Y-9282960D02*
X4351015Y-9263912D01*
X4351015Y-9263912D02*
X4351015Y-9092484D01*
X4531968Y-9282960D02*
X4512920Y-9292484D01*
X4512920Y-9292484D02*
X4474825Y-9292484D01*
X4474825Y-9292484D02*
X4455777Y-9282960D01*
X4455777Y-9282960D02*
X4446253Y-9263912D01*
X4446253Y-9263912D02*
X4446253Y-9187722D01*
X4446253Y-9187722D02*
X4455777Y-9168674D01*
X4455777Y-9168674D02*
X4474825Y-9159150D01*
X4474825Y-9159150D02*
X4512920Y-9159150D01*
X4512920Y-9159150D02*
X4531968Y-9168674D01*
X4531968Y-9168674D02*
X4541492Y-9187722D01*
X4541492Y-9187722D02*
X4541492Y-9206770D01*
X4541492Y-9206770D02*
X4446253Y-9225817D01*
X4617682Y-9282960D02*
X4636730Y-9292484D01*
X4636730Y-9292484D02*
X4674825Y-9292484D01*
X4674825Y-9292484D02*
X4693873Y-9282960D01*
X4693873Y-9282960D02*
X4703396Y-9263912D01*
X4703396Y-9263912D02*
X4703396Y-9254389D01*
X4703396Y-9254389D02*
X4693873Y-9235341D01*
X4693873Y-9235341D02*
X4674825Y-9225817D01*
X4674825Y-9225817D02*
X4646253Y-9225817D01*
X4646253Y-9225817D02*
X4627206Y-9216293D01*
X4627206Y-9216293D02*
X4617682Y-9197246D01*
X4617682Y-9197246D02*
X4617682Y-9187722D01*
X4617682Y-9187722D02*
X4627206Y-9168674D01*
X4627206Y-9168674D02*
X4646253Y-9159150D01*
X4646253Y-9159150D02*
X4674825Y-9159150D01*
X4674825Y-9159150D02*
X4693873Y-9168674D01*
X4770063Y-9368674D02*
X4779587Y-9359150D01*
X4779587Y-9359150D02*
X4798634Y-9330579D01*
X4798634Y-9330579D02*
X4808158Y-9311531D01*
X4808158Y-9311531D02*
X4817682Y-9282960D01*
X4817682Y-9282960D02*
X4827206Y-9235341D01*
X4827206Y-9235341D02*
X4827206Y-9197246D01*
X4827206Y-9197246D02*
X4817682Y-9149627D01*
X4817682Y-9149627D02*
X4808158Y-9121055D01*
X4808158Y-9121055D02*
X4798634Y-9102008D01*
X4798634Y-9102008D02*
X4779587Y-9073436D01*
X4779587Y-9073436D02*
X4770063Y-9063912D01*
D10*
X-105000Y-9415000D02*
X-5000Y-9515000D01*
X-5000Y-9415000D02*
X-105000Y-9515000D01*
X-5000Y-9465000D02*
G75*
G02*
X-105000Y-9465000I-50000J0D01*
G01*
X-105000Y-9465000D02*
G75*
G02*
X-5000Y-9465000I50000J0D01*
G01*
D11*
X360539Y-9556484D02*
X246253Y-9556484D01*
X303396Y-9556484D02*
X303396Y-9356484D01*
X303396Y-9356484D02*
X284348Y-9385055D01*
X284348Y-9385055D02*
X265301Y-9404103D01*
X265301Y-9404103D02*
X246253Y-9413627D01*
X446253Y-9537436D02*
X455777Y-9546960D01*
X455777Y-9546960D02*
X446253Y-9556484D01*
X446253Y-9556484D02*
X436729Y-9546960D01*
X436729Y-9546960D02*
X446253Y-9537436D01*
X446253Y-9537436D02*
X446253Y-9556484D01*
X579586Y-9356484D02*
X598634Y-9356484D01*
X598634Y-9356484D02*
X617682Y-9366008D01*
X617682Y-9366008D02*
X627205Y-9375531D01*
X627205Y-9375531D02*
X636729Y-9394579D01*
X636729Y-9394579D02*
X646253Y-9432674D01*
X646253Y-9432674D02*
X646253Y-9480293D01*
X646253Y-9480293D02*
X636729Y-9518389D01*
X636729Y-9518389D02*
X627205Y-9537436D01*
X627205Y-9537436D02*
X617682Y-9546960D01*
X617682Y-9546960D02*
X598634Y-9556484D01*
X598634Y-9556484D02*
X579586Y-9556484D01*
X579586Y-9556484D02*
X560539Y-9546960D01*
X560539Y-9546960D02*
X551015Y-9537436D01*
X551015Y-9537436D02*
X541491Y-9518389D01*
X541491Y-9518389D02*
X531967Y-9480293D01*
X531967Y-9480293D02*
X531967Y-9432674D01*
X531967Y-9432674D02*
X541491Y-9394579D01*
X541491Y-9394579D02*
X551015Y-9375531D01*
X551015Y-9375531D02*
X560539Y-9366008D01*
X560539Y-9366008D02*
X579586Y-9356484D01*
X770062Y-9356484D02*
X789110Y-9356484D01*
X789110Y-9356484D02*
X808158Y-9366008D01*
X808158Y-9366008D02*
X817682Y-9375531D01*
X817682Y-9375531D02*
X827205Y-9394579D01*
X827205Y-9394579D02*
X836729Y-9432674D01*
X836729Y-9432674D02*
X836729Y-9480293D01*
X836729Y-9480293D02*
X827205Y-9518389D01*
X827205Y-9518389D02*
X817682Y-9537436D01*
X817682Y-9537436D02*
X808158Y-9546960D01*
X808158Y-9546960D02*
X789110Y-9556484D01*
X789110Y-9556484D02*
X770062Y-9556484D01*
X770062Y-9556484D02*
X751015Y-9546960D01*
X751015Y-9546960D02*
X741491Y-9537436D01*
X741491Y-9537436D02*
X731967Y-9518389D01*
X731967Y-9518389D02*
X722443Y-9480293D01*
X722443Y-9480293D02*
X722443Y-9432674D01*
X722443Y-9432674D02*
X731967Y-9394579D01*
X731967Y-9394579D02*
X741491Y-9375531D01*
X741491Y-9375531D02*
X751015Y-9366008D01*
X751015Y-9366008D02*
X770062Y-9356484D01*
X960539Y-9356484D02*
X979586Y-9356484D01*
X979586Y-9356484D02*
X998634Y-9366008D01*
X998634Y-9366008D02*
X1008158Y-9375531D01*
X1008158Y-9375531D02*
X1017682Y-9394579D01*
X1017682Y-9394579D02*
X1027205Y-9432674D01*
X1027205Y-9432674D02*
X1027205Y-9480293D01*
X1027205Y-9480293D02*
X1017682Y-9518389D01*
X1017682Y-9518389D02*
X1008158Y-9537436D01*
X1008158Y-9537436D02*
X998634Y-9546960D01*
X998634Y-9546960D02*
X979586Y-9556484D01*
X979586Y-9556484D02*
X960539Y-9556484D01*
X960539Y-9556484D02*
X941491Y-9546960D01*
X941491Y-9546960D02*
X931967Y-9537436D01*
X931967Y-9537436D02*
X922443Y-9518389D01*
X922443Y-9518389D02*
X912920Y-9480293D01*
X912920Y-9480293D02*
X912920Y-9432674D01*
X912920Y-9432674D02*
X922443Y-9394579D01*
X922443Y-9394579D02*
X931967Y-9375531D01*
X931967Y-9375531D02*
X941491Y-9366008D01*
X941491Y-9366008D02*
X960539Y-9356484D01*
X1112920Y-9556484D02*
X1112920Y-9423150D01*
X1112920Y-9442198D02*
X1122444Y-9432674D01*
X1122444Y-9432674D02*
X1141491Y-9423150D01*
X1141491Y-9423150D02*
X1170063Y-9423150D01*
X1170063Y-9423150D02*
X1189110Y-9432674D01*
X1189110Y-9432674D02*
X1198634Y-9451722D01*
X1198634Y-9451722D02*
X1198634Y-9556484D01*
X1198634Y-9451722D02*
X1208158Y-9432674D01*
X1208158Y-9432674D02*
X1227205Y-9423150D01*
X1227205Y-9423150D02*
X1255777Y-9423150D01*
X1255777Y-9423150D02*
X1274825Y-9432674D01*
X1274825Y-9432674D02*
X1284348Y-9451722D01*
X1284348Y-9451722D02*
X1284348Y-9556484D01*
X1379586Y-9556484D02*
X1379586Y-9423150D01*
X1379586Y-9442198D02*
X1389110Y-9432674D01*
X1389110Y-9432674D02*
X1408158Y-9423150D01*
X1408158Y-9423150D02*
X1436729Y-9423150D01*
X1436729Y-9423150D02*
X1455777Y-9432674D01*
X1455777Y-9432674D02*
X1465301Y-9451722D01*
X1465301Y-9451722D02*
X1465301Y-9556484D01*
X1465301Y-9451722D02*
X1474824Y-9432674D01*
X1474824Y-9432674D02*
X1493872Y-9423150D01*
X1493872Y-9423150D02*
X1522443Y-9423150D01*
X1522443Y-9423150D02*
X1541491Y-9432674D01*
X1541491Y-9432674D02*
X1551015Y-9451722D01*
X1551015Y-9451722D02*
X1551015Y-9556484D01*
X1941491Y-9346960D02*
X1770063Y-9604103D01*
X2198634Y-9356484D02*
X2217682Y-9356484D01*
X2217682Y-9356484D02*
X2236729Y-9366008D01*
X2236729Y-9366008D02*
X2246253Y-9375531D01*
X2246253Y-9375531D02*
X2255777Y-9394579D01*
X2255777Y-9394579D02*
X2265301Y-9432674D01*
X2265301Y-9432674D02*
X2265301Y-9480293D01*
X2265301Y-9480293D02*
X2255777Y-9518389D01*
X2255777Y-9518389D02*
X2246253Y-9537436D01*
X2246253Y-9537436D02*
X2236729Y-9546960D01*
X2236729Y-9546960D02*
X2217682Y-9556484D01*
X2217682Y-9556484D02*
X2198634Y-9556484D01*
X2198634Y-9556484D02*
X2179587Y-9546960D01*
X2179587Y-9546960D02*
X2170063Y-9537436D01*
X2170063Y-9537436D02*
X2160539Y-9518389D01*
X2160539Y-9518389D02*
X2151015Y-9480293D01*
X2151015Y-9480293D02*
X2151015Y-9432674D01*
X2151015Y-9432674D02*
X2160539Y-9394579D01*
X2160539Y-9394579D02*
X2170063Y-9375531D01*
X2170063Y-9375531D02*
X2179587Y-9366008D01*
X2179587Y-9366008D02*
X2198634Y-9356484D01*
X2351015Y-9537436D02*
X2360539Y-9546960D01*
X2360539Y-9546960D02*
X2351015Y-9556484D01*
X2351015Y-9556484D02*
X2341491Y-9546960D01*
X2341491Y-9546960D02*
X2351015Y-9537436D01*
X2351015Y-9537436D02*
X2351015Y-9556484D01*
X2484348Y-9356484D02*
X2503396Y-9356484D01*
X2503396Y-9356484D02*
X2522444Y-9366008D01*
X2522444Y-9366008D02*
X2531968Y-9375531D01*
X2531968Y-9375531D02*
X2541491Y-9394579D01*
X2541491Y-9394579D02*
X2551015Y-9432674D01*
X2551015Y-9432674D02*
X2551015Y-9480293D01*
X2551015Y-9480293D02*
X2541491Y-9518389D01*
X2541491Y-9518389D02*
X2531968Y-9537436D01*
X2531968Y-9537436D02*
X2522444Y-9546960D01*
X2522444Y-9546960D02*
X2503396Y-9556484D01*
X2503396Y-9556484D02*
X2484348Y-9556484D01*
X2484348Y-9556484D02*
X2465301Y-9546960D01*
X2465301Y-9546960D02*
X2455777Y-9537436D01*
X2455777Y-9537436D02*
X2446253Y-9518389D01*
X2446253Y-9518389D02*
X2436729Y-9480293D01*
X2436729Y-9480293D02*
X2436729Y-9432674D01*
X2436729Y-9432674D02*
X2446253Y-9394579D01*
X2446253Y-9394579D02*
X2455777Y-9375531D01*
X2455777Y-9375531D02*
X2465301Y-9366008D01*
X2465301Y-9366008D02*
X2484348Y-9356484D01*
X2617682Y-9356484D02*
X2741491Y-9356484D01*
X2741491Y-9356484D02*
X2674825Y-9432674D01*
X2674825Y-9432674D02*
X2703396Y-9432674D01*
X2703396Y-9432674D02*
X2722444Y-9442198D01*
X2722444Y-9442198D02*
X2731968Y-9451722D01*
X2731968Y-9451722D02*
X2741491Y-9470770D01*
X2741491Y-9470770D02*
X2741491Y-9518389D01*
X2741491Y-9518389D02*
X2731968Y-9537436D01*
X2731968Y-9537436D02*
X2722444Y-9546960D01*
X2722444Y-9546960D02*
X2703396Y-9556484D01*
X2703396Y-9556484D02*
X2646253Y-9556484D01*
X2646253Y-9556484D02*
X2627206Y-9546960D01*
X2627206Y-9546960D02*
X2617682Y-9537436D01*
X2836729Y-9556484D02*
X2874825Y-9556484D01*
X2874825Y-9556484D02*
X2893872Y-9546960D01*
X2893872Y-9546960D02*
X2903396Y-9537436D01*
X2903396Y-9537436D02*
X2922444Y-9508865D01*
X2922444Y-9508865D02*
X2931967Y-9470770D01*
X2931967Y-9470770D02*
X2931967Y-9394579D01*
X2931967Y-9394579D02*
X2922444Y-9375531D01*
X2922444Y-9375531D02*
X2912920Y-9366008D01*
X2912920Y-9366008D02*
X2893872Y-9356484D01*
X2893872Y-9356484D02*
X2855777Y-9356484D01*
X2855777Y-9356484D02*
X2836729Y-9366008D01*
X2836729Y-9366008D02*
X2827206Y-9375531D01*
X2827206Y-9375531D02*
X2817682Y-9394579D01*
X2817682Y-9394579D02*
X2817682Y-9442198D01*
X2817682Y-9442198D02*
X2827206Y-9461246D01*
X2827206Y-9461246D02*
X2836729Y-9470770D01*
X2836729Y-9470770D02*
X2855777Y-9480293D01*
X2855777Y-9480293D02*
X2893872Y-9480293D01*
X2893872Y-9480293D02*
X2912920Y-9470770D01*
X2912920Y-9470770D02*
X2922444Y-9461246D01*
X2922444Y-9461246D02*
X2931967Y-9442198D01*
X3103396Y-9423150D02*
X3103396Y-9556484D01*
X3055777Y-9346960D02*
X3008158Y-9489817D01*
X3008158Y-9489817D02*
X3131967Y-9489817D01*
X3198634Y-9356484D02*
X3198634Y-9394579D01*
X3274825Y-9356484D02*
X3274825Y-9394579D01*
X3570063Y-9632674D02*
X3560539Y-9623150D01*
X3560539Y-9623150D02*
X3541491Y-9594579D01*
X3541491Y-9594579D02*
X3531968Y-9575531D01*
X3531968Y-9575531D02*
X3522444Y-9546960D01*
X3522444Y-9546960D02*
X3512920Y-9499341D01*
X3512920Y-9499341D02*
X3512920Y-9461246D01*
X3512920Y-9461246D02*
X3522444Y-9413627D01*
X3522444Y-9413627D02*
X3531968Y-9385055D01*
X3531968Y-9385055D02*
X3541491Y-9366008D01*
X3541491Y-9366008D02*
X3560539Y-9337436D01*
X3560539Y-9337436D02*
X3570063Y-9327912D01*
X3751015Y-9556484D02*
X3636729Y-9556484D01*
X3693872Y-9556484D02*
X3693872Y-9356484D01*
X3693872Y-9356484D02*
X3674825Y-9385055D01*
X3674825Y-9385055D02*
X3655777Y-9404103D01*
X3655777Y-9404103D02*
X3636729Y-9413627D01*
X3922444Y-9423150D02*
X3922444Y-9556484D01*
X3874825Y-9346960D02*
X3827206Y-9489817D01*
X3827206Y-9489817D02*
X3951015Y-9489817D01*
X4179587Y-9556484D02*
X4179587Y-9356484D01*
X4265301Y-9556484D02*
X4265301Y-9451722D01*
X4265301Y-9451722D02*
X4255777Y-9432674D01*
X4255777Y-9432674D02*
X4236730Y-9423150D01*
X4236730Y-9423150D02*
X4208158Y-9423150D01*
X4208158Y-9423150D02*
X4189110Y-9432674D01*
X4189110Y-9432674D02*
X4179587Y-9442198D01*
X4389111Y-9556484D02*
X4370063Y-9546960D01*
X4370063Y-9546960D02*
X4360539Y-9537436D01*
X4360539Y-9537436D02*
X4351015Y-9518389D01*
X4351015Y-9518389D02*
X4351015Y-9461246D01*
X4351015Y-9461246D02*
X4360539Y-9442198D01*
X4360539Y-9442198D02*
X4370063Y-9432674D01*
X4370063Y-9432674D02*
X4389111Y-9423150D01*
X4389111Y-9423150D02*
X4417682Y-9423150D01*
X4417682Y-9423150D02*
X4436730Y-9432674D01*
X4436730Y-9432674D02*
X4446253Y-9442198D01*
X4446253Y-9442198D02*
X4455777Y-9461246D01*
X4455777Y-9461246D02*
X4455777Y-9518389D01*
X4455777Y-9518389D02*
X4446253Y-9537436D01*
X4446253Y-9537436D02*
X4436730Y-9546960D01*
X4436730Y-9546960D02*
X4417682Y-9556484D01*
X4417682Y-9556484D02*
X4389111Y-9556484D01*
X4570063Y-9556484D02*
X4551015Y-9546960D01*
X4551015Y-9546960D02*
X4541492Y-9527912D01*
X4541492Y-9527912D02*
X4541492Y-9356484D01*
X4722444Y-9546960D02*
X4703396Y-9556484D01*
X4703396Y-9556484D02*
X4665301Y-9556484D01*
X4665301Y-9556484D02*
X4646253Y-9546960D01*
X4646253Y-9546960D02*
X4636730Y-9527912D01*
X4636730Y-9527912D02*
X4636730Y-9451722D01*
X4636730Y-9451722D02*
X4646253Y-9432674D01*
X4646253Y-9432674D02*
X4665301Y-9423150D01*
X4665301Y-9423150D02*
X4703396Y-9423150D01*
X4703396Y-9423150D02*
X4722444Y-9432674D01*
X4722444Y-9432674D02*
X4731968Y-9451722D01*
X4731968Y-9451722D02*
X4731968Y-9470770D01*
X4731968Y-9470770D02*
X4636730Y-9489817D01*
X4808158Y-9546960D02*
X4827206Y-9556484D01*
X4827206Y-9556484D02*
X4865301Y-9556484D01*
X4865301Y-9556484D02*
X4884349Y-9546960D01*
X4884349Y-9546960D02*
X4893873Y-9527912D01*
X4893873Y-9527912D02*
X4893873Y-9518389D01*
X4893873Y-9518389D02*
X4884349Y-9499341D01*
X4884349Y-9499341D02*
X4865301Y-9489817D01*
X4865301Y-9489817D02*
X4836730Y-9489817D01*
X4836730Y-9489817D02*
X4817682Y-9480293D01*
X4817682Y-9480293D02*
X4808158Y-9461246D01*
X4808158Y-9461246D02*
X4808158Y-9451722D01*
X4808158Y-9451722D02*
X4817682Y-9432674D01*
X4817682Y-9432674D02*
X4836730Y-9423150D01*
X4836730Y-9423150D02*
X4865301Y-9423150D01*
X4865301Y-9423150D02*
X4884349Y-9432674D01*
X4960539Y-9632674D02*
X4970063Y-9623150D01*
X4970063Y-9623150D02*
X4989111Y-9594579D01*
X4989111Y-9594579D02*
X4998634Y-9575531D01*
X4998634Y-9575531D02*
X5008158Y-9546960D01*
X5008158Y-9546960D02*
X5017682Y-9499341D01*
X5017682Y-9499341D02*
X5017682Y-9461246D01*
X5017682Y-9461246D02*
X5008158Y-9413627D01*
X5008158Y-9413627D02*
X4998634Y-9385055D01*
X4998634Y-9385055D02*
X4989111Y-9366008D01*
X4989111Y-9366008D02*
X4970063Y-9337436D01*
X4970063Y-9337436D02*
X4960539Y-9327912D01*
D12*
X-165000Y-9649000D02*
X-5000Y-9809000D01*
X-5000Y-9649000D02*
X-165000Y-9809000D01*
X-85000Y-9649000D02*
X-85000Y-9809000D01*
X-165000Y-9729000D02*
X-5000Y-9729000D01*
D11*
X360539Y-9820484D02*
X246253Y-9820484D01*
X303396Y-9820484D02*
X303396Y-9620484D01*
X303396Y-9620484D02*
X284348Y-9649055D01*
X284348Y-9649055D02*
X265301Y-9668103D01*
X265301Y-9668103D02*
X246253Y-9677627D01*
X446253Y-9801436D02*
X455777Y-9810960D01*
X455777Y-9810960D02*
X446253Y-9820484D01*
X446253Y-9820484D02*
X436729Y-9810960D01*
X436729Y-9810960D02*
X446253Y-9801436D01*
X446253Y-9801436D02*
X446253Y-9820484D01*
X627205Y-9620484D02*
X589110Y-9620484D01*
X589110Y-9620484D02*
X570063Y-9630008D01*
X570063Y-9630008D02*
X560539Y-9639531D01*
X560539Y-9639531D02*
X541491Y-9668103D01*
X541491Y-9668103D02*
X531967Y-9706198D01*
X531967Y-9706198D02*
X531967Y-9782389D01*
X531967Y-9782389D02*
X541491Y-9801436D01*
X541491Y-9801436D02*
X551015Y-9810960D01*
X551015Y-9810960D02*
X570063Y-9820484D01*
X570063Y-9820484D02*
X608158Y-9820484D01*
X608158Y-9820484D02*
X627205Y-9810960D01*
X627205Y-9810960D02*
X636729Y-9801436D01*
X636729Y-9801436D02*
X646253Y-9782389D01*
X646253Y-9782389D02*
X646253Y-9734770D01*
X646253Y-9734770D02*
X636729Y-9715722D01*
X636729Y-9715722D02*
X627205Y-9706198D01*
X627205Y-9706198D02*
X608158Y-9696674D01*
X608158Y-9696674D02*
X570063Y-9696674D01*
X570063Y-9696674D02*
X551015Y-9706198D01*
X551015Y-9706198D02*
X541491Y-9715722D01*
X541491Y-9715722D02*
X531967Y-9734770D01*
X770062Y-9620484D02*
X789110Y-9620484D01*
X789110Y-9620484D02*
X808158Y-9630008D01*
X808158Y-9630008D02*
X817682Y-9639531D01*
X817682Y-9639531D02*
X827205Y-9658579D01*
X827205Y-9658579D02*
X836729Y-9696674D01*
X836729Y-9696674D02*
X836729Y-9744293D01*
X836729Y-9744293D02*
X827205Y-9782389D01*
X827205Y-9782389D02*
X817682Y-9801436D01*
X817682Y-9801436D02*
X808158Y-9810960D01*
X808158Y-9810960D02*
X789110Y-9820484D01*
X789110Y-9820484D02*
X770062Y-9820484D01*
X770062Y-9820484D02*
X751015Y-9810960D01*
X751015Y-9810960D02*
X741491Y-9801436D01*
X741491Y-9801436D02*
X731967Y-9782389D01*
X731967Y-9782389D02*
X722443Y-9744293D01*
X722443Y-9744293D02*
X722443Y-9696674D01*
X722443Y-9696674D02*
X731967Y-9658579D01*
X731967Y-9658579D02*
X741491Y-9639531D01*
X741491Y-9639531D02*
X751015Y-9630008D01*
X751015Y-9630008D02*
X770062Y-9620484D01*
X960539Y-9620484D02*
X979586Y-9620484D01*
X979586Y-9620484D02*
X998634Y-9630008D01*
X998634Y-9630008D02*
X1008158Y-9639531D01*
X1008158Y-9639531D02*
X1017682Y-9658579D01*
X1017682Y-9658579D02*
X1027205Y-9696674D01*
X1027205Y-9696674D02*
X1027205Y-9744293D01*
X1027205Y-9744293D02*
X1017682Y-9782389D01*
X1017682Y-9782389D02*
X1008158Y-9801436D01*
X1008158Y-9801436D02*
X998634Y-9810960D01*
X998634Y-9810960D02*
X979586Y-9820484D01*
X979586Y-9820484D02*
X960539Y-9820484D01*
X960539Y-9820484D02*
X941491Y-9810960D01*
X941491Y-9810960D02*
X931967Y-9801436D01*
X931967Y-9801436D02*
X922443Y-9782389D01*
X922443Y-9782389D02*
X912920Y-9744293D01*
X912920Y-9744293D02*
X912920Y-9696674D01*
X912920Y-9696674D02*
X922443Y-9658579D01*
X922443Y-9658579D02*
X931967Y-9639531D01*
X931967Y-9639531D02*
X941491Y-9630008D01*
X941491Y-9630008D02*
X960539Y-9620484D01*
X1112920Y-9820484D02*
X1112920Y-9687150D01*
X1112920Y-9706198D02*
X1122444Y-9696674D01*
X1122444Y-9696674D02*
X1141491Y-9687150D01*
X1141491Y-9687150D02*
X1170063Y-9687150D01*
X1170063Y-9687150D02*
X1189110Y-9696674D01*
X1189110Y-9696674D02*
X1198634Y-9715722D01*
X1198634Y-9715722D02*
X1198634Y-9820484D01*
X1198634Y-9715722D02*
X1208158Y-9696674D01*
X1208158Y-9696674D02*
X1227205Y-9687150D01*
X1227205Y-9687150D02*
X1255777Y-9687150D01*
X1255777Y-9687150D02*
X1274825Y-9696674D01*
X1274825Y-9696674D02*
X1284348Y-9715722D01*
X1284348Y-9715722D02*
X1284348Y-9820484D01*
X1379586Y-9820484D02*
X1379586Y-9687150D01*
X1379586Y-9706198D02*
X1389110Y-9696674D01*
X1389110Y-9696674D02*
X1408158Y-9687150D01*
X1408158Y-9687150D02*
X1436729Y-9687150D01*
X1436729Y-9687150D02*
X1455777Y-9696674D01*
X1455777Y-9696674D02*
X1465301Y-9715722D01*
X1465301Y-9715722D02*
X1465301Y-9820484D01*
X1465301Y-9715722D02*
X1474824Y-9696674D01*
X1474824Y-9696674D02*
X1493872Y-9687150D01*
X1493872Y-9687150D02*
X1522443Y-9687150D01*
X1522443Y-9687150D02*
X1541491Y-9696674D01*
X1541491Y-9696674D02*
X1551015Y-9715722D01*
X1551015Y-9715722D02*
X1551015Y-9820484D01*
X1941491Y-9610960D02*
X1770063Y-9868103D01*
X2198634Y-9620484D02*
X2217682Y-9620484D01*
X2217682Y-9620484D02*
X2236729Y-9630008D01*
X2236729Y-9630008D02*
X2246253Y-9639531D01*
X2246253Y-9639531D02*
X2255777Y-9658579D01*
X2255777Y-9658579D02*
X2265301Y-9696674D01*
X2265301Y-9696674D02*
X2265301Y-9744293D01*
X2265301Y-9744293D02*
X2255777Y-9782389D01*
X2255777Y-9782389D02*
X2246253Y-9801436D01*
X2246253Y-9801436D02*
X2236729Y-9810960D01*
X2236729Y-9810960D02*
X2217682Y-9820484D01*
X2217682Y-9820484D02*
X2198634Y-9820484D01*
X2198634Y-9820484D02*
X2179587Y-9810960D01*
X2179587Y-9810960D02*
X2170063Y-9801436D01*
X2170063Y-9801436D02*
X2160539Y-9782389D01*
X2160539Y-9782389D02*
X2151015Y-9744293D01*
X2151015Y-9744293D02*
X2151015Y-9696674D01*
X2151015Y-9696674D02*
X2160539Y-9658579D01*
X2160539Y-9658579D02*
X2170063Y-9639531D01*
X2170063Y-9639531D02*
X2179587Y-9630008D01*
X2179587Y-9630008D02*
X2198634Y-9620484D01*
X2351015Y-9801436D02*
X2360539Y-9810960D01*
X2360539Y-9810960D02*
X2351015Y-9820484D01*
X2351015Y-9820484D02*
X2341491Y-9810960D01*
X2341491Y-9810960D02*
X2351015Y-9801436D01*
X2351015Y-9801436D02*
X2351015Y-9820484D01*
X2484348Y-9620484D02*
X2503396Y-9620484D01*
X2503396Y-9620484D02*
X2522444Y-9630008D01*
X2522444Y-9630008D02*
X2531968Y-9639531D01*
X2531968Y-9639531D02*
X2541491Y-9658579D01*
X2541491Y-9658579D02*
X2551015Y-9696674D01*
X2551015Y-9696674D02*
X2551015Y-9744293D01*
X2551015Y-9744293D02*
X2541491Y-9782389D01*
X2541491Y-9782389D02*
X2531968Y-9801436D01*
X2531968Y-9801436D02*
X2522444Y-9810960D01*
X2522444Y-9810960D02*
X2503396Y-9820484D01*
X2503396Y-9820484D02*
X2484348Y-9820484D01*
X2484348Y-9820484D02*
X2465301Y-9810960D01*
X2465301Y-9810960D02*
X2455777Y-9801436D01*
X2455777Y-9801436D02*
X2446253Y-9782389D01*
X2446253Y-9782389D02*
X2436729Y-9744293D01*
X2436729Y-9744293D02*
X2436729Y-9696674D01*
X2436729Y-9696674D02*
X2446253Y-9658579D01*
X2446253Y-9658579D02*
X2455777Y-9639531D01*
X2455777Y-9639531D02*
X2465301Y-9630008D01*
X2465301Y-9630008D02*
X2484348Y-9620484D01*
X2722444Y-9620484D02*
X2684348Y-9620484D01*
X2684348Y-9620484D02*
X2665301Y-9630008D01*
X2665301Y-9630008D02*
X2655777Y-9639531D01*
X2655777Y-9639531D02*
X2636729Y-9668103D01*
X2636729Y-9668103D02*
X2627206Y-9706198D01*
X2627206Y-9706198D02*
X2627206Y-9782389D01*
X2627206Y-9782389D02*
X2636729Y-9801436D01*
X2636729Y-9801436D02*
X2646253Y-9810960D01*
X2646253Y-9810960D02*
X2665301Y-9820484D01*
X2665301Y-9820484D02*
X2703396Y-9820484D01*
X2703396Y-9820484D02*
X2722444Y-9810960D01*
X2722444Y-9810960D02*
X2731968Y-9801436D01*
X2731968Y-9801436D02*
X2741491Y-9782389D01*
X2741491Y-9782389D02*
X2741491Y-9734770D01*
X2741491Y-9734770D02*
X2731968Y-9715722D01*
X2731968Y-9715722D02*
X2722444Y-9706198D01*
X2722444Y-9706198D02*
X2703396Y-9696674D01*
X2703396Y-9696674D02*
X2665301Y-9696674D01*
X2665301Y-9696674D02*
X2646253Y-9706198D01*
X2646253Y-9706198D02*
X2636729Y-9715722D01*
X2636729Y-9715722D02*
X2627206Y-9734770D01*
X2808158Y-9620484D02*
X2931967Y-9620484D01*
X2931967Y-9620484D02*
X2865301Y-9696674D01*
X2865301Y-9696674D02*
X2893872Y-9696674D01*
X2893872Y-9696674D02*
X2912920Y-9706198D01*
X2912920Y-9706198D02*
X2922444Y-9715722D01*
X2922444Y-9715722D02*
X2931967Y-9734770D01*
X2931967Y-9734770D02*
X2931967Y-9782389D01*
X2931967Y-9782389D02*
X2922444Y-9801436D01*
X2922444Y-9801436D02*
X2912920Y-9810960D01*
X2912920Y-9810960D02*
X2893872Y-9820484D01*
X2893872Y-9820484D02*
X2836729Y-9820484D01*
X2836729Y-9820484D02*
X2817682Y-9810960D01*
X2817682Y-9810960D02*
X2808158Y-9801436D01*
X3055777Y-9620484D02*
X3074825Y-9620484D01*
X3074825Y-9620484D02*
X3093872Y-9630008D01*
X3093872Y-9630008D02*
X3103396Y-9639531D01*
X3103396Y-9639531D02*
X3112920Y-9658579D01*
X3112920Y-9658579D02*
X3122444Y-9696674D01*
X3122444Y-9696674D02*
X3122444Y-9744293D01*
X3122444Y-9744293D02*
X3112920Y-9782389D01*
X3112920Y-9782389D02*
X3103396Y-9801436D01*
X3103396Y-9801436D02*
X3093872Y-9810960D01*
X3093872Y-9810960D02*
X3074825Y-9820484D01*
X3074825Y-9820484D02*
X3055777Y-9820484D01*
X3055777Y-9820484D02*
X3036729Y-9810960D01*
X3036729Y-9810960D02*
X3027206Y-9801436D01*
X3027206Y-9801436D02*
X3017682Y-9782389D01*
X3017682Y-9782389D02*
X3008158Y-9744293D01*
X3008158Y-9744293D02*
X3008158Y-9696674D01*
X3008158Y-9696674D02*
X3017682Y-9658579D01*
X3017682Y-9658579D02*
X3027206Y-9639531D01*
X3027206Y-9639531D02*
X3036729Y-9630008D01*
X3036729Y-9630008D02*
X3055777Y-9620484D01*
X3198634Y-9620484D02*
X3198634Y-9658579D01*
X3274825Y-9620484D02*
X3274825Y-9658579D01*
X3570063Y-9896674D02*
X3560539Y-9887150D01*
X3560539Y-9887150D02*
X3541491Y-9858579D01*
X3541491Y-9858579D02*
X3531968Y-9839531D01*
X3531968Y-9839531D02*
X3522444Y-9810960D01*
X3522444Y-9810960D02*
X3512920Y-9763341D01*
X3512920Y-9763341D02*
X3512920Y-9725246D01*
X3512920Y-9725246D02*
X3522444Y-9677627D01*
X3522444Y-9677627D02*
X3531968Y-9649055D01*
X3531968Y-9649055D02*
X3541491Y-9630008D01*
X3541491Y-9630008D02*
X3560539Y-9601436D01*
X3560539Y-9601436D02*
X3570063Y-9591912D01*
X3731968Y-9620484D02*
X3693872Y-9620484D01*
X3693872Y-9620484D02*
X3674825Y-9630008D01*
X3674825Y-9630008D02*
X3665301Y-9639531D01*
X3665301Y-9639531D02*
X3646253Y-9668103D01*
X3646253Y-9668103D02*
X3636729Y-9706198D01*
X3636729Y-9706198D02*
X3636729Y-9782389D01*
X3636729Y-9782389D02*
X3646253Y-9801436D01*
X3646253Y-9801436D02*
X3655777Y-9810960D01*
X3655777Y-9810960D02*
X3674825Y-9820484D01*
X3674825Y-9820484D02*
X3712920Y-9820484D01*
X3712920Y-9820484D02*
X3731968Y-9810960D01*
X3731968Y-9810960D02*
X3741491Y-9801436D01*
X3741491Y-9801436D02*
X3751015Y-9782389D01*
X3751015Y-9782389D02*
X3751015Y-9734770D01*
X3751015Y-9734770D02*
X3741491Y-9715722D01*
X3741491Y-9715722D02*
X3731968Y-9706198D01*
X3731968Y-9706198D02*
X3712920Y-9696674D01*
X3712920Y-9696674D02*
X3674825Y-9696674D01*
X3674825Y-9696674D02*
X3655777Y-9706198D01*
X3655777Y-9706198D02*
X3646253Y-9715722D01*
X3646253Y-9715722D02*
X3636729Y-9734770D01*
X3989110Y-9820484D02*
X3989110Y-9620484D01*
X4074825Y-9820484D02*
X4074825Y-9715722D01*
X4074825Y-9715722D02*
X4065301Y-9696674D01*
X4065301Y-9696674D02*
X4046253Y-9687150D01*
X4046253Y-9687150D02*
X4017682Y-9687150D01*
X4017682Y-9687150D02*
X3998634Y-9696674D01*
X3998634Y-9696674D02*
X3989110Y-9706198D01*
X4198634Y-9820484D02*
X4179587Y-9810960D01*
X4179587Y-9810960D02*
X4170063Y-9801436D01*
X4170063Y-9801436D02*
X4160539Y-9782389D01*
X4160539Y-9782389D02*
X4160539Y-9725246D01*
X4160539Y-9725246D02*
X4170063Y-9706198D01*
X4170063Y-9706198D02*
X4179587Y-9696674D01*
X4179587Y-9696674D02*
X4198634Y-9687150D01*
X4198634Y-9687150D02*
X4227206Y-9687150D01*
X4227206Y-9687150D02*
X4246253Y-9696674D01*
X4246253Y-9696674D02*
X4255777Y-9706198D01*
X4255777Y-9706198D02*
X4265301Y-9725246D01*
X4265301Y-9725246D02*
X4265301Y-9782389D01*
X4265301Y-9782389D02*
X4255777Y-9801436D01*
X4255777Y-9801436D02*
X4246253Y-9810960D01*
X4246253Y-9810960D02*
X4227206Y-9820484D01*
X4227206Y-9820484D02*
X4198634Y-9820484D01*
X4379587Y-9820484D02*
X4360539Y-9810960D01*
X4360539Y-9810960D02*
X4351015Y-9791912D01*
X4351015Y-9791912D02*
X4351015Y-9620484D01*
X4531968Y-9810960D02*
X4512920Y-9820484D01*
X4512920Y-9820484D02*
X4474825Y-9820484D01*
X4474825Y-9820484D02*
X4455777Y-9810960D01*
X4455777Y-9810960D02*
X4446253Y-9791912D01*
X4446253Y-9791912D02*
X4446253Y-9715722D01*
X4446253Y-9715722D02*
X4455777Y-9696674D01*
X4455777Y-9696674D02*
X4474825Y-9687150D01*
X4474825Y-9687150D02*
X4512920Y-9687150D01*
X4512920Y-9687150D02*
X4531968Y-9696674D01*
X4531968Y-9696674D02*
X4541492Y-9715722D01*
X4541492Y-9715722D02*
X4541492Y-9734770D01*
X4541492Y-9734770D02*
X4446253Y-9753817D01*
X4617682Y-9810960D02*
X4636730Y-9820484D01*
X4636730Y-9820484D02*
X4674825Y-9820484D01*
X4674825Y-9820484D02*
X4693873Y-9810960D01*
X4693873Y-9810960D02*
X4703396Y-9791912D01*
X4703396Y-9791912D02*
X4703396Y-9782389D01*
X4703396Y-9782389D02*
X4693873Y-9763341D01*
X4693873Y-9763341D02*
X4674825Y-9753817D01*
X4674825Y-9753817D02*
X4646253Y-9753817D01*
X4646253Y-9753817D02*
X4627206Y-9744293D01*
X4627206Y-9744293D02*
X4617682Y-9725246D01*
X4617682Y-9725246D02*
X4617682Y-9715722D01*
X4617682Y-9715722D02*
X4627206Y-9696674D01*
X4627206Y-9696674D02*
X4646253Y-9687150D01*
X4646253Y-9687150D02*
X4674825Y-9687150D01*
X4674825Y-9687150D02*
X4693873Y-9696674D01*
X4770063Y-9896674D02*
X4779587Y-9887150D01*
X4779587Y-9887150D02*
X4798634Y-9858579D01*
X4798634Y-9858579D02*
X4808158Y-9839531D01*
X4808158Y-9839531D02*
X4817682Y-9810960D01*
X4817682Y-9810960D02*
X4827206Y-9763341D01*
X4827206Y-9763341D02*
X4827206Y-9725246D01*
X4827206Y-9725246D02*
X4817682Y-9677627D01*
X4817682Y-9677627D02*
X4808158Y-9649055D01*
X4808158Y-9649055D02*
X4798634Y-9630008D01*
X4798634Y-9630008D02*
X4779587Y-9601436D01*
X4779587Y-9601436D02*
X4770063Y-9591912D01*
D10*
X-70000Y-9976500D02*
X-5000Y-10041500D01*
X-5000Y-9976500D02*
X-70000Y-10041500D01*
X-14519Y-10031981D02*
X-14519Y-9986019D01*
X-60481Y-9986019D01*
X-60481Y-10031981D01*
X-14519Y-10031981D01*
D11*
X293872Y-9900484D02*
X312920Y-9900484D01*
X312920Y-9900484D02*
X331967Y-9910008D01*
X331967Y-9910008D02*
X341491Y-9919531D01*
X341491Y-9919531D02*
X351015Y-9938579D01*
X351015Y-9938579D02*
X360539Y-9976674D01*
X360539Y-9976674D02*
X360539Y-10024293D01*
X360539Y-10024293D02*
X351015Y-10062389D01*
X351015Y-10062389D02*
X341491Y-10081436D01*
X341491Y-10081436D02*
X331967Y-10090960D01*
X331967Y-10090960D02*
X312920Y-10100484D01*
X312920Y-10100484D02*
X293872Y-10100484D01*
X293872Y-10100484D02*
X274824Y-10090960D01*
X274824Y-10090960D02*
X265301Y-10081436D01*
X265301Y-10081436D02*
X255777Y-10062389D01*
X255777Y-10062389D02*
X246253Y-10024293D01*
X246253Y-10024293D02*
X246253Y-9976674D01*
X246253Y-9976674D02*
X255777Y-9938579D01*
X255777Y-9938579D02*
X265301Y-9919531D01*
X265301Y-9919531D02*
X274824Y-9910008D01*
X274824Y-9910008D02*
X293872Y-9900484D01*
X446253Y-10081436D02*
X455777Y-10090960D01*
X455777Y-10090960D02*
X446253Y-10100484D01*
X446253Y-10100484D02*
X436729Y-10090960D01*
X436729Y-10090960D02*
X446253Y-10081436D01*
X446253Y-10081436D02*
X446253Y-10100484D01*
X627205Y-9900484D02*
X589110Y-9900484D01*
X589110Y-9900484D02*
X570063Y-9910008D01*
X570063Y-9910008D02*
X560539Y-9919531D01*
X560539Y-9919531D02*
X541491Y-9948103D01*
X541491Y-9948103D02*
X531967Y-9986198D01*
X531967Y-9986198D02*
X531967Y-10062389D01*
X531967Y-10062389D02*
X541491Y-10081436D01*
X541491Y-10081436D02*
X551015Y-10090960D01*
X551015Y-10090960D02*
X570063Y-10100484D01*
X570063Y-10100484D02*
X608158Y-10100484D01*
X608158Y-10100484D02*
X627205Y-10090960D01*
X627205Y-10090960D02*
X636729Y-10081436D01*
X636729Y-10081436D02*
X646253Y-10062389D01*
X646253Y-10062389D02*
X646253Y-10014770D01*
X646253Y-10014770D02*
X636729Y-9995722D01*
X636729Y-9995722D02*
X627205Y-9986198D01*
X627205Y-9986198D02*
X608158Y-9976674D01*
X608158Y-9976674D02*
X570063Y-9976674D01*
X570063Y-9976674D02*
X551015Y-9986198D01*
X551015Y-9986198D02*
X541491Y-9995722D01*
X541491Y-9995722D02*
X531967Y-10014770D01*
X827205Y-9900484D02*
X731967Y-9900484D01*
X731967Y-9900484D02*
X722443Y-9995722D01*
X722443Y-9995722D02*
X731967Y-9986198D01*
X731967Y-9986198D02*
X751015Y-9976674D01*
X751015Y-9976674D02*
X798634Y-9976674D01*
X798634Y-9976674D02*
X817682Y-9986198D01*
X817682Y-9986198D02*
X827205Y-9995722D01*
X827205Y-9995722D02*
X836729Y-10014770D01*
X836729Y-10014770D02*
X836729Y-10062389D01*
X836729Y-10062389D02*
X827205Y-10081436D01*
X827205Y-10081436D02*
X817682Y-10090960D01*
X817682Y-10090960D02*
X798634Y-10100484D01*
X798634Y-10100484D02*
X751015Y-10100484D01*
X751015Y-10100484D02*
X731967Y-10090960D01*
X731967Y-10090960D02*
X722443Y-10081436D01*
X960539Y-9900484D02*
X979586Y-9900484D01*
X979586Y-9900484D02*
X998634Y-9910008D01*
X998634Y-9910008D02*
X1008158Y-9919531D01*
X1008158Y-9919531D02*
X1017682Y-9938579D01*
X1017682Y-9938579D02*
X1027205Y-9976674D01*
X1027205Y-9976674D02*
X1027205Y-10024293D01*
X1027205Y-10024293D02*
X1017682Y-10062389D01*
X1017682Y-10062389D02*
X1008158Y-10081436D01*
X1008158Y-10081436D02*
X998634Y-10090960D01*
X998634Y-10090960D02*
X979586Y-10100484D01*
X979586Y-10100484D02*
X960539Y-10100484D01*
X960539Y-10100484D02*
X941491Y-10090960D01*
X941491Y-10090960D02*
X931967Y-10081436D01*
X931967Y-10081436D02*
X922443Y-10062389D01*
X922443Y-10062389D02*
X912920Y-10024293D01*
X912920Y-10024293D02*
X912920Y-9976674D01*
X912920Y-9976674D02*
X922443Y-9938579D01*
X922443Y-9938579D02*
X931967Y-9919531D01*
X931967Y-9919531D02*
X941491Y-9910008D01*
X941491Y-9910008D02*
X960539Y-9900484D01*
X1112920Y-10100484D02*
X1112920Y-9967150D01*
X1112920Y-9986198D02*
X1122444Y-9976674D01*
X1122444Y-9976674D02*
X1141491Y-9967150D01*
X1141491Y-9967150D02*
X1170063Y-9967150D01*
X1170063Y-9967150D02*
X1189110Y-9976674D01*
X1189110Y-9976674D02*
X1198634Y-9995722D01*
X1198634Y-9995722D02*
X1198634Y-10100484D01*
X1198634Y-9995722D02*
X1208158Y-9976674D01*
X1208158Y-9976674D02*
X1227205Y-9967150D01*
X1227205Y-9967150D02*
X1255777Y-9967150D01*
X1255777Y-9967150D02*
X1274825Y-9976674D01*
X1274825Y-9976674D02*
X1284348Y-9995722D01*
X1284348Y-9995722D02*
X1284348Y-10100484D01*
X1379586Y-10100484D02*
X1379586Y-9967150D01*
X1379586Y-9986198D02*
X1389110Y-9976674D01*
X1389110Y-9976674D02*
X1408158Y-9967150D01*
X1408158Y-9967150D02*
X1436729Y-9967150D01*
X1436729Y-9967150D02*
X1455777Y-9976674D01*
X1455777Y-9976674D02*
X1465301Y-9995722D01*
X1465301Y-9995722D02*
X1465301Y-10100484D01*
X1465301Y-9995722D02*
X1474824Y-9976674D01*
X1474824Y-9976674D02*
X1493872Y-9967150D01*
X1493872Y-9967150D02*
X1522443Y-9967150D01*
X1522443Y-9967150D02*
X1541491Y-9976674D01*
X1541491Y-9976674D02*
X1551015Y-9995722D01*
X1551015Y-9995722D02*
X1551015Y-10100484D01*
X1941491Y-9890960D02*
X1770063Y-10148103D01*
X2198634Y-9900484D02*
X2217682Y-9900484D01*
X2217682Y-9900484D02*
X2236729Y-9910008D01*
X2236729Y-9910008D02*
X2246253Y-9919531D01*
X2246253Y-9919531D02*
X2255777Y-9938579D01*
X2255777Y-9938579D02*
X2265301Y-9976674D01*
X2265301Y-9976674D02*
X2265301Y-10024293D01*
X2265301Y-10024293D02*
X2255777Y-10062389D01*
X2255777Y-10062389D02*
X2246253Y-10081436D01*
X2246253Y-10081436D02*
X2236729Y-10090960D01*
X2236729Y-10090960D02*
X2217682Y-10100484D01*
X2217682Y-10100484D02*
X2198634Y-10100484D01*
X2198634Y-10100484D02*
X2179587Y-10090960D01*
X2179587Y-10090960D02*
X2170063Y-10081436D01*
X2170063Y-10081436D02*
X2160539Y-10062389D01*
X2160539Y-10062389D02*
X2151015Y-10024293D01*
X2151015Y-10024293D02*
X2151015Y-9976674D01*
X2151015Y-9976674D02*
X2160539Y-9938579D01*
X2160539Y-9938579D02*
X2170063Y-9919531D01*
X2170063Y-9919531D02*
X2179587Y-9910008D01*
X2179587Y-9910008D02*
X2198634Y-9900484D01*
X2351015Y-10081436D02*
X2360539Y-10090960D01*
X2360539Y-10090960D02*
X2351015Y-10100484D01*
X2351015Y-10100484D02*
X2341491Y-10090960D01*
X2341491Y-10090960D02*
X2351015Y-10081436D01*
X2351015Y-10081436D02*
X2351015Y-10100484D01*
X2484348Y-9900484D02*
X2503396Y-9900484D01*
X2503396Y-9900484D02*
X2522444Y-9910008D01*
X2522444Y-9910008D02*
X2531968Y-9919531D01*
X2531968Y-9919531D02*
X2541491Y-9938579D01*
X2541491Y-9938579D02*
X2551015Y-9976674D01*
X2551015Y-9976674D02*
X2551015Y-10024293D01*
X2551015Y-10024293D02*
X2541491Y-10062389D01*
X2541491Y-10062389D02*
X2531968Y-10081436D01*
X2531968Y-10081436D02*
X2522444Y-10090960D01*
X2522444Y-10090960D02*
X2503396Y-10100484D01*
X2503396Y-10100484D02*
X2484348Y-10100484D01*
X2484348Y-10100484D02*
X2465301Y-10090960D01*
X2465301Y-10090960D02*
X2455777Y-10081436D01*
X2455777Y-10081436D02*
X2446253Y-10062389D01*
X2446253Y-10062389D02*
X2436729Y-10024293D01*
X2436729Y-10024293D02*
X2436729Y-9976674D01*
X2436729Y-9976674D02*
X2446253Y-9938579D01*
X2446253Y-9938579D02*
X2455777Y-9919531D01*
X2455777Y-9919531D02*
X2465301Y-9910008D01*
X2465301Y-9910008D02*
X2484348Y-9900484D01*
X2627206Y-9919531D02*
X2636729Y-9910008D01*
X2636729Y-9910008D02*
X2655777Y-9900484D01*
X2655777Y-9900484D02*
X2703396Y-9900484D01*
X2703396Y-9900484D02*
X2722444Y-9910008D01*
X2722444Y-9910008D02*
X2731968Y-9919531D01*
X2731968Y-9919531D02*
X2741491Y-9938579D01*
X2741491Y-9938579D02*
X2741491Y-9957627D01*
X2741491Y-9957627D02*
X2731968Y-9986198D01*
X2731968Y-9986198D02*
X2617682Y-10100484D01*
X2617682Y-10100484D02*
X2741491Y-10100484D01*
X2922444Y-9900484D02*
X2827206Y-9900484D01*
X2827206Y-9900484D02*
X2817682Y-9995722D01*
X2817682Y-9995722D02*
X2827206Y-9986198D01*
X2827206Y-9986198D02*
X2846253Y-9976674D01*
X2846253Y-9976674D02*
X2893872Y-9976674D01*
X2893872Y-9976674D02*
X2912920Y-9986198D01*
X2912920Y-9986198D02*
X2922444Y-9995722D01*
X2922444Y-9995722D02*
X2931967Y-10014770D01*
X2931967Y-10014770D02*
X2931967Y-10062389D01*
X2931967Y-10062389D02*
X2922444Y-10081436D01*
X2922444Y-10081436D02*
X2912920Y-10090960D01*
X2912920Y-10090960D02*
X2893872Y-10100484D01*
X2893872Y-10100484D02*
X2846253Y-10100484D01*
X2846253Y-10100484D02*
X2827206Y-10090960D01*
X2827206Y-10090960D02*
X2817682Y-10081436D01*
X3103396Y-9900484D02*
X3065301Y-9900484D01*
X3065301Y-9900484D02*
X3046253Y-9910008D01*
X3046253Y-9910008D02*
X3036729Y-9919531D01*
X3036729Y-9919531D02*
X3017682Y-9948103D01*
X3017682Y-9948103D02*
X3008158Y-9986198D01*
X3008158Y-9986198D02*
X3008158Y-10062389D01*
X3008158Y-10062389D02*
X3017682Y-10081436D01*
X3017682Y-10081436D02*
X3027206Y-10090960D01*
X3027206Y-10090960D02*
X3046253Y-10100484D01*
X3046253Y-10100484D02*
X3084348Y-10100484D01*
X3084348Y-10100484D02*
X3103396Y-10090960D01*
X3103396Y-10090960D02*
X3112920Y-10081436D01*
X3112920Y-10081436D02*
X3122444Y-10062389D01*
X3122444Y-10062389D02*
X3122444Y-10014770D01*
X3122444Y-10014770D02*
X3112920Y-9995722D01*
X3112920Y-9995722D02*
X3103396Y-9986198D01*
X3103396Y-9986198D02*
X3084348Y-9976674D01*
X3084348Y-9976674D02*
X3046253Y-9976674D01*
X3046253Y-9976674D02*
X3027206Y-9986198D01*
X3027206Y-9986198D02*
X3017682Y-9995722D01*
X3017682Y-9995722D02*
X3008158Y-10014770D01*
X3198634Y-9900484D02*
X3198634Y-9938579D01*
X3274825Y-9900484D02*
X3274825Y-9938579D01*
X3570063Y-10176674D02*
X3560539Y-10167150D01*
X3560539Y-10167150D02*
X3541491Y-10138579D01*
X3541491Y-10138579D02*
X3531968Y-10119531D01*
X3531968Y-10119531D02*
X3522444Y-10090960D01*
X3522444Y-10090960D02*
X3512920Y-10043341D01*
X3512920Y-10043341D02*
X3512920Y-10005246D01*
X3512920Y-10005246D02*
X3522444Y-9957627D01*
X3522444Y-9957627D02*
X3531968Y-9929055D01*
X3531968Y-9929055D02*
X3541491Y-9910008D01*
X3541491Y-9910008D02*
X3560539Y-9881436D01*
X3560539Y-9881436D02*
X3570063Y-9871912D01*
X3636729Y-9919531D02*
X3646253Y-9910008D01*
X3646253Y-9910008D02*
X3665301Y-9900484D01*
X3665301Y-9900484D02*
X3712920Y-9900484D01*
X3712920Y-9900484D02*
X3731968Y-9910008D01*
X3731968Y-9910008D02*
X3741491Y-9919531D01*
X3741491Y-9919531D02*
X3751015Y-9938579D01*
X3751015Y-9938579D02*
X3751015Y-9957627D01*
X3751015Y-9957627D02*
X3741491Y-9986198D01*
X3741491Y-9986198D02*
X3627206Y-10100484D01*
X3627206Y-10100484D02*
X3751015Y-10100484D01*
X3989110Y-10100484D02*
X3989110Y-9900484D01*
X4074825Y-10100484D02*
X4074825Y-9995722D01*
X4074825Y-9995722D02*
X4065301Y-9976674D01*
X4065301Y-9976674D02*
X4046253Y-9967150D01*
X4046253Y-9967150D02*
X4017682Y-9967150D01*
X4017682Y-9967150D02*
X3998634Y-9976674D01*
X3998634Y-9976674D02*
X3989110Y-9986198D01*
X4198634Y-10100484D02*
X4179587Y-10090960D01*
X4179587Y-10090960D02*
X4170063Y-10081436D01*
X4170063Y-10081436D02*
X4160539Y-10062389D01*
X4160539Y-10062389D02*
X4160539Y-10005246D01*
X4160539Y-10005246D02*
X4170063Y-9986198D01*
X4170063Y-9986198D02*
X4179587Y-9976674D01*
X4179587Y-9976674D02*
X4198634Y-9967150D01*
X4198634Y-9967150D02*
X4227206Y-9967150D01*
X4227206Y-9967150D02*
X4246253Y-9976674D01*
X4246253Y-9976674D02*
X4255777Y-9986198D01*
X4255777Y-9986198D02*
X4265301Y-10005246D01*
X4265301Y-10005246D02*
X4265301Y-10062389D01*
X4265301Y-10062389D02*
X4255777Y-10081436D01*
X4255777Y-10081436D02*
X4246253Y-10090960D01*
X4246253Y-10090960D02*
X4227206Y-10100484D01*
X4227206Y-10100484D02*
X4198634Y-10100484D01*
X4379587Y-10100484D02*
X4360539Y-10090960D01*
X4360539Y-10090960D02*
X4351015Y-10071912D01*
X4351015Y-10071912D02*
X4351015Y-9900484D01*
X4531968Y-10090960D02*
X4512920Y-10100484D01*
X4512920Y-10100484D02*
X4474825Y-10100484D01*
X4474825Y-10100484D02*
X4455777Y-10090960D01*
X4455777Y-10090960D02*
X4446253Y-10071912D01*
X4446253Y-10071912D02*
X4446253Y-9995722D01*
X4446253Y-9995722D02*
X4455777Y-9976674D01*
X4455777Y-9976674D02*
X4474825Y-9967150D01*
X4474825Y-9967150D02*
X4512920Y-9967150D01*
X4512920Y-9967150D02*
X4531968Y-9976674D01*
X4531968Y-9976674D02*
X4541492Y-9995722D01*
X4541492Y-9995722D02*
X4541492Y-10014770D01*
X4541492Y-10014770D02*
X4446253Y-10033817D01*
X4617682Y-10090960D02*
X4636730Y-10100484D01*
X4636730Y-10100484D02*
X4674825Y-10100484D01*
X4674825Y-10100484D02*
X4693873Y-10090960D01*
X4693873Y-10090960D02*
X4703396Y-10071912D01*
X4703396Y-10071912D02*
X4703396Y-10062389D01*
X4703396Y-10062389D02*
X4693873Y-10043341D01*
X4693873Y-10043341D02*
X4674825Y-10033817D01*
X4674825Y-10033817D02*
X4646253Y-10033817D01*
X4646253Y-10033817D02*
X4627206Y-10024293D01*
X4627206Y-10024293D02*
X4617682Y-10005246D01*
X4617682Y-10005246D02*
X4617682Y-9995722D01*
X4617682Y-9995722D02*
X4627206Y-9976674D01*
X4627206Y-9976674D02*
X4646253Y-9967150D01*
X4646253Y-9967150D02*
X4674825Y-9967150D01*
X4674825Y-9967150D02*
X4693873Y-9976674D01*
X4770063Y-10176674D02*
X4779587Y-10167150D01*
X4779587Y-10167150D02*
X4798634Y-10138579D01*
X4798634Y-10138579D02*
X4808158Y-10119531D01*
X4808158Y-10119531D02*
X4817682Y-10090960D01*
X4817682Y-10090960D02*
X4827206Y-10043341D01*
X4827206Y-10043341D02*
X4827206Y-10005246D01*
X4827206Y-10005246D02*
X4817682Y-9957627D01*
X4817682Y-9957627D02*
X4808158Y-9929055D01*
X4808158Y-9929055D02*
X4798634Y-9910008D01*
X4798634Y-9910008D02*
X4779587Y-9881436D01*
X4779587Y-9881436D02*
X4770063Y-9871912D01*
X5131968Y-10176674D02*
X5122444Y-10167150D01*
X5122444Y-10167150D02*
X5103396Y-10138579D01*
X5103396Y-10138579D02*
X5093873Y-10119531D01*
X5093873Y-10119531D02*
X5084349Y-10090960D01*
X5084349Y-10090960D02*
X5074825Y-10043341D01*
X5074825Y-10043341D02*
X5074825Y-10005246D01*
X5074825Y-10005246D02*
X5084349Y-9957627D01*
X5084349Y-9957627D02*
X5093873Y-9929055D01*
X5093873Y-9929055D02*
X5103396Y-9910008D01*
X5103396Y-9910008D02*
X5122444Y-9881436D01*
X5122444Y-9881436D02*
X5131968Y-9871912D01*
X5208158Y-9967150D02*
X5208158Y-10100484D01*
X5208158Y-9986198D02*
X5217682Y-9976674D01*
X5217682Y-9976674D02*
X5236730Y-9967150D01*
X5236730Y-9967150D02*
X5265301Y-9967150D01*
X5265301Y-9967150D02*
X5284349Y-9976674D01*
X5284349Y-9976674D02*
X5293873Y-9995722D01*
X5293873Y-9995722D02*
X5293873Y-10100484D01*
X5417682Y-10100484D02*
X5398634Y-10090960D01*
X5398634Y-10090960D02*
X5389111Y-10081436D01*
X5389111Y-10081436D02*
X5379587Y-10062389D01*
X5379587Y-10062389D02*
X5379587Y-10005246D01*
X5379587Y-10005246D02*
X5389111Y-9986198D01*
X5389111Y-9986198D02*
X5398634Y-9976674D01*
X5398634Y-9976674D02*
X5417682Y-9967150D01*
X5417682Y-9967150D02*
X5446254Y-9967150D01*
X5446254Y-9967150D02*
X5465301Y-9976674D01*
X5465301Y-9976674D02*
X5474825Y-9986198D01*
X5474825Y-9986198D02*
X5484349Y-10005246D01*
X5484349Y-10005246D02*
X5484349Y-10062389D01*
X5484349Y-10062389D02*
X5474825Y-10081436D01*
X5474825Y-10081436D02*
X5465301Y-10090960D01*
X5465301Y-10090960D02*
X5446254Y-10100484D01*
X5446254Y-10100484D02*
X5417682Y-10100484D01*
X5541492Y-9967150D02*
X5617682Y-9967150D01*
X5570063Y-9900484D02*
X5570063Y-10071912D01*
X5570063Y-10071912D02*
X5579587Y-10090960D01*
X5579587Y-10090960D02*
X5598634Y-10100484D01*
X5598634Y-10100484D02*
X5617682Y-10100484D01*
X5836730Y-9967150D02*
X5836730Y-10167150D01*
X5836730Y-9976674D02*
X5855777Y-9967150D01*
X5855777Y-9967150D02*
X5893873Y-9967150D01*
X5893873Y-9967150D02*
X5912920Y-9976674D01*
X5912920Y-9976674D02*
X5922444Y-9986198D01*
X5922444Y-9986198D02*
X5931968Y-10005246D01*
X5931968Y-10005246D02*
X5931968Y-10062389D01*
X5931968Y-10062389D02*
X5922444Y-10081436D01*
X5922444Y-10081436D02*
X5912920Y-10090960D01*
X5912920Y-10090960D02*
X5893873Y-10100484D01*
X5893873Y-10100484D02*
X5855777Y-10100484D01*
X5855777Y-10100484D02*
X5836730Y-10090960D01*
X6046253Y-10100484D02*
X6027206Y-10090960D01*
X6027206Y-10090960D02*
X6017682Y-10071912D01*
X6017682Y-10071912D02*
X6017682Y-9900484D01*
X6208158Y-10100484D02*
X6208158Y-9995722D01*
X6208158Y-9995722D02*
X6198634Y-9976674D01*
X6198634Y-9976674D02*
X6179587Y-9967150D01*
X6179587Y-9967150D02*
X6141492Y-9967150D01*
X6141492Y-9967150D02*
X6122444Y-9976674D01*
X6208158Y-10090960D02*
X6189111Y-10100484D01*
X6189111Y-10100484D02*
X6141492Y-10100484D01*
X6141492Y-10100484D02*
X6122444Y-10090960D01*
X6122444Y-10090960D02*
X6112920Y-10071912D01*
X6112920Y-10071912D02*
X6112920Y-10052865D01*
X6112920Y-10052865D02*
X6122444Y-10033817D01*
X6122444Y-10033817D02*
X6141492Y-10024293D01*
X6141492Y-10024293D02*
X6189111Y-10024293D01*
X6189111Y-10024293D02*
X6208158Y-10014770D01*
X6274825Y-9967150D02*
X6351015Y-9967150D01*
X6303396Y-9900484D02*
X6303396Y-10071912D01*
X6303396Y-10071912D02*
X6312920Y-10090960D01*
X6312920Y-10090960D02*
X6331968Y-10100484D01*
X6331968Y-10100484D02*
X6351015Y-10100484D01*
X6493873Y-10090960D02*
X6474825Y-10100484D01*
X6474825Y-10100484D02*
X6436730Y-10100484D01*
X6436730Y-10100484D02*
X6417682Y-10090960D01*
X6417682Y-10090960D02*
X6408158Y-10071912D01*
X6408158Y-10071912D02*
X6408158Y-9995722D01*
X6408158Y-9995722D02*
X6417682Y-9976674D01*
X6417682Y-9976674D02*
X6436730Y-9967150D01*
X6436730Y-9967150D02*
X6474825Y-9967150D01*
X6474825Y-9967150D02*
X6493873Y-9976674D01*
X6493873Y-9976674D02*
X6503396Y-9995722D01*
X6503396Y-9995722D02*
X6503396Y-10014770D01*
X6503396Y-10014770D02*
X6408158Y-10033817D01*
X6674825Y-10100484D02*
X6674825Y-9900484D01*
X6674825Y-10090960D02*
X6655777Y-10100484D01*
X6655777Y-10100484D02*
X6617682Y-10100484D01*
X6617682Y-10100484D02*
X6598634Y-10090960D01*
X6598634Y-10090960D02*
X6589111Y-10081436D01*
X6589111Y-10081436D02*
X6579587Y-10062389D01*
X6579587Y-10062389D02*
X6579587Y-10005246D01*
X6579587Y-10005246D02*
X6589111Y-9986198D01*
X6589111Y-9986198D02*
X6598634Y-9976674D01*
X6598634Y-9976674D02*
X6617682Y-9967150D01*
X6617682Y-9967150D02*
X6655777Y-9967150D01*
X6655777Y-9967150D02*
X6674825Y-9976674D01*
X6751015Y-10176674D02*
X6760539Y-10167150D01*
X6760539Y-10167150D02*
X6779587Y-10138579D01*
X6779587Y-10138579D02*
X6789111Y-10119531D01*
X6789111Y-10119531D02*
X6798634Y-10090960D01*
X6798634Y-10090960D02*
X6808158Y-10043341D01*
X6808158Y-10043341D02*
X6808158Y-10005246D01*
X6808158Y-10005246D02*
X6798634Y-9957627D01*
X6798634Y-9957627D02*
X6789111Y-9929055D01*
X6789111Y-9929055D02*
X6779587Y-9910008D01*
X6779587Y-9910008D02*
X6760539Y-9881436D01*
X6760539Y-9881436D02*
X6751015Y-9871912D01*
X-205000Y-10173000D02*
X-5000Y-10373000D01*
X-5000Y-10173000D02*
X-205000Y-10373000D01*
X-105000Y-10373000D02*
X-5000Y-10273000D01*
X-105000Y-10173000D01*
X-205000Y-10273000D01*
X-105000Y-10373000D01*
X236729Y-10164484D02*
X360539Y-10164484D01*
X360539Y-10164484D02*
X293872Y-10240674D01*
X293872Y-10240674D02*
X322444Y-10240674D01*
X322444Y-10240674D02*
X341491Y-10250198D01*
X341491Y-10250198D02*
X351015Y-10259722D01*
X351015Y-10259722D02*
X360539Y-10278770D01*
X360539Y-10278770D02*
X360539Y-10326389D01*
X360539Y-10326389D02*
X351015Y-10345436D01*
X351015Y-10345436D02*
X341491Y-10354960D01*
X341491Y-10354960D02*
X322444Y-10364484D01*
X322444Y-10364484D02*
X265301Y-10364484D01*
X265301Y-10364484D02*
X246253Y-10354960D01*
X246253Y-10354960D02*
X236729Y-10345436D01*
X446253Y-10345436D02*
X455777Y-10354960D01*
X455777Y-10354960D02*
X446253Y-10364484D01*
X446253Y-10364484D02*
X436729Y-10354960D01*
X436729Y-10354960D02*
X446253Y-10345436D01*
X446253Y-10345436D02*
X446253Y-10364484D01*
X531967Y-10183531D02*
X541491Y-10174008D01*
X541491Y-10174008D02*
X560539Y-10164484D01*
X560539Y-10164484D02*
X608158Y-10164484D01*
X608158Y-10164484D02*
X627205Y-10174008D01*
X627205Y-10174008D02*
X636729Y-10183531D01*
X636729Y-10183531D02*
X646253Y-10202579D01*
X646253Y-10202579D02*
X646253Y-10221627D01*
X646253Y-10221627D02*
X636729Y-10250198D01*
X636729Y-10250198D02*
X522443Y-10364484D01*
X522443Y-10364484D02*
X646253Y-10364484D01*
X770062Y-10164484D02*
X789110Y-10164484D01*
X789110Y-10164484D02*
X808158Y-10174008D01*
X808158Y-10174008D02*
X817682Y-10183531D01*
X817682Y-10183531D02*
X827205Y-10202579D01*
X827205Y-10202579D02*
X836729Y-10240674D01*
X836729Y-10240674D02*
X836729Y-10288293D01*
X836729Y-10288293D02*
X827205Y-10326389D01*
X827205Y-10326389D02*
X817682Y-10345436D01*
X817682Y-10345436D02*
X808158Y-10354960D01*
X808158Y-10354960D02*
X789110Y-10364484D01*
X789110Y-10364484D02*
X770062Y-10364484D01*
X770062Y-10364484D02*
X751015Y-10354960D01*
X751015Y-10354960D02*
X741491Y-10345436D01*
X741491Y-10345436D02*
X731967Y-10326389D01*
X731967Y-10326389D02*
X722443Y-10288293D01*
X722443Y-10288293D02*
X722443Y-10240674D01*
X722443Y-10240674D02*
X731967Y-10202579D01*
X731967Y-10202579D02*
X741491Y-10183531D01*
X741491Y-10183531D02*
X751015Y-10174008D01*
X751015Y-10174008D02*
X770062Y-10164484D01*
X960539Y-10164484D02*
X979586Y-10164484D01*
X979586Y-10164484D02*
X998634Y-10174008D01*
X998634Y-10174008D02*
X1008158Y-10183531D01*
X1008158Y-10183531D02*
X1017682Y-10202579D01*
X1017682Y-10202579D02*
X1027205Y-10240674D01*
X1027205Y-10240674D02*
X1027205Y-10288293D01*
X1027205Y-10288293D02*
X1017682Y-10326389D01*
X1017682Y-10326389D02*
X1008158Y-10345436D01*
X1008158Y-10345436D02*
X998634Y-10354960D01*
X998634Y-10354960D02*
X979586Y-10364484D01*
X979586Y-10364484D02*
X960539Y-10364484D01*
X960539Y-10364484D02*
X941491Y-10354960D01*
X941491Y-10354960D02*
X931967Y-10345436D01*
X931967Y-10345436D02*
X922443Y-10326389D01*
X922443Y-10326389D02*
X912920Y-10288293D01*
X912920Y-10288293D02*
X912920Y-10240674D01*
X912920Y-10240674D02*
X922443Y-10202579D01*
X922443Y-10202579D02*
X931967Y-10183531D01*
X931967Y-10183531D02*
X941491Y-10174008D01*
X941491Y-10174008D02*
X960539Y-10164484D01*
X1112920Y-10364484D02*
X1112920Y-10231150D01*
X1112920Y-10250198D02*
X1122444Y-10240674D01*
X1122444Y-10240674D02*
X1141491Y-10231150D01*
X1141491Y-10231150D02*
X1170063Y-10231150D01*
X1170063Y-10231150D02*
X1189110Y-10240674D01*
X1189110Y-10240674D02*
X1198634Y-10259722D01*
X1198634Y-10259722D02*
X1198634Y-10364484D01*
X1198634Y-10259722D02*
X1208158Y-10240674D01*
X1208158Y-10240674D02*
X1227205Y-10231150D01*
X1227205Y-10231150D02*
X1255777Y-10231150D01*
X1255777Y-10231150D02*
X1274825Y-10240674D01*
X1274825Y-10240674D02*
X1284348Y-10259722D01*
X1284348Y-10259722D02*
X1284348Y-10364484D01*
X1379586Y-10364484D02*
X1379586Y-10231150D01*
X1379586Y-10250198D02*
X1389110Y-10240674D01*
X1389110Y-10240674D02*
X1408158Y-10231150D01*
X1408158Y-10231150D02*
X1436729Y-10231150D01*
X1436729Y-10231150D02*
X1455777Y-10240674D01*
X1455777Y-10240674D02*
X1465301Y-10259722D01*
X1465301Y-10259722D02*
X1465301Y-10364484D01*
X1465301Y-10259722D02*
X1474824Y-10240674D01*
X1474824Y-10240674D02*
X1493872Y-10231150D01*
X1493872Y-10231150D02*
X1522443Y-10231150D01*
X1522443Y-10231150D02*
X1541491Y-10240674D01*
X1541491Y-10240674D02*
X1551015Y-10259722D01*
X1551015Y-10259722D02*
X1551015Y-10364484D01*
X1941491Y-10154960D02*
X1770063Y-10412103D01*
X2198634Y-10164484D02*
X2217682Y-10164484D01*
X2217682Y-10164484D02*
X2236729Y-10174008D01*
X2236729Y-10174008D02*
X2246253Y-10183531D01*
X2246253Y-10183531D02*
X2255777Y-10202579D01*
X2255777Y-10202579D02*
X2265301Y-10240674D01*
X2265301Y-10240674D02*
X2265301Y-10288293D01*
X2265301Y-10288293D02*
X2255777Y-10326389D01*
X2255777Y-10326389D02*
X2246253Y-10345436D01*
X2246253Y-10345436D02*
X2236729Y-10354960D01*
X2236729Y-10354960D02*
X2217682Y-10364484D01*
X2217682Y-10364484D02*
X2198634Y-10364484D01*
X2198634Y-10364484D02*
X2179587Y-10354960D01*
X2179587Y-10354960D02*
X2170063Y-10345436D01*
X2170063Y-10345436D02*
X2160539Y-10326389D01*
X2160539Y-10326389D02*
X2151015Y-10288293D01*
X2151015Y-10288293D02*
X2151015Y-10240674D01*
X2151015Y-10240674D02*
X2160539Y-10202579D01*
X2160539Y-10202579D02*
X2170063Y-10183531D01*
X2170063Y-10183531D02*
X2179587Y-10174008D01*
X2179587Y-10174008D02*
X2198634Y-10164484D01*
X2351015Y-10345436D02*
X2360539Y-10354960D01*
X2360539Y-10354960D02*
X2351015Y-10364484D01*
X2351015Y-10364484D02*
X2341491Y-10354960D01*
X2341491Y-10354960D02*
X2351015Y-10345436D01*
X2351015Y-10345436D02*
X2351015Y-10364484D01*
X2551015Y-10364484D02*
X2436729Y-10364484D01*
X2493872Y-10364484D02*
X2493872Y-10164484D01*
X2493872Y-10164484D02*
X2474825Y-10193055D01*
X2474825Y-10193055D02*
X2455777Y-10212103D01*
X2455777Y-10212103D02*
X2436729Y-10221627D01*
X2627206Y-10183531D02*
X2636729Y-10174008D01*
X2636729Y-10174008D02*
X2655777Y-10164484D01*
X2655777Y-10164484D02*
X2703396Y-10164484D01*
X2703396Y-10164484D02*
X2722444Y-10174008D01*
X2722444Y-10174008D02*
X2731968Y-10183531D01*
X2731968Y-10183531D02*
X2741491Y-10202579D01*
X2741491Y-10202579D02*
X2741491Y-10221627D01*
X2741491Y-10221627D02*
X2731968Y-10250198D01*
X2731968Y-10250198D02*
X2617682Y-10364484D01*
X2617682Y-10364484D02*
X2741491Y-10364484D01*
X2912920Y-10164484D02*
X2874825Y-10164484D01*
X2874825Y-10164484D02*
X2855777Y-10174008D01*
X2855777Y-10174008D02*
X2846253Y-10183531D01*
X2846253Y-10183531D02*
X2827206Y-10212103D01*
X2827206Y-10212103D02*
X2817682Y-10250198D01*
X2817682Y-10250198D02*
X2817682Y-10326389D01*
X2817682Y-10326389D02*
X2827206Y-10345436D01*
X2827206Y-10345436D02*
X2836729Y-10354960D01*
X2836729Y-10354960D02*
X2855777Y-10364484D01*
X2855777Y-10364484D02*
X2893872Y-10364484D01*
X2893872Y-10364484D02*
X2912920Y-10354960D01*
X2912920Y-10354960D02*
X2922444Y-10345436D01*
X2922444Y-10345436D02*
X2931967Y-10326389D01*
X2931967Y-10326389D02*
X2931967Y-10278770D01*
X2931967Y-10278770D02*
X2922444Y-10259722D01*
X2922444Y-10259722D02*
X2912920Y-10250198D01*
X2912920Y-10250198D02*
X2893872Y-10240674D01*
X2893872Y-10240674D02*
X2855777Y-10240674D01*
X2855777Y-10240674D02*
X2836729Y-10250198D01*
X2836729Y-10250198D02*
X2827206Y-10259722D01*
X2827206Y-10259722D02*
X2817682Y-10278770D01*
X3055777Y-10164484D02*
X3074825Y-10164484D01*
X3074825Y-10164484D02*
X3093872Y-10174008D01*
X3093872Y-10174008D02*
X3103396Y-10183531D01*
X3103396Y-10183531D02*
X3112920Y-10202579D01*
X3112920Y-10202579D02*
X3122444Y-10240674D01*
X3122444Y-10240674D02*
X3122444Y-10288293D01*
X3122444Y-10288293D02*
X3112920Y-10326389D01*
X3112920Y-10326389D02*
X3103396Y-10345436D01*
X3103396Y-10345436D02*
X3093872Y-10354960D01*
X3093872Y-10354960D02*
X3074825Y-10364484D01*
X3074825Y-10364484D02*
X3055777Y-10364484D01*
X3055777Y-10364484D02*
X3036729Y-10354960D01*
X3036729Y-10354960D02*
X3027206Y-10345436D01*
X3027206Y-10345436D02*
X3017682Y-10326389D01*
X3017682Y-10326389D02*
X3008158Y-10288293D01*
X3008158Y-10288293D02*
X3008158Y-10240674D01*
X3008158Y-10240674D02*
X3017682Y-10202579D01*
X3017682Y-10202579D02*
X3027206Y-10183531D01*
X3027206Y-10183531D02*
X3036729Y-10174008D01*
X3036729Y-10174008D02*
X3055777Y-10164484D01*
X3198634Y-10164484D02*
X3198634Y-10202579D01*
X3274825Y-10164484D02*
X3274825Y-10202579D01*
X3570063Y-10440674D02*
X3560539Y-10431150D01*
X3560539Y-10431150D02*
X3541491Y-10402579D01*
X3541491Y-10402579D02*
X3531968Y-10383531D01*
X3531968Y-10383531D02*
X3522444Y-10354960D01*
X3522444Y-10354960D02*
X3512920Y-10307341D01*
X3512920Y-10307341D02*
X3512920Y-10269246D01*
X3512920Y-10269246D02*
X3522444Y-10221627D01*
X3522444Y-10221627D02*
X3531968Y-10193055D01*
X3531968Y-10193055D02*
X3541491Y-10174008D01*
X3541491Y-10174008D02*
X3560539Y-10145436D01*
X3560539Y-10145436D02*
X3570063Y-10135912D01*
X3731968Y-10231150D02*
X3731968Y-10364484D01*
X3684348Y-10154960D02*
X3636729Y-10297817D01*
X3636729Y-10297817D02*
X3760539Y-10297817D01*
X3989110Y-10364484D02*
X3989110Y-10164484D01*
X4074825Y-10364484D02*
X4074825Y-10259722D01*
X4074825Y-10259722D02*
X4065301Y-10240674D01*
X4065301Y-10240674D02*
X4046253Y-10231150D01*
X4046253Y-10231150D02*
X4017682Y-10231150D01*
X4017682Y-10231150D02*
X3998634Y-10240674D01*
X3998634Y-10240674D02*
X3989110Y-10250198D01*
X4198634Y-10364484D02*
X4179587Y-10354960D01*
X4179587Y-10354960D02*
X4170063Y-10345436D01*
X4170063Y-10345436D02*
X4160539Y-10326389D01*
X4160539Y-10326389D02*
X4160539Y-10269246D01*
X4160539Y-10269246D02*
X4170063Y-10250198D01*
X4170063Y-10250198D02*
X4179587Y-10240674D01*
X4179587Y-10240674D02*
X4198634Y-10231150D01*
X4198634Y-10231150D02*
X4227206Y-10231150D01*
X4227206Y-10231150D02*
X4246253Y-10240674D01*
X4246253Y-10240674D02*
X4255777Y-10250198D01*
X4255777Y-10250198D02*
X4265301Y-10269246D01*
X4265301Y-10269246D02*
X4265301Y-10326389D01*
X4265301Y-10326389D02*
X4255777Y-10345436D01*
X4255777Y-10345436D02*
X4246253Y-10354960D01*
X4246253Y-10354960D02*
X4227206Y-10364484D01*
X4227206Y-10364484D02*
X4198634Y-10364484D01*
X4379587Y-10364484D02*
X4360539Y-10354960D01*
X4360539Y-10354960D02*
X4351015Y-10335912D01*
X4351015Y-10335912D02*
X4351015Y-10164484D01*
X4531968Y-10354960D02*
X4512920Y-10364484D01*
X4512920Y-10364484D02*
X4474825Y-10364484D01*
X4474825Y-10364484D02*
X4455777Y-10354960D01*
X4455777Y-10354960D02*
X4446253Y-10335912D01*
X4446253Y-10335912D02*
X4446253Y-10259722D01*
X4446253Y-10259722D02*
X4455777Y-10240674D01*
X4455777Y-10240674D02*
X4474825Y-10231150D01*
X4474825Y-10231150D02*
X4512920Y-10231150D01*
X4512920Y-10231150D02*
X4531968Y-10240674D01*
X4531968Y-10240674D02*
X4541492Y-10259722D01*
X4541492Y-10259722D02*
X4541492Y-10278770D01*
X4541492Y-10278770D02*
X4446253Y-10297817D01*
X4617682Y-10354960D02*
X4636730Y-10364484D01*
X4636730Y-10364484D02*
X4674825Y-10364484D01*
X4674825Y-10364484D02*
X4693873Y-10354960D01*
X4693873Y-10354960D02*
X4703396Y-10335912D01*
X4703396Y-10335912D02*
X4703396Y-10326389D01*
X4703396Y-10326389D02*
X4693873Y-10307341D01*
X4693873Y-10307341D02*
X4674825Y-10297817D01*
X4674825Y-10297817D02*
X4646253Y-10297817D01*
X4646253Y-10297817D02*
X4627206Y-10288293D01*
X4627206Y-10288293D02*
X4617682Y-10269246D01*
X4617682Y-10269246D02*
X4617682Y-10259722D01*
X4617682Y-10259722D02*
X4627206Y-10240674D01*
X4627206Y-10240674D02*
X4646253Y-10231150D01*
X4646253Y-10231150D02*
X4674825Y-10231150D01*
X4674825Y-10231150D02*
X4693873Y-10240674D01*
X4770063Y-10440674D02*
X4779587Y-10431150D01*
X4779587Y-10431150D02*
X4798634Y-10402579D01*
X4798634Y-10402579D02*
X4808158Y-10383531D01*
X4808158Y-10383531D02*
X4817682Y-10354960D01*
X4817682Y-10354960D02*
X4827206Y-10307341D01*
X4827206Y-10307341D02*
X4827206Y-10269246D01*
X4827206Y-10269246D02*
X4817682Y-10221627D01*
X4817682Y-10221627D02*
X4808158Y-10193055D01*
X4808158Y-10193055D02*
X4798634Y-10174008D01*
X4798634Y-10174008D02*
X4779587Y-10145436D01*
X4779587Y-10145436D02*
X4770063Y-10135912D01*
X5131968Y-10440674D02*
X5122444Y-10431150D01*
X5122444Y-10431150D02*
X5103396Y-10402579D01*
X5103396Y-10402579D02*
X5093873Y-10383531D01*
X5093873Y-10383531D02*
X5084349Y-10354960D01*
X5084349Y-10354960D02*
X5074825Y-10307341D01*
X5074825Y-10307341D02*
X5074825Y-10269246D01*
X5074825Y-10269246D02*
X5084349Y-10221627D01*
X5084349Y-10221627D02*
X5093873Y-10193055D01*
X5093873Y-10193055D02*
X5103396Y-10174008D01*
X5103396Y-10174008D02*
X5122444Y-10145436D01*
X5122444Y-10145436D02*
X5131968Y-10135912D01*
X5208158Y-10231150D02*
X5208158Y-10364484D01*
X5208158Y-10250198D02*
X5217682Y-10240674D01*
X5217682Y-10240674D02*
X5236730Y-10231150D01*
X5236730Y-10231150D02*
X5265301Y-10231150D01*
X5265301Y-10231150D02*
X5284349Y-10240674D01*
X5284349Y-10240674D02*
X5293873Y-10259722D01*
X5293873Y-10259722D02*
X5293873Y-10364484D01*
X5417682Y-10364484D02*
X5398634Y-10354960D01*
X5398634Y-10354960D02*
X5389111Y-10345436D01*
X5389111Y-10345436D02*
X5379587Y-10326389D01*
X5379587Y-10326389D02*
X5379587Y-10269246D01*
X5379587Y-10269246D02*
X5389111Y-10250198D01*
X5389111Y-10250198D02*
X5398634Y-10240674D01*
X5398634Y-10240674D02*
X5417682Y-10231150D01*
X5417682Y-10231150D02*
X5446254Y-10231150D01*
X5446254Y-10231150D02*
X5465301Y-10240674D01*
X5465301Y-10240674D02*
X5474825Y-10250198D01*
X5474825Y-10250198D02*
X5484349Y-10269246D01*
X5484349Y-10269246D02*
X5484349Y-10326389D01*
X5484349Y-10326389D02*
X5474825Y-10345436D01*
X5474825Y-10345436D02*
X5465301Y-10354960D01*
X5465301Y-10354960D02*
X5446254Y-10364484D01*
X5446254Y-10364484D02*
X5417682Y-10364484D01*
X5541492Y-10231150D02*
X5617682Y-10231150D01*
X5570063Y-10164484D02*
X5570063Y-10335912D01*
X5570063Y-10335912D02*
X5579587Y-10354960D01*
X5579587Y-10354960D02*
X5598634Y-10364484D01*
X5598634Y-10364484D02*
X5617682Y-10364484D01*
X5836730Y-10231150D02*
X5836730Y-10431150D01*
X5836730Y-10240674D02*
X5855777Y-10231150D01*
X5855777Y-10231150D02*
X5893873Y-10231150D01*
X5893873Y-10231150D02*
X5912920Y-10240674D01*
X5912920Y-10240674D02*
X5922444Y-10250198D01*
X5922444Y-10250198D02*
X5931968Y-10269246D01*
X5931968Y-10269246D02*
X5931968Y-10326389D01*
X5931968Y-10326389D02*
X5922444Y-10345436D01*
X5922444Y-10345436D02*
X5912920Y-10354960D01*
X5912920Y-10354960D02*
X5893873Y-10364484D01*
X5893873Y-10364484D02*
X5855777Y-10364484D01*
X5855777Y-10364484D02*
X5836730Y-10354960D01*
X6046253Y-10364484D02*
X6027206Y-10354960D01*
X6027206Y-10354960D02*
X6017682Y-10335912D01*
X6017682Y-10335912D02*
X6017682Y-10164484D01*
X6208158Y-10364484D02*
X6208158Y-10259722D01*
X6208158Y-10259722D02*
X6198634Y-10240674D01*
X6198634Y-10240674D02*
X6179587Y-10231150D01*
X6179587Y-10231150D02*
X6141492Y-10231150D01*
X6141492Y-10231150D02*
X6122444Y-10240674D01*
X6208158Y-10354960D02*
X6189111Y-10364484D01*
X6189111Y-10364484D02*
X6141492Y-10364484D01*
X6141492Y-10364484D02*
X6122444Y-10354960D01*
X6122444Y-10354960D02*
X6112920Y-10335912D01*
X6112920Y-10335912D02*
X6112920Y-10316865D01*
X6112920Y-10316865D02*
X6122444Y-10297817D01*
X6122444Y-10297817D02*
X6141492Y-10288293D01*
X6141492Y-10288293D02*
X6189111Y-10288293D01*
X6189111Y-10288293D02*
X6208158Y-10278770D01*
X6274825Y-10231150D02*
X6351015Y-10231150D01*
X6303396Y-10164484D02*
X6303396Y-10335912D01*
X6303396Y-10335912D02*
X6312920Y-10354960D01*
X6312920Y-10354960D02*
X6331968Y-10364484D01*
X6331968Y-10364484D02*
X6351015Y-10364484D01*
X6493873Y-10354960D02*
X6474825Y-10364484D01*
X6474825Y-10364484D02*
X6436730Y-10364484D01*
X6436730Y-10364484D02*
X6417682Y-10354960D01*
X6417682Y-10354960D02*
X6408158Y-10335912D01*
X6408158Y-10335912D02*
X6408158Y-10259722D01*
X6408158Y-10259722D02*
X6417682Y-10240674D01*
X6417682Y-10240674D02*
X6436730Y-10231150D01*
X6436730Y-10231150D02*
X6474825Y-10231150D01*
X6474825Y-10231150D02*
X6493873Y-10240674D01*
X6493873Y-10240674D02*
X6503396Y-10259722D01*
X6503396Y-10259722D02*
X6503396Y-10278770D01*
X6503396Y-10278770D02*
X6408158Y-10297817D01*
X6674825Y-10364484D02*
X6674825Y-10164484D01*
X6674825Y-10354960D02*
X6655777Y-10364484D01*
X6655777Y-10364484D02*
X6617682Y-10364484D01*
X6617682Y-10364484D02*
X6598634Y-10354960D01*
X6598634Y-10354960D02*
X6589111Y-10345436D01*
X6589111Y-10345436D02*
X6579587Y-10326389D01*
X6579587Y-10326389D02*
X6579587Y-10269246D01*
X6579587Y-10269246D02*
X6589111Y-10250198D01*
X6589111Y-10250198D02*
X6598634Y-10240674D01*
X6598634Y-10240674D02*
X6617682Y-10231150D01*
X6617682Y-10231150D02*
X6655777Y-10231150D01*
X6655777Y-10231150D02*
X6674825Y-10240674D01*
X6751015Y-10440674D02*
X6760539Y-10431150D01*
X6760539Y-10431150D02*
X6779587Y-10402579D01*
X6779587Y-10402579D02*
X6789111Y-10383531D01*
X6789111Y-10383531D02*
X6798634Y-10354960D01*
X6798634Y-10354960D02*
X6808158Y-10307341D01*
X6808158Y-10307341D02*
X6808158Y-10269246D01*
X6808158Y-10269246D02*
X6798634Y-10221627D01*
X6798634Y-10221627D02*
X6789111Y-10193055D01*
X6789111Y-10193055D02*
X6779587Y-10174008D01*
X6779587Y-10174008D02*
X6760539Y-10145436D01*
X6760539Y-10145436D02*
X6751015Y-10135912D01*
M02*
